G04 #@! TF.GenerationSoftware,KiCad,Pcbnew,(5.1.8)-1*
G04 #@! TF.CreationDate,2021-04-15T18:07:30+02:00*
G04 #@! TF.ProjectId,ZX Dandanator Mini 2.1b,5a582044-616e-4646-916e-61746f72204d,rev?*
G04 #@! TF.SameCoordinates,Original*
G04 #@! TF.FileFunction,Copper,L2,Bot*
G04 #@! TF.FilePolarity,Positive*
%FSLAX46Y46*%
G04 Gerber Fmt 4.6, Leading zero omitted, Abs format (unit mm)*
G04 Created by KiCad (PCBNEW (5.1.8)-1) date 2021-04-15 18:07:30*
%MOMM*%
%LPD*%
G01*
G04 APERTURE LIST*
G04 #@! TA.AperFunction,ComponentPad*
%ADD10O,1.700000X1.700000*%
G04 #@! TD*
G04 #@! TA.AperFunction,ComponentPad*
%ADD11R,1.700000X1.700000*%
G04 #@! TD*
G04 #@! TA.AperFunction,ComponentPad*
%ADD12O,1.300000X1.100000*%
G04 #@! TD*
G04 #@! TA.AperFunction,ComponentPad*
%ADD13O,2.000000X1.200000*%
G04 #@! TD*
G04 #@! TA.AperFunction,ConnectorPad*
%ADD14R,1.778000X7.620000*%
G04 #@! TD*
G04 #@! TA.AperFunction,ComponentPad*
%ADD15C,1.998980*%
G04 #@! TD*
G04 #@! TA.AperFunction,ComponentPad*
%ADD16C,5.001260*%
G04 #@! TD*
G04 #@! TA.AperFunction,ComponentPad*
%ADD17O,1.998980X1.501140*%
G04 #@! TD*
G04 #@! TA.AperFunction,ConnectorPad*
%ADD18O,1.778000X5.080000*%
G04 #@! TD*
G04 #@! TA.AperFunction,ViaPad*
%ADD19C,0.600000*%
G04 #@! TD*
G04 #@! TA.AperFunction,Conductor*
%ADD20C,0.250000*%
G04 #@! TD*
G04 #@! TA.AperFunction,Conductor*
%ADD21C,0.254000*%
G04 #@! TD*
G04 #@! TA.AperFunction,Conductor*
%ADD22C,0.100000*%
G04 #@! TD*
G04 APERTURE END LIST*
D10*
X152458000Y-83667200D03*
D11*
X152458000Y-86207200D03*
D10*
X114894000Y-119446000D03*
X114894000Y-116906000D03*
D11*
X114894000Y-114366000D03*
D12*
X116067000Y-77364800D03*
X116067000Y-72514800D03*
D13*
X113317000Y-78514800D03*
X113317000Y-71364800D03*
D10*
X148363000Y-99256000D03*
X148363000Y-101796000D03*
X145823000Y-99256000D03*
X145823000Y-101796000D03*
X143283000Y-99256000D03*
D11*
X143283000Y-101796000D03*
D14*
X191056000Y-74041000D03*
X188516000Y-74041000D03*
X185976000Y-74041000D03*
X183436000Y-74041000D03*
X180896000Y-74041000D03*
X178356000Y-74041000D03*
X175816000Y-74041000D03*
X173276000Y-74041000D03*
X170736000Y-74041000D03*
X168196000Y-74041000D03*
X165656000Y-74041000D03*
X163116000Y-74041000D03*
X160576000Y-74041000D03*
X158036000Y-74041000D03*
X155496000Y-74041000D03*
X152956000Y-74041000D03*
X150416000Y-74041000D03*
X147876000Y-74041000D03*
X145336000Y-74041000D03*
X142796000Y-74041000D03*
X140256000Y-74041000D03*
X137716000Y-74041000D03*
X135176000Y-74041000D03*
X130096000Y-74041000D03*
X127556000Y-74041000D03*
X125016000Y-74041000D03*
X122476000Y-74041000D03*
D15*
X186585560Y-86959000D03*
X191086440Y-80456600D03*
X191086440Y-86959000D03*
X186585560Y-80456600D03*
D16*
X118714000Y-83128740D03*
D17*
X117195080Y-99778440D03*
X117195080Y-97007300D03*
X117195080Y-94238700D03*
X117195080Y-91467560D03*
X120232920Y-90083260D03*
X120232920Y-92851860D03*
X120232920Y-101162740D03*
X120232920Y-98394140D03*
X120232920Y-95623000D03*
D16*
X118714000Y-108117260D03*
D18*
X190932000Y-127892000D03*
X188392000Y-127892000D03*
X185852000Y-127892000D03*
X183312000Y-127892000D03*
X180772000Y-127892000D03*
X178232000Y-127892000D03*
X175692000Y-127892000D03*
X173152000Y-127892000D03*
X170612000Y-127892000D03*
X168072000Y-127892000D03*
X165532000Y-127892000D03*
X162992000Y-127892000D03*
X160452000Y-127892000D03*
X157912000Y-127892000D03*
X155372000Y-127892000D03*
X152832000Y-127892000D03*
X150292000Y-127892000D03*
X147752000Y-127892000D03*
X145212000Y-127892000D03*
X142672000Y-127892000D03*
X140132000Y-127892000D03*
X137592000Y-127892000D03*
X135052000Y-127892000D03*
X129972000Y-127892000D03*
X127432000Y-127892000D03*
X124892000Y-127892000D03*
X122352000Y-127892000D03*
D15*
X128605560Y-87126200D03*
X133106440Y-80623800D03*
X133106440Y-87126200D03*
X128605560Y-80623800D03*
D19*
X148687000Y-110250000D03*
X129142000Y-101967000D03*
X166573000Y-83179500D03*
X166584000Y-105933000D03*
X138574000Y-100193000D03*
X139586000Y-85332800D03*
X138657000Y-81195900D03*
X145870000Y-113855000D03*
X158043000Y-114639000D03*
X135093000Y-81496700D03*
X158244000Y-83080500D03*
X158085000Y-119292000D03*
X133072000Y-116626000D03*
X158460000Y-104963000D03*
X130610000Y-117865000D03*
X130669000Y-89751600D03*
X189726000Y-82296700D03*
X188392000Y-81880000D03*
X180656000Y-120429000D03*
X180772000Y-79144100D03*
X174829000Y-80071500D03*
X172221000Y-86113100D03*
X171821000Y-82744500D03*
X169444000Y-110863000D03*
X187969000Y-124545000D03*
X186768000Y-83140000D03*
X183370000Y-123762000D03*
X183513000Y-79686300D03*
X183240000Y-124840000D03*
X183996000Y-78523700D03*
X180011000Y-125027000D03*
X180128000Y-78420400D03*
X178282000Y-124398000D03*
X178333000Y-78819800D03*
X177415000Y-123630000D03*
X176827000Y-79177700D03*
X174157000Y-123318000D03*
X173171000Y-79450700D03*
X171079000Y-124559000D03*
X170889000Y-78941100D03*
X149013000Y-91673700D03*
X146042000Y-89350200D03*
X167746000Y-124448000D03*
X167287000Y-79076700D03*
X158711000Y-117011000D03*
X155784000Y-91256700D03*
X152540000Y-92707300D03*
X151808000Y-93821500D03*
X150839000Y-95066700D03*
X126977000Y-123739000D03*
X161002000Y-122023000D03*
X161506000Y-85675800D03*
X125650000Y-80185800D03*
X165415000Y-124251000D03*
X164894000Y-90934700D03*
X150246000Y-92276500D03*
X145645000Y-88391800D03*
X165020000Y-78529300D03*
X146021000Y-85513400D03*
X148569000Y-124304000D03*
X151073000Y-80365900D03*
X159856000Y-124431000D03*
X159939000Y-78813700D03*
X159821000Y-98413600D03*
X147780000Y-97298100D03*
X140241000Y-86668600D03*
X158556000Y-124765000D03*
X159279000Y-78237400D03*
X157418000Y-116091000D03*
X156230000Y-79368100D03*
X155826000Y-124315000D03*
X152540000Y-124396000D03*
X153404000Y-79685600D03*
X150066000Y-87137000D03*
X150054000Y-124377000D03*
X154734000Y-99872500D03*
X146814000Y-124405000D03*
X152125000Y-96010700D03*
X146054000Y-87657800D03*
X149095000Y-123524000D03*
X153796000Y-94001800D03*
X150478000Y-88433400D03*
X148854000Y-83299000D03*
X146085000Y-91304700D03*
X142552000Y-78823200D03*
X143610000Y-124390000D03*
X151222000Y-99963000D03*
X155361000Y-96968700D03*
X149074000Y-84908500D03*
X150874000Y-122863000D03*
X142055000Y-86618100D03*
X150018000Y-97877000D03*
X138957000Y-123734000D03*
X142910000Y-85992700D03*
X139283000Y-80667000D03*
X150726000Y-97224200D03*
X137424000Y-124367000D03*
X130534000Y-124465000D03*
X132810000Y-119646000D03*
X130724000Y-78429800D03*
X146084000Y-92586500D03*
X148988000Y-95311600D03*
X136357000Y-82464500D03*
X134436000Y-122648000D03*
X128255000Y-121577000D03*
X128349000Y-82191700D03*
X165295000Y-121307000D03*
X166133000Y-89306600D03*
X126550000Y-121074000D03*
X126820000Y-82614900D03*
X165683000Y-100860000D03*
X165409000Y-107027000D03*
X163043000Y-86148100D03*
X161824000Y-116327000D03*
X169438000Y-85713400D03*
X168821000Y-112175000D03*
X163958000Y-85974100D03*
X163650000Y-115872000D03*
X162510000Y-87956200D03*
X162357000Y-108720000D03*
X162362000Y-85664200D03*
X161643000Y-109143000D03*
X179183000Y-118529000D03*
X165847000Y-87226800D03*
X165409000Y-116336000D03*
X127012000Y-84504200D03*
X128443000Y-105876000D03*
X176570000Y-99373600D03*
X175436000Y-89027000D03*
X181945000Y-100930000D03*
X181608000Y-93587800D03*
X177464000Y-85057100D03*
X177047000Y-89161600D03*
X148961000Y-108592000D03*
X182335000Y-91935000D03*
X179179000Y-95091100D03*
X141089000Y-120940000D03*
X141219000Y-111373000D03*
X185261000Y-120491000D03*
X126635000Y-110367000D03*
X122125600Y-98376340D03*
X118724200Y-86285300D03*
X141043000Y-96483900D03*
X139741000Y-99485300D03*
X138433000Y-91444700D03*
X141442000Y-99153400D03*
X147657000Y-107571000D03*
X179560000Y-88115400D03*
X178156000Y-91885300D03*
X136230000Y-98401100D03*
X148625000Y-111051000D03*
X135584000Y-97086700D03*
X148637000Y-111851000D03*
X147714000Y-112859000D03*
X136795000Y-100621000D03*
X134776000Y-97332700D03*
X143965000Y-113873000D03*
X142868000Y-112947000D03*
X135229000Y-100474000D03*
X129024000Y-103322000D03*
X127036000Y-112845000D03*
X141775000Y-110720000D03*
X146892000Y-82664100D03*
D20*
X143283000Y-99256000D02*
X143283000Y-99549800D01*
X143283000Y-99549800D02*
X144541000Y-100808000D01*
X144541000Y-100808000D02*
X144541000Y-102971000D01*
X144541000Y-102971000D02*
X148336000Y-106766000D01*
X148336000Y-106766000D02*
X148336000Y-109899000D01*
X148336000Y-109899000D02*
X148687000Y-110250000D01*
X143283000Y-99256000D02*
X142108000Y-99256000D01*
X127432000Y-127892000D02*
X127432000Y-125027000D01*
X127432000Y-125027000D02*
X127629000Y-124829000D01*
X127629000Y-124829000D02*
X127629000Y-113163000D01*
X127629000Y-113163000D02*
X129649000Y-111143000D01*
X129649000Y-111143000D02*
X129649000Y-102474000D01*
X129649000Y-102474000D02*
X129142000Y-101967000D01*
X127556000Y-74041000D02*
X127556000Y-78176300D01*
X127556000Y-78176300D02*
X127219000Y-78513100D01*
X127219000Y-78513100D02*
X127219000Y-81928000D01*
X127219000Y-81928000D02*
X127668000Y-82376800D01*
X127668000Y-82376800D02*
X127668000Y-86190200D01*
X127668000Y-86190200D02*
X127281000Y-86577400D01*
X127281000Y-86577400D02*
X127281000Y-87675000D01*
X127281000Y-87675000D02*
X129142000Y-89536400D01*
X129142000Y-89536400D02*
X129142000Y-101967000D01*
X139586000Y-85332800D02*
X138657000Y-84403800D01*
X138657000Y-84403800D02*
X138657000Y-81195900D01*
X142108000Y-99256000D02*
X142108000Y-96940300D01*
X142108000Y-96940300D02*
X142118000Y-96929600D01*
X142118000Y-96929600D02*
X142118000Y-93182000D01*
X142118000Y-93182000D02*
X139586000Y-90649600D01*
X139586000Y-90649600D02*
X139586000Y-85332800D01*
X142108000Y-99256000D02*
X142108000Y-99372200D01*
X142108000Y-99372200D02*
X141287000Y-100193000D01*
X141287000Y-100193000D02*
X138574000Y-100193000D01*
X166573000Y-83179500D02*
X166759000Y-83365300D01*
X166759000Y-83365300D02*
X166759000Y-105758000D01*
X166759000Y-105758000D02*
X166584000Y-105933000D01*
X145870000Y-113855000D02*
X147614000Y-113855000D01*
X147614000Y-113855000D02*
X149264000Y-112205000D01*
X149264000Y-112205000D02*
X149264000Y-110755000D01*
X149264000Y-110755000D02*
X148760000Y-110250000D01*
X148760000Y-110250000D02*
X148687000Y-110250000D01*
X158206000Y-104963000D02*
X158460000Y-104963000D01*
X158206000Y-83080500D02*
X158206000Y-104963000D01*
X133072000Y-116626000D02*
X133106000Y-116592000D01*
X133106000Y-116592000D02*
X133106000Y-83483400D01*
X133106000Y-83483400D02*
X135093000Y-81496700D01*
X135052000Y-127892000D02*
X135052000Y-125027000D01*
X135052000Y-125027000D02*
X133361000Y-123336000D01*
X133361000Y-123336000D02*
X133361000Y-122203000D01*
X133361000Y-122203000D02*
X133444000Y-122120000D01*
X133444000Y-122120000D02*
X133444000Y-116998000D01*
X133444000Y-116998000D02*
X133072000Y-116626000D01*
X135176000Y-74041000D02*
X137716000Y-74041000D01*
X135176000Y-74041000D02*
X135176000Y-78176300D01*
X135176000Y-78176300D02*
X135093000Y-78259200D01*
X135093000Y-78259200D02*
X135093000Y-81496700D01*
X155496000Y-74041000D02*
X155496000Y-78176300D01*
X155496000Y-78176300D02*
X155970000Y-78176300D01*
X155970000Y-78176300D02*
X158130000Y-80335300D01*
X158130000Y-80335300D02*
X158130000Y-83004300D01*
X158130000Y-83004300D02*
X158206000Y-83080500D01*
X158206000Y-83080500D02*
X158244000Y-83080500D01*
X158043000Y-119292000D02*
X158085000Y-119292000D01*
X158043000Y-119292000D02*
X158043000Y-123019000D01*
X158043000Y-123019000D02*
X156035000Y-125027000D01*
X156035000Y-125027000D02*
X155372000Y-125027000D01*
X155372000Y-125027000D02*
X155372000Y-127892000D01*
X158043000Y-119292000D02*
X158043000Y-114639000D01*
X137592000Y-127892000D02*
X135052000Y-127892000D01*
X158206000Y-104963000D02*
X158206000Y-114476000D01*
X158206000Y-114476000D02*
X158043000Y-114639000D01*
X116067000Y-77364800D02*
X116067000Y-72514800D01*
X113317000Y-71364800D02*
X114642000Y-71364800D01*
X114642000Y-71364800D02*
X115092000Y-71814200D01*
X115092000Y-71814200D02*
X115092000Y-72514800D01*
X115092000Y-72514800D02*
X116067000Y-72514800D01*
X128605600Y-80623800D02*
X128606000Y-80623800D01*
X128606000Y-80623800D02*
X130610000Y-82628200D01*
X130610000Y-82628200D02*
X130610000Y-89751600D01*
X130610000Y-89751600D02*
X130669000Y-89751600D01*
X130610000Y-89751600D02*
X130610000Y-117865000D01*
X190932000Y-127892000D02*
X190932000Y-125027000D01*
X190932000Y-125027000D02*
X189726000Y-123820000D01*
X189726000Y-123820000D02*
X189726000Y-82296700D01*
X191056000Y-74041000D02*
X191056000Y-78176300D01*
X191056000Y-78176300D02*
X189726000Y-79506700D01*
X189726000Y-79506700D02*
X189726000Y-82296700D01*
X188516000Y-74041000D02*
X188516000Y-78176300D01*
X188516000Y-78176300D02*
X188392000Y-78300300D01*
X188392000Y-78300300D02*
X188392000Y-81880000D01*
X188392000Y-127892000D02*
X188392000Y-125027000D01*
X188392000Y-125027000D02*
X188654000Y-124764000D01*
X188654000Y-124764000D02*
X188654000Y-82142300D01*
X188654000Y-82142300D02*
X188392000Y-81880000D01*
X185852000Y-127892000D02*
X185852000Y-125027000D01*
X185852000Y-125027000D02*
X184586000Y-123761000D01*
X184586000Y-123761000D02*
X184586000Y-80134300D01*
X184586000Y-80134300D02*
X185976000Y-78744200D01*
X185976000Y-78744200D02*
X185976000Y-74041000D01*
X183312000Y-127892000D02*
X182042000Y-126622000D01*
X182042000Y-126622000D02*
X182042000Y-121814000D01*
X182042000Y-121814000D02*
X180656000Y-120429000D01*
X180896000Y-74041000D02*
X180896000Y-78176300D01*
X180896000Y-78176300D02*
X180772000Y-78300300D01*
X180772000Y-78300300D02*
X180772000Y-79144100D01*
X180772000Y-127892000D02*
X180772000Y-122501000D01*
X180772000Y-122501000D02*
X178553000Y-120282000D01*
X178553000Y-120282000D02*
X178553000Y-94104000D01*
X178553000Y-94104000D02*
X180772000Y-91884900D01*
X180772000Y-91884900D02*
X180772000Y-79144100D01*
X174882000Y-80125100D02*
X174782000Y-80225600D01*
X174782000Y-80225600D02*
X174782000Y-95645500D01*
X174782000Y-95645500D02*
X175793000Y-96656800D01*
X175793000Y-96656800D02*
X175793000Y-122894000D01*
X175793000Y-122894000D02*
X177926000Y-125027000D01*
X177926000Y-125027000D02*
X178232000Y-125027000D01*
X178232000Y-125027000D02*
X178232000Y-127892000D01*
X178356000Y-74041000D02*
X178356000Y-78176300D01*
X178356000Y-78176300D02*
X176831000Y-78176300D01*
X176831000Y-78176300D02*
X174882000Y-80125100D01*
X174882000Y-80125100D02*
X174829000Y-80071500D01*
X173450000Y-86113100D02*
X172221000Y-86113100D01*
X175692000Y-127892000D02*
X175692000Y-125027000D01*
X175692000Y-125027000D02*
X175163000Y-124497000D01*
X175163000Y-124497000D02*
X175163000Y-96858400D01*
X175163000Y-96858400D02*
X173450000Y-95145500D01*
X173450000Y-95145500D02*
X173450000Y-86113100D01*
X175816000Y-74041000D02*
X175816000Y-78176300D01*
X175816000Y-78176300D02*
X173450000Y-80542500D01*
X173450000Y-80542500D02*
X173450000Y-86113100D01*
X173276000Y-74041000D02*
X173276000Y-78176300D01*
X173276000Y-78176300D02*
X171821000Y-79631200D01*
X171821000Y-79631200D02*
X171821000Y-82744500D01*
X171821000Y-82744500D02*
X171146000Y-83419700D01*
X171146000Y-83419700D02*
X171146000Y-86961700D01*
X171146000Y-86961700D02*
X171371000Y-87186600D01*
X171371000Y-87186600D02*
X171371000Y-111675000D01*
X171371000Y-111675000D02*
X173152000Y-113456000D01*
X173152000Y-113456000D02*
X173152000Y-127892000D01*
X170612000Y-127892000D02*
X170612000Y-125027000D01*
X170612000Y-125027000D02*
X170269000Y-124684000D01*
X170269000Y-124684000D02*
X170269000Y-111688000D01*
X170269000Y-111688000D02*
X169444000Y-110863000D01*
X170736000Y-74041000D02*
X170736000Y-78176300D01*
X170736000Y-78176300D02*
X170218000Y-78694700D01*
X170218000Y-78694700D02*
X170218000Y-110090000D01*
X170218000Y-110090000D02*
X169444000Y-110863000D01*
X168072000Y-127892000D02*
X168072000Y-125027000D01*
X168072000Y-125027000D02*
X168371000Y-124728000D01*
X168371000Y-124728000D02*
X168371000Y-123022000D01*
X168371000Y-123022000D02*
X168196000Y-122847000D01*
X168196000Y-122847000D02*
X168196000Y-74041000D01*
X186768000Y-83140000D02*
X187969000Y-84340200D01*
X187969000Y-84340200D02*
X187969000Y-124545000D01*
X183513000Y-79686300D02*
X183513000Y-123619000D01*
X183513000Y-123619000D02*
X183370000Y-123762000D01*
X183240000Y-124840000D02*
X183996000Y-124084000D01*
X183996000Y-124084000D02*
X183996000Y-80087000D01*
X183996000Y-80087000D02*
X184138000Y-79945400D01*
X184138000Y-79945400D02*
X184138000Y-78665300D01*
X184138000Y-78665300D02*
X183996000Y-78523700D01*
X180128000Y-78420400D02*
X180128000Y-87168600D01*
X180128000Y-87168600D02*
X180224000Y-87264800D01*
X180224000Y-87264800D02*
X180224000Y-91795600D01*
X180224000Y-91795600D02*
X178103000Y-93917400D01*
X178103000Y-93917400D02*
X178103000Y-120469000D01*
X178103000Y-120469000D02*
X180011000Y-122377000D01*
X180011000Y-122377000D02*
X180011000Y-125027000D01*
X178333000Y-78819800D02*
X178637000Y-79124500D01*
X178637000Y-79124500D02*
X178637000Y-90519600D01*
X178637000Y-90519600D02*
X177531000Y-91626300D01*
X177531000Y-91626300D02*
X177531000Y-92144300D01*
X177531000Y-92144300D02*
X177652000Y-92265900D01*
X177652000Y-92265900D02*
X177652000Y-120655000D01*
X177652000Y-120655000D02*
X178282000Y-121285000D01*
X178282000Y-121285000D02*
X178282000Y-124398000D01*
X176827000Y-79177700D02*
X178133000Y-80483700D01*
X178133000Y-80483700D02*
X178133000Y-90387200D01*
X178133000Y-90387200D02*
X177080000Y-91439700D01*
X177080000Y-91439700D02*
X177080000Y-92330900D01*
X177080000Y-92330900D02*
X177202000Y-92452500D01*
X177202000Y-92452500D02*
X177202000Y-123416000D01*
X177202000Y-123416000D02*
X177415000Y-123630000D01*
X173171000Y-79450700D02*
X172481000Y-80141200D01*
X172481000Y-80141200D02*
X172481000Y-84969600D01*
X172481000Y-84969600D02*
X171596000Y-85854100D01*
X171596000Y-85854100D02*
X171596000Y-86775100D01*
X171596000Y-86775100D02*
X171821000Y-87000000D01*
X171821000Y-87000000D02*
X171821000Y-105236000D01*
X171821000Y-105236000D02*
X174157000Y-107573000D01*
X174157000Y-107573000D02*
X174157000Y-123318000D01*
X170889000Y-78941100D02*
X170696000Y-79134500D01*
X170696000Y-79134500D02*
X170696000Y-87148300D01*
X170696000Y-87148300D02*
X170889000Y-87341700D01*
X170889000Y-87341700D02*
X170889000Y-124369000D01*
X170889000Y-124369000D02*
X171079000Y-124559000D01*
X149013000Y-91673700D02*
X146689000Y-89350200D01*
X146689000Y-89350200D02*
X146042000Y-89350200D01*
X167287000Y-79076700D02*
X167746000Y-79535800D01*
X167746000Y-79535800D02*
X167746000Y-124448000D01*
X165532000Y-127892000D02*
X165532000Y-125027000D01*
X165532000Y-125027000D02*
X167209000Y-123350000D01*
X167209000Y-123350000D02*
X167209000Y-79883600D01*
X167209000Y-79883600D02*
X165656000Y-78330400D01*
X165656000Y-78330400D02*
X165656000Y-74041000D01*
X162992000Y-127892000D02*
X162992000Y-122089000D01*
X162992000Y-122089000D02*
X164277000Y-120804000D01*
X164277000Y-120804000D02*
X164277000Y-110926000D01*
X164277000Y-110926000D02*
X163883000Y-110532000D01*
X163883000Y-110532000D02*
X163883000Y-106395000D01*
X163883000Y-106395000D02*
X164157000Y-106121000D01*
X164157000Y-106121000D02*
X164157000Y-86658900D01*
X164157000Y-86658900D02*
X164583000Y-86233200D01*
X164583000Y-86233200D02*
X164583000Y-79643200D01*
X164583000Y-79643200D02*
X163116000Y-78176300D01*
X163116000Y-78176300D02*
X163116000Y-74041000D01*
X160452000Y-127892000D02*
X160452000Y-125027000D01*
X160452000Y-125027000D02*
X160481000Y-124997000D01*
X160481000Y-124997000D02*
X160481000Y-124091000D01*
X160481000Y-124091000D02*
X160376000Y-123986000D01*
X160376000Y-123986000D02*
X160376000Y-120477000D01*
X160376000Y-120477000D02*
X160469000Y-120384000D01*
X160469000Y-120384000D02*
X160469000Y-85068700D01*
X160469000Y-85068700D02*
X160576000Y-84962100D01*
X160576000Y-84962100D02*
X160576000Y-74041000D01*
X158036000Y-74041000D02*
X158036000Y-78176300D01*
X158036000Y-78176300D02*
X158580000Y-78720200D01*
X158580000Y-78720200D02*
X158580000Y-82494100D01*
X158580000Y-82494100D02*
X158907000Y-82821400D01*
X158907000Y-82821400D02*
X158907000Y-83339600D01*
X158907000Y-83339600D02*
X158711000Y-83536000D01*
X158711000Y-83536000D02*
X158711000Y-104330000D01*
X158711000Y-104330000D02*
X159085000Y-104704000D01*
X159085000Y-104704000D02*
X159085000Y-105222000D01*
X159085000Y-105222000D02*
X158711000Y-105597000D01*
X158711000Y-105597000D02*
X158711000Y-117011000D01*
X157912000Y-127892000D02*
X157912000Y-124525000D01*
X157912000Y-124525000D02*
X158711000Y-123727000D01*
X158711000Y-123727000D02*
X158711000Y-117011000D01*
X152832000Y-127892000D02*
X152832000Y-125027000D01*
X152832000Y-125027000D02*
X154120000Y-123739000D01*
X154120000Y-123739000D02*
X154120000Y-117894000D01*
X154120000Y-117894000D02*
X156887000Y-115128000D01*
X156887000Y-115128000D02*
X156887000Y-82283400D01*
X156887000Y-82283400D02*
X152956000Y-78352900D01*
X152956000Y-78352900D02*
X152956000Y-74041000D01*
X150292000Y-127892000D02*
X150292000Y-125027000D01*
X150292000Y-125027000D02*
X152769000Y-122550000D01*
X152769000Y-122550000D02*
X152769000Y-117972000D01*
X152769000Y-117972000D02*
X155986000Y-114755000D01*
X155986000Y-114755000D02*
X155986000Y-91459200D01*
X155986000Y-91459200D02*
X155784000Y-91256700D01*
X150416000Y-74041000D02*
X150416000Y-78176300D01*
X150416000Y-78176300D02*
X155784000Y-83543800D01*
X155784000Y-83543800D02*
X155784000Y-91256700D01*
X152540000Y-92707300D02*
X152540000Y-92405800D01*
X152540000Y-92405800D02*
X146716000Y-86582200D01*
X146716000Y-86582200D02*
X146134000Y-86582200D01*
X146134000Y-86582200D02*
X145377000Y-85825800D01*
X145377000Y-85825800D02*
X145377000Y-80674900D01*
X145377000Y-80674900D02*
X147876000Y-78176300D01*
X147876000Y-78176300D02*
X147876000Y-74041000D01*
X147752000Y-127892000D02*
X147752000Y-125027000D01*
X147752000Y-125027000D02*
X147889000Y-124890000D01*
X147889000Y-124890000D02*
X147889000Y-119598000D01*
X147889000Y-119598000D02*
X153208000Y-114279000D01*
X153208000Y-114279000D02*
X153208000Y-94935300D01*
X153208000Y-94935300D02*
X152540000Y-94267200D01*
X152540000Y-94267200D02*
X152540000Y-92707300D01*
X151808000Y-93821500D02*
X151808000Y-94172400D01*
X151808000Y-94172400D02*
X152758000Y-95122000D01*
X152758000Y-95122000D02*
X152758000Y-114093000D01*
X152758000Y-114093000D02*
X147439000Y-119412000D01*
X147439000Y-119412000D02*
X147439000Y-124664000D01*
X147439000Y-124664000D02*
X147052000Y-125051000D01*
X147052000Y-125051000D02*
X146404000Y-125051000D01*
X146404000Y-125051000D02*
X146379000Y-125027000D01*
X146379000Y-125027000D02*
X145212000Y-125027000D01*
X145212000Y-125027000D02*
X145212000Y-127892000D01*
X145336000Y-74041000D02*
X145336000Y-78176300D01*
X145336000Y-78176300D02*
X144927000Y-78585200D01*
X144927000Y-78585200D02*
X144927000Y-86039900D01*
X144927000Y-86039900D02*
X145920000Y-87032500D01*
X145920000Y-87032500D02*
X146530000Y-87032500D01*
X146530000Y-87032500D02*
X151808000Y-92310900D01*
X151808000Y-92310900D02*
X151808000Y-93821500D01*
X150839000Y-95066700D02*
X144477000Y-88704600D01*
X144477000Y-88704600D02*
X144477000Y-79857100D01*
X144477000Y-79857100D02*
X142796000Y-78176300D01*
X142796000Y-78176300D02*
X142796000Y-74041000D01*
X142672000Y-127892000D02*
X142672000Y-125027000D01*
X142672000Y-125027000D02*
X143857000Y-125027000D01*
X143857000Y-125027000D02*
X146329000Y-122555000D01*
X146329000Y-122555000D02*
X146329000Y-119110000D01*
X146329000Y-119110000D02*
X151857000Y-113582000D01*
X151857000Y-113582000D02*
X151857000Y-96626900D01*
X151857000Y-96626900D02*
X150839000Y-95608700D01*
X150839000Y-95608700D02*
X150839000Y-95066700D01*
X140132000Y-127892000D02*
X140132000Y-125027000D01*
X140132000Y-125027000D02*
X135931000Y-125027000D01*
X135931000Y-125027000D02*
X133811000Y-122907000D01*
X133811000Y-122907000D02*
X133811000Y-122389000D01*
X133811000Y-122389000D02*
X133894000Y-122306000D01*
X133894000Y-122306000D02*
X133894000Y-114798000D01*
X133894000Y-114798000D02*
X133696000Y-114600000D01*
X133696000Y-114600000D02*
X133696000Y-89293100D01*
X133696000Y-89293100D02*
X134643000Y-88346300D01*
X134643000Y-88346300D02*
X134643000Y-83230900D01*
X134643000Y-83230900D02*
X139698000Y-78176300D01*
X139698000Y-78176300D02*
X140256000Y-78176300D01*
X140256000Y-78176300D02*
X140256000Y-74041000D01*
X129972000Y-127892000D02*
X129972000Y-125027000D01*
X129972000Y-125027000D02*
X129883000Y-124938000D01*
X129883000Y-124938000D02*
X129883000Y-119477000D01*
X129883000Y-119477000D02*
X131295000Y-118065000D01*
X131295000Y-118065000D02*
X131295000Y-80011800D01*
X131295000Y-80011800D02*
X130096000Y-78813200D01*
X130096000Y-78813200D02*
X130096000Y-74041000D01*
X124892000Y-127892000D02*
X124892000Y-125027000D01*
X124892000Y-125027000D02*
X125924000Y-123995000D01*
X125924000Y-123995000D02*
X125924000Y-123739000D01*
X125016000Y-74041000D02*
X125016000Y-78176300D01*
X125016000Y-78176300D02*
X126291000Y-79451000D01*
X126291000Y-79451000D02*
X126291000Y-80669600D01*
X126291000Y-80669600D02*
X125930000Y-81030400D01*
X125930000Y-81030400D02*
X125930000Y-89508500D01*
X125930000Y-89508500D02*
X127263000Y-90841800D01*
X127263000Y-90841800D02*
X127263000Y-110877000D01*
X127263000Y-110877000D02*
X125924000Y-112216000D01*
X125924000Y-112216000D02*
X125924000Y-123739000D01*
X125924000Y-123739000D02*
X126977000Y-123739000D01*
X161506000Y-85675800D02*
X161002000Y-86180300D01*
X161002000Y-86180300D02*
X161002000Y-122023000D01*
X120110000Y-125650000D02*
X122352000Y-127892000D01*
X122476000Y-74041000D02*
X122476000Y-78176200D01*
X122476000Y-78176200D02*
X123208000Y-78908200D01*
X123208000Y-78908200D02*
X124486000Y-80185800D01*
X124486000Y-80185800D02*
X125650000Y-80185800D01*
X120110000Y-125650000D02*
X120110000Y-112703320D01*
X121557420Y-111255900D02*
X121557420Y-104818560D01*
X120110000Y-112703320D02*
X121557420Y-111255900D01*
X120465181Y-104818560D02*
X115696860Y-100050239D01*
X121557420Y-104818560D02*
X120465181Y-104818560D01*
X115696860Y-91195761D02*
X123443860Y-83448761D01*
X115696860Y-100050239D02*
X115696860Y-91195761D01*
X123443860Y-82391940D02*
X125650000Y-80185800D01*
X123443860Y-83448761D02*
X123443860Y-82391940D01*
X145645000Y-88391800D02*
X146615000Y-88391800D01*
X146615000Y-88391800D02*
X150246000Y-92022400D01*
X150246000Y-92022400D02*
X150246000Y-92276500D01*
X165415000Y-124251000D02*
X164670000Y-123506000D01*
X164670000Y-123506000D02*
X164670000Y-121048000D01*
X164670000Y-121048000D02*
X164784000Y-120934000D01*
X164784000Y-120934000D02*
X164784000Y-107923000D01*
X164784000Y-107923000D02*
X164334000Y-107473000D01*
X164334000Y-107473000D02*
X164334000Y-106582000D01*
X164334000Y-106582000D02*
X164608000Y-106308000D01*
X164608000Y-106308000D02*
X164608000Y-91221600D01*
X164608000Y-91221600D02*
X164894000Y-90934700D01*
X164894000Y-90934700D02*
X165033000Y-90795800D01*
X165033000Y-90795800D02*
X165033000Y-78542200D01*
X165033000Y-78542200D02*
X165020000Y-78529300D01*
X148569000Y-124304000D02*
X148464000Y-124199000D01*
X148464000Y-124199000D02*
X148464000Y-119661000D01*
X148464000Y-119661000D02*
X153658000Y-114466000D01*
X153658000Y-114466000D02*
X153658000Y-94748700D01*
X153658000Y-94748700D02*
X153165000Y-94255700D01*
X153165000Y-94255700D02*
X153165000Y-92394300D01*
X153165000Y-92394300D02*
X146582000Y-85811000D01*
X146582000Y-85811000D02*
X146319000Y-85811000D01*
X146319000Y-85811000D02*
X146319000Y-85810900D01*
X146319000Y-85810900D02*
X146021000Y-85513400D01*
X146021000Y-85513400D02*
X146021000Y-82649300D01*
X146021000Y-82649300D02*
X148305000Y-80365900D01*
X148305000Y-80365900D02*
X151073000Y-80365900D01*
X147780000Y-97298100D02*
X140241000Y-89759500D01*
X140241000Y-89759500D02*
X140241000Y-86668600D01*
X159939000Y-78813700D02*
X159939000Y-98296100D01*
X159939000Y-98296100D02*
X159821000Y-98413600D01*
X159856000Y-124431000D02*
X159856000Y-106788000D01*
X159856000Y-106788000D02*
X159986000Y-106658000D01*
X159986000Y-106658000D02*
X159986000Y-98578300D01*
X159986000Y-98578300D02*
X159821000Y-98413600D01*
X158556000Y-124765000D02*
X159336000Y-123986000D01*
X159336000Y-123986000D02*
X159336000Y-105608000D01*
X159336000Y-105608000D02*
X159536000Y-105409000D01*
X159536000Y-105409000D02*
X159536000Y-104517000D01*
X159536000Y-104517000D02*
X159173000Y-104155000D01*
X159173000Y-104155000D02*
X159173000Y-83710900D01*
X159173000Y-83710900D02*
X159358000Y-83526200D01*
X159358000Y-83526200D02*
X159358000Y-82634800D01*
X159358000Y-82634800D02*
X159279000Y-82556000D01*
X159279000Y-82556000D02*
X159279000Y-78237400D01*
X156230000Y-79368100D02*
X157418000Y-80555500D01*
X157418000Y-80555500D02*
X157418000Y-116091000D01*
X155826000Y-124315000D02*
X155826000Y-117682000D01*
X155826000Y-117682000D02*
X157418000Y-116091000D01*
X152540000Y-124396000D02*
X153378000Y-123558000D01*
X153378000Y-123558000D02*
X153378000Y-117999000D01*
X153378000Y-117999000D02*
X156436000Y-114941000D01*
X156436000Y-114941000D02*
X156436000Y-82717500D01*
X156436000Y-82717500D02*
X153404000Y-79685600D01*
X150066000Y-87137000D02*
X151227000Y-88298000D01*
X151227000Y-88298000D02*
X151227000Y-88545600D01*
X151227000Y-88545600D02*
X154734000Y-92052200D01*
X154734000Y-92052200D02*
X154734000Y-99872500D01*
X150054000Y-124377000D02*
X150054000Y-119413000D01*
X150054000Y-119413000D02*
X154734000Y-114733000D01*
X154734000Y-114733000D02*
X154734000Y-99872500D01*
X152125000Y-96010700D02*
X152125000Y-95319800D01*
X152125000Y-95319800D02*
X151181000Y-94375900D01*
X151181000Y-94375900D02*
X151181000Y-92321000D01*
X151181000Y-92321000D02*
X146518000Y-87657800D01*
X146518000Y-87657800D02*
X146054000Y-87657800D01*
X146814000Y-124405000D02*
X146814000Y-119400000D01*
X146814000Y-119400000D02*
X152307000Y-113906000D01*
X152307000Y-113906000D02*
X152307000Y-96192900D01*
X152307000Y-96192900D02*
X152125000Y-96010700D01*
X150478000Y-88433400D02*
X148422000Y-86377200D01*
X148422000Y-86377200D02*
X148422000Y-83731100D01*
X148422000Y-83731100D02*
X148854000Y-83299000D01*
X150478000Y-88433400D02*
X153796000Y-91751200D01*
X153796000Y-91751200D02*
X153796000Y-94001800D01*
X149095000Y-123524000D02*
X149095000Y-119667000D01*
X149095000Y-119667000D02*
X154109000Y-114653000D01*
X154109000Y-114653000D02*
X154109000Y-94314400D01*
X154109000Y-94314400D02*
X153796000Y-94001800D01*
X151222000Y-99963000D02*
X151352000Y-99833000D01*
X151352000Y-99833000D02*
X151352000Y-96758200D01*
X151352000Y-96758200D02*
X146085000Y-91492100D01*
X146085000Y-91492100D02*
X146085000Y-91304700D01*
X143610000Y-124390000D02*
X143610000Y-120717000D01*
X143610000Y-120717000D02*
X151222000Y-113105000D01*
X151222000Y-113105000D02*
X151222000Y-99963000D01*
X146085000Y-91304700D02*
X144026000Y-89245800D01*
X144026000Y-89245800D02*
X144026000Y-80297700D01*
X144026000Y-80297700D02*
X142552000Y-78823200D01*
X155361000Y-96968700D02*
X155361000Y-91914800D01*
X155361000Y-91914800D02*
X151678000Y-88231800D01*
X151678000Y-88231800D02*
X151678000Y-87863900D01*
X151678000Y-87863900D02*
X149074000Y-85260400D01*
X149074000Y-85260400D02*
X149074000Y-84908500D01*
X150874000Y-122863000D02*
X150874000Y-119230000D01*
X150874000Y-119230000D02*
X155361000Y-114743000D01*
X155361000Y-114743000D02*
X155361000Y-96968700D01*
X150018000Y-97877000D02*
X149781000Y-97877000D01*
X149781000Y-97877000D02*
X142055000Y-90151200D01*
X142055000Y-90151200D02*
X142055000Y-86618100D01*
X150018000Y-97877000D02*
X150122000Y-97980600D01*
X150122000Y-97980600D02*
X150122000Y-109897000D01*
X150122000Y-109897000D02*
X150165000Y-109940000D01*
X150165000Y-109940000D02*
X150165000Y-112792000D01*
X150165000Y-112792000D02*
X139223000Y-123734000D01*
X139223000Y-123734000D02*
X138957000Y-123734000D01*
X142910000Y-85992700D02*
X139283000Y-82365000D01*
X139283000Y-82365000D02*
X139283000Y-80667000D01*
X150726000Y-97224200D02*
X149838000Y-97224200D01*
X149838000Y-97224200D02*
X142910000Y-90297200D01*
X142910000Y-90297200D02*
X142910000Y-85992700D01*
X137424000Y-124367000D02*
X139227000Y-124367000D01*
X139227000Y-124367000D02*
X150623000Y-112971000D01*
X150623000Y-112971000D02*
X150623000Y-109761000D01*
X150623000Y-109761000D02*
X150572000Y-109710000D01*
X150572000Y-109710000D02*
X150572000Y-98919400D01*
X150572000Y-98919400D02*
X150726000Y-98765600D01*
X150726000Y-98765600D02*
X150726000Y-97224200D01*
X130534000Y-124465000D02*
X131745000Y-123254000D01*
X131745000Y-123254000D02*
X131745000Y-119646000D01*
X131745000Y-119646000D02*
X131745000Y-79450300D01*
X131745000Y-79450300D02*
X130724000Y-78429800D01*
X131745000Y-119646000D02*
X132810000Y-119646000D01*
X146084000Y-92586500D02*
X148809000Y-95311600D01*
X148809000Y-95311600D02*
X148988000Y-95311600D01*
X146084000Y-92586500D02*
X143576000Y-90078300D01*
X143576000Y-90078300D02*
X143576000Y-84075800D01*
X143576000Y-84075800D02*
X139524000Y-80023500D01*
X139524000Y-80023500D02*
X138798000Y-80023500D01*
X138798000Y-80023500D02*
X136357000Y-82464500D01*
X134436000Y-122648000D02*
X134436000Y-99613200D01*
X134436000Y-99613200D02*
X134149000Y-99325300D01*
X134149000Y-99325300D02*
X134149000Y-89795800D01*
X134149000Y-89795800D02*
X136357000Y-87587500D01*
X136357000Y-87587500D02*
X136357000Y-82464500D01*
X128349000Y-82191700D02*
X130044000Y-83887000D01*
X130044000Y-83887000D02*
X130044000Y-90010600D01*
X130044000Y-90010600D02*
X130099000Y-90065900D01*
X130099000Y-90065900D02*
X130099000Y-116941000D01*
X130099000Y-116941000D02*
X128255000Y-118785000D01*
X128255000Y-118785000D02*
X128255000Y-121577000D01*
X166133000Y-89306600D02*
X166308000Y-89481700D01*
X166308000Y-89481700D02*
X166308000Y-105073000D01*
X166308000Y-105073000D02*
X165958000Y-105424000D01*
X165958000Y-105424000D02*
X165958000Y-106212000D01*
X165958000Y-106212000D02*
X166057000Y-106311000D01*
X166057000Y-106311000D02*
X166057000Y-120545000D01*
X166057000Y-120545000D02*
X165295000Y-121307000D01*
X126820000Y-82614900D02*
X126380000Y-83054700D01*
X126380000Y-83054700D02*
X126380000Y-89321900D01*
X126380000Y-89321900D02*
X127714000Y-90655200D01*
X127714000Y-90655200D02*
X127714000Y-111283000D01*
X127714000Y-111283000D02*
X126410000Y-112586000D01*
X126410000Y-112586000D02*
X126410000Y-120936000D01*
X126410000Y-120936000D02*
X126550000Y-121074000D01*
X165683000Y-100860000D02*
X165508000Y-101035000D01*
X165508000Y-101035000D02*
X165508000Y-106928000D01*
X165508000Y-106928000D02*
X165409000Y-107027000D01*
X163043000Y-86148100D02*
X163146000Y-86251300D01*
X163146000Y-86251300D02*
X163146000Y-105859000D01*
X163146000Y-105859000D02*
X162983000Y-106022000D01*
X162983000Y-106022000D02*
X162983000Y-115169000D01*
X162983000Y-115169000D02*
X161824000Y-116327000D01*
X169438000Y-85713400D02*
X168819000Y-86332500D01*
X168819000Y-86332500D02*
X168819000Y-112172000D01*
X168819000Y-112172000D02*
X168821000Y-112175000D01*
X163958000Y-85974100D02*
X163684000Y-86247200D01*
X163684000Y-86247200D02*
X163684000Y-105957000D01*
X163684000Y-105957000D02*
X163433000Y-106209000D01*
X163433000Y-106209000D02*
X163433000Y-115655000D01*
X163433000Y-115655000D02*
X163650000Y-115872000D01*
X162510000Y-87956200D02*
X162357000Y-88109200D01*
X162357000Y-88109200D02*
X162357000Y-108720000D01*
X162362000Y-85664200D02*
X162362000Y-85856000D01*
X162362000Y-85856000D02*
X161643000Y-86574600D01*
X161643000Y-86574600D02*
X161643000Y-109143000D01*
X183436000Y-74041000D02*
X183436000Y-78176300D01*
X183436000Y-78176300D02*
X182830000Y-78782700D01*
X182830000Y-78782700D02*
X182830000Y-85491000D01*
X182830000Y-85491000D02*
X182976000Y-85637200D01*
X182976000Y-85637200D02*
X182976000Y-114736000D01*
X182976000Y-114736000D02*
X179183000Y-118529000D01*
X165847000Y-87226800D02*
X165508000Y-87565600D01*
X165508000Y-87565600D02*
X165508000Y-89565600D01*
X165508000Y-89565600D02*
X165570000Y-89627300D01*
X165570000Y-89627300D02*
X165570000Y-100089000D01*
X165570000Y-100089000D02*
X165058000Y-100601000D01*
X165058000Y-100601000D02*
X165058000Y-106494000D01*
X165058000Y-106494000D02*
X164784000Y-106768000D01*
X164784000Y-106768000D02*
X164784000Y-107286000D01*
X164784000Y-107286000D02*
X165409000Y-107912000D01*
X165409000Y-107912000D02*
X165409000Y-116336000D01*
X128443000Y-105876000D02*
X128398000Y-105831000D01*
X128398000Y-105831000D02*
X128398000Y-89429400D01*
X128398000Y-89429400D02*
X126830000Y-87861600D01*
X126830000Y-87861600D02*
X126830000Y-84686000D01*
X126830000Y-84686000D02*
X127012000Y-84504200D01*
X175436000Y-89027000D02*
X176570000Y-90161000D01*
X176570000Y-90161000D02*
X176570000Y-99373600D01*
X181945000Y-100930000D02*
X181945000Y-93925100D01*
X181945000Y-93925100D02*
X181608000Y-93587800D01*
X177464000Y-85057100D02*
X177047000Y-85474100D01*
X177047000Y-85474100D02*
X177047000Y-89161600D01*
X145823000Y-99256000D02*
X145823000Y-100431000D01*
X145823000Y-100431000D02*
X146190000Y-100431000D01*
X146190000Y-100431000D02*
X146998000Y-101239000D01*
X146998000Y-101239000D02*
X146998000Y-103292000D01*
X146998000Y-103292000D02*
X148961000Y-105255000D01*
X148961000Y-105255000D02*
X148961000Y-108592000D01*
X182335000Y-91935000D02*
X179179000Y-95091100D01*
X186585800Y-80456800D02*
X185261000Y-81781500D01*
X185261000Y-81781500D02*
X185261000Y-120491000D01*
X186586000Y-80456600D02*
X186585800Y-80456800D01*
X186585600Y-80456600D02*
X186585800Y-80456800D01*
X141089000Y-120940000D02*
X141089000Y-111503000D01*
X141089000Y-111503000D02*
X141219000Y-111373000D01*
X126635000Y-101417000D02*
X126635000Y-110367000D01*
X124690000Y-99472500D02*
X126635000Y-101417000D01*
X123593840Y-98376340D02*
X124690000Y-99472500D01*
X122125600Y-98376340D02*
X123593840Y-98376340D01*
X114894000Y-89780500D02*
X118389200Y-86285300D01*
X118389200Y-86285300D02*
X118724200Y-86285300D01*
X114894000Y-114366000D02*
X114894000Y-89780500D01*
X141043000Y-96483900D02*
X139741000Y-97785600D01*
X139741000Y-97785600D02*
X139741000Y-99485300D01*
X138433000Y-91444700D02*
X141668000Y-94679800D01*
X141668000Y-94679800D02*
X141668000Y-96743000D01*
X141668000Y-96743000D02*
X141442000Y-96969000D01*
X141442000Y-96969000D02*
X141442000Y-99153400D01*
X143283000Y-101796000D02*
X143283000Y-102971000D01*
X143283000Y-102971000D02*
X147657000Y-107346000D01*
X147657000Y-107346000D02*
X147657000Y-107571000D01*
X179560000Y-88115400D02*
X179560000Y-90480800D01*
X179560000Y-90480800D02*
X178156000Y-91885300D01*
X137870000Y-100381000D02*
X137870000Y-100041000D01*
X137870000Y-100041000D02*
X136230000Y-98401100D01*
X148625000Y-111051000D02*
X148540000Y-111051000D01*
X148540000Y-111051000D02*
X137870000Y-100381000D01*
X137420000Y-100774000D02*
X137420000Y-100362000D01*
X148497000Y-111851000D02*
X137420000Y-100774000D01*
X135584000Y-98651300D02*
X135584000Y-97086700D01*
X137420000Y-100362000D02*
X136968000Y-99910600D01*
X148637000Y-111851000D02*
X148497000Y-111851000D01*
X136843000Y-99910600D02*
X135584000Y-98651300D01*
X136968000Y-99910600D02*
X136843000Y-99910600D01*
X136795000Y-100785000D02*
X147714000Y-111705000D01*
X147714000Y-111705000D02*
X147714000Y-112859000D01*
X136795000Y-100621000D02*
X136795000Y-100785000D01*
X135942000Y-100267000D02*
X134776000Y-99101200D01*
X134776000Y-99101200D02*
X134776000Y-97332700D01*
X135942000Y-100858000D02*
X135942000Y-100267000D01*
X143965000Y-113873000D02*
X143965000Y-108881000D01*
X143965000Y-108881000D02*
X135942000Y-100858000D01*
X135229000Y-100474000D02*
X135229000Y-101810000D01*
X135229000Y-101810000D02*
X142868000Y-109450000D01*
X142868000Y-109450000D02*
X142868000Y-112947000D01*
X127036000Y-112845000D02*
X129074000Y-110808000D01*
X129074000Y-110808000D02*
X129074000Y-103372000D01*
X129074000Y-103372000D02*
X129024000Y-103322000D01*
X148363000Y-101796000D02*
X148363000Y-102971000D01*
X148363000Y-102971000D02*
X149602000Y-104210000D01*
X149602000Y-104210000D02*
X149602000Y-110014000D01*
X149602000Y-110014000D02*
X149714000Y-110126000D01*
X149714000Y-110126000D02*
X149714000Y-112414000D01*
X149714000Y-112414000D02*
X147586000Y-114543000D01*
X147586000Y-114543000D02*
X143527000Y-114543000D01*
X143527000Y-114543000D02*
X142243000Y-113259000D01*
X142243000Y-113259000D02*
X142243000Y-111188000D01*
X142243000Y-111188000D02*
X141775000Y-110720000D01*
X152458000Y-83667200D02*
X151283000Y-83667200D01*
X151283000Y-83667200D02*
X150280000Y-82664100D01*
X150280000Y-82664100D02*
X146892000Y-82664100D01*
D21*
X195632993Y-93522925D02*
X195622824Y-93498376D01*
X195498612Y-93312480D01*
X195340520Y-93154388D01*
X195154624Y-93030176D01*
X194948067Y-92944617D01*
X194728788Y-92901000D01*
X194505212Y-92901000D01*
X194285933Y-92944617D01*
X194079376Y-93030176D01*
X193893480Y-93154388D01*
X193735388Y-93312480D01*
X193611176Y-93498376D01*
X193525617Y-93704933D01*
X193482000Y-93924212D01*
X193482000Y-94147788D01*
X193525617Y-94367067D01*
X193611176Y-94573624D01*
X193735388Y-94759520D01*
X193893480Y-94917612D01*
X194079376Y-95041824D01*
X194285933Y-95127383D01*
X194505212Y-95171000D01*
X194728788Y-95171000D01*
X194948067Y-95127383D01*
X195154624Y-95041824D01*
X195340520Y-94917612D01*
X195498612Y-94759520D01*
X195622824Y-94573624D01*
X195633036Y-94548971D01*
X195633327Y-101503733D01*
X195622824Y-101478376D01*
X195498612Y-101292480D01*
X195340520Y-101134388D01*
X195154624Y-101010176D01*
X194948067Y-100924617D01*
X194728788Y-100881000D01*
X194505212Y-100881000D01*
X194285933Y-100924617D01*
X194079376Y-101010176D01*
X193893480Y-101134388D01*
X193735388Y-101292480D01*
X193611176Y-101478376D01*
X193525617Y-101684933D01*
X193482000Y-101904212D01*
X193482000Y-102127788D01*
X193525617Y-102347067D01*
X193611176Y-102553624D01*
X193735388Y-102739520D01*
X193893480Y-102897612D01*
X194079376Y-103021824D01*
X194285933Y-103107383D01*
X194505212Y-103151000D01*
X194728788Y-103151000D01*
X194948067Y-103107383D01*
X195154624Y-103021824D01*
X195340520Y-102897612D01*
X195498612Y-102739520D01*
X195622824Y-102553624D01*
X195633370Y-102528164D01*
X195634511Y-129747040D01*
X192443277Y-129747040D01*
X192456000Y-129617859D01*
X192456000Y-126166141D01*
X192433948Y-125942244D01*
X192346804Y-125654969D01*
X192205290Y-125390215D01*
X192014844Y-125158156D01*
X191782784Y-124967710D01*
X191684688Y-124915277D01*
X191681064Y-124878324D01*
X191681019Y-124878175D01*
X191681003Y-124878014D01*
X191659061Y-124805679D01*
X191637667Y-124735046D01*
X191637593Y-124734907D01*
X191637546Y-124734753D01*
X191602255Y-124668729D01*
X191567150Y-124602987D01*
X191567048Y-124602863D01*
X191566974Y-124602724D01*
X191519589Y-124544985D01*
X191496011Y-124516231D01*
X191495899Y-124516119D01*
X191472001Y-124486999D01*
X191443125Y-124463301D01*
X190486000Y-123505383D01*
X190486000Y-121635948D01*
X190792331Y-121840631D01*
X191199075Y-122009110D01*
X191630872Y-122095000D01*
X192071128Y-122095000D01*
X192502925Y-122009110D01*
X192909669Y-121840631D01*
X193275729Y-121596038D01*
X193587038Y-121284729D01*
X193831631Y-120918669D01*
X194000110Y-120511925D01*
X194086000Y-120080128D01*
X194086000Y-119639872D01*
X194000110Y-119208075D01*
X193831631Y-118801331D01*
X193587038Y-118435271D01*
X193275729Y-118123962D01*
X192909669Y-117879369D01*
X192502925Y-117710890D01*
X192071128Y-117625000D01*
X191630872Y-117625000D01*
X191199075Y-117710890D01*
X190792331Y-117879369D01*
X190486000Y-118084052D01*
X190486000Y-88484534D01*
X190516227Y-88499238D01*
X190827669Y-88580885D01*
X191149055Y-88600205D01*
X191468035Y-88556454D01*
X191772351Y-88451314D01*
X191946182Y-88358399D01*
X192041885Y-88094050D01*
X191086440Y-87138605D01*
X191072298Y-87152748D01*
X190892693Y-86973143D01*
X190906835Y-86959000D01*
X191266045Y-86959000D01*
X192221490Y-87914445D01*
X192485839Y-87818742D01*
X192626678Y-87529213D01*
X192708325Y-87217771D01*
X192727645Y-86896385D01*
X192683894Y-86577405D01*
X192578754Y-86273089D01*
X192485839Y-86099258D01*
X192221490Y-86003555D01*
X191266045Y-86959000D01*
X190906835Y-86959000D01*
X190892693Y-86944858D01*
X191072298Y-86765253D01*
X191086440Y-86779395D01*
X192041885Y-85823950D01*
X191946182Y-85559601D01*
X191656653Y-85418762D01*
X191345211Y-85337115D01*
X191023825Y-85317795D01*
X190704845Y-85361546D01*
X190486000Y-85437156D01*
X190486000Y-82842235D01*
X190554586Y-82739589D01*
X190625068Y-82569429D01*
X190661000Y-82388789D01*
X190661000Y-82204611D01*
X190626594Y-82031643D01*
X190925457Y-82091090D01*
X191247423Y-82091090D01*
X191563203Y-82028278D01*
X191860662Y-81905067D01*
X192128367Y-81726192D01*
X192356032Y-81498527D01*
X192534907Y-81230822D01*
X192658118Y-80933363D01*
X192720930Y-80617583D01*
X192720930Y-80295617D01*
X192658118Y-79979837D01*
X192534907Y-79682378D01*
X192356032Y-79414673D01*
X192128367Y-79187008D01*
X191860662Y-79008133D01*
X191563203Y-78884922D01*
X191445614Y-78861532D01*
X191567047Y-78740063D01*
X191596001Y-78716301D01*
X191619836Y-78687258D01*
X191619876Y-78687218D01*
X191644366Y-78657368D01*
X191690974Y-78600576D01*
X191691002Y-78600524D01*
X191691037Y-78600481D01*
X191725692Y-78535624D01*
X191750575Y-78489072D01*
X191945000Y-78489072D01*
X192069482Y-78476812D01*
X192189180Y-78440502D01*
X192299494Y-78381537D01*
X192396185Y-78302185D01*
X192475537Y-78205494D01*
X192534502Y-78095180D01*
X192570812Y-77975482D01*
X192583072Y-77851000D01*
X192583072Y-70560000D01*
X195632030Y-70560000D01*
X195632993Y-93522925D01*
G04 #@! TA.AperFunction,Conductor*
D22*
G36*
X195632993Y-93522925D02*
G01*
X195622824Y-93498376D01*
X195498612Y-93312480D01*
X195340520Y-93154388D01*
X195154624Y-93030176D01*
X194948067Y-92944617D01*
X194728788Y-92901000D01*
X194505212Y-92901000D01*
X194285933Y-92944617D01*
X194079376Y-93030176D01*
X193893480Y-93154388D01*
X193735388Y-93312480D01*
X193611176Y-93498376D01*
X193525617Y-93704933D01*
X193482000Y-93924212D01*
X193482000Y-94147788D01*
X193525617Y-94367067D01*
X193611176Y-94573624D01*
X193735388Y-94759520D01*
X193893480Y-94917612D01*
X194079376Y-95041824D01*
X194285933Y-95127383D01*
X194505212Y-95171000D01*
X194728788Y-95171000D01*
X194948067Y-95127383D01*
X195154624Y-95041824D01*
X195340520Y-94917612D01*
X195498612Y-94759520D01*
X195622824Y-94573624D01*
X195633036Y-94548971D01*
X195633327Y-101503733D01*
X195622824Y-101478376D01*
X195498612Y-101292480D01*
X195340520Y-101134388D01*
X195154624Y-101010176D01*
X194948067Y-100924617D01*
X194728788Y-100881000D01*
X194505212Y-100881000D01*
X194285933Y-100924617D01*
X194079376Y-101010176D01*
X193893480Y-101134388D01*
X193735388Y-101292480D01*
X193611176Y-101478376D01*
X193525617Y-101684933D01*
X193482000Y-101904212D01*
X193482000Y-102127788D01*
X193525617Y-102347067D01*
X193611176Y-102553624D01*
X193735388Y-102739520D01*
X193893480Y-102897612D01*
X194079376Y-103021824D01*
X194285933Y-103107383D01*
X194505212Y-103151000D01*
X194728788Y-103151000D01*
X194948067Y-103107383D01*
X195154624Y-103021824D01*
X195340520Y-102897612D01*
X195498612Y-102739520D01*
X195622824Y-102553624D01*
X195633370Y-102528164D01*
X195634511Y-129747040D01*
X192443277Y-129747040D01*
X192456000Y-129617859D01*
X192456000Y-126166141D01*
X192433948Y-125942244D01*
X192346804Y-125654969D01*
X192205290Y-125390215D01*
X192014844Y-125158156D01*
X191782784Y-124967710D01*
X191684688Y-124915277D01*
X191681064Y-124878324D01*
X191681019Y-124878175D01*
X191681003Y-124878014D01*
X191659061Y-124805679D01*
X191637667Y-124735046D01*
X191637593Y-124734907D01*
X191637546Y-124734753D01*
X191602255Y-124668729D01*
X191567150Y-124602987D01*
X191567048Y-124602863D01*
X191566974Y-124602724D01*
X191519589Y-124544985D01*
X191496011Y-124516231D01*
X191495899Y-124516119D01*
X191472001Y-124486999D01*
X191443125Y-124463301D01*
X190486000Y-123505383D01*
X190486000Y-121635948D01*
X190792331Y-121840631D01*
X191199075Y-122009110D01*
X191630872Y-122095000D01*
X192071128Y-122095000D01*
X192502925Y-122009110D01*
X192909669Y-121840631D01*
X193275729Y-121596038D01*
X193587038Y-121284729D01*
X193831631Y-120918669D01*
X194000110Y-120511925D01*
X194086000Y-120080128D01*
X194086000Y-119639872D01*
X194000110Y-119208075D01*
X193831631Y-118801331D01*
X193587038Y-118435271D01*
X193275729Y-118123962D01*
X192909669Y-117879369D01*
X192502925Y-117710890D01*
X192071128Y-117625000D01*
X191630872Y-117625000D01*
X191199075Y-117710890D01*
X190792331Y-117879369D01*
X190486000Y-118084052D01*
X190486000Y-88484534D01*
X190516227Y-88499238D01*
X190827669Y-88580885D01*
X191149055Y-88600205D01*
X191468035Y-88556454D01*
X191772351Y-88451314D01*
X191946182Y-88358399D01*
X192041885Y-88094050D01*
X191086440Y-87138605D01*
X191072298Y-87152748D01*
X190892693Y-86973143D01*
X190906835Y-86959000D01*
X191266045Y-86959000D01*
X192221490Y-87914445D01*
X192485839Y-87818742D01*
X192626678Y-87529213D01*
X192708325Y-87217771D01*
X192727645Y-86896385D01*
X192683894Y-86577405D01*
X192578754Y-86273089D01*
X192485839Y-86099258D01*
X192221490Y-86003555D01*
X191266045Y-86959000D01*
X190906835Y-86959000D01*
X190892693Y-86944858D01*
X191072298Y-86765253D01*
X191086440Y-86779395D01*
X192041885Y-85823950D01*
X191946182Y-85559601D01*
X191656653Y-85418762D01*
X191345211Y-85337115D01*
X191023825Y-85317795D01*
X190704845Y-85361546D01*
X190486000Y-85437156D01*
X190486000Y-82842235D01*
X190554586Y-82739589D01*
X190625068Y-82569429D01*
X190661000Y-82388789D01*
X190661000Y-82204611D01*
X190626594Y-82031643D01*
X190925457Y-82091090D01*
X191247423Y-82091090D01*
X191563203Y-82028278D01*
X191860662Y-81905067D01*
X192128367Y-81726192D01*
X192356032Y-81498527D01*
X192534907Y-81230822D01*
X192658118Y-80933363D01*
X192720930Y-80617583D01*
X192720930Y-80295617D01*
X192658118Y-79979837D01*
X192534907Y-79682378D01*
X192356032Y-79414673D01*
X192128367Y-79187008D01*
X191860662Y-79008133D01*
X191563203Y-78884922D01*
X191445614Y-78861532D01*
X191567047Y-78740063D01*
X191596001Y-78716301D01*
X191619836Y-78687258D01*
X191619876Y-78687218D01*
X191644366Y-78657368D01*
X191690974Y-78600576D01*
X191691002Y-78600524D01*
X191691037Y-78600481D01*
X191725692Y-78535624D01*
X191750575Y-78489072D01*
X191945000Y-78489072D01*
X192069482Y-78476812D01*
X192189180Y-78440502D01*
X192299494Y-78381537D01*
X192396185Y-78302185D01*
X192475537Y-78205494D01*
X192534502Y-78095180D01*
X192570812Y-77975482D01*
X192583072Y-77851000D01*
X192583072Y-70560000D01*
X195632030Y-70560000D01*
X195632993Y-93522925D01*
G37*
G04 #@! TD.AperFunction*
D21*
X120948928Y-77851000D02*
X120961188Y-77975482D01*
X120997498Y-78095180D01*
X121056463Y-78205494D01*
X121135815Y-78302185D01*
X121232506Y-78381537D01*
X121342820Y-78440502D01*
X121462518Y-78476812D01*
X121587000Y-78489072D01*
X121781479Y-78489072D01*
X121841026Y-78600476D01*
X121908644Y-78682868D01*
X121936000Y-78716201D01*
X121964998Y-78739999D01*
X122644249Y-79419251D01*
X122644281Y-79419290D01*
X122666851Y-79441853D01*
X122696997Y-79471999D01*
X122697050Y-79472042D01*
X123922240Y-80696850D01*
X123945999Y-80725801D01*
X123975042Y-80749636D01*
X123975085Y-80749679D01*
X123994990Y-80766009D01*
X122932858Y-81828141D01*
X122903860Y-81851939D01*
X122880062Y-81880937D01*
X122880061Y-81880938D01*
X122808886Y-81967664D01*
X122738314Y-82099694D01*
X122716304Y-82172254D01*
X122694858Y-82242954D01*
X122689908Y-82293213D01*
X122680184Y-82391940D01*
X122683861Y-82429272D01*
X122683860Y-83133958D01*
X121697085Y-84120733D01*
X121729130Y-84043370D01*
X121849630Y-83437573D01*
X121849630Y-82819907D01*
X121729130Y-82214110D01*
X121492759Y-81643462D01*
X121149603Y-81129892D01*
X120712848Y-80693137D01*
X120199278Y-80349981D01*
X119628630Y-80113610D01*
X119022833Y-79993110D01*
X118405167Y-79993110D01*
X117799370Y-80113610D01*
X117228722Y-80349981D01*
X116715152Y-80693137D01*
X116278397Y-81129892D01*
X115935241Y-81643462D01*
X115698870Y-82214110D01*
X115578370Y-82819907D01*
X115578370Y-83437573D01*
X115698870Y-84043370D01*
X115935241Y-84614018D01*
X116278397Y-85127588D01*
X116715152Y-85564343D01*
X117228722Y-85907499D01*
X117556449Y-86043249D01*
X114382998Y-89216701D01*
X114354000Y-89240499D01*
X114330202Y-89269497D01*
X114330201Y-89269498D01*
X114259026Y-89356224D01*
X114188454Y-89488254D01*
X114170268Y-89548208D01*
X114144998Y-89631514D01*
X114134001Y-89743167D01*
X114130324Y-89780500D01*
X114134001Y-89817833D01*
X114134000Y-112877928D01*
X114044000Y-112877928D01*
X113919518Y-112890188D01*
X113799820Y-112926498D01*
X113689506Y-112985463D01*
X113592815Y-113064815D01*
X113513463Y-113161506D01*
X113454498Y-113271820D01*
X113418188Y-113391518D01*
X113405928Y-113516000D01*
X113405928Y-115216000D01*
X113418188Y-115340482D01*
X113454498Y-115460180D01*
X113513463Y-115570494D01*
X113592815Y-115667185D01*
X113689506Y-115746537D01*
X113799820Y-115805502D01*
X113872380Y-115827513D01*
X113740525Y-115959368D01*
X113578010Y-116202589D01*
X113466068Y-116472842D01*
X113409000Y-116759740D01*
X113409000Y-117052260D01*
X113466068Y-117339158D01*
X113578010Y-117609411D01*
X113740525Y-117852632D01*
X113947368Y-118059475D01*
X114121760Y-118176000D01*
X113947368Y-118292525D01*
X113740525Y-118499368D01*
X113578010Y-118742589D01*
X113466068Y-119012842D01*
X113409000Y-119299740D01*
X113409000Y-119592260D01*
X113466068Y-119879158D01*
X113578010Y-120149411D01*
X113740525Y-120392632D01*
X113947368Y-120599475D01*
X114190589Y-120761990D01*
X114460842Y-120873932D01*
X114747740Y-120931000D01*
X115040260Y-120931000D01*
X115327158Y-120873932D01*
X115597411Y-120761990D01*
X115840632Y-120599475D01*
X116047475Y-120392632D01*
X116209990Y-120149411D01*
X116321932Y-119879158D01*
X116379000Y-119592260D01*
X116379000Y-119299740D01*
X116321932Y-119012842D01*
X116209990Y-118742589D01*
X116047475Y-118499368D01*
X115840632Y-118292525D01*
X115666240Y-118176000D01*
X115840632Y-118059475D01*
X116047475Y-117852632D01*
X116209990Y-117609411D01*
X116321932Y-117339158D01*
X116379000Y-117052260D01*
X116379000Y-116759740D01*
X116321932Y-116472842D01*
X116209990Y-116202589D01*
X116047475Y-115959368D01*
X115915620Y-115827513D01*
X115988180Y-115805502D01*
X116098494Y-115746537D01*
X116195185Y-115667185D01*
X116274537Y-115570494D01*
X116333502Y-115460180D01*
X116369812Y-115340482D01*
X116382072Y-115216000D01*
X116382072Y-113516000D01*
X116369812Y-113391518D01*
X116333502Y-113271820D01*
X116274537Y-113161506D01*
X116195185Y-113064815D01*
X116098494Y-112985463D01*
X115988180Y-112926498D01*
X115868482Y-112890188D01*
X115744000Y-112877928D01*
X115654000Y-112877928D01*
X115654000Y-108806312D01*
X115698870Y-109031890D01*
X115935241Y-109602538D01*
X116278397Y-110116108D01*
X116715152Y-110552863D01*
X117228722Y-110896019D01*
X117799370Y-111132390D01*
X118405167Y-111252890D01*
X119022833Y-111252890D01*
X119628630Y-111132390D01*
X120199278Y-110896019D01*
X120712848Y-110552863D01*
X120797420Y-110468291D01*
X120797420Y-110941098D01*
X119598998Y-112139521D01*
X119570000Y-112163319D01*
X119546202Y-112192317D01*
X119546201Y-112192318D01*
X119475026Y-112279044D01*
X119404454Y-112411074D01*
X119386572Y-112470026D01*
X119360998Y-112554334D01*
X119356867Y-112596276D01*
X119346324Y-112703320D01*
X119350001Y-112740652D01*
X119350000Y-125612678D01*
X119346324Y-125650000D01*
X119350000Y-125687322D01*
X119350000Y-125687332D01*
X119360997Y-125798985D01*
X119396630Y-125916454D01*
X119404454Y-125942246D01*
X119475026Y-126074276D01*
X119496076Y-126099925D01*
X119569999Y-126190001D01*
X119599003Y-126213804D01*
X120828000Y-127442802D01*
X120828001Y-129617859D01*
X120840724Y-129747040D01*
X112052000Y-129747040D01*
X112052000Y-125227872D01*
X113797000Y-125227872D01*
X113797000Y-125668128D01*
X113882890Y-126099925D01*
X114051369Y-126506669D01*
X114295962Y-126872729D01*
X114607271Y-127184038D01*
X114973331Y-127428631D01*
X115380075Y-127597110D01*
X115811872Y-127683000D01*
X116252128Y-127683000D01*
X116683925Y-127597110D01*
X117090669Y-127428631D01*
X117456729Y-127184038D01*
X117768038Y-126872729D01*
X118012631Y-126506669D01*
X118181110Y-126099925D01*
X118267000Y-125668128D01*
X118267000Y-125227872D01*
X118181110Y-124796075D01*
X118012631Y-124389331D01*
X117768038Y-124023271D01*
X117456729Y-123711962D01*
X117090669Y-123467369D01*
X116683925Y-123298890D01*
X116252128Y-123213000D01*
X115811872Y-123213000D01*
X115380075Y-123298890D01*
X114973331Y-123467369D01*
X114607271Y-123711962D01*
X114295962Y-124023271D01*
X114051369Y-124389331D01*
X113882890Y-124796075D01*
X113797000Y-125227872D01*
X112052000Y-125227872D01*
X112052000Y-121858705D01*
X112115020Y-121839588D01*
X112115132Y-121839528D01*
X112115238Y-121839496D01*
X112172559Y-121808833D01*
X112238363Y-121773660D01*
X112238462Y-121773579D01*
X112238559Y-121773527D01*
X112290008Y-121731276D01*
X112346475Y-121684935D01*
X112346553Y-121684840D01*
X112346642Y-121684767D01*
X112389255Y-121632808D01*
X112435200Y-121576823D01*
X112435259Y-121576713D01*
X112435331Y-121576625D01*
X112467235Y-121516889D01*
X112501128Y-121453480D01*
X112501164Y-121453361D01*
X112501218Y-121453260D01*
X112520896Y-121388314D01*
X112541727Y-121319644D01*
X112541739Y-121319524D01*
X112541773Y-121319411D01*
X112548532Y-121250546D01*
X112555435Y-121180460D01*
X112551988Y-121145460D01*
X112549091Y-112415224D01*
X112552515Y-112380460D01*
X112549068Y-112345461D01*
X112549068Y-112345348D01*
X112545818Y-112312459D01*
X112538807Y-112241276D01*
X112538771Y-112241158D01*
X112538760Y-112241044D01*
X112519067Y-112176204D01*
X112498208Y-112107440D01*
X112498151Y-112107333D01*
X112498117Y-112107222D01*
X112466204Y-112047564D01*
X112432280Y-111984097D01*
X112432202Y-111984002D01*
X112432148Y-111983901D01*
X112389322Y-111931752D01*
X112343555Y-111875985D01*
X112343460Y-111875907D01*
X112343387Y-111875818D01*
X112290715Y-111832621D01*
X112235443Y-111787260D01*
X112235336Y-111787203D01*
X112235246Y-111787129D01*
X112175149Y-111755032D01*
X112112100Y-111721332D01*
X112111983Y-111721297D01*
X112111881Y-111721242D01*
X112049126Y-111702228D01*
X112051344Y-79396538D01*
X112125275Y-79471107D01*
X112327054Y-79607190D01*
X112551504Y-79701293D01*
X112790000Y-79749800D01*
X113190000Y-79749800D01*
X113190000Y-78641800D01*
X113444000Y-78641800D01*
X113444000Y-79749800D01*
X113844000Y-79749800D01*
X114082496Y-79701293D01*
X114306946Y-79607190D01*
X114508725Y-79471107D01*
X114680078Y-79298274D01*
X114814421Y-79095333D01*
X114906591Y-78870082D01*
X114910462Y-78832409D01*
X114785731Y-78641800D01*
X113444000Y-78641800D01*
X113190000Y-78641800D01*
X113170000Y-78641800D01*
X113170000Y-78387800D01*
X113190000Y-78387800D01*
X113190000Y-77279800D01*
X113444000Y-77279800D01*
X113444000Y-78387800D01*
X114785731Y-78387800D01*
X114910462Y-78197191D01*
X114906591Y-78159518D01*
X114814421Y-77934267D01*
X114680078Y-77731326D01*
X114623783Y-77674544D01*
X114823197Y-77674544D01*
X114880860Y-77835787D01*
X114993615Y-78038633D01*
X115143777Y-78215583D01*
X115325574Y-78359838D01*
X115532021Y-78465855D01*
X115755184Y-78529559D01*
X115940000Y-78389604D01*
X115940000Y-77491800D01*
X116194000Y-77491800D01*
X116194000Y-78389604D01*
X116378816Y-78529559D01*
X116601979Y-78465855D01*
X116808426Y-78359838D01*
X116990223Y-78215583D01*
X117140385Y-78038633D01*
X117253140Y-77835787D01*
X117310803Y-77674544D01*
X117185361Y-77491800D01*
X116194000Y-77491800D01*
X115940000Y-77491800D01*
X114948639Y-77491800D01*
X114823197Y-77674544D01*
X114623783Y-77674544D01*
X114508725Y-77558493D01*
X114306946Y-77422410D01*
X114082496Y-77328307D01*
X113844000Y-77279800D01*
X113444000Y-77279800D01*
X113190000Y-77279800D01*
X112790000Y-77279800D01*
X112551504Y-77328307D01*
X112327054Y-77422410D01*
X112125275Y-77558493D01*
X112051465Y-77632940D01*
X112051504Y-77055056D01*
X114823197Y-77055056D01*
X114948639Y-77237800D01*
X115940000Y-77237800D01*
X115940000Y-76339996D01*
X116194000Y-76339996D01*
X116194000Y-77237800D01*
X117185361Y-77237800D01*
X117310803Y-77055056D01*
X117253140Y-76893813D01*
X117140385Y-76690967D01*
X116990223Y-76514017D01*
X116808426Y-76369762D01*
X116601979Y-76263745D01*
X116378816Y-76200041D01*
X116194000Y-76339996D01*
X115940000Y-76339996D01*
X115755184Y-76200041D01*
X115532021Y-76263745D01*
X115325574Y-76369762D01*
X115143777Y-76514017D01*
X114993615Y-76690967D01*
X114880860Y-76893813D01*
X114823197Y-77055056D01*
X112051504Y-77055056D01*
X112051795Y-72824544D01*
X114823197Y-72824544D01*
X114880860Y-72985787D01*
X114993615Y-73188633D01*
X115143777Y-73365583D01*
X115325574Y-73509838D01*
X115532021Y-73615855D01*
X115755184Y-73679559D01*
X115940000Y-73539604D01*
X115940000Y-72641800D01*
X116194000Y-72641800D01*
X116194000Y-73539604D01*
X116378816Y-73679559D01*
X116601979Y-73615855D01*
X116808426Y-73509838D01*
X116990223Y-73365583D01*
X117140385Y-73188633D01*
X117253140Y-72985787D01*
X117310803Y-72824544D01*
X117185361Y-72641800D01*
X116194000Y-72641800D01*
X115940000Y-72641800D01*
X114948639Y-72641800D01*
X114823197Y-72824544D01*
X112051795Y-72824544D01*
X112051835Y-72247033D01*
X112125275Y-72321107D01*
X112327054Y-72457190D01*
X112551504Y-72551293D01*
X112790000Y-72599800D01*
X113190000Y-72599800D01*
X113190000Y-71491800D01*
X113444000Y-71491800D01*
X113444000Y-72599800D01*
X113844000Y-72599800D01*
X114082496Y-72551293D01*
X114306946Y-72457190D01*
X114508725Y-72321107D01*
X114623782Y-72205056D01*
X114823197Y-72205056D01*
X114948639Y-72387800D01*
X115940000Y-72387800D01*
X115940000Y-71489996D01*
X116194000Y-71489996D01*
X116194000Y-72387800D01*
X117185361Y-72387800D01*
X117310803Y-72205056D01*
X117253140Y-72043813D01*
X117140385Y-71840967D01*
X116990223Y-71664017D01*
X116808426Y-71519762D01*
X116601979Y-71413745D01*
X116378816Y-71350041D01*
X116194000Y-71489996D01*
X115940000Y-71489996D01*
X115755184Y-71350041D01*
X115532021Y-71413745D01*
X115325574Y-71519762D01*
X115143777Y-71664017D01*
X114993615Y-71840967D01*
X114880860Y-72043813D01*
X114823197Y-72205056D01*
X114623782Y-72205056D01*
X114680078Y-72148274D01*
X114814421Y-71945333D01*
X114906591Y-71720082D01*
X114910462Y-71682409D01*
X114785731Y-71491800D01*
X113444000Y-71491800D01*
X113190000Y-71491800D01*
X113170000Y-71491800D01*
X113170000Y-71237800D01*
X113190000Y-71237800D01*
X113190000Y-71217800D01*
X113444000Y-71217800D01*
X113444000Y-71237800D01*
X114785731Y-71237800D01*
X114910462Y-71047191D01*
X114906591Y-71009518D01*
X114814421Y-70784267D01*
X114680078Y-70581326D01*
X114658935Y-70560000D01*
X120948928Y-70560000D01*
X120948928Y-77851000D01*
G04 #@! TA.AperFunction,Conductor*
D22*
G36*
X120948928Y-77851000D02*
G01*
X120961188Y-77975482D01*
X120997498Y-78095180D01*
X121056463Y-78205494D01*
X121135815Y-78302185D01*
X121232506Y-78381537D01*
X121342820Y-78440502D01*
X121462518Y-78476812D01*
X121587000Y-78489072D01*
X121781479Y-78489072D01*
X121841026Y-78600476D01*
X121908644Y-78682868D01*
X121936000Y-78716201D01*
X121964998Y-78739999D01*
X122644249Y-79419251D01*
X122644281Y-79419290D01*
X122666851Y-79441853D01*
X122696997Y-79471999D01*
X122697050Y-79472042D01*
X123922240Y-80696850D01*
X123945999Y-80725801D01*
X123975042Y-80749636D01*
X123975085Y-80749679D01*
X123994990Y-80766009D01*
X122932858Y-81828141D01*
X122903860Y-81851939D01*
X122880062Y-81880937D01*
X122880061Y-81880938D01*
X122808886Y-81967664D01*
X122738314Y-82099694D01*
X122716304Y-82172254D01*
X122694858Y-82242954D01*
X122689908Y-82293213D01*
X122680184Y-82391940D01*
X122683861Y-82429272D01*
X122683860Y-83133958D01*
X121697085Y-84120733D01*
X121729130Y-84043370D01*
X121849630Y-83437573D01*
X121849630Y-82819907D01*
X121729130Y-82214110D01*
X121492759Y-81643462D01*
X121149603Y-81129892D01*
X120712848Y-80693137D01*
X120199278Y-80349981D01*
X119628630Y-80113610D01*
X119022833Y-79993110D01*
X118405167Y-79993110D01*
X117799370Y-80113610D01*
X117228722Y-80349981D01*
X116715152Y-80693137D01*
X116278397Y-81129892D01*
X115935241Y-81643462D01*
X115698870Y-82214110D01*
X115578370Y-82819907D01*
X115578370Y-83437573D01*
X115698870Y-84043370D01*
X115935241Y-84614018D01*
X116278397Y-85127588D01*
X116715152Y-85564343D01*
X117228722Y-85907499D01*
X117556449Y-86043249D01*
X114382998Y-89216701D01*
X114354000Y-89240499D01*
X114330202Y-89269497D01*
X114330201Y-89269498D01*
X114259026Y-89356224D01*
X114188454Y-89488254D01*
X114170268Y-89548208D01*
X114144998Y-89631514D01*
X114134001Y-89743167D01*
X114130324Y-89780500D01*
X114134001Y-89817833D01*
X114134000Y-112877928D01*
X114044000Y-112877928D01*
X113919518Y-112890188D01*
X113799820Y-112926498D01*
X113689506Y-112985463D01*
X113592815Y-113064815D01*
X113513463Y-113161506D01*
X113454498Y-113271820D01*
X113418188Y-113391518D01*
X113405928Y-113516000D01*
X113405928Y-115216000D01*
X113418188Y-115340482D01*
X113454498Y-115460180D01*
X113513463Y-115570494D01*
X113592815Y-115667185D01*
X113689506Y-115746537D01*
X113799820Y-115805502D01*
X113872380Y-115827513D01*
X113740525Y-115959368D01*
X113578010Y-116202589D01*
X113466068Y-116472842D01*
X113409000Y-116759740D01*
X113409000Y-117052260D01*
X113466068Y-117339158D01*
X113578010Y-117609411D01*
X113740525Y-117852632D01*
X113947368Y-118059475D01*
X114121760Y-118176000D01*
X113947368Y-118292525D01*
X113740525Y-118499368D01*
X113578010Y-118742589D01*
X113466068Y-119012842D01*
X113409000Y-119299740D01*
X113409000Y-119592260D01*
X113466068Y-119879158D01*
X113578010Y-120149411D01*
X113740525Y-120392632D01*
X113947368Y-120599475D01*
X114190589Y-120761990D01*
X114460842Y-120873932D01*
X114747740Y-120931000D01*
X115040260Y-120931000D01*
X115327158Y-120873932D01*
X115597411Y-120761990D01*
X115840632Y-120599475D01*
X116047475Y-120392632D01*
X116209990Y-120149411D01*
X116321932Y-119879158D01*
X116379000Y-119592260D01*
X116379000Y-119299740D01*
X116321932Y-119012842D01*
X116209990Y-118742589D01*
X116047475Y-118499368D01*
X115840632Y-118292525D01*
X115666240Y-118176000D01*
X115840632Y-118059475D01*
X116047475Y-117852632D01*
X116209990Y-117609411D01*
X116321932Y-117339158D01*
X116379000Y-117052260D01*
X116379000Y-116759740D01*
X116321932Y-116472842D01*
X116209990Y-116202589D01*
X116047475Y-115959368D01*
X115915620Y-115827513D01*
X115988180Y-115805502D01*
X116098494Y-115746537D01*
X116195185Y-115667185D01*
X116274537Y-115570494D01*
X116333502Y-115460180D01*
X116369812Y-115340482D01*
X116382072Y-115216000D01*
X116382072Y-113516000D01*
X116369812Y-113391518D01*
X116333502Y-113271820D01*
X116274537Y-113161506D01*
X116195185Y-113064815D01*
X116098494Y-112985463D01*
X115988180Y-112926498D01*
X115868482Y-112890188D01*
X115744000Y-112877928D01*
X115654000Y-112877928D01*
X115654000Y-108806312D01*
X115698870Y-109031890D01*
X115935241Y-109602538D01*
X116278397Y-110116108D01*
X116715152Y-110552863D01*
X117228722Y-110896019D01*
X117799370Y-111132390D01*
X118405167Y-111252890D01*
X119022833Y-111252890D01*
X119628630Y-111132390D01*
X120199278Y-110896019D01*
X120712848Y-110552863D01*
X120797420Y-110468291D01*
X120797420Y-110941098D01*
X119598998Y-112139521D01*
X119570000Y-112163319D01*
X119546202Y-112192317D01*
X119546201Y-112192318D01*
X119475026Y-112279044D01*
X119404454Y-112411074D01*
X119386572Y-112470026D01*
X119360998Y-112554334D01*
X119356867Y-112596276D01*
X119346324Y-112703320D01*
X119350001Y-112740652D01*
X119350000Y-125612678D01*
X119346324Y-125650000D01*
X119350000Y-125687322D01*
X119350000Y-125687332D01*
X119360997Y-125798985D01*
X119396630Y-125916454D01*
X119404454Y-125942246D01*
X119475026Y-126074276D01*
X119496076Y-126099925D01*
X119569999Y-126190001D01*
X119599003Y-126213804D01*
X120828000Y-127442802D01*
X120828001Y-129617859D01*
X120840724Y-129747040D01*
X112052000Y-129747040D01*
X112052000Y-125227872D01*
X113797000Y-125227872D01*
X113797000Y-125668128D01*
X113882890Y-126099925D01*
X114051369Y-126506669D01*
X114295962Y-126872729D01*
X114607271Y-127184038D01*
X114973331Y-127428631D01*
X115380075Y-127597110D01*
X115811872Y-127683000D01*
X116252128Y-127683000D01*
X116683925Y-127597110D01*
X117090669Y-127428631D01*
X117456729Y-127184038D01*
X117768038Y-126872729D01*
X118012631Y-126506669D01*
X118181110Y-126099925D01*
X118267000Y-125668128D01*
X118267000Y-125227872D01*
X118181110Y-124796075D01*
X118012631Y-124389331D01*
X117768038Y-124023271D01*
X117456729Y-123711962D01*
X117090669Y-123467369D01*
X116683925Y-123298890D01*
X116252128Y-123213000D01*
X115811872Y-123213000D01*
X115380075Y-123298890D01*
X114973331Y-123467369D01*
X114607271Y-123711962D01*
X114295962Y-124023271D01*
X114051369Y-124389331D01*
X113882890Y-124796075D01*
X113797000Y-125227872D01*
X112052000Y-125227872D01*
X112052000Y-121858705D01*
X112115020Y-121839588D01*
X112115132Y-121839528D01*
X112115238Y-121839496D01*
X112172559Y-121808833D01*
X112238363Y-121773660D01*
X112238462Y-121773579D01*
X112238559Y-121773527D01*
X112290008Y-121731276D01*
X112346475Y-121684935D01*
X112346553Y-121684840D01*
X112346642Y-121684767D01*
X112389255Y-121632808D01*
X112435200Y-121576823D01*
X112435259Y-121576713D01*
X112435331Y-121576625D01*
X112467235Y-121516889D01*
X112501128Y-121453480D01*
X112501164Y-121453361D01*
X112501218Y-121453260D01*
X112520896Y-121388314D01*
X112541727Y-121319644D01*
X112541739Y-121319524D01*
X112541773Y-121319411D01*
X112548532Y-121250546D01*
X112555435Y-121180460D01*
X112551988Y-121145460D01*
X112549091Y-112415224D01*
X112552515Y-112380460D01*
X112549068Y-112345461D01*
X112549068Y-112345348D01*
X112545818Y-112312459D01*
X112538807Y-112241276D01*
X112538771Y-112241158D01*
X112538760Y-112241044D01*
X112519067Y-112176204D01*
X112498208Y-112107440D01*
X112498151Y-112107333D01*
X112498117Y-112107222D01*
X112466204Y-112047564D01*
X112432280Y-111984097D01*
X112432202Y-111984002D01*
X112432148Y-111983901D01*
X112389322Y-111931752D01*
X112343555Y-111875985D01*
X112343460Y-111875907D01*
X112343387Y-111875818D01*
X112290715Y-111832621D01*
X112235443Y-111787260D01*
X112235336Y-111787203D01*
X112235246Y-111787129D01*
X112175149Y-111755032D01*
X112112100Y-111721332D01*
X112111983Y-111721297D01*
X112111881Y-111721242D01*
X112049126Y-111702228D01*
X112051344Y-79396538D01*
X112125275Y-79471107D01*
X112327054Y-79607190D01*
X112551504Y-79701293D01*
X112790000Y-79749800D01*
X113190000Y-79749800D01*
X113190000Y-78641800D01*
X113444000Y-78641800D01*
X113444000Y-79749800D01*
X113844000Y-79749800D01*
X114082496Y-79701293D01*
X114306946Y-79607190D01*
X114508725Y-79471107D01*
X114680078Y-79298274D01*
X114814421Y-79095333D01*
X114906591Y-78870082D01*
X114910462Y-78832409D01*
X114785731Y-78641800D01*
X113444000Y-78641800D01*
X113190000Y-78641800D01*
X113170000Y-78641800D01*
X113170000Y-78387800D01*
X113190000Y-78387800D01*
X113190000Y-77279800D01*
X113444000Y-77279800D01*
X113444000Y-78387800D01*
X114785731Y-78387800D01*
X114910462Y-78197191D01*
X114906591Y-78159518D01*
X114814421Y-77934267D01*
X114680078Y-77731326D01*
X114623783Y-77674544D01*
X114823197Y-77674544D01*
X114880860Y-77835787D01*
X114993615Y-78038633D01*
X115143777Y-78215583D01*
X115325574Y-78359838D01*
X115532021Y-78465855D01*
X115755184Y-78529559D01*
X115940000Y-78389604D01*
X115940000Y-77491800D01*
X116194000Y-77491800D01*
X116194000Y-78389604D01*
X116378816Y-78529559D01*
X116601979Y-78465855D01*
X116808426Y-78359838D01*
X116990223Y-78215583D01*
X117140385Y-78038633D01*
X117253140Y-77835787D01*
X117310803Y-77674544D01*
X117185361Y-77491800D01*
X116194000Y-77491800D01*
X115940000Y-77491800D01*
X114948639Y-77491800D01*
X114823197Y-77674544D01*
X114623783Y-77674544D01*
X114508725Y-77558493D01*
X114306946Y-77422410D01*
X114082496Y-77328307D01*
X113844000Y-77279800D01*
X113444000Y-77279800D01*
X113190000Y-77279800D01*
X112790000Y-77279800D01*
X112551504Y-77328307D01*
X112327054Y-77422410D01*
X112125275Y-77558493D01*
X112051465Y-77632940D01*
X112051504Y-77055056D01*
X114823197Y-77055056D01*
X114948639Y-77237800D01*
X115940000Y-77237800D01*
X115940000Y-76339996D01*
X116194000Y-76339996D01*
X116194000Y-77237800D01*
X117185361Y-77237800D01*
X117310803Y-77055056D01*
X117253140Y-76893813D01*
X117140385Y-76690967D01*
X116990223Y-76514017D01*
X116808426Y-76369762D01*
X116601979Y-76263745D01*
X116378816Y-76200041D01*
X116194000Y-76339996D01*
X115940000Y-76339996D01*
X115755184Y-76200041D01*
X115532021Y-76263745D01*
X115325574Y-76369762D01*
X115143777Y-76514017D01*
X114993615Y-76690967D01*
X114880860Y-76893813D01*
X114823197Y-77055056D01*
X112051504Y-77055056D01*
X112051795Y-72824544D01*
X114823197Y-72824544D01*
X114880860Y-72985787D01*
X114993615Y-73188633D01*
X115143777Y-73365583D01*
X115325574Y-73509838D01*
X115532021Y-73615855D01*
X115755184Y-73679559D01*
X115940000Y-73539604D01*
X115940000Y-72641800D01*
X116194000Y-72641800D01*
X116194000Y-73539604D01*
X116378816Y-73679559D01*
X116601979Y-73615855D01*
X116808426Y-73509838D01*
X116990223Y-73365583D01*
X117140385Y-73188633D01*
X117253140Y-72985787D01*
X117310803Y-72824544D01*
X117185361Y-72641800D01*
X116194000Y-72641800D01*
X115940000Y-72641800D01*
X114948639Y-72641800D01*
X114823197Y-72824544D01*
X112051795Y-72824544D01*
X112051835Y-72247033D01*
X112125275Y-72321107D01*
X112327054Y-72457190D01*
X112551504Y-72551293D01*
X112790000Y-72599800D01*
X113190000Y-72599800D01*
X113190000Y-71491800D01*
X113444000Y-71491800D01*
X113444000Y-72599800D01*
X113844000Y-72599800D01*
X114082496Y-72551293D01*
X114306946Y-72457190D01*
X114508725Y-72321107D01*
X114623782Y-72205056D01*
X114823197Y-72205056D01*
X114948639Y-72387800D01*
X115940000Y-72387800D01*
X115940000Y-71489996D01*
X116194000Y-71489996D01*
X116194000Y-72387800D01*
X117185361Y-72387800D01*
X117310803Y-72205056D01*
X117253140Y-72043813D01*
X117140385Y-71840967D01*
X116990223Y-71664017D01*
X116808426Y-71519762D01*
X116601979Y-71413745D01*
X116378816Y-71350041D01*
X116194000Y-71489996D01*
X115940000Y-71489996D01*
X115755184Y-71350041D01*
X115532021Y-71413745D01*
X115325574Y-71519762D01*
X115143777Y-71664017D01*
X114993615Y-71840967D01*
X114880860Y-72043813D01*
X114823197Y-72205056D01*
X114623782Y-72205056D01*
X114680078Y-72148274D01*
X114814421Y-71945333D01*
X114906591Y-71720082D01*
X114910462Y-71682409D01*
X114785731Y-71491800D01*
X113444000Y-71491800D01*
X113190000Y-71491800D01*
X113170000Y-71491800D01*
X113170000Y-71237800D01*
X113190000Y-71237800D01*
X113190000Y-71217800D01*
X113444000Y-71217800D01*
X113444000Y-71237800D01*
X114785731Y-71237800D01*
X114910462Y-71047191D01*
X114906591Y-71009518D01*
X114814421Y-70784267D01*
X114680078Y-70581326D01*
X114658935Y-70560000D01*
X120948928Y-70560000D01*
X120948928Y-77851000D01*
G37*
G04 #@! TD.AperFunction*
D21*
X133134000Y-122043348D02*
X133105454Y-122096753D01*
X133061997Y-122240014D01*
X133051000Y-122351667D01*
X133051000Y-122351678D01*
X133047324Y-122389000D01*
X133051000Y-122426322D01*
X133051000Y-122869678D01*
X133047324Y-122907000D01*
X133051000Y-122944322D01*
X133051000Y-122944332D01*
X133061997Y-123055985D01*
X133101125Y-123184974D01*
X133105454Y-123199246D01*
X133176026Y-123331276D01*
X133197150Y-123357015D01*
X133270999Y-123447001D01*
X133300003Y-123470804D01*
X134608487Y-124779289D01*
X134586124Y-124784407D01*
X134310908Y-124903283D01*
X134064172Y-125073567D01*
X133855398Y-125288715D01*
X133692609Y-125540458D01*
X133582060Y-125819123D01*
X133528000Y-126114000D01*
X133528000Y-127765000D01*
X134925000Y-127765000D01*
X134925000Y-127745000D01*
X135179000Y-127745000D01*
X135179000Y-127765000D01*
X137465000Y-127765000D01*
X137465000Y-127745000D01*
X137719000Y-127745000D01*
X137719000Y-127765000D01*
X137739000Y-127765000D01*
X137739000Y-128019000D01*
X137719000Y-128019000D01*
X137719000Y-128039000D01*
X137465000Y-128039000D01*
X137465000Y-128019000D01*
X135179000Y-128019000D01*
X135179000Y-128039000D01*
X134925000Y-128039000D01*
X134925000Y-128019000D01*
X133528000Y-128019000D01*
X133528000Y-129670000D01*
X133542124Y-129747040D01*
X131483277Y-129747040D01*
X131496000Y-129617859D01*
X131496000Y-126166141D01*
X131473948Y-125942244D01*
X131386804Y-125654969D01*
X131245290Y-125390215D01*
X131099018Y-125211982D01*
X131130028Y-125191262D01*
X131260262Y-125061028D01*
X131362586Y-124907889D01*
X131433068Y-124737729D01*
X131457153Y-124616649D01*
X132256004Y-123817798D01*
X132285001Y-123794001D01*
X132379974Y-123678276D01*
X132450546Y-123546247D01*
X132494003Y-123402986D01*
X132505000Y-123291333D01*
X132505000Y-123291332D01*
X132508677Y-123254000D01*
X132505000Y-123216667D01*
X132505000Y-120531701D01*
X132537271Y-120545068D01*
X132717911Y-120581000D01*
X132902089Y-120581000D01*
X133082729Y-120545068D01*
X133134000Y-120523831D01*
X133134000Y-122043348D01*
G04 #@! TA.AperFunction,Conductor*
D22*
G36*
X133134000Y-122043348D02*
G01*
X133105454Y-122096753D01*
X133061997Y-122240014D01*
X133051000Y-122351667D01*
X133051000Y-122351678D01*
X133047324Y-122389000D01*
X133051000Y-122426322D01*
X133051000Y-122869678D01*
X133047324Y-122907000D01*
X133051000Y-122944322D01*
X133051000Y-122944332D01*
X133061997Y-123055985D01*
X133101125Y-123184974D01*
X133105454Y-123199246D01*
X133176026Y-123331276D01*
X133197150Y-123357015D01*
X133270999Y-123447001D01*
X133300003Y-123470804D01*
X134608487Y-124779289D01*
X134586124Y-124784407D01*
X134310908Y-124903283D01*
X134064172Y-125073567D01*
X133855398Y-125288715D01*
X133692609Y-125540458D01*
X133582060Y-125819123D01*
X133528000Y-126114000D01*
X133528000Y-127765000D01*
X134925000Y-127765000D01*
X134925000Y-127745000D01*
X135179000Y-127745000D01*
X135179000Y-127765000D01*
X137465000Y-127765000D01*
X137465000Y-127745000D01*
X137719000Y-127745000D01*
X137719000Y-127765000D01*
X137739000Y-127765000D01*
X137739000Y-128019000D01*
X137719000Y-128019000D01*
X137719000Y-128039000D01*
X137465000Y-128039000D01*
X137465000Y-128019000D01*
X135179000Y-128019000D01*
X135179000Y-128039000D01*
X134925000Y-128039000D01*
X134925000Y-128019000D01*
X133528000Y-128019000D01*
X133528000Y-129670000D01*
X133542124Y-129747040D01*
X131483277Y-129747040D01*
X131496000Y-129617859D01*
X131496000Y-126166141D01*
X131473948Y-125942244D01*
X131386804Y-125654969D01*
X131245290Y-125390215D01*
X131099018Y-125211982D01*
X131130028Y-125191262D01*
X131260262Y-125061028D01*
X131362586Y-124907889D01*
X131433068Y-124737729D01*
X131457153Y-124616649D01*
X132256004Y-123817798D01*
X132285001Y-123794001D01*
X132379974Y-123678276D01*
X132450546Y-123546247D01*
X132494003Y-123402986D01*
X132505000Y-123291333D01*
X132505000Y-123291332D01*
X132508677Y-123254000D01*
X132505000Y-123216667D01*
X132505000Y-120531701D01*
X132537271Y-120545068D01*
X132717911Y-120581000D01*
X132902089Y-120581000D01*
X133082729Y-120545068D01*
X133134000Y-120523831D01*
X133134000Y-122043348D01*
G37*
G04 #@! TD.AperFunction*
D21*
X155499000Y-127765000D02*
X155519000Y-127765000D01*
X155519000Y-128019000D01*
X155499000Y-128019000D01*
X155499000Y-128039000D01*
X155245000Y-128039000D01*
X155245000Y-128019000D01*
X155225000Y-128019000D01*
X155225000Y-127765000D01*
X155245000Y-127765000D01*
X155245000Y-127745000D01*
X155499000Y-127745000D01*
X155499000Y-127765000D01*
G04 #@! TA.AperFunction,Conductor*
D22*
G36*
X155499000Y-127765000D02*
G01*
X155519000Y-127765000D01*
X155519000Y-128019000D01*
X155499000Y-128019000D01*
X155499000Y-128039000D01*
X155245000Y-128039000D01*
X155245000Y-128019000D01*
X155225000Y-128019000D01*
X155225000Y-127765000D01*
X155245000Y-127765000D01*
X155245000Y-127745000D01*
X155499000Y-127745000D01*
X155499000Y-127765000D01*
G37*
G04 #@! TD.AperFunction*
D21*
X125170001Y-89471123D02*
X125166324Y-89508415D01*
X125170001Y-89545791D01*
X125170001Y-89545833D01*
X125173300Y-89579329D01*
X125180981Y-89657401D01*
X125180994Y-89657443D01*
X125180998Y-89657486D01*
X125200447Y-89721601D01*
X125224421Y-89800667D01*
X125224444Y-89800709D01*
X125224455Y-89800747D01*
X125256802Y-89861263D01*
X125294979Y-89932704D01*
X125295006Y-89932737D01*
X125295027Y-89932776D01*
X125338029Y-89985174D01*
X125366143Y-90019439D01*
X125366179Y-90019475D01*
X125390000Y-90048501D01*
X125418960Y-90072267D01*
X126503000Y-91156553D01*
X126503000Y-100210370D01*
X125228050Y-98935748D01*
X124157644Y-97865342D01*
X124133841Y-97836339D01*
X124018116Y-97741366D01*
X123886087Y-97670794D01*
X123742826Y-97627337D01*
X123631173Y-97616340D01*
X123631162Y-97616340D01*
X123593840Y-97612664D01*
X123556518Y-97616340D01*
X122671135Y-97616340D01*
X122568489Y-97547754D01*
X122398329Y-97477272D01*
X122217689Y-97441340D01*
X122033511Y-97441340D01*
X121852871Y-97477272D01*
X121682711Y-97547754D01*
X121616158Y-97592223D01*
X121466326Y-97409654D01*
X121255346Y-97236506D01*
X121014640Y-97107847D01*
X120753459Y-97028618D01*
X120549907Y-97008570D01*
X120753459Y-96988522D01*
X121014640Y-96909293D01*
X121255346Y-96780634D01*
X121466326Y-96607486D01*
X121639474Y-96396506D01*
X121768133Y-96155800D01*
X121847362Y-95894619D01*
X121874114Y-95623000D01*
X121847362Y-95351381D01*
X121768133Y-95090200D01*
X121639474Y-94849494D01*
X121466326Y-94638514D01*
X121255346Y-94465366D01*
X121014640Y-94336707D01*
X120753459Y-94257478D01*
X120549907Y-94237430D01*
X120753459Y-94217382D01*
X121014640Y-94138153D01*
X121255346Y-94009494D01*
X121466326Y-93836346D01*
X121639474Y-93625366D01*
X121768133Y-93384660D01*
X121847362Y-93123479D01*
X121874114Y-92851860D01*
X121847362Y-92580241D01*
X121768133Y-92319060D01*
X121639474Y-92078354D01*
X121466326Y-91867374D01*
X121255346Y-91694226D01*
X121014640Y-91565567D01*
X120753459Y-91486338D01*
X120562802Y-91467560D01*
X120753459Y-91448782D01*
X121014640Y-91369553D01*
X121255346Y-91240894D01*
X121466326Y-91067746D01*
X121639474Y-90856766D01*
X121768133Y-90616060D01*
X121847362Y-90354879D01*
X121874114Y-90083260D01*
X121847362Y-89811641D01*
X121768133Y-89550460D01*
X121639474Y-89309754D01*
X121466326Y-89098774D01*
X121255346Y-88925626D01*
X121014640Y-88796967D01*
X120753459Y-88717738D01*
X120549907Y-88697690D01*
X119915933Y-88697690D01*
X119712381Y-88717738D01*
X119451200Y-88796967D01*
X119210494Y-88925626D01*
X118999514Y-89098774D01*
X118826366Y-89309754D01*
X118697707Y-89550460D01*
X118618478Y-89811641D01*
X118591726Y-90083260D01*
X118618478Y-90354879D01*
X118697707Y-90616060D01*
X118826366Y-90856766D01*
X118999514Y-91067746D01*
X119210494Y-91240894D01*
X119451200Y-91369553D01*
X119712381Y-91448782D01*
X119903038Y-91467560D01*
X119712381Y-91486338D01*
X119451200Y-91565567D01*
X119210494Y-91694226D01*
X118999514Y-91867374D01*
X118826366Y-92078354D01*
X118697707Y-92319060D01*
X118618478Y-92580241D01*
X118591726Y-92851860D01*
X118618478Y-93123479D01*
X118697707Y-93384660D01*
X118826366Y-93625366D01*
X118999514Y-93836346D01*
X119210494Y-94009494D01*
X119451200Y-94138153D01*
X119712381Y-94217382D01*
X119915933Y-94237430D01*
X119712381Y-94257478D01*
X119451200Y-94336707D01*
X119210494Y-94465366D01*
X118999514Y-94638514D01*
X118826366Y-94849494D01*
X118697707Y-95090200D01*
X118618478Y-95351381D01*
X118591726Y-95623000D01*
X118618478Y-95894619D01*
X118697707Y-96155800D01*
X118826366Y-96396506D01*
X118999514Y-96607486D01*
X119210494Y-96780634D01*
X119451200Y-96909293D01*
X119712381Y-96988522D01*
X119915933Y-97008570D01*
X119712381Y-97028618D01*
X119451200Y-97107847D01*
X119210494Y-97236506D01*
X118999514Y-97409654D01*
X118826366Y-97620634D01*
X118697707Y-97861340D01*
X118618478Y-98122521D01*
X118591726Y-98394140D01*
X118618478Y-98665759D01*
X118697707Y-98926940D01*
X118826366Y-99167646D01*
X118999514Y-99378626D01*
X119210494Y-99551774D01*
X119451200Y-99680433D01*
X119712381Y-99759662D01*
X119903038Y-99778440D01*
X119712381Y-99797218D01*
X119451200Y-99876447D01*
X119210494Y-100005106D01*
X118999514Y-100178254D01*
X118826366Y-100389234D01*
X118697707Y-100629940D01*
X118618478Y-100891121D01*
X118591726Y-101162740D01*
X118618478Y-101434359D01*
X118697707Y-101695540D01*
X118826366Y-101936246D01*
X118999514Y-102147226D01*
X119210494Y-102320374D01*
X119451200Y-102449033D01*
X119712381Y-102528262D01*
X119915933Y-102548310D01*
X120549907Y-102548310D01*
X120753459Y-102528262D01*
X121014640Y-102449033D01*
X121255346Y-102320374D01*
X121466326Y-102147226D01*
X121639474Y-101936246D01*
X121768133Y-101695540D01*
X121847362Y-101434359D01*
X121874114Y-101162740D01*
X121847362Y-100891121D01*
X121768133Y-100629940D01*
X121639474Y-100389234D01*
X121466326Y-100178254D01*
X121255346Y-100005106D01*
X121014640Y-99876447D01*
X120753459Y-99797218D01*
X120562802Y-99778440D01*
X120753459Y-99759662D01*
X121014640Y-99680433D01*
X121255346Y-99551774D01*
X121466326Y-99378626D01*
X121635027Y-99173065D01*
X121682711Y-99204926D01*
X121852871Y-99275408D01*
X122033511Y-99311340D01*
X122217689Y-99311340D01*
X122398329Y-99275408D01*
X122568489Y-99204926D01*
X122671135Y-99136340D01*
X123279039Y-99136340D01*
X124126239Y-99983541D01*
X124126267Y-99983575D01*
X124147804Y-100005106D01*
X124178997Y-100036299D01*
X124179039Y-100036333D01*
X125875000Y-101731860D01*
X125875001Y-109821463D01*
X125806414Y-109924111D01*
X125735932Y-110094271D01*
X125700000Y-110274911D01*
X125700000Y-110459089D01*
X125735932Y-110639729D01*
X125806414Y-110809889D01*
X125908738Y-110963028D01*
X126005454Y-111059744D01*
X125413003Y-111652196D01*
X125383999Y-111675999D01*
X125328871Y-111743174D01*
X125289026Y-111791724D01*
X125218455Y-111923753D01*
X125218454Y-111923754D01*
X125174997Y-112067015D01*
X125164000Y-112178668D01*
X125164000Y-112178678D01*
X125160324Y-112216000D01*
X125164000Y-112253322D01*
X125164001Y-123680196D01*
X124380998Y-124463201D01*
X124352000Y-124486999D01*
X124328202Y-124515997D01*
X124328201Y-124515998D01*
X124257026Y-124602724D01*
X124186454Y-124734754D01*
X124158452Y-124827067D01*
X124142998Y-124878014D01*
X124139329Y-124915267D01*
X124041215Y-124967710D01*
X123809156Y-125158156D01*
X123622000Y-125386207D01*
X123434844Y-125158156D01*
X123202784Y-124967710D01*
X122938030Y-124826196D01*
X122650755Y-124739052D01*
X122352000Y-124709627D01*
X122053244Y-124739052D01*
X121765969Y-124826196D01*
X121501215Y-124967710D01*
X121269156Y-125158156D01*
X121078710Y-125390216D01*
X121025175Y-125490374D01*
X120870000Y-125335199D01*
X120870000Y-113018121D01*
X122068424Y-111819698D01*
X122097421Y-111795901D01*
X122153145Y-111728001D01*
X122192394Y-111680177D01*
X122262966Y-111548147D01*
X122266474Y-111536583D01*
X122306423Y-111404886D01*
X122317420Y-111293233D01*
X122317420Y-111293223D01*
X122321096Y-111255900D01*
X122317420Y-111218578D01*
X122317420Y-104855893D01*
X122321097Y-104818560D01*
X122306423Y-104669574D01*
X122262966Y-104526313D01*
X122192394Y-104394284D01*
X122097421Y-104278559D01*
X121981696Y-104183586D01*
X121849667Y-104113014D01*
X121706406Y-104069557D01*
X121594753Y-104058560D01*
X121557420Y-104054883D01*
X121520087Y-104058560D01*
X120779983Y-104058560D01*
X117830527Y-101109105D01*
X117976800Y-101064733D01*
X118217506Y-100936074D01*
X118428486Y-100762926D01*
X118601634Y-100551946D01*
X118730293Y-100311240D01*
X118809522Y-100050059D01*
X118836274Y-99778440D01*
X118809522Y-99506821D01*
X118730293Y-99245640D01*
X118601634Y-99004934D01*
X118428486Y-98793954D01*
X118217506Y-98620806D01*
X117976800Y-98492147D01*
X117715619Y-98412918D01*
X117558545Y-98397448D01*
X117811113Y-98354655D01*
X118066915Y-98257146D01*
X118298779Y-98111606D01*
X118497794Y-97923628D01*
X118656312Y-97700436D01*
X118768242Y-97450607D01*
X118786883Y-97348575D01*
X118664229Y-97134300D01*
X117322080Y-97134300D01*
X117322080Y-97154300D01*
X117068080Y-97154300D01*
X117068080Y-97134300D01*
X117048080Y-97134300D01*
X117048080Y-96880300D01*
X117068080Y-96880300D01*
X117068080Y-96860300D01*
X117322080Y-96860300D01*
X117322080Y-96880300D01*
X118664229Y-96880300D01*
X118786883Y-96666025D01*
X118768242Y-96563993D01*
X118656312Y-96314164D01*
X118497794Y-96090972D01*
X118298779Y-95902994D01*
X118066915Y-95757454D01*
X117811113Y-95659945D01*
X117568026Y-95618759D01*
X117715619Y-95604222D01*
X117976800Y-95524993D01*
X118217506Y-95396334D01*
X118428486Y-95223186D01*
X118601634Y-95012206D01*
X118730293Y-94771500D01*
X118809522Y-94510319D01*
X118836274Y-94238700D01*
X118809522Y-93967081D01*
X118730293Y-93705900D01*
X118601634Y-93465194D01*
X118428486Y-93254214D01*
X118217506Y-93081066D01*
X117976800Y-92952407D01*
X117715619Y-92873178D01*
X117512067Y-92853130D01*
X117715619Y-92833082D01*
X117976800Y-92753853D01*
X118217506Y-92625194D01*
X118428486Y-92452046D01*
X118601634Y-92241066D01*
X118730293Y-92000360D01*
X118809522Y-91739179D01*
X118836274Y-91467560D01*
X118809522Y-91195941D01*
X118730293Y-90934760D01*
X118601634Y-90694054D01*
X118428486Y-90483074D01*
X118217506Y-90309926D01*
X117976800Y-90181267D01*
X117830527Y-90136895D01*
X123954869Y-84012555D01*
X123983861Y-83988762D01*
X124007655Y-83959769D01*
X124007659Y-83959765D01*
X124078833Y-83873038D01*
X124078834Y-83873037D01*
X124149406Y-83741008D01*
X124192863Y-83597747D01*
X124203860Y-83486094D01*
X124203860Y-83486085D01*
X124207536Y-83448762D01*
X124203860Y-83411439D01*
X124203860Y-82706741D01*
X125170000Y-81740601D01*
X125170001Y-89471123D01*
G04 #@! TA.AperFunction,Conductor*
D22*
G36*
X125170001Y-89471123D02*
G01*
X125166324Y-89508415D01*
X125170001Y-89545791D01*
X125170001Y-89545833D01*
X125173300Y-89579329D01*
X125180981Y-89657401D01*
X125180994Y-89657443D01*
X125180998Y-89657486D01*
X125200447Y-89721601D01*
X125224421Y-89800667D01*
X125224444Y-89800709D01*
X125224455Y-89800747D01*
X125256802Y-89861263D01*
X125294979Y-89932704D01*
X125295006Y-89932737D01*
X125295027Y-89932776D01*
X125338029Y-89985174D01*
X125366143Y-90019439D01*
X125366179Y-90019475D01*
X125390000Y-90048501D01*
X125418960Y-90072267D01*
X126503000Y-91156553D01*
X126503000Y-100210370D01*
X125228050Y-98935748D01*
X124157644Y-97865342D01*
X124133841Y-97836339D01*
X124018116Y-97741366D01*
X123886087Y-97670794D01*
X123742826Y-97627337D01*
X123631173Y-97616340D01*
X123631162Y-97616340D01*
X123593840Y-97612664D01*
X123556518Y-97616340D01*
X122671135Y-97616340D01*
X122568489Y-97547754D01*
X122398329Y-97477272D01*
X122217689Y-97441340D01*
X122033511Y-97441340D01*
X121852871Y-97477272D01*
X121682711Y-97547754D01*
X121616158Y-97592223D01*
X121466326Y-97409654D01*
X121255346Y-97236506D01*
X121014640Y-97107847D01*
X120753459Y-97028618D01*
X120549907Y-97008570D01*
X120753459Y-96988522D01*
X121014640Y-96909293D01*
X121255346Y-96780634D01*
X121466326Y-96607486D01*
X121639474Y-96396506D01*
X121768133Y-96155800D01*
X121847362Y-95894619D01*
X121874114Y-95623000D01*
X121847362Y-95351381D01*
X121768133Y-95090200D01*
X121639474Y-94849494D01*
X121466326Y-94638514D01*
X121255346Y-94465366D01*
X121014640Y-94336707D01*
X120753459Y-94257478D01*
X120549907Y-94237430D01*
X120753459Y-94217382D01*
X121014640Y-94138153D01*
X121255346Y-94009494D01*
X121466326Y-93836346D01*
X121639474Y-93625366D01*
X121768133Y-93384660D01*
X121847362Y-93123479D01*
X121874114Y-92851860D01*
X121847362Y-92580241D01*
X121768133Y-92319060D01*
X121639474Y-92078354D01*
X121466326Y-91867374D01*
X121255346Y-91694226D01*
X121014640Y-91565567D01*
X120753459Y-91486338D01*
X120562802Y-91467560D01*
X120753459Y-91448782D01*
X121014640Y-91369553D01*
X121255346Y-91240894D01*
X121466326Y-91067746D01*
X121639474Y-90856766D01*
X121768133Y-90616060D01*
X121847362Y-90354879D01*
X121874114Y-90083260D01*
X121847362Y-89811641D01*
X121768133Y-89550460D01*
X121639474Y-89309754D01*
X121466326Y-89098774D01*
X121255346Y-88925626D01*
X121014640Y-88796967D01*
X120753459Y-88717738D01*
X120549907Y-88697690D01*
X119915933Y-88697690D01*
X119712381Y-88717738D01*
X119451200Y-88796967D01*
X119210494Y-88925626D01*
X118999514Y-89098774D01*
X118826366Y-89309754D01*
X118697707Y-89550460D01*
X118618478Y-89811641D01*
X118591726Y-90083260D01*
X118618478Y-90354879D01*
X118697707Y-90616060D01*
X118826366Y-90856766D01*
X118999514Y-91067746D01*
X119210494Y-91240894D01*
X119451200Y-91369553D01*
X119712381Y-91448782D01*
X119903038Y-91467560D01*
X119712381Y-91486338D01*
X119451200Y-91565567D01*
X119210494Y-91694226D01*
X118999514Y-91867374D01*
X118826366Y-92078354D01*
X118697707Y-92319060D01*
X118618478Y-92580241D01*
X118591726Y-92851860D01*
X118618478Y-93123479D01*
X118697707Y-93384660D01*
X118826366Y-93625366D01*
X118999514Y-93836346D01*
X119210494Y-94009494D01*
X119451200Y-94138153D01*
X119712381Y-94217382D01*
X119915933Y-94237430D01*
X119712381Y-94257478D01*
X119451200Y-94336707D01*
X119210494Y-94465366D01*
X118999514Y-94638514D01*
X118826366Y-94849494D01*
X118697707Y-95090200D01*
X118618478Y-95351381D01*
X118591726Y-95623000D01*
X118618478Y-95894619D01*
X118697707Y-96155800D01*
X118826366Y-96396506D01*
X118999514Y-96607486D01*
X119210494Y-96780634D01*
X119451200Y-96909293D01*
X119712381Y-96988522D01*
X119915933Y-97008570D01*
X119712381Y-97028618D01*
X119451200Y-97107847D01*
X119210494Y-97236506D01*
X118999514Y-97409654D01*
X118826366Y-97620634D01*
X118697707Y-97861340D01*
X118618478Y-98122521D01*
X118591726Y-98394140D01*
X118618478Y-98665759D01*
X118697707Y-98926940D01*
X118826366Y-99167646D01*
X118999514Y-99378626D01*
X119210494Y-99551774D01*
X119451200Y-99680433D01*
X119712381Y-99759662D01*
X119903038Y-99778440D01*
X119712381Y-99797218D01*
X119451200Y-99876447D01*
X119210494Y-100005106D01*
X118999514Y-100178254D01*
X118826366Y-100389234D01*
X118697707Y-100629940D01*
X118618478Y-100891121D01*
X118591726Y-101162740D01*
X118618478Y-101434359D01*
X118697707Y-101695540D01*
X118826366Y-101936246D01*
X118999514Y-102147226D01*
X119210494Y-102320374D01*
X119451200Y-102449033D01*
X119712381Y-102528262D01*
X119915933Y-102548310D01*
X120549907Y-102548310D01*
X120753459Y-102528262D01*
X121014640Y-102449033D01*
X121255346Y-102320374D01*
X121466326Y-102147226D01*
X121639474Y-101936246D01*
X121768133Y-101695540D01*
X121847362Y-101434359D01*
X121874114Y-101162740D01*
X121847362Y-100891121D01*
X121768133Y-100629940D01*
X121639474Y-100389234D01*
X121466326Y-100178254D01*
X121255346Y-100005106D01*
X121014640Y-99876447D01*
X120753459Y-99797218D01*
X120562802Y-99778440D01*
X120753459Y-99759662D01*
X121014640Y-99680433D01*
X121255346Y-99551774D01*
X121466326Y-99378626D01*
X121635027Y-99173065D01*
X121682711Y-99204926D01*
X121852871Y-99275408D01*
X122033511Y-99311340D01*
X122217689Y-99311340D01*
X122398329Y-99275408D01*
X122568489Y-99204926D01*
X122671135Y-99136340D01*
X123279039Y-99136340D01*
X124126239Y-99983541D01*
X124126267Y-99983575D01*
X124147804Y-100005106D01*
X124178997Y-100036299D01*
X124179039Y-100036333D01*
X125875000Y-101731860D01*
X125875001Y-109821463D01*
X125806414Y-109924111D01*
X125735932Y-110094271D01*
X125700000Y-110274911D01*
X125700000Y-110459089D01*
X125735932Y-110639729D01*
X125806414Y-110809889D01*
X125908738Y-110963028D01*
X126005454Y-111059744D01*
X125413003Y-111652196D01*
X125383999Y-111675999D01*
X125328871Y-111743174D01*
X125289026Y-111791724D01*
X125218455Y-111923753D01*
X125218454Y-111923754D01*
X125174997Y-112067015D01*
X125164000Y-112178668D01*
X125164000Y-112178678D01*
X125160324Y-112216000D01*
X125164000Y-112253322D01*
X125164001Y-123680196D01*
X124380998Y-124463201D01*
X124352000Y-124486999D01*
X124328202Y-124515997D01*
X124328201Y-124515998D01*
X124257026Y-124602724D01*
X124186454Y-124734754D01*
X124158452Y-124827067D01*
X124142998Y-124878014D01*
X124139329Y-124915267D01*
X124041215Y-124967710D01*
X123809156Y-125158156D01*
X123622000Y-125386207D01*
X123434844Y-125158156D01*
X123202784Y-124967710D01*
X122938030Y-124826196D01*
X122650755Y-124739052D01*
X122352000Y-124709627D01*
X122053244Y-124739052D01*
X121765969Y-124826196D01*
X121501215Y-124967710D01*
X121269156Y-125158156D01*
X121078710Y-125390216D01*
X121025175Y-125490374D01*
X120870000Y-125335199D01*
X120870000Y-113018121D01*
X122068424Y-111819698D01*
X122097421Y-111795901D01*
X122153145Y-111728001D01*
X122192394Y-111680177D01*
X122262966Y-111548147D01*
X122266474Y-111536583D01*
X122306423Y-111404886D01*
X122317420Y-111293233D01*
X122317420Y-111293223D01*
X122321096Y-111255900D01*
X122317420Y-111218578D01*
X122317420Y-104855893D01*
X122321097Y-104818560D01*
X122306423Y-104669574D01*
X122262966Y-104526313D01*
X122192394Y-104394284D01*
X122097421Y-104278559D01*
X121981696Y-104183586D01*
X121849667Y-104113014D01*
X121706406Y-104069557D01*
X121594753Y-104058560D01*
X121557420Y-104054883D01*
X121520087Y-104058560D01*
X120779983Y-104058560D01*
X117830527Y-101109105D01*
X117976800Y-101064733D01*
X118217506Y-100936074D01*
X118428486Y-100762926D01*
X118601634Y-100551946D01*
X118730293Y-100311240D01*
X118809522Y-100050059D01*
X118836274Y-99778440D01*
X118809522Y-99506821D01*
X118730293Y-99245640D01*
X118601634Y-99004934D01*
X118428486Y-98793954D01*
X118217506Y-98620806D01*
X117976800Y-98492147D01*
X117715619Y-98412918D01*
X117558545Y-98397448D01*
X117811113Y-98354655D01*
X118066915Y-98257146D01*
X118298779Y-98111606D01*
X118497794Y-97923628D01*
X118656312Y-97700436D01*
X118768242Y-97450607D01*
X118786883Y-97348575D01*
X118664229Y-97134300D01*
X117322080Y-97134300D01*
X117322080Y-97154300D01*
X117068080Y-97154300D01*
X117068080Y-97134300D01*
X117048080Y-97134300D01*
X117048080Y-96880300D01*
X117068080Y-96880300D01*
X117068080Y-96860300D01*
X117322080Y-96860300D01*
X117322080Y-96880300D01*
X118664229Y-96880300D01*
X118786883Y-96666025D01*
X118768242Y-96563993D01*
X118656312Y-96314164D01*
X118497794Y-96090972D01*
X118298779Y-95902994D01*
X118066915Y-95757454D01*
X117811113Y-95659945D01*
X117568026Y-95618759D01*
X117715619Y-95604222D01*
X117976800Y-95524993D01*
X118217506Y-95396334D01*
X118428486Y-95223186D01*
X118601634Y-95012206D01*
X118730293Y-94771500D01*
X118809522Y-94510319D01*
X118836274Y-94238700D01*
X118809522Y-93967081D01*
X118730293Y-93705900D01*
X118601634Y-93465194D01*
X118428486Y-93254214D01*
X118217506Y-93081066D01*
X117976800Y-92952407D01*
X117715619Y-92873178D01*
X117512067Y-92853130D01*
X117715619Y-92833082D01*
X117976800Y-92753853D01*
X118217506Y-92625194D01*
X118428486Y-92452046D01*
X118601634Y-92241066D01*
X118730293Y-92000360D01*
X118809522Y-91739179D01*
X118836274Y-91467560D01*
X118809522Y-91195941D01*
X118730293Y-90934760D01*
X118601634Y-90694054D01*
X118428486Y-90483074D01*
X118217506Y-90309926D01*
X117976800Y-90181267D01*
X117830527Y-90136895D01*
X123954869Y-84012555D01*
X123983861Y-83988762D01*
X124007655Y-83959769D01*
X124007659Y-83959765D01*
X124078833Y-83873038D01*
X124078834Y-83873037D01*
X124149406Y-83741008D01*
X124192863Y-83597747D01*
X124203860Y-83486094D01*
X124203860Y-83486085D01*
X124207536Y-83448762D01*
X124203860Y-83411439D01*
X124203860Y-82706741D01*
X125170000Y-81740601D01*
X125170001Y-89471123D01*
G37*
G04 #@! TD.AperFunction*
D21*
X157776000Y-117103089D02*
X157811932Y-117283729D01*
X157882414Y-117453889D01*
X157951001Y-117556537D01*
X157951000Y-123411919D01*
X157401181Y-123961051D01*
X157372000Y-123984999D01*
X157324998Y-124042271D01*
X157277292Y-124100327D01*
X157277178Y-124100540D01*
X157277027Y-124100724D01*
X157242669Y-124165003D01*
X157206637Y-124232312D01*
X157206566Y-124232545D01*
X157206455Y-124232753D01*
X157185029Y-124303386D01*
X157163091Y-124375546D01*
X157163067Y-124375786D01*
X157162998Y-124376014D01*
X157155719Y-124449917D01*
X157148324Y-124524522D01*
X157152001Y-124562097D01*
X157152001Y-124919184D01*
X157061215Y-124967710D01*
X156829156Y-125158156D01*
X156638710Y-125390216D01*
X156636686Y-125394003D01*
X156568602Y-125288715D01*
X156365277Y-125079182D01*
X156422028Y-125041262D01*
X156552262Y-124911028D01*
X156654586Y-124757889D01*
X156725068Y-124587729D01*
X156761000Y-124407089D01*
X156761000Y-124222911D01*
X156725068Y-124042271D01*
X156654586Y-123872111D01*
X156586000Y-123769465D01*
X156586000Y-117996942D01*
X157569347Y-117014213D01*
X157690729Y-116990068D01*
X157776000Y-116954748D01*
X157776000Y-117103089D01*
G04 #@! TA.AperFunction,Conductor*
D22*
G36*
X157776000Y-117103089D02*
G01*
X157811932Y-117283729D01*
X157882414Y-117453889D01*
X157951001Y-117556537D01*
X157951000Y-123411919D01*
X157401181Y-123961051D01*
X157372000Y-123984999D01*
X157324998Y-124042271D01*
X157277292Y-124100327D01*
X157277178Y-124100540D01*
X157277027Y-124100724D01*
X157242669Y-124165003D01*
X157206637Y-124232312D01*
X157206566Y-124232545D01*
X157206455Y-124232753D01*
X157185029Y-124303386D01*
X157163091Y-124375546D01*
X157163067Y-124375786D01*
X157162998Y-124376014D01*
X157155719Y-124449917D01*
X157148324Y-124524522D01*
X157152001Y-124562097D01*
X157152001Y-124919184D01*
X157061215Y-124967710D01*
X156829156Y-125158156D01*
X156638710Y-125390216D01*
X156636686Y-125394003D01*
X156568602Y-125288715D01*
X156365277Y-125079182D01*
X156422028Y-125041262D01*
X156552262Y-124911028D01*
X156654586Y-124757889D01*
X156725068Y-124587729D01*
X156761000Y-124407089D01*
X156761000Y-124222911D01*
X156725068Y-124042271D01*
X156654586Y-123872111D01*
X156586000Y-123769465D01*
X156586000Y-117996942D01*
X157569347Y-117014213D01*
X157690729Y-116990068D01*
X157776000Y-116954748D01*
X157776000Y-117103089D01*
G37*
G04 #@! TD.AperFunction*
D21*
X132536227Y-88666438D02*
X132847669Y-88748085D01*
X133145425Y-88765985D01*
X133111212Y-88807673D01*
X133061071Y-88868757D01*
X133061050Y-88868795D01*
X133061027Y-88868824D01*
X133028542Y-88929599D01*
X132990485Y-89000779D01*
X132990472Y-89000820D01*
X132990455Y-89000853D01*
X132972005Y-89061676D01*
X132947013Y-89144035D01*
X132947009Y-89144079D01*
X132946998Y-89144114D01*
X132939978Y-89215393D01*
X132932324Y-89293020D01*
X132936001Y-89330394D01*
X132936000Y-114562678D01*
X132932324Y-114600000D01*
X132936000Y-114637322D01*
X132936000Y-114637332D01*
X132946997Y-114748985D01*
X132985847Y-114877058D01*
X132990454Y-114892246D01*
X133061026Y-115024276D01*
X133079878Y-115047247D01*
X133134001Y-115113196D01*
X133134000Y-118768169D01*
X133082729Y-118746932D01*
X132902089Y-118711000D01*
X132717911Y-118711000D01*
X132537271Y-118746932D01*
X132505000Y-118760299D01*
X132505000Y-88651248D01*
X132536227Y-88666438D01*
G04 #@! TA.AperFunction,Conductor*
D22*
G36*
X132536227Y-88666438D02*
G01*
X132847669Y-88748085D01*
X133145425Y-88765985D01*
X133111212Y-88807673D01*
X133061071Y-88868757D01*
X133061050Y-88868795D01*
X133061027Y-88868824D01*
X133028542Y-88929599D01*
X132990485Y-89000779D01*
X132990472Y-89000820D01*
X132990455Y-89000853D01*
X132972005Y-89061676D01*
X132947013Y-89144035D01*
X132947009Y-89144079D01*
X132946998Y-89144114D01*
X132939978Y-89215393D01*
X132932324Y-89293020D01*
X132936001Y-89330394D01*
X132936000Y-114562678D01*
X132932324Y-114600000D01*
X132936000Y-114637322D01*
X132936000Y-114637332D01*
X132946997Y-114748985D01*
X132985847Y-114877058D01*
X132990454Y-114892246D01*
X133061026Y-115024276D01*
X133079878Y-115047247D01*
X133134001Y-115113196D01*
X133134000Y-118768169D01*
X133082729Y-118746932D01*
X132902089Y-118711000D01*
X132717911Y-118711000D01*
X132537271Y-118746932D01*
X132505000Y-118760299D01*
X132505000Y-88651248D01*
X132536227Y-88666438D01*
G37*
G04 #@! TD.AperFunction*
D21*
X158199998Y-104893799D02*
X158269570Y-104963371D01*
X158199607Y-105033521D01*
X158178000Y-105051253D01*
X158178000Y-104875746D01*
X158199998Y-104893799D01*
G04 #@! TA.AperFunction,Conductor*
D22*
G36*
X158199998Y-104893799D02*
G01*
X158269570Y-104963371D01*
X158199607Y-105033521D01*
X158178000Y-105051253D01*
X158178000Y-104875746D01*
X158199998Y-104893799D01*
G37*
G04 #@! TD.AperFunction*
D21*
X148490000Y-99129000D02*
X148510000Y-99129000D01*
X148510000Y-99383000D01*
X148490000Y-99383000D01*
X148490000Y-99403000D01*
X148236000Y-99403000D01*
X148236000Y-99383000D01*
X148216000Y-99383000D01*
X148216000Y-99129000D01*
X148236000Y-99129000D01*
X148236000Y-99109000D01*
X148490000Y-99109000D01*
X148490000Y-99129000D01*
G04 #@! TA.AperFunction,Conductor*
D22*
G36*
X148490000Y-99129000D02*
G01*
X148510000Y-99129000D01*
X148510000Y-99383000D01*
X148490000Y-99383000D01*
X148490000Y-99403000D01*
X148236000Y-99403000D01*
X148236000Y-99383000D01*
X148216000Y-99383000D01*
X148216000Y-99129000D01*
X148236000Y-99129000D01*
X148236000Y-99109000D01*
X148490000Y-99109000D01*
X148490000Y-99129000D01*
G37*
G04 #@! TD.AperFunction*
D21*
X133300188Y-87112058D02*
X133286045Y-87126200D01*
X133300188Y-87140343D01*
X133120583Y-87319948D01*
X133106440Y-87305805D01*
X133092298Y-87319948D01*
X132912693Y-87140343D01*
X132926835Y-87126200D01*
X132912693Y-87112058D01*
X133092298Y-86932453D01*
X133106440Y-86946595D01*
X133120583Y-86932453D01*
X133300188Y-87112058D01*
G04 #@! TA.AperFunction,Conductor*
D22*
G36*
X133300188Y-87112058D02*
G01*
X133286045Y-87126200D01*
X133300188Y-87140343D01*
X133120583Y-87319948D01*
X133106440Y-87305805D01*
X133092298Y-87319948D01*
X132912693Y-87140343D01*
X132926835Y-87126200D01*
X132912693Y-87112058D01*
X133092298Y-86932453D01*
X133106440Y-86946595D01*
X133120583Y-86932453D01*
X133300188Y-87112058D01*
G37*
G04 #@! TD.AperFunction*
D21*
X135303000Y-73914000D02*
X137589000Y-73914000D01*
X137589000Y-73894000D01*
X137843000Y-73894000D01*
X137843000Y-73914000D01*
X137863000Y-73914000D01*
X137863000Y-74168000D01*
X137843000Y-74168000D01*
X137843000Y-78327250D01*
X138001750Y-78486000D01*
X138311852Y-78487579D01*
X134132005Y-82667095D01*
X134103000Y-82690899D01*
X134070643Y-82730326D01*
X134008043Y-82806599D01*
X134008035Y-82806615D01*
X134008027Y-82806624D01*
X133977377Y-82863965D01*
X133937466Y-82938626D01*
X133937461Y-82938641D01*
X133937455Y-82938653D01*
X133920060Y-82995999D01*
X133894004Y-83081885D01*
X133894003Y-83081899D01*
X133893998Y-83081914D01*
X133887299Y-83149928D01*
X133879324Y-83230870D01*
X133883001Y-83268218D01*
X133883001Y-85686338D01*
X133676653Y-85585962D01*
X133365211Y-85504315D01*
X133043825Y-85484995D01*
X132724845Y-85528746D01*
X132505000Y-85604702D01*
X132505000Y-82143835D01*
X132629677Y-82195478D01*
X132945457Y-82258290D01*
X133267423Y-82258290D01*
X133583203Y-82195478D01*
X133880662Y-82072267D01*
X134148367Y-81893392D01*
X134376032Y-81665727D01*
X134554907Y-81398022D01*
X134678118Y-81100563D01*
X134740930Y-80784783D01*
X134740930Y-80462817D01*
X134678118Y-80147037D01*
X134554907Y-79849578D01*
X134376032Y-79581873D01*
X134148367Y-79354208D01*
X134009129Y-79261172D01*
X134029475Y-79244475D01*
X134118200Y-79136363D01*
X134184128Y-79013020D01*
X134224727Y-78879184D01*
X134238435Y-78740000D01*
X134235000Y-78705123D01*
X134235000Y-78483951D01*
X134287000Y-78489072D01*
X134890250Y-78486000D01*
X135049000Y-78327250D01*
X135049000Y-74168000D01*
X135303000Y-74168000D01*
X135303000Y-78327250D01*
X135461750Y-78486000D01*
X136065000Y-78489072D01*
X136189482Y-78476812D01*
X136309180Y-78440502D01*
X136419494Y-78381537D01*
X136446000Y-78359784D01*
X136472506Y-78381537D01*
X136582820Y-78440502D01*
X136702518Y-78476812D01*
X136827000Y-78489072D01*
X137430250Y-78486000D01*
X137589000Y-78327250D01*
X137589000Y-74168000D01*
X135303000Y-74168000D01*
X135049000Y-74168000D01*
X135029000Y-74168000D01*
X135029000Y-73914000D01*
X135049000Y-73914000D01*
X135049000Y-73894000D01*
X135303000Y-73894000D01*
X135303000Y-73914000D01*
G04 #@! TA.AperFunction,Conductor*
D22*
G36*
X135303000Y-73914000D02*
G01*
X137589000Y-73914000D01*
X137589000Y-73894000D01*
X137843000Y-73894000D01*
X137843000Y-73914000D01*
X137863000Y-73914000D01*
X137863000Y-74168000D01*
X137843000Y-74168000D01*
X137843000Y-78327250D01*
X138001750Y-78486000D01*
X138311852Y-78487579D01*
X134132005Y-82667095D01*
X134103000Y-82690899D01*
X134070643Y-82730326D01*
X134008043Y-82806599D01*
X134008035Y-82806615D01*
X134008027Y-82806624D01*
X133977377Y-82863965D01*
X133937466Y-82938626D01*
X133937461Y-82938641D01*
X133937455Y-82938653D01*
X133920060Y-82995999D01*
X133894004Y-83081885D01*
X133894003Y-83081899D01*
X133893998Y-83081914D01*
X133887299Y-83149928D01*
X133879324Y-83230870D01*
X133883001Y-83268218D01*
X133883001Y-85686338D01*
X133676653Y-85585962D01*
X133365211Y-85504315D01*
X133043825Y-85484995D01*
X132724845Y-85528746D01*
X132505000Y-85604702D01*
X132505000Y-82143835D01*
X132629677Y-82195478D01*
X132945457Y-82258290D01*
X133267423Y-82258290D01*
X133583203Y-82195478D01*
X133880662Y-82072267D01*
X134148367Y-81893392D01*
X134376032Y-81665727D01*
X134554907Y-81398022D01*
X134678118Y-81100563D01*
X134740930Y-80784783D01*
X134740930Y-80462817D01*
X134678118Y-80147037D01*
X134554907Y-79849578D01*
X134376032Y-79581873D01*
X134148367Y-79354208D01*
X134009129Y-79261172D01*
X134029475Y-79244475D01*
X134118200Y-79136363D01*
X134184128Y-79013020D01*
X134224727Y-78879184D01*
X134238435Y-78740000D01*
X134235000Y-78705123D01*
X134235000Y-78483951D01*
X134287000Y-78489072D01*
X134890250Y-78486000D01*
X135049000Y-78327250D01*
X135049000Y-74168000D01*
X135303000Y-74168000D01*
X135303000Y-78327250D01*
X135461750Y-78486000D01*
X136065000Y-78489072D01*
X136189482Y-78476812D01*
X136309180Y-78440502D01*
X136419494Y-78381537D01*
X136446000Y-78359784D01*
X136472506Y-78381537D01*
X136582820Y-78440502D01*
X136702518Y-78476812D01*
X136827000Y-78489072D01*
X137430250Y-78486000D01*
X137589000Y-78327250D01*
X137589000Y-74168000D01*
X135303000Y-74168000D01*
X135049000Y-74168000D01*
X135029000Y-74168000D01*
X135029000Y-73914000D01*
X135049000Y-73914000D01*
X135049000Y-73894000D01*
X135303000Y-73894000D01*
X135303000Y-73914000D01*
G37*
G04 #@! TD.AperFunction*
D21*
X155623000Y-73914000D02*
X155643000Y-73914000D01*
X155643000Y-74168000D01*
X155623000Y-74168000D01*
X155623000Y-78327250D01*
X155781750Y-78486000D01*
X155914672Y-78486677D01*
X155787111Y-78539514D01*
X155633972Y-78641838D01*
X155503738Y-78772072D01*
X155401414Y-78925211D01*
X155330932Y-79095371D01*
X155295000Y-79276011D01*
X155295000Y-79460189D01*
X155330932Y-79640829D01*
X155339393Y-79661257D01*
X154108275Y-78430295D01*
X154199494Y-78381537D01*
X154226000Y-78359784D01*
X154252506Y-78381537D01*
X154362820Y-78440502D01*
X154482518Y-78476812D01*
X154607000Y-78489072D01*
X155210250Y-78486000D01*
X155369000Y-78327250D01*
X155369000Y-74168000D01*
X155349000Y-74168000D01*
X155349000Y-73914000D01*
X155369000Y-73914000D01*
X155369000Y-73894000D01*
X155623000Y-73894000D01*
X155623000Y-73914000D01*
G04 #@! TA.AperFunction,Conductor*
D22*
G36*
X155623000Y-73914000D02*
G01*
X155643000Y-73914000D01*
X155643000Y-74168000D01*
X155623000Y-74168000D01*
X155623000Y-78327250D01*
X155781750Y-78486000D01*
X155914672Y-78486677D01*
X155787111Y-78539514D01*
X155633972Y-78641838D01*
X155503738Y-78772072D01*
X155401414Y-78925211D01*
X155330932Y-79095371D01*
X155295000Y-79276011D01*
X155295000Y-79460189D01*
X155330932Y-79640829D01*
X155339393Y-79661257D01*
X154108275Y-78430295D01*
X154199494Y-78381537D01*
X154226000Y-78359784D01*
X154252506Y-78381537D01*
X154362820Y-78440502D01*
X154482518Y-78476812D01*
X154607000Y-78489072D01*
X155210250Y-78486000D01*
X155369000Y-78327250D01*
X155369000Y-74168000D01*
X155349000Y-74168000D01*
X155349000Y-73914000D01*
X155369000Y-73914000D01*
X155369000Y-73894000D01*
X155623000Y-73894000D01*
X155623000Y-73914000D01*
G37*
G04 #@! TD.AperFunction*
M02*
