G04 #@! TF.GenerationSoftware,KiCad,Pcbnew,(5.1.8)-1*
G04 #@! TF.CreationDate,2021-04-15T18:07:30+02:00*
G04 #@! TF.ProjectId,ZX Dandanator Mini 2.1b,5a582044-616e-4646-916e-61746f72204d,rev?*
G04 #@! TF.SameCoordinates,Original*
G04 #@! TF.FileFunction,Soldermask,Top*
G04 #@! TF.FilePolarity,Negative*
%FSLAX46Y46*%
G04 Gerber Fmt 4.6, Leading zero omitted, Abs format (unit mm)*
G04 Created by KiCad (PCBNEW (5.1.8)-1) date 2021-04-15 18:07:30*
%MOMM*%
%LPD*%
G01*
G04 APERTURE LIST*
%ADD10O,2.100000X2.100000*%
%ADD11O,1.400000X1.200000*%
%ADD12O,2.100000X1.300000*%
%ADD13C,3.600000*%
%ADD14C,2.398980*%
%ADD15C,5.401260*%
%ADD16O,2.398980X1.901140*%
%ADD17O,2.178000X5.480000*%
%ADD18C,0.100000*%
G04 APERTURE END LIST*
D10*
X152458000Y-83667200D03*
G36*
G01*
X153508000Y-85357200D02*
X153508000Y-87057200D01*
G75*
G02*
X153308000Y-87257200I-200000J0D01*
G01*
X151608000Y-87257200D01*
G75*
G02*
X151408000Y-87057200I0J200000D01*
G01*
X151408000Y-85357200D01*
G75*
G02*
X151608000Y-85157200I200000J0D01*
G01*
X153308000Y-85157200D01*
G75*
G02*
X153508000Y-85357200I0J-200000D01*
G01*
G37*
X114894000Y-119446000D03*
X114894000Y-116906000D03*
G36*
G01*
X113844000Y-115216000D02*
X113844000Y-113516000D01*
G75*
G02*
X114044000Y-113316000I200000J0D01*
G01*
X115744000Y-113316000D01*
G75*
G02*
X115944000Y-113516000I0J-200000D01*
G01*
X115944000Y-115216000D01*
G75*
G02*
X115744000Y-115416000I-200000J0D01*
G01*
X114044000Y-115416000D01*
G75*
G02*
X113844000Y-115216000I0J200000D01*
G01*
G37*
G36*
G01*
X146795000Y-112224000D02*
X143695000Y-112224000D01*
G75*
G02*
X143495000Y-112024000I0J200000D01*
G01*
X143495000Y-108924000D01*
G75*
G02*
X143695000Y-108724000I200000J0D01*
G01*
X146795000Y-108724000D01*
G75*
G02*
X146995000Y-108924000I0J-200000D01*
G01*
X146995000Y-112024000D01*
G75*
G02*
X146795000Y-112224000I-200000J0D01*
G01*
G37*
G36*
G01*
X143282500Y-112549000D02*
X142332500Y-112549000D01*
G75*
G02*
X142170000Y-112386500I0J162500D01*
G01*
X142170000Y-112061500D01*
G75*
G02*
X142332500Y-111899000I162500J0D01*
G01*
X143282500Y-111899000D01*
G75*
G02*
X143445000Y-112061500I0J-162500D01*
G01*
X143445000Y-112386500D01*
G75*
G02*
X143282500Y-112549000I-162500J0D01*
G01*
G37*
G36*
G01*
X143282500Y-112049000D02*
X142332500Y-112049000D01*
G75*
G02*
X142170000Y-111886500I0J162500D01*
G01*
X142170000Y-111561500D01*
G75*
G02*
X142332500Y-111399000I162500J0D01*
G01*
X143282500Y-111399000D01*
G75*
G02*
X143445000Y-111561500I0J-162500D01*
G01*
X143445000Y-111886500D01*
G75*
G02*
X143282500Y-112049000I-162500J0D01*
G01*
G37*
G36*
G01*
X143282500Y-111549000D02*
X142332500Y-111549000D01*
G75*
G02*
X142170000Y-111386500I0J162500D01*
G01*
X142170000Y-111061500D01*
G75*
G02*
X142332500Y-110899000I162500J0D01*
G01*
X143282500Y-110899000D01*
G75*
G02*
X143445000Y-111061500I0J-162500D01*
G01*
X143445000Y-111386500D01*
G75*
G02*
X143282500Y-111549000I-162500J0D01*
G01*
G37*
G36*
G01*
X143282500Y-111049000D02*
X142332500Y-111049000D01*
G75*
G02*
X142170000Y-110886500I0J162500D01*
G01*
X142170000Y-110561500D01*
G75*
G02*
X142332500Y-110399000I162500J0D01*
G01*
X143282500Y-110399000D01*
G75*
G02*
X143445000Y-110561500I0J-162500D01*
G01*
X143445000Y-110886500D01*
G75*
G02*
X143282500Y-111049000I-162500J0D01*
G01*
G37*
G36*
G01*
X143282500Y-110549000D02*
X142332500Y-110549000D01*
G75*
G02*
X142170000Y-110386500I0J162500D01*
G01*
X142170000Y-110061500D01*
G75*
G02*
X142332500Y-109899000I162500J0D01*
G01*
X143282500Y-109899000D01*
G75*
G02*
X143445000Y-110061500I0J-162500D01*
G01*
X143445000Y-110386500D01*
G75*
G02*
X143282500Y-110549000I-162500J0D01*
G01*
G37*
G36*
G01*
X143282500Y-110049000D02*
X142332500Y-110049000D01*
G75*
G02*
X142170000Y-109886500I0J162500D01*
G01*
X142170000Y-109561500D01*
G75*
G02*
X142332500Y-109399000I162500J0D01*
G01*
X143282500Y-109399000D01*
G75*
G02*
X143445000Y-109561500I0J-162500D01*
G01*
X143445000Y-109886500D01*
G75*
G02*
X143282500Y-110049000I-162500J0D01*
G01*
G37*
G36*
G01*
X143282500Y-109549000D02*
X142332500Y-109549000D01*
G75*
G02*
X142170000Y-109386500I0J162500D01*
G01*
X142170000Y-109061500D01*
G75*
G02*
X142332500Y-108899000I162500J0D01*
G01*
X143282500Y-108899000D01*
G75*
G02*
X143445000Y-109061500I0J-162500D01*
G01*
X143445000Y-109386500D01*
G75*
G02*
X143282500Y-109549000I-162500J0D01*
G01*
G37*
G36*
G01*
X143282500Y-109049000D02*
X142332500Y-109049000D01*
G75*
G02*
X142170000Y-108886500I0J162500D01*
G01*
X142170000Y-108561500D01*
G75*
G02*
X142332500Y-108399000I162500J0D01*
G01*
X143282500Y-108399000D01*
G75*
G02*
X143445000Y-108561500I0J-162500D01*
G01*
X143445000Y-108886500D01*
G75*
G02*
X143282500Y-109049000I-162500J0D01*
G01*
G37*
G36*
G01*
X143657500Y-108674000D02*
X143332500Y-108674000D01*
G75*
G02*
X143170000Y-108511500I0J162500D01*
G01*
X143170000Y-107561500D01*
G75*
G02*
X143332500Y-107399000I162500J0D01*
G01*
X143657500Y-107399000D01*
G75*
G02*
X143820000Y-107561500I0J-162500D01*
G01*
X143820000Y-108511500D01*
G75*
G02*
X143657500Y-108674000I-162500J0D01*
G01*
G37*
G36*
G01*
X144157500Y-108674000D02*
X143832500Y-108674000D01*
G75*
G02*
X143670000Y-108511500I0J162500D01*
G01*
X143670000Y-107561500D01*
G75*
G02*
X143832500Y-107399000I162500J0D01*
G01*
X144157500Y-107399000D01*
G75*
G02*
X144320000Y-107561500I0J-162500D01*
G01*
X144320000Y-108511500D01*
G75*
G02*
X144157500Y-108674000I-162500J0D01*
G01*
G37*
G36*
G01*
X144657500Y-108674000D02*
X144332500Y-108674000D01*
G75*
G02*
X144170000Y-108511500I0J162500D01*
G01*
X144170000Y-107561500D01*
G75*
G02*
X144332500Y-107399000I162500J0D01*
G01*
X144657500Y-107399000D01*
G75*
G02*
X144820000Y-107561500I0J-162500D01*
G01*
X144820000Y-108511500D01*
G75*
G02*
X144657500Y-108674000I-162500J0D01*
G01*
G37*
G36*
G01*
X145157500Y-108674000D02*
X144832500Y-108674000D01*
G75*
G02*
X144670000Y-108511500I0J162500D01*
G01*
X144670000Y-107561500D01*
G75*
G02*
X144832500Y-107399000I162500J0D01*
G01*
X145157500Y-107399000D01*
G75*
G02*
X145320000Y-107561500I0J-162500D01*
G01*
X145320000Y-108511500D01*
G75*
G02*
X145157500Y-108674000I-162500J0D01*
G01*
G37*
G36*
G01*
X145657500Y-108674000D02*
X145332500Y-108674000D01*
G75*
G02*
X145170000Y-108511500I0J162500D01*
G01*
X145170000Y-107561500D01*
G75*
G02*
X145332500Y-107399000I162500J0D01*
G01*
X145657500Y-107399000D01*
G75*
G02*
X145820000Y-107561500I0J-162500D01*
G01*
X145820000Y-108511500D01*
G75*
G02*
X145657500Y-108674000I-162500J0D01*
G01*
G37*
G36*
G01*
X146157500Y-108674000D02*
X145832500Y-108674000D01*
G75*
G02*
X145670000Y-108511500I0J162500D01*
G01*
X145670000Y-107561500D01*
G75*
G02*
X145832500Y-107399000I162500J0D01*
G01*
X146157500Y-107399000D01*
G75*
G02*
X146320000Y-107561500I0J-162500D01*
G01*
X146320000Y-108511500D01*
G75*
G02*
X146157500Y-108674000I-162500J0D01*
G01*
G37*
G36*
G01*
X146657500Y-108674000D02*
X146332500Y-108674000D01*
G75*
G02*
X146170000Y-108511500I0J162500D01*
G01*
X146170000Y-107561500D01*
G75*
G02*
X146332500Y-107399000I162500J0D01*
G01*
X146657500Y-107399000D01*
G75*
G02*
X146820000Y-107561500I0J-162500D01*
G01*
X146820000Y-108511500D01*
G75*
G02*
X146657500Y-108674000I-162500J0D01*
G01*
G37*
G36*
G01*
X147157500Y-108674000D02*
X146832500Y-108674000D01*
G75*
G02*
X146670000Y-108511500I0J162500D01*
G01*
X146670000Y-107561500D01*
G75*
G02*
X146832500Y-107399000I162500J0D01*
G01*
X147157500Y-107399000D01*
G75*
G02*
X147320000Y-107561500I0J-162500D01*
G01*
X147320000Y-108511500D01*
G75*
G02*
X147157500Y-108674000I-162500J0D01*
G01*
G37*
G36*
G01*
X148157500Y-109049000D02*
X147207500Y-109049000D01*
G75*
G02*
X147045000Y-108886500I0J162500D01*
G01*
X147045000Y-108561500D01*
G75*
G02*
X147207500Y-108399000I162500J0D01*
G01*
X148157500Y-108399000D01*
G75*
G02*
X148320000Y-108561500I0J-162500D01*
G01*
X148320000Y-108886500D01*
G75*
G02*
X148157500Y-109049000I-162500J0D01*
G01*
G37*
G36*
G01*
X148157500Y-109549000D02*
X147207500Y-109549000D01*
G75*
G02*
X147045000Y-109386500I0J162500D01*
G01*
X147045000Y-109061500D01*
G75*
G02*
X147207500Y-108899000I162500J0D01*
G01*
X148157500Y-108899000D01*
G75*
G02*
X148320000Y-109061500I0J-162500D01*
G01*
X148320000Y-109386500D01*
G75*
G02*
X148157500Y-109549000I-162500J0D01*
G01*
G37*
G36*
G01*
X148157500Y-110049000D02*
X147207500Y-110049000D01*
G75*
G02*
X147045000Y-109886500I0J162500D01*
G01*
X147045000Y-109561500D01*
G75*
G02*
X147207500Y-109399000I162500J0D01*
G01*
X148157500Y-109399000D01*
G75*
G02*
X148320000Y-109561500I0J-162500D01*
G01*
X148320000Y-109886500D01*
G75*
G02*
X148157500Y-110049000I-162500J0D01*
G01*
G37*
G36*
G01*
X148157500Y-110549000D02*
X147207500Y-110549000D01*
G75*
G02*
X147045000Y-110386500I0J162500D01*
G01*
X147045000Y-110061500D01*
G75*
G02*
X147207500Y-109899000I162500J0D01*
G01*
X148157500Y-109899000D01*
G75*
G02*
X148320000Y-110061500I0J-162500D01*
G01*
X148320000Y-110386500D01*
G75*
G02*
X148157500Y-110549000I-162500J0D01*
G01*
G37*
G36*
G01*
X148157500Y-111049000D02*
X147207500Y-111049000D01*
G75*
G02*
X147045000Y-110886500I0J162500D01*
G01*
X147045000Y-110561500D01*
G75*
G02*
X147207500Y-110399000I162500J0D01*
G01*
X148157500Y-110399000D01*
G75*
G02*
X148320000Y-110561500I0J-162500D01*
G01*
X148320000Y-110886500D01*
G75*
G02*
X148157500Y-111049000I-162500J0D01*
G01*
G37*
G36*
G01*
X148157500Y-111549000D02*
X147207500Y-111549000D01*
G75*
G02*
X147045000Y-111386500I0J162500D01*
G01*
X147045000Y-111061500D01*
G75*
G02*
X147207500Y-110899000I162500J0D01*
G01*
X148157500Y-110899000D01*
G75*
G02*
X148320000Y-111061500I0J-162500D01*
G01*
X148320000Y-111386500D01*
G75*
G02*
X148157500Y-111549000I-162500J0D01*
G01*
G37*
G36*
G01*
X148157500Y-112049000D02*
X147207500Y-112049000D01*
G75*
G02*
X147045000Y-111886500I0J162500D01*
G01*
X147045000Y-111561500D01*
G75*
G02*
X147207500Y-111399000I162500J0D01*
G01*
X148157500Y-111399000D01*
G75*
G02*
X148320000Y-111561500I0J-162500D01*
G01*
X148320000Y-111886500D01*
G75*
G02*
X148157500Y-112049000I-162500J0D01*
G01*
G37*
G36*
G01*
X148157500Y-112549000D02*
X147207500Y-112549000D01*
G75*
G02*
X147045000Y-112386500I0J162500D01*
G01*
X147045000Y-112061500D01*
G75*
G02*
X147207500Y-111899000I162500J0D01*
G01*
X148157500Y-111899000D01*
G75*
G02*
X148320000Y-112061500I0J-162500D01*
G01*
X148320000Y-112386500D01*
G75*
G02*
X148157500Y-112549000I-162500J0D01*
G01*
G37*
G36*
G01*
X147157500Y-113549000D02*
X146832500Y-113549000D01*
G75*
G02*
X146670000Y-113386500I0J162500D01*
G01*
X146670000Y-112436500D01*
G75*
G02*
X146832500Y-112274000I162500J0D01*
G01*
X147157500Y-112274000D01*
G75*
G02*
X147320000Y-112436500I0J-162500D01*
G01*
X147320000Y-113386500D01*
G75*
G02*
X147157500Y-113549000I-162500J0D01*
G01*
G37*
G36*
G01*
X146657500Y-113549000D02*
X146332500Y-113549000D01*
G75*
G02*
X146170000Y-113386500I0J162500D01*
G01*
X146170000Y-112436500D01*
G75*
G02*
X146332500Y-112274000I162500J0D01*
G01*
X146657500Y-112274000D01*
G75*
G02*
X146820000Y-112436500I0J-162500D01*
G01*
X146820000Y-113386500D01*
G75*
G02*
X146657500Y-113549000I-162500J0D01*
G01*
G37*
G36*
G01*
X146157500Y-113549000D02*
X145832500Y-113549000D01*
G75*
G02*
X145670000Y-113386500I0J162500D01*
G01*
X145670000Y-112436500D01*
G75*
G02*
X145832500Y-112274000I162500J0D01*
G01*
X146157500Y-112274000D01*
G75*
G02*
X146320000Y-112436500I0J-162500D01*
G01*
X146320000Y-113386500D01*
G75*
G02*
X146157500Y-113549000I-162500J0D01*
G01*
G37*
G36*
G01*
X145657500Y-113549000D02*
X145332500Y-113549000D01*
G75*
G02*
X145170000Y-113386500I0J162500D01*
G01*
X145170000Y-112436500D01*
G75*
G02*
X145332500Y-112274000I162500J0D01*
G01*
X145657500Y-112274000D01*
G75*
G02*
X145820000Y-112436500I0J-162500D01*
G01*
X145820000Y-113386500D01*
G75*
G02*
X145657500Y-113549000I-162500J0D01*
G01*
G37*
G36*
G01*
X145157500Y-113549000D02*
X144832500Y-113549000D01*
G75*
G02*
X144670000Y-113386500I0J162500D01*
G01*
X144670000Y-112436500D01*
G75*
G02*
X144832500Y-112274000I162500J0D01*
G01*
X145157500Y-112274000D01*
G75*
G02*
X145320000Y-112436500I0J-162500D01*
G01*
X145320000Y-113386500D01*
G75*
G02*
X145157500Y-113549000I-162500J0D01*
G01*
G37*
G36*
G01*
X144657500Y-113549000D02*
X144332500Y-113549000D01*
G75*
G02*
X144170000Y-113386500I0J162500D01*
G01*
X144170000Y-112436500D01*
G75*
G02*
X144332500Y-112274000I162500J0D01*
G01*
X144657500Y-112274000D01*
G75*
G02*
X144820000Y-112436500I0J-162500D01*
G01*
X144820000Y-113386500D01*
G75*
G02*
X144657500Y-113549000I-162500J0D01*
G01*
G37*
G36*
G01*
X144157500Y-113549000D02*
X143832500Y-113549000D01*
G75*
G02*
X143670000Y-113386500I0J162500D01*
G01*
X143670000Y-112436500D01*
G75*
G02*
X143832500Y-112274000I162500J0D01*
G01*
X144157500Y-112274000D01*
G75*
G02*
X144320000Y-112436500I0J-162500D01*
G01*
X144320000Y-113386500D01*
G75*
G02*
X144157500Y-113549000I-162500J0D01*
G01*
G37*
G36*
G01*
X143657500Y-113549000D02*
X143332500Y-113549000D01*
G75*
G02*
X143170000Y-113386500I0J162500D01*
G01*
X143170000Y-112436500D01*
G75*
G02*
X143332500Y-112274000I162500J0D01*
G01*
X143657500Y-112274000D01*
G75*
G02*
X143820000Y-112436500I0J-162500D01*
G01*
X143820000Y-113386500D01*
G75*
G02*
X143657500Y-113549000I-162500J0D01*
G01*
G37*
G36*
G01*
X133621000Y-114885000D02*
X133621000Y-112485000D01*
G75*
G02*
X133821000Y-112285000I200000J0D01*
G01*
X137321000Y-112285000D01*
G75*
G02*
X137521000Y-112485000I0J-200000D01*
G01*
X137521000Y-114885000D01*
G75*
G02*
X137321000Y-115085000I-200000J0D01*
G01*
X133821000Y-115085000D01*
G75*
G02*
X133621000Y-114885000I0J200000D01*
G01*
G37*
G36*
G01*
X128421000Y-114885000D02*
X128421000Y-112485000D01*
G75*
G02*
X128621000Y-112285000I200000J0D01*
G01*
X132121000Y-112285000D01*
G75*
G02*
X132321000Y-112485000I0J-200000D01*
G01*
X132321000Y-114885000D01*
G75*
G02*
X132121000Y-115085000I-200000J0D01*
G01*
X128621000Y-115085000D01*
G75*
G02*
X128421000Y-114885000I0J200000D01*
G01*
G37*
G36*
G01*
X134230000Y-101582000D02*
X134230000Y-101082000D01*
G75*
G02*
X134480000Y-100832000I250000J0D01*
G01*
X136330000Y-100832000D01*
G75*
G02*
X136580000Y-101082000I0J-250000D01*
G01*
X136580000Y-101582000D01*
G75*
G02*
X136330000Y-101832000I-250000J0D01*
G01*
X134480000Y-101832000D01*
G75*
G02*
X134230000Y-101582000I0J250000D01*
G01*
G37*
G36*
G01*
X134230000Y-102852000D02*
X134230000Y-102352000D01*
G75*
G02*
X134480000Y-102102000I250000J0D01*
G01*
X136330000Y-102102000D01*
G75*
G02*
X136580000Y-102352000I0J-250000D01*
G01*
X136580000Y-102852000D01*
G75*
G02*
X136330000Y-103102000I-250000J0D01*
G01*
X134480000Y-103102000D01*
G75*
G02*
X134230000Y-102852000I0J250000D01*
G01*
G37*
G36*
G01*
X134230000Y-104122000D02*
X134230000Y-103622000D01*
G75*
G02*
X134480000Y-103372000I250000J0D01*
G01*
X136330000Y-103372000D01*
G75*
G02*
X136580000Y-103622000I0J-250000D01*
G01*
X136580000Y-104122000D01*
G75*
G02*
X136330000Y-104372000I-250000J0D01*
G01*
X134480000Y-104372000D01*
G75*
G02*
X134230000Y-104122000I0J250000D01*
G01*
G37*
G36*
G01*
X134230000Y-105392000D02*
X134230000Y-104892000D01*
G75*
G02*
X134480000Y-104642000I250000J0D01*
G01*
X136330000Y-104642000D01*
G75*
G02*
X136580000Y-104892000I0J-250000D01*
G01*
X136580000Y-105392000D01*
G75*
G02*
X136330000Y-105642000I-250000J0D01*
G01*
X134480000Y-105642000D01*
G75*
G02*
X134230000Y-105392000I0J250000D01*
G01*
G37*
G36*
G01*
X134230000Y-106662000D02*
X134230000Y-106162000D01*
G75*
G02*
X134480000Y-105912000I250000J0D01*
G01*
X136330000Y-105912000D01*
G75*
G02*
X136580000Y-106162000I0J-250000D01*
G01*
X136580000Y-106662000D01*
G75*
G02*
X136330000Y-106912000I-250000J0D01*
G01*
X134480000Y-106912000D01*
G75*
G02*
X134230000Y-106662000I0J250000D01*
G01*
G37*
G36*
G01*
X134230000Y-107932000D02*
X134230000Y-107432000D01*
G75*
G02*
X134480000Y-107182000I250000J0D01*
G01*
X136330000Y-107182000D01*
G75*
G02*
X136580000Y-107432000I0J-250000D01*
G01*
X136580000Y-107932000D01*
G75*
G02*
X136330000Y-108182000I-250000J0D01*
G01*
X134480000Y-108182000D01*
G75*
G02*
X134230000Y-107932000I0J250000D01*
G01*
G37*
G36*
G01*
X134230000Y-109202000D02*
X134230000Y-108702000D01*
G75*
G02*
X134480000Y-108452000I250000J0D01*
G01*
X136330000Y-108452000D01*
G75*
G02*
X136580000Y-108702000I0J-250000D01*
G01*
X136580000Y-109202000D01*
G75*
G02*
X136330000Y-109452000I-250000J0D01*
G01*
X134480000Y-109452000D01*
G75*
G02*
X134230000Y-109202000I0J250000D01*
G01*
G37*
G36*
G01*
X134230000Y-110472000D02*
X134230000Y-109972000D01*
G75*
G02*
X134480000Y-109722000I250000J0D01*
G01*
X136330000Y-109722000D01*
G75*
G02*
X136580000Y-109972000I0J-250000D01*
G01*
X136580000Y-110472000D01*
G75*
G02*
X136330000Y-110722000I-250000J0D01*
G01*
X134480000Y-110722000D01*
G75*
G02*
X134230000Y-110472000I0J250000D01*
G01*
G37*
G36*
G01*
X129280000Y-110472000D02*
X129280000Y-109972000D01*
G75*
G02*
X129530000Y-109722000I250000J0D01*
G01*
X131380000Y-109722000D01*
G75*
G02*
X131630000Y-109972000I0J-250000D01*
G01*
X131630000Y-110472000D01*
G75*
G02*
X131380000Y-110722000I-250000J0D01*
G01*
X129530000Y-110722000D01*
G75*
G02*
X129280000Y-110472000I0J250000D01*
G01*
G37*
G36*
G01*
X129280000Y-109202000D02*
X129280000Y-108702000D01*
G75*
G02*
X129530000Y-108452000I250000J0D01*
G01*
X131380000Y-108452000D01*
G75*
G02*
X131630000Y-108702000I0J-250000D01*
G01*
X131630000Y-109202000D01*
G75*
G02*
X131380000Y-109452000I-250000J0D01*
G01*
X129530000Y-109452000D01*
G75*
G02*
X129280000Y-109202000I0J250000D01*
G01*
G37*
G36*
G01*
X129280000Y-107932000D02*
X129280000Y-107432000D01*
G75*
G02*
X129530000Y-107182000I250000J0D01*
G01*
X131380000Y-107182000D01*
G75*
G02*
X131630000Y-107432000I0J-250000D01*
G01*
X131630000Y-107932000D01*
G75*
G02*
X131380000Y-108182000I-250000J0D01*
G01*
X129530000Y-108182000D01*
G75*
G02*
X129280000Y-107932000I0J250000D01*
G01*
G37*
G36*
G01*
X129280000Y-106662000D02*
X129280000Y-106162000D01*
G75*
G02*
X129530000Y-105912000I250000J0D01*
G01*
X131380000Y-105912000D01*
G75*
G02*
X131630000Y-106162000I0J-250000D01*
G01*
X131630000Y-106662000D01*
G75*
G02*
X131380000Y-106912000I-250000J0D01*
G01*
X129530000Y-106912000D01*
G75*
G02*
X129280000Y-106662000I0J250000D01*
G01*
G37*
G36*
G01*
X129280000Y-105392000D02*
X129280000Y-104892000D01*
G75*
G02*
X129530000Y-104642000I250000J0D01*
G01*
X131380000Y-104642000D01*
G75*
G02*
X131630000Y-104892000I0J-250000D01*
G01*
X131630000Y-105392000D01*
G75*
G02*
X131380000Y-105642000I-250000J0D01*
G01*
X129530000Y-105642000D01*
G75*
G02*
X129280000Y-105392000I0J250000D01*
G01*
G37*
G36*
G01*
X129280000Y-104122000D02*
X129280000Y-103622000D01*
G75*
G02*
X129530000Y-103372000I250000J0D01*
G01*
X131380000Y-103372000D01*
G75*
G02*
X131630000Y-103622000I0J-250000D01*
G01*
X131630000Y-104122000D01*
G75*
G02*
X131380000Y-104372000I-250000J0D01*
G01*
X129530000Y-104372000D01*
G75*
G02*
X129280000Y-104122000I0J250000D01*
G01*
G37*
G36*
G01*
X129280000Y-102852000D02*
X129280000Y-102352000D01*
G75*
G02*
X129530000Y-102102000I250000J0D01*
G01*
X131380000Y-102102000D01*
G75*
G02*
X131630000Y-102352000I0J-250000D01*
G01*
X131630000Y-102852000D01*
G75*
G02*
X131380000Y-103102000I-250000J0D01*
G01*
X129530000Y-103102000D01*
G75*
G02*
X129280000Y-102852000I0J250000D01*
G01*
G37*
G36*
G01*
X129280000Y-101582000D02*
X129280000Y-101082000D01*
G75*
G02*
X129530000Y-100832000I250000J0D01*
G01*
X131380000Y-100832000D01*
G75*
G02*
X131630000Y-101082000I0J-250000D01*
G01*
X131630000Y-101582000D01*
G75*
G02*
X131380000Y-101832000I-250000J0D01*
G01*
X129530000Y-101832000D01*
G75*
G02*
X129280000Y-101582000I0J250000D01*
G01*
G37*
G36*
G01*
X135095000Y-116356000D02*
X135095000Y-116896000D01*
G75*
G02*
X134855000Y-117136000I-240000J0D01*
G01*
X134375000Y-117136000D01*
G75*
G02*
X134135000Y-116896000I0J240000D01*
G01*
X134135000Y-116356000D01*
G75*
G02*
X134375000Y-116116000I240000J0D01*
G01*
X134855000Y-116116000D01*
G75*
G02*
X135095000Y-116356000I0J-240000D01*
G01*
G37*
G36*
G01*
X136055000Y-116356000D02*
X136055000Y-116896000D01*
G75*
G02*
X135815000Y-117136000I-240000J0D01*
G01*
X135335000Y-117136000D01*
G75*
G02*
X135095000Y-116896000I0J240000D01*
G01*
X135095000Y-116356000D01*
G75*
G02*
X135335000Y-116116000I240000J0D01*
G01*
X135815000Y-116116000D01*
G75*
G02*
X136055000Y-116356000I0J-240000D01*
G01*
G37*
G36*
G01*
X130878000Y-116881000D02*
X130878000Y-116341000D01*
G75*
G02*
X131118000Y-116101000I240000J0D01*
G01*
X131598000Y-116101000D01*
G75*
G02*
X131838000Y-116341000I0J-240000D01*
G01*
X131838000Y-116881000D01*
G75*
G02*
X131598000Y-117121000I-240000J0D01*
G01*
X131118000Y-117121000D01*
G75*
G02*
X130878000Y-116881000I0J240000D01*
G01*
G37*
G36*
G01*
X129918000Y-116881000D02*
X129918000Y-116341000D01*
G75*
G02*
X130158000Y-116101000I240000J0D01*
G01*
X130638000Y-116101000D01*
G75*
G02*
X130878000Y-116341000I0J-240000D01*
G01*
X130878000Y-116881000D01*
G75*
G02*
X130638000Y-117121000I-240000J0D01*
G01*
X130158000Y-117121000D01*
G75*
G02*
X129918000Y-116881000I0J240000D01*
G01*
G37*
D11*
X116067000Y-77364800D03*
X116067000Y-72514800D03*
G36*
G01*
X115395600Y-75985200D02*
X118045600Y-75985200D01*
G75*
G02*
X118095600Y-76035200I0J-50000D01*
G01*
X118095600Y-76435200D01*
G75*
G02*
X118045600Y-76485200I-50000J0D01*
G01*
X115395600Y-76485200D01*
G75*
G02*
X115345600Y-76435200I0J50000D01*
G01*
X115345600Y-76035200D01*
G75*
G02*
X115395600Y-75985200I50000J0D01*
G01*
G37*
G36*
G01*
X115395600Y-75339800D02*
X118045600Y-75339800D01*
G75*
G02*
X118095600Y-75389800I0J-50000D01*
G01*
X118095600Y-75789800D01*
G75*
G02*
X118045600Y-75839800I-50000J0D01*
G01*
X115395600Y-75839800D01*
G75*
G02*
X115345600Y-75789800I0J50000D01*
G01*
X115345600Y-75389800D01*
G75*
G02*
X115395600Y-75339800I50000J0D01*
G01*
G37*
G36*
G01*
X115395600Y-74689800D02*
X118045600Y-74689800D01*
G75*
G02*
X118095600Y-74739800I0J-50000D01*
G01*
X118095600Y-75139800D01*
G75*
G02*
X118045600Y-75189800I-50000J0D01*
G01*
X115395600Y-75189800D01*
G75*
G02*
X115345600Y-75139800I0J50000D01*
G01*
X115345600Y-74739800D01*
G75*
G02*
X115395600Y-74689800I50000J0D01*
G01*
G37*
G36*
G01*
X115395600Y-74039800D02*
X118045600Y-74039800D01*
G75*
G02*
X118095600Y-74089800I0J-50000D01*
G01*
X118095600Y-74489800D01*
G75*
G02*
X118045600Y-74539800I-50000J0D01*
G01*
X115395600Y-74539800D01*
G75*
G02*
X115345600Y-74489800I0J50000D01*
G01*
X115345600Y-74089800D01*
G75*
G02*
X115395600Y-74039800I50000J0D01*
G01*
G37*
G36*
G01*
X115395600Y-73389800D02*
X118045600Y-73389800D01*
G75*
G02*
X118095600Y-73439800I0J-50000D01*
G01*
X118095600Y-73839800D01*
G75*
G02*
X118045600Y-73889800I-50000J0D01*
G01*
X115395600Y-73889800D01*
G75*
G02*
X115345600Y-73839800I0J50000D01*
G01*
X115345600Y-73439800D01*
G75*
G02*
X115395600Y-73389800I50000J0D01*
G01*
G37*
D12*
X113317000Y-78514800D03*
X113317000Y-71364800D03*
G36*
G01*
X181481000Y-107576000D02*
X181481000Y-106876000D01*
G75*
G02*
X181806000Y-106551000I325000J0D01*
G01*
X182456000Y-106551000D01*
G75*
G02*
X182781000Y-106876000I0J-325000D01*
G01*
X182781000Y-107576000D01*
G75*
G02*
X182456000Y-107901000I-325000J0D01*
G01*
X181806000Y-107901000D01*
G75*
G02*
X181481000Y-107576000I0J325000D01*
G01*
G37*
G36*
G01*
X179931000Y-107576000D02*
X179931000Y-106876000D01*
G75*
G02*
X180256000Y-106551000I325000J0D01*
G01*
X180906000Y-106551000D01*
G75*
G02*
X181231000Y-106876000I0J-325000D01*
G01*
X181231000Y-107576000D01*
G75*
G02*
X180906000Y-107901000I-325000J0D01*
G01*
X180256000Y-107901000D01*
G75*
G02*
X179931000Y-107576000I0J325000D01*
G01*
G37*
G36*
G01*
X181466000Y-118007000D02*
X181466000Y-117307000D01*
G75*
G02*
X181791000Y-116982000I325000J0D01*
G01*
X182441000Y-116982000D01*
G75*
G02*
X182766000Y-117307000I0J-325000D01*
G01*
X182766000Y-118007000D01*
G75*
G02*
X182441000Y-118332000I-325000J0D01*
G01*
X181791000Y-118332000D01*
G75*
G02*
X181466000Y-118007000I0J325000D01*
G01*
G37*
G36*
G01*
X179916000Y-118007000D02*
X179916000Y-117307000D01*
G75*
G02*
X180241000Y-116982000I325000J0D01*
G01*
X180891000Y-116982000D01*
G75*
G02*
X181216000Y-117307000I0J-325000D01*
G01*
X181216000Y-118007000D01*
G75*
G02*
X180891000Y-118332000I-325000J0D01*
G01*
X180241000Y-118332000D01*
G75*
G02*
X179916000Y-118007000I0J325000D01*
G01*
G37*
D13*
X191851000Y-119860000D03*
X116032000Y-125448000D03*
G36*
G01*
X179127000Y-110954000D02*
X179127000Y-109454000D01*
G75*
G02*
X179327000Y-109254000I200000J0D01*
G01*
X181327000Y-109254000D01*
G75*
G02*
X181527000Y-109454000I0J-200000D01*
G01*
X181527000Y-110954000D01*
G75*
G02*
X181327000Y-111154000I-200000J0D01*
G01*
X179327000Y-111154000D01*
G75*
G02*
X179127000Y-110954000I0J200000D01*
G01*
G37*
G36*
G01*
X179127000Y-115554000D02*
X179127000Y-114054000D01*
G75*
G02*
X179327000Y-113854000I200000J0D01*
G01*
X181327000Y-113854000D01*
G75*
G02*
X181527000Y-114054000I0J-200000D01*
G01*
X181527000Y-115554000D01*
G75*
G02*
X181327000Y-115754000I-200000J0D01*
G01*
X179327000Y-115754000D01*
G75*
G02*
X179127000Y-115554000I0J200000D01*
G01*
G37*
G36*
G01*
X179127000Y-113254000D02*
X179127000Y-111754000D01*
G75*
G02*
X179327000Y-111554000I200000J0D01*
G01*
X181327000Y-111554000D01*
G75*
G02*
X181527000Y-111754000I0J-200000D01*
G01*
X181527000Y-113254000D01*
G75*
G02*
X181327000Y-113454000I-200000J0D01*
G01*
X179327000Y-113454000D01*
G75*
G02*
X179127000Y-113254000I0J200000D01*
G01*
G37*
G36*
G01*
X185427000Y-114404000D02*
X185427000Y-110604000D01*
G75*
G02*
X185627000Y-110404000I200000J0D01*
G01*
X187627000Y-110404000D01*
G75*
G02*
X187827000Y-110604000I0J-200000D01*
G01*
X187827000Y-114404000D01*
G75*
G02*
X187627000Y-114604000I-200000J0D01*
G01*
X185627000Y-114604000D01*
G75*
G02*
X185427000Y-114404000I0J200000D01*
G01*
G37*
D10*
X148363000Y-99256000D03*
X148363000Y-101796000D03*
X145823000Y-99256000D03*
X145823000Y-101796000D03*
X143283000Y-99256000D03*
G36*
G01*
X144133000Y-102846000D02*
X142433000Y-102846000D01*
G75*
G02*
X142233000Y-102646000I0J200000D01*
G01*
X142233000Y-100946000D01*
G75*
G02*
X142433000Y-100746000I200000J0D01*
G01*
X144133000Y-100746000D01*
G75*
G02*
X144333000Y-100946000I0J-200000D01*
G01*
X144333000Y-102646000D01*
G75*
G02*
X144133000Y-102846000I-200000J0D01*
G01*
G37*
G36*
G01*
X176299000Y-118054500D02*
X176299000Y-117509500D01*
G75*
G02*
X176546500Y-117262000I247500J0D01*
G01*
X177041500Y-117262000D01*
G75*
G02*
X177289000Y-117509500I0J-247500D01*
G01*
X177289000Y-118054500D01*
G75*
G02*
X177041500Y-118302000I-247500J0D01*
G01*
X176546500Y-118302000D01*
G75*
G02*
X176299000Y-118054500I0J247500D01*
G01*
G37*
G36*
G01*
X175329000Y-118054500D02*
X175329000Y-117509500D01*
G75*
G02*
X175576500Y-117262000I247500J0D01*
G01*
X176071500Y-117262000D01*
G75*
G02*
X176319000Y-117509500I0J-247500D01*
G01*
X176319000Y-118054500D01*
G75*
G02*
X176071500Y-118302000I-247500J0D01*
G01*
X175576500Y-118302000D01*
G75*
G02*
X175329000Y-118054500I0J247500D01*
G01*
G37*
G36*
G01*
X163680000Y-107674500D02*
X163680000Y-108219500D01*
G75*
G02*
X163432500Y-108467000I-247500J0D01*
G01*
X162937500Y-108467000D01*
G75*
G02*
X162690000Y-108219500I0J247500D01*
G01*
X162690000Y-107674500D01*
G75*
G02*
X162937500Y-107427000I247500J0D01*
G01*
X163432500Y-107427000D01*
G75*
G02*
X163680000Y-107674500I0J-247500D01*
G01*
G37*
G36*
G01*
X164650000Y-107674500D02*
X164650000Y-108219500D01*
G75*
G02*
X164402500Y-108467000I-247500J0D01*
G01*
X163907500Y-108467000D01*
G75*
G02*
X163660000Y-108219500I0J247500D01*
G01*
X163660000Y-107674500D01*
G75*
G02*
X163907500Y-107427000I247500J0D01*
G01*
X164402500Y-107427000D01*
G75*
G02*
X164650000Y-107674500I0J-247500D01*
G01*
G37*
G36*
G01*
X131590000Y-99290100D02*
X131590000Y-99835100D01*
G75*
G02*
X131342500Y-100082600I-247500J0D01*
G01*
X130847500Y-100082600D01*
G75*
G02*
X130600000Y-99835100I0J247500D01*
G01*
X130600000Y-99290100D01*
G75*
G02*
X130847500Y-99042600I247500J0D01*
G01*
X131342500Y-99042600D01*
G75*
G02*
X131590000Y-99290100I0J-247500D01*
G01*
G37*
G36*
G01*
X132560000Y-99290100D02*
X132560000Y-99835100D01*
G75*
G02*
X132312500Y-100082600I-247500J0D01*
G01*
X131817500Y-100082600D01*
G75*
G02*
X131570000Y-99835100I0J247500D01*
G01*
X131570000Y-99290100D01*
G75*
G02*
X131817500Y-99042600I247500J0D01*
G01*
X132312500Y-99042600D01*
G75*
G02*
X132560000Y-99290100I0J-247500D01*
G01*
G37*
G36*
G01*
X134046000Y-99835100D02*
X134046000Y-99290100D01*
G75*
G02*
X134293500Y-99042600I247500J0D01*
G01*
X134788500Y-99042600D01*
G75*
G02*
X135036000Y-99290100I0J-247500D01*
G01*
X135036000Y-99835100D01*
G75*
G02*
X134788500Y-100082600I-247500J0D01*
G01*
X134293500Y-100082600D01*
G75*
G02*
X134046000Y-99835100I0J247500D01*
G01*
G37*
G36*
G01*
X133076000Y-99835100D02*
X133076000Y-99290100D01*
G75*
G02*
X133323500Y-99042600I247500J0D01*
G01*
X133818500Y-99042600D01*
G75*
G02*
X134066000Y-99290100I0J-247500D01*
G01*
X134066000Y-99835100D01*
G75*
G02*
X133818500Y-100082600I-247500J0D01*
G01*
X133323500Y-100082600D01*
G75*
G02*
X133076000Y-99835100I0J247500D01*
G01*
G37*
G36*
G01*
X143972000Y-81110100D02*
X143972000Y-80565100D01*
G75*
G02*
X144219500Y-80317600I247500J0D01*
G01*
X144714500Y-80317600D01*
G75*
G02*
X144962000Y-80565100I0J-247500D01*
G01*
X144962000Y-81110100D01*
G75*
G02*
X144714500Y-81357600I-247500J0D01*
G01*
X144219500Y-81357600D01*
G75*
G02*
X143972000Y-81110100I0J247500D01*
G01*
G37*
G36*
G01*
X143002000Y-81110100D02*
X143002000Y-80565100D01*
G75*
G02*
X143249500Y-80317600I247500J0D01*
G01*
X143744500Y-80317600D01*
G75*
G02*
X143992000Y-80565100I0J-247500D01*
G01*
X143992000Y-81110100D01*
G75*
G02*
X143744500Y-81357600I-247500J0D01*
G01*
X143249500Y-81357600D01*
G75*
G02*
X143002000Y-81110100I0J247500D01*
G01*
G37*
G36*
G01*
X166098000Y-80250200D02*
X166098000Y-80795200D01*
G75*
G02*
X165850500Y-81042700I-247500J0D01*
G01*
X165355500Y-81042700D01*
G75*
G02*
X165108000Y-80795200I0J247500D01*
G01*
X165108000Y-80250200D01*
G75*
G02*
X165355500Y-80002700I247500J0D01*
G01*
X165850500Y-80002700D01*
G75*
G02*
X166098000Y-80250200I0J-247500D01*
G01*
G37*
G36*
G01*
X167068000Y-80250200D02*
X167068000Y-80795200D01*
G75*
G02*
X166820500Y-81042700I-247500J0D01*
G01*
X166325500Y-81042700D01*
G75*
G02*
X166078000Y-80795200I0J247500D01*
G01*
X166078000Y-80250200D01*
G75*
G02*
X166325500Y-80002700I247500J0D01*
G01*
X166820500Y-80002700D01*
G75*
G02*
X167068000Y-80250200I0J-247500D01*
G01*
G37*
G36*
G01*
X130015000Y-91229500D02*
X130015000Y-90684500D01*
G75*
G02*
X130262500Y-90437000I247500J0D01*
G01*
X130757500Y-90437000D01*
G75*
G02*
X131005000Y-90684500I0J-247500D01*
G01*
X131005000Y-91229500D01*
G75*
G02*
X130757500Y-91477000I-247500J0D01*
G01*
X130262500Y-91477000D01*
G75*
G02*
X130015000Y-91229500I0J247500D01*
G01*
G37*
G36*
G01*
X129045000Y-91229500D02*
X129045000Y-90684500D01*
G75*
G02*
X129292500Y-90437000I247500J0D01*
G01*
X129787500Y-90437000D01*
G75*
G02*
X130035000Y-90684500I0J-247500D01*
G01*
X130035000Y-91229500D01*
G75*
G02*
X129787500Y-91477000I-247500J0D01*
G01*
X129292500Y-91477000D01*
G75*
G02*
X129045000Y-91229500I0J247500D01*
G01*
G37*
G36*
G01*
X159437500Y-114144000D02*
X159982500Y-114144000D01*
G75*
G02*
X160230000Y-114391500I0J-247500D01*
G01*
X160230000Y-114886500D01*
G75*
G02*
X159982500Y-115134000I-247500J0D01*
G01*
X159437500Y-115134000D01*
G75*
G02*
X159190000Y-114886500I0J247500D01*
G01*
X159190000Y-114391500D01*
G75*
G02*
X159437500Y-114144000I247500J0D01*
G01*
G37*
G36*
G01*
X159437500Y-113174000D02*
X159982500Y-113174000D01*
G75*
G02*
X160230000Y-113421500I0J-247500D01*
G01*
X160230000Y-113916500D01*
G75*
G02*
X159982500Y-114164000I-247500J0D01*
G01*
X159437500Y-114164000D01*
G75*
G02*
X159190000Y-113916500I0J247500D01*
G01*
X159190000Y-113421500D01*
G75*
G02*
X159437500Y-113174000I247500J0D01*
G01*
G37*
G36*
G01*
X142686000Y-117366000D02*
X142686000Y-116066000D01*
G75*
G02*
X142886000Y-115866000I200000J0D01*
G01*
X144486000Y-115866000D01*
G75*
G02*
X144686000Y-116066000I0J-200000D01*
G01*
X144686000Y-117366000D01*
G75*
G02*
X144486000Y-117566000I-200000J0D01*
G01*
X142886000Y-117566000D01*
G75*
G02*
X142686000Y-117366000I0J200000D01*
G01*
G37*
G36*
G01*
X145986000Y-117366000D02*
X145986000Y-116066000D01*
G75*
G02*
X146186000Y-115866000I200000J0D01*
G01*
X147786000Y-115866000D01*
G75*
G02*
X147986000Y-116066000I0J-200000D01*
G01*
X147986000Y-117366000D01*
G75*
G02*
X147786000Y-117566000I-200000J0D01*
G01*
X146186000Y-117566000D01*
G75*
G02*
X145986000Y-117366000I0J200000D01*
G01*
G37*
G36*
G01*
X145986000Y-119366000D02*
X145986000Y-118066000D01*
G75*
G02*
X146186000Y-117866000I200000J0D01*
G01*
X147786000Y-117866000D01*
G75*
G02*
X147986000Y-118066000I0J-200000D01*
G01*
X147986000Y-119366000D01*
G75*
G02*
X147786000Y-119566000I-200000J0D01*
G01*
X146186000Y-119566000D01*
G75*
G02*
X145986000Y-119366000I0J200000D01*
G01*
G37*
G36*
G01*
X142686000Y-119366000D02*
X142686000Y-118066000D01*
G75*
G02*
X142886000Y-117866000I200000J0D01*
G01*
X144486000Y-117866000D01*
G75*
G02*
X144686000Y-118066000I0J-200000D01*
G01*
X144686000Y-119366000D01*
G75*
G02*
X144486000Y-119566000I-200000J0D01*
G01*
X142886000Y-119566000D01*
G75*
G02*
X142686000Y-119366000I0J200000D01*
G01*
G37*
G36*
G01*
X181010000Y-84607100D02*
X181010000Y-84207100D01*
G75*
G02*
X181210000Y-84007100I200000J0D01*
G01*
X182685000Y-84007100D01*
G75*
G02*
X182885000Y-84207100I0J-200000D01*
G01*
X182885000Y-84607100D01*
G75*
G02*
X182685000Y-84807100I-200000J0D01*
G01*
X181210000Y-84807100D01*
G75*
G02*
X181010000Y-84607100I0J200000D01*
G01*
G37*
G36*
G01*
X181010000Y-85257100D02*
X181010000Y-84857100D01*
G75*
G02*
X181210000Y-84657100I200000J0D01*
G01*
X182685000Y-84657100D01*
G75*
G02*
X182885000Y-84857100I0J-200000D01*
G01*
X182885000Y-85257100D01*
G75*
G02*
X182685000Y-85457100I-200000J0D01*
G01*
X181210000Y-85457100D01*
G75*
G02*
X181010000Y-85257100I0J200000D01*
G01*
G37*
G36*
G01*
X181010000Y-85907100D02*
X181010000Y-85507100D01*
G75*
G02*
X181210000Y-85307100I200000J0D01*
G01*
X182685000Y-85307100D01*
G75*
G02*
X182885000Y-85507100I0J-200000D01*
G01*
X182885000Y-85907100D01*
G75*
G02*
X182685000Y-86107100I-200000J0D01*
G01*
X181210000Y-86107100D01*
G75*
G02*
X181010000Y-85907100I0J200000D01*
G01*
G37*
G36*
G01*
X181010000Y-86557100D02*
X181010000Y-86157100D01*
G75*
G02*
X181210000Y-85957100I200000J0D01*
G01*
X182685000Y-85957100D01*
G75*
G02*
X182885000Y-86157100I0J-200000D01*
G01*
X182885000Y-86557100D01*
G75*
G02*
X182685000Y-86757100I-200000J0D01*
G01*
X181210000Y-86757100D01*
G75*
G02*
X181010000Y-86557100I0J200000D01*
G01*
G37*
G36*
G01*
X181010000Y-87207100D02*
X181010000Y-86807100D01*
G75*
G02*
X181210000Y-86607100I200000J0D01*
G01*
X182685000Y-86607100D01*
G75*
G02*
X182885000Y-86807100I0J-200000D01*
G01*
X182885000Y-87207100D01*
G75*
G02*
X182685000Y-87407100I-200000J0D01*
G01*
X181210000Y-87407100D01*
G75*
G02*
X181010000Y-87207100I0J200000D01*
G01*
G37*
G36*
G01*
X181010000Y-87857100D02*
X181010000Y-87457100D01*
G75*
G02*
X181210000Y-87257100I200000J0D01*
G01*
X182685000Y-87257100D01*
G75*
G02*
X182885000Y-87457100I0J-200000D01*
G01*
X182885000Y-87857100D01*
G75*
G02*
X182685000Y-88057100I-200000J0D01*
G01*
X181210000Y-88057100D01*
G75*
G02*
X181010000Y-87857100I0J200000D01*
G01*
G37*
G36*
G01*
X181010000Y-88507100D02*
X181010000Y-88107100D01*
G75*
G02*
X181210000Y-87907100I200000J0D01*
G01*
X182685000Y-87907100D01*
G75*
G02*
X182885000Y-88107100I0J-200000D01*
G01*
X182885000Y-88507100D01*
G75*
G02*
X182685000Y-88707100I-200000J0D01*
G01*
X181210000Y-88707100D01*
G75*
G02*
X181010000Y-88507100I0J200000D01*
G01*
G37*
G36*
G01*
X175285000Y-88507100D02*
X175285000Y-88107100D01*
G75*
G02*
X175485000Y-87907100I200000J0D01*
G01*
X176960000Y-87907100D01*
G75*
G02*
X177160000Y-88107100I0J-200000D01*
G01*
X177160000Y-88507100D01*
G75*
G02*
X176960000Y-88707100I-200000J0D01*
G01*
X175485000Y-88707100D01*
G75*
G02*
X175285000Y-88507100I0J200000D01*
G01*
G37*
G36*
G01*
X175285000Y-87857100D02*
X175285000Y-87457100D01*
G75*
G02*
X175485000Y-87257100I200000J0D01*
G01*
X176960000Y-87257100D01*
G75*
G02*
X177160000Y-87457100I0J-200000D01*
G01*
X177160000Y-87857100D01*
G75*
G02*
X176960000Y-88057100I-200000J0D01*
G01*
X175485000Y-88057100D01*
G75*
G02*
X175285000Y-87857100I0J200000D01*
G01*
G37*
G36*
G01*
X175285000Y-87207100D02*
X175285000Y-86807100D01*
G75*
G02*
X175485000Y-86607100I200000J0D01*
G01*
X176960000Y-86607100D01*
G75*
G02*
X177160000Y-86807100I0J-200000D01*
G01*
X177160000Y-87207100D01*
G75*
G02*
X176960000Y-87407100I-200000J0D01*
G01*
X175485000Y-87407100D01*
G75*
G02*
X175285000Y-87207100I0J200000D01*
G01*
G37*
G36*
G01*
X175285000Y-86557100D02*
X175285000Y-86157100D01*
G75*
G02*
X175485000Y-85957100I200000J0D01*
G01*
X176960000Y-85957100D01*
G75*
G02*
X177160000Y-86157100I0J-200000D01*
G01*
X177160000Y-86557100D01*
G75*
G02*
X176960000Y-86757100I-200000J0D01*
G01*
X175485000Y-86757100D01*
G75*
G02*
X175285000Y-86557100I0J200000D01*
G01*
G37*
G36*
G01*
X175285000Y-85907100D02*
X175285000Y-85507100D01*
G75*
G02*
X175485000Y-85307100I200000J0D01*
G01*
X176960000Y-85307100D01*
G75*
G02*
X177160000Y-85507100I0J-200000D01*
G01*
X177160000Y-85907100D01*
G75*
G02*
X176960000Y-86107100I-200000J0D01*
G01*
X175485000Y-86107100D01*
G75*
G02*
X175285000Y-85907100I0J200000D01*
G01*
G37*
G36*
G01*
X175285000Y-85257100D02*
X175285000Y-84857100D01*
G75*
G02*
X175485000Y-84657100I200000J0D01*
G01*
X176960000Y-84657100D01*
G75*
G02*
X177160000Y-84857100I0J-200000D01*
G01*
X177160000Y-85257100D01*
G75*
G02*
X176960000Y-85457100I-200000J0D01*
G01*
X175485000Y-85457100D01*
G75*
G02*
X175285000Y-85257100I0J200000D01*
G01*
G37*
G36*
G01*
X175285000Y-84607100D02*
X175285000Y-84207100D01*
G75*
G02*
X175485000Y-84007100I200000J0D01*
G01*
X176960000Y-84007100D01*
G75*
G02*
X177160000Y-84207100I0J-200000D01*
G01*
X177160000Y-84607100D01*
G75*
G02*
X176960000Y-84807100I-200000J0D01*
G01*
X175485000Y-84807100D01*
G75*
G02*
X175285000Y-84607100I0J200000D01*
G01*
G37*
G36*
G01*
X181320000Y-89655800D02*
X181320000Y-90200800D01*
G75*
G02*
X181072500Y-90448300I-247500J0D01*
G01*
X180577500Y-90448300D01*
G75*
G02*
X180330000Y-90200800I0J247500D01*
G01*
X180330000Y-89655800D01*
G75*
G02*
X180577500Y-89408300I247500J0D01*
G01*
X181072500Y-89408300D01*
G75*
G02*
X181320000Y-89655800I0J-247500D01*
G01*
G37*
G36*
G01*
X182290000Y-89655800D02*
X182290000Y-90200800D01*
G75*
G02*
X182042500Y-90448300I-247500J0D01*
G01*
X181547500Y-90448300D01*
G75*
G02*
X181300000Y-90200800I0J247500D01*
G01*
X181300000Y-89655800D01*
G75*
G02*
X181547500Y-89408300I247500J0D01*
G01*
X182042500Y-89408300D01*
G75*
G02*
X182290000Y-89655800I0J-247500D01*
G01*
G37*
G36*
G01*
X177071000Y-90890200D02*
X177071000Y-91435200D01*
G75*
G02*
X176823500Y-91682700I-247500J0D01*
G01*
X176328500Y-91682700D01*
G75*
G02*
X176081000Y-91435200I0J247500D01*
G01*
X176081000Y-90890200D01*
G75*
G02*
X176328500Y-90642700I247500J0D01*
G01*
X176823500Y-90642700D01*
G75*
G02*
X177071000Y-90890200I0J-247500D01*
G01*
G37*
G36*
G01*
X178041000Y-90890200D02*
X178041000Y-91435200D01*
G75*
G02*
X177793500Y-91682700I-247500J0D01*
G01*
X177298500Y-91682700D01*
G75*
G02*
X177051000Y-91435200I0J247500D01*
G01*
X177051000Y-90890200D01*
G75*
G02*
X177298500Y-90642700I247500J0D01*
G01*
X177793500Y-90642700D01*
G75*
G02*
X178041000Y-90890200I0J-247500D01*
G01*
G37*
G36*
G01*
X177048000Y-89666000D02*
X177048000Y-90211000D01*
G75*
G02*
X176800500Y-90458500I-247500J0D01*
G01*
X176305500Y-90458500D01*
G75*
G02*
X176058000Y-90211000I0J247500D01*
G01*
X176058000Y-89666000D01*
G75*
G02*
X176305500Y-89418500I247500J0D01*
G01*
X176800500Y-89418500D01*
G75*
G02*
X177048000Y-89666000I0J-247500D01*
G01*
G37*
G36*
G01*
X178018000Y-89666000D02*
X178018000Y-90211000D01*
G75*
G02*
X177770500Y-90458500I-247500J0D01*
G01*
X177275500Y-90458500D01*
G75*
G02*
X177028000Y-90211000I0J247500D01*
G01*
X177028000Y-89666000D01*
G75*
G02*
X177275500Y-89418500I247500J0D01*
G01*
X177770500Y-89418500D01*
G75*
G02*
X178018000Y-89666000I0J-247500D01*
G01*
G37*
G36*
G01*
X181333000Y-90897900D02*
X181333000Y-91442900D01*
G75*
G02*
X181085500Y-91690400I-247500J0D01*
G01*
X180590500Y-91690400D01*
G75*
G02*
X180343000Y-91442900I0J247500D01*
G01*
X180343000Y-90897900D01*
G75*
G02*
X180590500Y-90650400I247500J0D01*
G01*
X181085500Y-90650400D01*
G75*
G02*
X181333000Y-90897900I0J-247500D01*
G01*
G37*
G36*
G01*
X182303000Y-90897900D02*
X182303000Y-91442900D01*
G75*
G02*
X182055500Y-91690400I-247500J0D01*
G01*
X181560500Y-91690400D01*
G75*
G02*
X181313000Y-91442900I0J247500D01*
G01*
X181313000Y-90897900D01*
G75*
G02*
X181560500Y-90650400I247500J0D01*
G01*
X182055500Y-90650400D01*
G75*
G02*
X182303000Y-90897900I0J-247500D01*
G01*
G37*
G36*
G01*
X180749000Y-101770500D02*
X180749000Y-101225500D01*
G75*
G02*
X180996500Y-100978000I247500J0D01*
G01*
X181491500Y-100978000D01*
G75*
G02*
X181739000Y-101225500I0J-247500D01*
G01*
X181739000Y-101770500D01*
G75*
G02*
X181491500Y-102018000I-247500J0D01*
G01*
X180996500Y-102018000D01*
G75*
G02*
X180749000Y-101770500I0J247500D01*
G01*
G37*
G36*
G01*
X179779000Y-101770500D02*
X179779000Y-101225500D01*
G75*
G02*
X180026500Y-100978000I247500J0D01*
G01*
X180521500Y-100978000D01*
G75*
G02*
X180769000Y-101225500I0J-247500D01*
G01*
X180769000Y-101770500D01*
G75*
G02*
X180521500Y-102018000I-247500J0D01*
G01*
X180026500Y-102018000D01*
G75*
G02*
X179779000Y-101770500I0J247500D01*
G01*
G37*
G36*
G01*
X151586000Y-101523500D02*
X151586000Y-102068500D01*
G75*
G02*
X151338500Y-102316000I-247500J0D01*
G01*
X150843500Y-102316000D01*
G75*
G02*
X150596000Y-102068500I0J247500D01*
G01*
X150596000Y-101523500D01*
G75*
G02*
X150843500Y-101276000I247500J0D01*
G01*
X151338500Y-101276000D01*
G75*
G02*
X151586000Y-101523500I0J-247500D01*
G01*
G37*
G36*
G01*
X152556000Y-101523500D02*
X152556000Y-102068500D01*
G75*
G02*
X152308500Y-102316000I-247500J0D01*
G01*
X151813500Y-102316000D01*
G75*
G02*
X151566000Y-102068500I0J247500D01*
G01*
X151566000Y-101523500D01*
G75*
G02*
X151813500Y-101276000I247500J0D01*
G01*
X152308500Y-101276000D01*
G75*
G02*
X152556000Y-101523500I0J-247500D01*
G01*
G37*
G36*
G01*
X171173000Y-114515500D02*
X171173000Y-113970500D01*
G75*
G02*
X171420500Y-113723000I247500J0D01*
G01*
X171915500Y-113723000D01*
G75*
G02*
X172163000Y-113970500I0J-247500D01*
G01*
X172163000Y-114515500D01*
G75*
G02*
X171915500Y-114763000I-247500J0D01*
G01*
X171420500Y-114763000D01*
G75*
G02*
X171173000Y-114515500I0J247500D01*
G01*
G37*
G36*
G01*
X170203000Y-114515500D02*
X170203000Y-113970500D01*
G75*
G02*
X170450500Y-113723000I247500J0D01*
G01*
X170945500Y-113723000D01*
G75*
G02*
X171193000Y-113970500I0J-247500D01*
G01*
X171193000Y-114515500D01*
G75*
G02*
X170945500Y-114763000I-247500J0D01*
G01*
X170450500Y-114763000D01*
G75*
G02*
X170203000Y-114515500I0J247500D01*
G01*
G37*
G36*
G01*
X184917000Y-97636000D02*
X183317000Y-97636000D01*
G75*
G02*
X183117000Y-97436000I0J200000D01*
G01*
X183117000Y-96736000D01*
G75*
G02*
X183317000Y-96536000I200000J0D01*
G01*
X184917000Y-96536000D01*
G75*
G02*
X185117000Y-96736000I0J-200000D01*
G01*
X185117000Y-97436000D01*
G75*
G02*
X184917000Y-97636000I-200000J0D01*
G01*
G37*
G36*
G01*
X184917000Y-96536000D02*
X183317000Y-96536000D01*
G75*
G02*
X183117000Y-96336000I0J200000D01*
G01*
X183117000Y-95636000D01*
G75*
G02*
X183317000Y-95436000I200000J0D01*
G01*
X184917000Y-95436000D01*
G75*
G02*
X185117000Y-95636000I0J-200000D01*
G01*
X185117000Y-96336000D01*
G75*
G02*
X184917000Y-96536000I-200000J0D01*
G01*
G37*
G36*
G01*
X184917000Y-95436000D02*
X183317000Y-95436000D01*
G75*
G02*
X183117000Y-95236000I0J200000D01*
G01*
X183117000Y-94536000D01*
G75*
G02*
X183317000Y-94336000I200000J0D01*
G01*
X184917000Y-94336000D01*
G75*
G02*
X185117000Y-94536000I0J-200000D01*
G01*
X185117000Y-95236000D01*
G75*
G02*
X184917000Y-95436000I-200000J0D01*
G01*
G37*
G36*
G01*
X184917000Y-98736000D02*
X183317000Y-98736000D01*
G75*
G02*
X183117000Y-98536000I0J200000D01*
G01*
X183117000Y-97836000D01*
G75*
G02*
X183317000Y-97636000I200000J0D01*
G01*
X184917000Y-97636000D01*
G75*
G02*
X185117000Y-97836000I0J-200000D01*
G01*
X185117000Y-98536000D01*
G75*
G02*
X184917000Y-98736000I-200000J0D01*
G01*
G37*
G36*
G01*
X184917000Y-99836000D02*
X183317000Y-99836000D01*
G75*
G02*
X183117000Y-99636000I0J200000D01*
G01*
X183117000Y-98936000D01*
G75*
G02*
X183317000Y-98736000I200000J0D01*
G01*
X184917000Y-98736000D01*
G75*
G02*
X185117000Y-98936000I0J-200000D01*
G01*
X185117000Y-99636000D01*
G75*
G02*
X184917000Y-99836000I-200000J0D01*
G01*
G37*
G36*
G01*
X184917000Y-100936000D02*
X183317000Y-100936000D01*
G75*
G02*
X183117000Y-100736000I0J200000D01*
G01*
X183117000Y-100036000D01*
G75*
G02*
X183317000Y-99836000I200000J0D01*
G01*
X184917000Y-99836000D01*
G75*
G02*
X185117000Y-100036000I0J-200000D01*
G01*
X185117000Y-100736000D01*
G75*
G02*
X184917000Y-100936000I-200000J0D01*
G01*
G37*
G36*
G01*
X184917000Y-103136000D02*
X183317000Y-103136000D01*
G75*
G02*
X183117000Y-102936000I0J200000D01*
G01*
X183117000Y-102236000D01*
G75*
G02*
X183317000Y-102036000I200000J0D01*
G01*
X184917000Y-102036000D01*
G75*
G02*
X185117000Y-102236000I0J-200000D01*
G01*
X185117000Y-102936000D01*
G75*
G02*
X184917000Y-103136000I-200000J0D01*
G01*
G37*
G36*
G01*
X184917000Y-102036000D02*
X183317000Y-102036000D01*
G75*
G02*
X183117000Y-101836000I0J200000D01*
G01*
X183117000Y-101136000D01*
G75*
G02*
X183317000Y-100936000I200000J0D01*
G01*
X184917000Y-100936000D01*
G75*
G02*
X185117000Y-101136000I0J-200000D01*
G01*
X185117000Y-101836000D01*
G75*
G02*
X184917000Y-102036000I-200000J0D01*
G01*
G37*
G36*
G01*
X184917000Y-104236000D02*
X183317000Y-104236000D01*
G75*
G02*
X183117000Y-104036000I0J200000D01*
G01*
X183117000Y-103336000D01*
G75*
G02*
X183317000Y-103136000I200000J0D01*
G01*
X184917000Y-103136000D01*
G75*
G02*
X185117000Y-103336000I0J-200000D01*
G01*
X185117000Y-104036000D01*
G75*
G02*
X184917000Y-104236000I-200000J0D01*
G01*
G37*
G36*
G01*
X185317000Y-105636000D02*
X183917000Y-105636000D01*
G75*
G02*
X183717000Y-105436000I0J200000D01*
G01*
X183717000Y-104236000D01*
G75*
G02*
X183917000Y-104036000I200000J0D01*
G01*
X185317000Y-104036000D01*
G75*
G02*
X185517000Y-104236000I0J-200000D01*
G01*
X185517000Y-105436000D01*
G75*
G02*
X185317000Y-105636000I-200000J0D01*
G01*
G37*
G36*
G01*
X185317000Y-91236000D02*
X183917000Y-91236000D01*
G75*
G02*
X183717000Y-91036000I0J200000D01*
G01*
X183717000Y-89436000D01*
G75*
G02*
X183917000Y-89236000I200000J0D01*
G01*
X185317000Y-89236000D01*
G75*
G02*
X185517000Y-89436000I0J-200000D01*
G01*
X185517000Y-91036000D01*
G75*
G02*
X185317000Y-91236000I-200000J0D01*
G01*
G37*
G36*
G01*
X195317000Y-105636000D02*
X193117000Y-105636000D01*
G75*
G02*
X192917000Y-105436000I0J200000D01*
G01*
X192917000Y-104236000D01*
G75*
G02*
X193117000Y-104036000I200000J0D01*
G01*
X195317000Y-104036000D01*
G75*
G02*
X195517000Y-104236000I0J-200000D01*
G01*
X195517000Y-105436000D01*
G75*
G02*
X195317000Y-105636000I-200000J0D01*
G01*
G37*
G36*
G01*
X195317000Y-90136000D02*
X193117000Y-90136000D01*
G75*
G02*
X192917000Y-89936000I0J200000D01*
G01*
X192917000Y-88736000D01*
G75*
G02*
X193117000Y-88536000I200000J0D01*
G01*
X195317000Y-88536000D01*
G75*
G02*
X195517000Y-88736000I0J-200000D01*
G01*
X195517000Y-89936000D01*
G75*
G02*
X195317000Y-90136000I-200000J0D01*
G01*
G37*
G36*
G01*
X176396000Y-115096000D02*
X176396000Y-113396000D01*
G75*
G02*
X176596000Y-113196000I200000J0D01*
G01*
X177896000Y-113196000D01*
G75*
G02*
X178096000Y-113396000I0J-200000D01*
G01*
X178096000Y-115096000D01*
G75*
G02*
X177896000Y-115296000I-200000J0D01*
G01*
X176596000Y-115296000D01*
G75*
G02*
X176396000Y-115096000I0J200000D01*
G01*
G37*
G36*
G01*
X172896000Y-115096000D02*
X172896000Y-113396000D01*
G75*
G02*
X173096000Y-113196000I200000J0D01*
G01*
X174396000Y-113196000D01*
G75*
G02*
X174596000Y-113396000I0J-200000D01*
G01*
X174596000Y-115096000D01*
G75*
G02*
X174396000Y-115296000I-200000J0D01*
G01*
X173096000Y-115296000D01*
G75*
G02*
X172896000Y-115096000I0J200000D01*
G01*
G37*
G36*
G01*
X149531000Y-116445500D02*
X149531000Y-116990500D01*
G75*
G02*
X149283500Y-117238000I-247500J0D01*
G01*
X148788500Y-117238000D01*
G75*
G02*
X148541000Y-116990500I0J247500D01*
G01*
X148541000Y-116445500D01*
G75*
G02*
X148788500Y-116198000I247500J0D01*
G01*
X149283500Y-116198000D01*
G75*
G02*
X149531000Y-116445500I0J-247500D01*
G01*
G37*
G36*
G01*
X150501000Y-116445500D02*
X150501000Y-116990500D01*
G75*
G02*
X150253500Y-117238000I-247500J0D01*
G01*
X149758500Y-117238000D01*
G75*
G02*
X149511000Y-116990500I0J247500D01*
G01*
X149511000Y-116445500D01*
G75*
G02*
X149758500Y-116198000I247500J0D01*
G01*
X150253500Y-116198000D01*
G75*
G02*
X150501000Y-116445500I0J-247500D01*
G01*
G37*
G36*
G01*
X140662000Y-118992500D02*
X140662000Y-118447500D01*
G75*
G02*
X140909500Y-118200000I247500J0D01*
G01*
X141404500Y-118200000D01*
G75*
G02*
X141652000Y-118447500I0J-247500D01*
G01*
X141652000Y-118992500D01*
G75*
G02*
X141404500Y-119240000I-247500J0D01*
G01*
X140909500Y-119240000D01*
G75*
G02*
X140662000Y-118992500I0J247500D01*
G01*
G37*
G36*
G01*
X139692000Y-118992500D02*
X139692000Y-118447500D01*
G75*
G02*
X139939500Y-118200000I247500J0D01*
G01*
X140434500Y-118200000D01*
G75*
G02*
X140682000Y-118447500I0J-247500D01*
G01*
X140682000Y-118992500D01*
G75*
G02*
X140434500Y-119240000I-247500J0D01*
G01*
X139939500Y-119240000D01*
G75*
G02*
X139692000Y-118992500I0J247500D01*
G01*
G37*
G36*
G01*
X144424000Y-105722500D02*
X144424000Y-105177500D01*
G75*
G02*
X144671500Y-104930000I247500J0D01*
G01*
X145166500Y-104930000D01*
G75*
G02*
X145414000Y-105177500I0J-247500D01*
G01*
X145414000Y-105722500D01*
G75*
G02*
X145166500Y-105970000I-247500J0D01*
G01*
X144671500Y-105970000D01*
G75*
G02*
X144424000Y-105722500I0J247500D01*
G01*
G37*
G36*
G01*
X143454000Y-105722500D02*
X143454000Y-105177500D01*
G75*
G02*
X143701500Y-104930000I247500J0D01*
G01*
X144196500Y-104930000D01*
G75*
G02*
X144444000Y-105177500I0J-247500D01*
G01*
X144444000Y-105722500D01*
G75*
G02*
X144196500Y-105970000I-247500J0D01*
G01*
X143701500Y-105970000D01*
G75*
G02*
X143454000Y-105722500I0J247500D01*
G01*
G37*
G36*
G01*
X181453000Y-82979600D02*
X181453000Y-82434600D01*
G75*
G02*
X181700500Y-82187100I247500J0D01*
G01*
X182195500Y-82187100D01*
G75*
G02*
X182443000Y-82434600I0J-247500D01*
G01*
X182443000Y-82979600D01*
G75*
G02*
X182195500Y-83227100I-247500J0D01*
G01*
X181700500Y-83227100D01*
G75*
G02*
X181453000Y-82979600I0J247500D01*
G01*
G37*
G36*
G01*
X180483000Y-82979600D02*
X180483000Y-82434600D01*
G75*
G02*
X180730500Y-82187100I247500J0D01*
G01*
X181225500Y-82187100D01*
G75*
G02*
X181473000Y-82434600I0J-247500D01*
G01*
X181473000Y-82979600D01*
G75*
G02*
X181225500Y-83227100I-247500J0D01*
G01*
X180730500Y-83227100D01*
G75*
G02*
X180483000Y-82979600I0J247500D01*
G01*
G37*
G36*
G01*
X180744000Y-98468500D02*
X180744000Y-97923500D01*
G75*
G02*
X180991500Y-97676000I247500J0D01*
G01*
X181486500Y-97676000D01*
G75*
G02*
X181734000Y-97923500I0J-247500D01*
G01*
X181734000Y-98468500D01*
G75*
G02*
X181486500Y-98716000I-247500J0D01*
G01*
X180991500Y-98716000D01*
G75*
G02*
X180744000Y-98468500I0J247500D01*
G01*
G37*
G36*
G01*
X179774000Y-98468500D02*
X179774000Y-97923500D01*
G75*
G02*
X180021500Y-97676000I247500J0D01*
G01*
X180516500Y-97676000D01*
G75*
G02*
X180764000Y-97923500I0J-247500D01*
G01*
X180764000Y-98468500D01*
G75*
G02*
X180516500Y-98716000I-247500J0D01*
G01*
X180021500Y-98716000D01*
G75*
G02*
X179774000Y-98468500I0J247500D01*
G01*
G37*
G36*
G01*
X146433000Y-105177500D02*
X146433000Y-105722500D01*
G75*
G02*
X146185500Y-105970000I-247500J0D01*
G01*
X145690500Y-105970000D01*
G75*
G02*
X145443000Y-105722500I0J247500D01*
G01*
X145443000Y-105177500D01*
G75*
G02*
X145690500Y-104930000I247500J0D01*
G01*
X146185500Y-104930000D01*
G75*
G02*
X146433000Y-105177500I0J-247500D01*
G01*
G37*
G36*
G01*
X147403000Y-105177500D02*
X147403000Y-105722500D01*
G75*
G02*
X147155500Y-105970000I-247500J0D01*
G01*
X146660500Y-105970000D01*
G75*
G02*
X146413000Y-105722500I0J247500D01*
G01*
X146413000Y-105177500D01*
G75*
G02*
X146660500Y-104930000I247500J0D01*
G01*
X147155500Y-104930000D01*
G75*
G02*
X147403000Y-105177500I0J-247500D01*
G01*
G37*
G36*
G01*
X162049000Y-118799000D02*
X161599000Y-118799000D01*
G75*
G02*
X161399000Y-118599000I0J200000D01*
G01*
X161399000Y-116849000D01*
G75*
G02*
X161599000Y-116649000I200000J0D01*
G01*
X162049000Y-116649000D01*
G75*
G02*
X162249000Y-116849000I0J-200000D01*
G01*
X162249000Y-118599000D01*
G75*
G02*
X162049000Y-118799000I-200000J0D01*
G01*
G37*
G36*
G01*
X162699000Y-118799000D02*
X162249000Y-118799000D01*
G75*
G02*
X162049000Y-118599000I0J200000D01*
G01*
X162049000Y-116849000D01*
G75*
G02*
X162249000Y-116649000I200000J0D01*
G01*
X162699000Y-116649000D01*
G75*
G02*
X162899000Y-116849000I0J-200000D01*
G01*
X162899000Y-118599000D01*
G75*
G02*
X162699000Y-118799000I-200000J0D01*
G01*
G37*
G36*
G01*
X163349000Y-118799000D02*
X162899000Y-118799000D01*
G75*
G02*
X162699000Y-118599000I0J200000D01*
G01*
X162699000Y-116849000D01*
G75*
G02*
X162899000Y-116649000I200000J0D01*
G01*
X163349000Y-116649000D01*
G75*
G02*
X163549000Y-116849000I0J-200000D01*
G01*
X163549000Y-118599000D01*
G75*
G02*
X163349000Y-118799000I-200000J0D01*
G01*
G37*
G36*
G01*
X163999000Y-118799000D02*
X163549000Y-118799000D01*
G75*
G02*
X163349000Y-118599000I0J200000D01*
G01*
X163349000Y-116849000D01*
G75*
G02*
X163549000Y-116649000I200000J0D01*
G01*
X163999000Y-116649000D01*
G75*
G02*
X164199000Y-116849000I0J-200000D01*
G01*
X164199000Y-118599000D01*
G75*
G02*
X163999000Y-118799000I-200000J0D01*
G01*
G37*
G36*
G01*
X164649000Y-118799000D02*
X164199000Y-118799000D01*
G75*
G02*
X163999000Y-118599000I0J200000D01*
G01*
X163999000Y-116849000D01*
G75*
G02*
X164199000Y-116649000I200000J0D01*
G01*
X164649000Y-116649000D01*
G75*
G02*
X164849000Y-116849000I0J-200000D01*
G01*
X164849000Y-118599000D01*
G75*
G02*
X164649000Y-118799000I-200000J0D01*
G01*
G37*
G36*
G01*
X165299000Y-118799000D02*
X164849000Y-118799000D01*
G75*
G02*
X164649000Y-118599000I0J200000D01*
G01*
X164649000Y-116849000D01*
G75*
G02*
X164849000Y-116649000I200000J0D01*
G01*
X165299000Y-116649000D01*
G75*
G02*
X165499000Y-116849000I0J-200000D01*
G01*
X165499000Y-118599000D01*
G75*
G02*
X165299000Y-118799000I-200000J0D01*
G01*
G37*
G36*
G01*
X165949000Y-118799000D02*
X165499000Y-118799000D01*
G75*
G02*
X165299000Y-118599000I0J200000D01*
G01*
X165299000Y-116849000D01*
G75*
G02*
X165499000Y-116649000I200000J0D01*
G01*
X165949000Y-116649000D01*
G75*
G02*
X166149000Y-116849000I0J-200000D01*
G01*
X166149000Y-118599000D01*
G75*
G02*
X165949000Y-118799000I-200000J0D01*
G01*
G37*
G36*
G01*
X166599000Y-118799000D02*
X166149000Y-118799000D01*
G75*
G02*
X165949000Y-118599000I0J200000D01*
G01*
X165949000Y-116849000D01*
G75*
G02*
X166149000Y-116649000I200000J0D01*
G01*
X166599000Y-116649000D01*
G75*
G02*
X166799000Y-116849000I0J-200000D01*
G01*
X166799000Y-118599000D01*
G75*
G02*
X166599000Y-118799000I-200000J0D01*
G01*
G37*
G36*
G01*
X167249000Y-118799000D02*
X166799000Y-118799000D01*
G75*
G02*
X166599000Y-118599000I0J200000D01*
G01*
X166599000Y-116849000D01*
G75*
G02*
X166799000Y-116649000I200000J0D01*
G01*
X167249000Y-116649000D01*
G75*
G02*
X167449000Y-116849000I0J-200000D01*
G01*
X167449000Y-118599000D01*
G75*
G02*
X167249000Y-118799000I-200000J0D01*
G01*
G37*
G36*
G01*
X167899000Y-118799000D02*
X167449000Y-118799000D01*
G75*
G02*
X167249000Y-118599000I0J200000D01*
G01*
X167249000Y-116849000D01*
G75*
G02*
X167449000Y-116649000I200000J0D01*
G01*
X167899000Y-116649000D01*
G75*
G02*
X168099000Y-116849000I0J-200000D01*
G01*
X168099000Y-118599000D01*
G75*
G02*
X167899000Y-118799000I-200000J0D01*
G01*
G37*
G36*
G01*
X167899000Y-111599000D02*
X167449000Y-111599000D01*
G75*
G02*
X167249000Y-111399000I0J200000D01*
G01*
X167249000Y-109649000D01*
G75*
G02*
X167449000Y-109449000I200000J0D01*
G01*
X167899000Y-109449000D01*
G75*
G02*
X168099000Y-109649000I0J-200000D01*
G01*
X168099000Y-111399000D01*
G75*
G02*
X167899000Y-111599000I-200000J0D01*
G01*
G37*
G36*
G01*
X167249000Y-111599000D02*
X166799000Y-111599000D01*
G75*
G02*
X166599000Y-111399000I0J200000D01*
G01*
X166599000Y-109649000D01*
G75*
G02*
X166799000Y-109449000I200000J0D01*
G01*
X167249000Y-109449000D01*
G75*
G02*
X167449000Y-109649000I0J-200000D01*
G01*
X167449000Y-111399000D01*
G75*
G02*
X167249000Y-111599000I-200000J0D01*
G01*
G37*
G36*
G01*
X166599000Y-111599000D02*
X166149000Y-111599000D01*
G75*
G02*
X165949000Y-111399000I0J200000D01*
G01*
X165949000Y-109649000D01*
G75*
G02*
X166149000Y-109449000I200000J0D01*
G01*
X166599000Y-109449000D01*
G75*
G02*
X166799000Y-109649000I0J-200000D01*
G01*
X166799000Y-111399000D01*
G75*
G02*
X166599000Y-111599000I-200000J0D01*
G01*
G37*
G36*
G01*
X165949000Y-111599000D02*
X165499000Y-111599000D01*
G75*
G02*
X165299000Y-111399000I0J200000D01*
G01*
X165299000Y-109649000D01*
G75*
G02*
X165499000Y-109449000I200000J0D01*
G01*
X165949000Y-109449000D01*
G75*
G02*
X166149000Y-109649000I0J-200000D01*
G01*
X166149000Y-111399000D01*
G75*
G02*
X165949000Y-111599000I-200000J0D01*
G01*
G37*
G36*
G01*
X165299000Y-111599000D02*
X164849000Y-111599000D01*
G75*
G02*
X164649000Y-111399000I0J200000D01*
G01*
X164649000Y-109649000D01*
G75*
G02*
X164849000Y-109449000I200000J0D01*
G01*
X165299000Y-109449000D01*
G75*
G02*
X165499000Y-109649000I0J-200000D01*
G01*
X165499000Y-111399000D01*
G75*
G02*
X165299000Y-111599000I-200000J0D01*
G01*
G37*
G36*
G01*
X164649000Y-111599000D02*
X164199000Y-111599000D01*
G75*
G02*
X163999000Y-111399000I0J200000D01*
G01*
X163999000Y-109649000D01*
G75*
G02*
X164199000Y-109449000I200000J0D01*
G01*
X164649000Y-109449000D01*
G75*
G02*
X164849000Y-109649000I0J-200000D01*
G01*
X164849000Y-111399000D01*
G75*
G02*
X164649000Y-111599000I-200000J0D01*
G01*
G37*
G36*
G01*
X163999000Y-111599000D02*
X163549000Y-111599000D01*
G75*
G02*
X163349000Y-111399000I0J200000D01*
G01*
X163349000Y-109649000D01*
G75*
G02*
X163549000Y-109449000I200000J0D01*
G01*
X163999000Y-109449000D01*
G75*
G02*
X164199000Y-109649000I0J-200000D01*
G01*
X164199000Y-111399000D01*
G75*
G02*
X163999000Y-111599000I-200000J0D01*
G01*
G37*
G36*
G01*
X163349000Y-111599000D02*
X162899000Y-111599000D01*
G75*
G02*
X162699000Y-111399000I0J200000D01*
G01*
X162699000Y-109649000D01*
G75*
G02*
X162899000Y-109449000I200000J0D01*
G01*
X163349000Y-109449000D01*
G75*
G02*
X163549000Y-109649000I0J-200000D01*
G01*
X163549000Y-111399000D01*
G75*
G02*
X163349000Y-111599000I-200000J0D01*
G01*
G37*
G36*
G01*
X162699000Y-111599000D02*
X162249000Y-111599000D01*
G75*
G02*
X162049000Y-111399000I0J200000D01*
G01*
X162049000Y-109649000D01*
G75*
G02*
X162249000Y-109449000I200000J0D01*
G01*
X162699000Y-109449000D01*
G75*
G02*
X162899000Y-109649000I0J-200000D01*
G01*
X162899000Y-111399000D01*
G75*
G02*
X162699000Y-111599000I-200000J0D01*
G01*
G37*
G36*
G01*
X162049000Y-111599000D02*
X161599000Y-111599000D01*
G75*
G02*
X161399000Y-111399000I0J200000D01*
G01*
X161399000Y-109649000D01*
G75*
G02*
X161599000Y-109449000I200000J0D01*
G01*
X162049000Y-109449000D01*
G75*
G02*
X162249000Y-109649000I0J-200000D01*
G01*
X162249000Y-111399000D01*
G75*
G02*
X162049000Y-111599000I-200000J0D01*
G01*
G37*
G36*
G01*
X166086000Y-85106700D02*
X166086000Y-83731700D01*
G75*
G02*
X166336000Y-83481700I250000J0D01*
G01*
X166836000Y-83481700D01*
G75*
G02*
X167086000Y-83731700I0J-250000D01*
G01*
X167086000Y-85106700D01*
G75*
G02*
X166836000Y-85356700I-250000J0D01*
G01*
X166336000Y-85356700D01*
G75*
G02*
X166086000Y-85106700I0J250000D01*
G01*
G37*
G36*
G01*
X167356000Y-85106700D02*
X167356000Y-83731700D01*
G75*
G02*
X167606000Y-83481700I250000J0D01*
G01*
X168106000Y-83481700D01*
G75*
G02*
X168356000Y-83731700I0J-250000D01*
G01*
X168356000Y-85106700D01*
G75*
G02*
X168106000Y-85356700I-250000J0D01*
G01*
X167606000Y-85356700D01*
G75*
G02*
X167356000Y-85106700I0J250000D01*
G01*
G37*
G36*
G01*
X168626000Y-85106700D02*
X168626000Y-83731700D01*
G75*
G02*
X168876000Y-83481700I250000J0D01*
G01*
X169376000Y-83481700D01*
G75*
G02*
X169626000Y-83731700I0J-250000D01*
G01*
X169626000Y-85106700D01*
G75*
G02*
X169376000Y-85356700I-250000J0D01*
G01*
X168876000Y-85356700D01*
G75*
G02*
X168626000Y-85106700I0J250000D01*
G01*
G37*
G36*
G01*
X169941000Y-86426700D02*
X169941000Y-85926700D01*
G75*
G02*
X170191000Y-85676700I250000J0D01*
G01*
X171566000Y-85676700D01*
G75*
G02*
X171816000Y-85926700I0J-250000D01*
G01*
X171816000Y-86426700D01*
G75*
G02*
X171566000Y-86676700I-250000J0D01*
G01*
X170191000Y-86676700D01*
G75*
G02*
X169941000Y-86426700I0J250000D01*
G01*
G37*
G36*
G01*
X169941000Y-87696700D02*
X169941000Y-87196700D01*
G75*
G02*
X170191000Y-86946700I250000J0D01*
G01*
X171566000Y-86946700D01*
G75*
G02*
X171816000Y-87196700I0J-250000D01*
G01*
X171816000Y-87696700D01*
G75*
G02*
X171566000Y-87946700I-250000J0D01*
G01*
X170191000Y-87946700D01*
G75*
G02*
X169941000Y-87696700I0J250000D01*
G01*
G37*
G36*
G01*
X169941000Y-88966700D02*
X169941000Y-88466700D01*
G75*
G02*
X170191000Y-88216700I250000J0D01*
G01*
X171566000Y-88216700D01*
G75*
G02*
X171816000Y-88466700I0J-250000D01*
G01*
X171816000Y-88966700D01*
G75*
G02*
X171566000Y-89216700I-250000J0D01*
G01*
X170191000Y-89216700D01*
G75*
G02*
X169941000Y-88966700I0J250000D01*
G01*
G37*
G36*
G01*
X169941000Y-90236700D02*
X169941000Y-89736700D01*
G75*
G02*
X170191000Y-89486700I250000J0D01*
G01*
X171566000Y-89486700D01*
G75*
G02*
X171816000Y-89736700I0J-250000D01*
G01*
X171816000Y-90236700D01*
G75*
G02*
X171566000Y-90486700I-250000J0D01*
G01*
X170191000Y-90486700D01*
G75*
G02*
X169941000Y-90236700I0J250000D01*
G01*
G37*
G36*
G01*
X169941000Y-91506700D02*
X169941000Y-91006700D01*
G75*
G02*
X170191000Y-90756700I250000J0D01*
G01*
X171566000Y-90756700D01*
G75*
G02*
X171816000Y-91006700I0J-250000D01*
G01*
X171816000Y-91506700D01*
G75*
G02*
X171566000Y-91756700I-250000J0D01*
G01*
X170191000Y-91756700D01*
G75*
G02*
X169941000Y-91506700I0J250000D01*
G01*
G37*
G36*
G01*
X169941000Y-92776700D02*
X169941000Y-92276700D01*
G75*
G02*
X170191000Y-92026700I250000J0D01*
G01*
X171566000Y-92026700D01*
G75*
G02*
X171816000Y-92276700I0J-250000D01*
G01*
X171816000Y-92776700D01*
G75*
G02*
X171566000Y-93026700I-250000J0D01*
G01*
X170191000Y-93026700D01*
G75*
G02*
X169941000Y-92776700I0J250000D01*
G01*
G37*
G36*
G01*
X169941000Y-94046700D02*
X169941000Y-93546700D01*
G75*
G02*
X170191000Y-93296700I250000J0D01*
G01*
X171566000Y-93296700D01*
G75*
G02*
X171816000Y-93546700I0J-250000D01*
G01*
X171816000Y-94046700D01*
G75*
G02*
X171566000Y-94296700I-250000J0D01*
G01*
X170191000Y-94296700D01*
G75*
G02*
X169941000Y-94046700I0J250000D01*
G01*
G37*
G36*
G01*
X169941000Y-95316700D02*
X169941000Y-94816700D01*
G75*
G02*
X170191000Y-94566700I250000J0D01*
G01*
X171566000Y-94566700D01*
G75*
G02*
X171816000Y-94816700I0J-250000D01*
G01*
X171816000Y-95316700D01*
G75*
G02*
X171566000Y-95566700I-250000J0D01*
G01*
X170191000Y-95566700D01*
G75*
G02*
X169941000Y-95316700I0J250000D01*
G01*
G37*
G36*
G01*
X169941000Y-96586700D02*
X169941000Y-96086700D01*
G75*
G02*
X170191000Y-95836700I250000J0D01*
G01*
X171566000Y-95836700D01*
G75*
G02*
X171816000Y-96086700I0J-250000D01*
G01*
X171816000Y-96586700D01*
G75*
G02*
X171566000Y-96836700I-250000J0D01*
G01*
X170191000Y-96836700D01*
G75*
G02*
X169941000Y-96586700I0J250000D01*
G01*
G37*
G36*
G01*
X168626000Y-98781700D02*
X168626000Y-97406700D01*
G75*
G02*
X168876000Y-97156700I250000J0D01*
G01*
X169376000Y-97156700D01*
G75*
G02*
X169626000Y-97406700I0J-250000D01*
G01*
X169626000Y-98781700D01*
G75*
G02*
X169376000Y-99031700I-250000J0D01*
G01*
X168876000Y-99031700D01*
G75*
G02*
X168626000Y-98781700I0J250000D01*
G01*
G37*
G36*
G01*
X167356000Y-98781700D02*
X167356000Y-97406700D01*
G75*
G02*
X167606000Y-97156700I250000J0D01*
G01*
X168106000Y-97156700D01*
G75*
G02*
X168356000Y-97406700I0J-250000D01*
G01*
X168356000Y-98781700D01*
G75*
G02*
X168106000Y-99031700I-250000J0D01*
G01*
X167606000Y-99031700D01*
G75*
G02*
X167356000Y-98781700I0J250000D01*
G01*
G37*
G36*
G01*
X166086000Y-98781700D02*
X166086000Y-97406700D01*
G75*
G02*
X166336000Y-97156700I250000J0D01*
G01*
X166836000Y-97156700D01*
G75*
G02*
X167086000Y-97406700I0J-250000D01*
G01*
X167086000Y-98781700D01*
G75*
G02*
X166836000Y-99031700I-250000J0D01*
G01*
X166336000Y-99031700D01*
G75*
G02*
X166086000Y-98781700I0J250000D01*
G01*
G37*
G36*
G01*
X164816000Y-98781700D02*
X164816000Y-97406700D01*
G75*
G02*
X165066000Y-97156700I250000J0D01*
G01*
X165566000Y-97156700D01*
G75*
G02*
X165816000Y-97406700I0J-250000D01*
G01*
X165816000Y-98781700D01*
G75*
G02*
X165566000Y-99031700I-250000J0D01*
G01*
X165066000Y-99031700D01*
G75*
G02*
X164816000Y-98781700I0J250000D01*
G01*
G37*
G36*
G01*
X163546000Y-98781700D02*
X163546000Y-97406700D01*
G75*
G02*
X163796000Y-97156700I250000J0D01*
G01*
X164296000Y-97156700D01*
G75*
G02*
X164546000Y-97406700I0J-250000D01*
G01*
X164546000Y-98781700D01*
G75*
G02*
X164296000Y-99031700I-250000J0D01*
G01*
X163796000Y-99031700D01*
G75*
G02*
X163546000Y-98781700I0J250000D01*
G01*
G37*
G36*
G01*
X162276000Y-98781700D02*
X162276000Y-97406700D01*
G75*
G02*
X162526000Y-97156700I250000J0D01*
G01*
X163026000Y-97156700D01*
G75*
G02*
X163276000Y-97406700I0J-250000D01*
G01*
X163276000Y-98781700D01*
G75*
G02*
X163026000Y-99031700I-250000J0D01*
G01*
X162526000Y-99031700D01*
G75*
G02*
X162276000Y-98781700I0J250000D01*
G01*
G37*
G36*
G01*
X161006000Y-98781700D02*
X161006000Y-97406700D01*
G75*
G02*
X161256000Y-97156700I250000J0D01*
G01*
X161756000Y-97156700D01*
G75*
G02*
X162006000Y-97406700I0J-250000D01*
G01*
X162006000Y-98781700D01*
G75*
G02*
X161756000Y-99031700I-250000J0D01*
G01*
X161256000Y-99031700D01*
G75*
G02*
X161006000Y-98781700I0J250000D01*
G01*
G37*
G36*
G01*
X158816000Y-96586700D02*
X158816000Y-96086700D01*
G75*
G02*
X159066000Y-95836700I250000J0D01*
G01*
X160441000Y-95836700D01*
G75*
G02*
X160691000Y-96086700I0J-250000D01*
G01*
X160691000Y-96586700D01*
G75*
G02*
X160441000Y-96836700I-250000J0D01*
G01*
X159066000Y-96836700D01*
G75*
G02*
X158816000Y-96586700I0J250000D01*
G01*
G37*
G36*
G01*
X158816000Y-95316700D02*
X158816000Y-94816700D01*
G75*
G02*
X159066000Y-94566700I250000J0D01*
G01*
X160441000Y-94566700D01*
G75*
G02*
X160691000Y-94816700I0J-250000D01*
G01*
X160691000Y-95316700D01*
G75*
G02*
X160441000Y-95566700I-250000J0D01*
G01*
X159066000Y-95566700D01*
G75*
G02*
X158816000Y-95316700I0J250000D01*
G01*
G37*
G36*
G01*
X158816000Y-94046700D02*
X158816000Y-93546700D01*
G75*
G02*
X159066000Y-93296700I250000J0D01*
G01*
X160441000Y-93296700D01*
G75*
G02*
X160691000Y-93546700I0J-250000D01*
G01*
X160691000Y-94046700D01*
G75*
G02*
X160441000Y-94296700I-250000J0D01*
G01*
X159066000Y-94296700D01*
G75*
G02*
X158816000Y-94046700I0J250000D01*
G01*
G37*
G36*
G01*
X158816000Y-92776700D02*
X158816000Y-92276700D01*
G75*
G02*
X159066000Y-92026700I250000J0D01*
G01*
X160441000Y-92026700D01*
G75*
G02*
X160691000Y-92276700I0J-250000D01*
G01*
X160691000Y-92776700D01*
G75*
G02*
X160441000Y-93026700I-250000J0D01*
G01*
X159066000Y-93026700D01*
G75*
G02*
X158816000Y-92776700I0J250000D01*
G01*
G37*
G36*
G01*
X158816000Y-91506700D02*
X158816000Y-91006700D01*
G75*
G02*
X159066000Y-90756700I250000J0D01*
G01*
X160441000Y-90756700D01*
G75*
G02*
X160691000Y-91006700I0J-250000D01*
G01*
X160691000Y-91506700D01*
G75*
G02*
X160441000Y-91756700I-250000J0D01*
G01*
X159066000Y-91756700D01*
G75*
G02*
X158816000Y-91506700I0J250000D01*
G01*
G37*
G36*
G01*
X158816000Y-90236700D02*
X158816000Y-89736700D01*
G75*
G02*
X159066000Y-89486700I250000J0D01*
G01*
X160441000Y-89486700D01*
G75*
G02*
X160691000Y-89736700I0J-250000D01*
G01*
X160691000Y-90236700D01*
G75*
G02*
X160441000Y-90486700I-250000J0D01*
G01*
X159066000Y-90486700D01*
G75*
G02*
X158816000Y-90236700I0J250000D01*
G01*
G37*
G36*
G01*
X158816000Y-88966700D02*
X158816000Y-88466700D01*
G75*
G02*
X159066000Y-88216700I250000J0D01*
G01*
X160441000Y-88216700D01*
G75*
G02*
X160691000Y-88466700I0J-250000D01*
G01*
X160691000Y-88966700D01*
G75*
G02*
X160441000Y-89216700I-250000J0D01*
G01*
X159066000Y-89216700D01*
G75*
G02*
X158816000Y-88966700I0J250000D01*
G01*
G37*
G36*
G01*
X158816000Y-87696700D02*
X158816000Y-87196700D01*
G75*
G02*
X159066000Y-86946700I250000J0D01*
G01*
X160441000Y-86946700D01*
G75*
G02*
X160691000Y-87196700I0J-250000D01*
G01*
X160691000Y-87696700D01*
G75*
G02*
X160441000Y-87946700I-250000J0D01*
G01*
X159066000Y-87946700D01*
G75*
G02*
X158816000Y-87696700I0J250000D01*
G01*
G37*
G36*
G01*
X158816000Y-86426700D02*
X158816000Y-85926700D01*
G75*
G02*
X159066000Y-85676700I250000J0D01*
G01*
X160441000Y-85676700D01*
G75*
G02*
X160691000Y-85926700I0J-250000D01*
G01*
X160691000Y-86426700D01*
G75*
G02*
X160441000Y-86676700I-250000J0D01*
G01*
X159066000Y-86676700D01*
G75*
G02*
X158816000Y-86426700I0J250000D01*
G01*
G37*
G36*
G01*
X161006000Y-85106700D02*
X161006000Y-83731700D01*
G75*
G02*
X161256000Y-83481700I250000J0D01*
G01*
X161756000Y-83481700D01*
G75*
G02*
X162006000Y-83731700I0J-250000D01*
G01*
X162006000Y-85106700D01*
G75*
G02*
X161756000Y-85356700I-250000J0D01*
G01*
X161256000Y-85356700D01*
G75*
G02*
X161006000Y-85106700I0J250000D01*
G01*
G37*
G36*
G01*
X162276000Y-85106700D02*
X162276000Y-83731700D01*
G75*
G02*
X162526000Y-83481700I250000J0D01*
G01*
X163026000Y-83481700D01*
G75*
G02*
X163276000Y-83731700I0J-250000D01*
G01*
X163276000Y-85106700D01*
G75*
G02*
X163026000Y-85356700I-250000J0D01*
G01*
X162526000Y-85356700D01*
G75*
G02*
X162276000Y-85106700I0J250000D01*
G01*
G37*
G36*
G01*
X163546000Y-85106700D02*
X163546000Y-83731700D01*
G75*
G02*
X163796000Y-83481700I250000J0D01*
G01*
X164296000Y-83481700D01*
G75*
G02*
X164546000Y-83731700I0J-250000D01*
G01*
X164546000Y-85106700D01*
G75*
G02*
X164296000Y-85356700I-250000J0D01*
G01*
X163796000Y-85356700D01*
G75*
G02*
X163546000Y-85106700I0J250000D01*
G01*
G37*
G36*
G01*
X164816000Y-85106700D02*
X164816000Y-83731700D01*
G75*
G02*
X165066000Y-83481700I250000J0D01*
G01*
X165566000Y-83481700D01*
G75*
G02*
X165816000Y-83731700I0J-250000D01*
G01*
X165816000Y-85106700D01*
G75*
G02*
X165566000Y-85356700I-250000J0D01*
G01*
X165066000Y-85356700D01*
G75*
G02*
X164816000Y-85106700I0J250000D01*
G01*
G37*
G36*
G01*
X169698000Y-118612000D02*
X169698000Y-116912000D01*
G75*
G02*
X169898000Y-116712000I200000J0D01*
G01*
X171198000Y-116712000D01*
G75*
G02*
X171398000Y-116912000I0J-200000D01*
G01*
X171398000Y-118612000D01*
G75*
G02*
X171198000Y-118812000I-200000J0D01*
G01*
X169898000Y-118812000D01*
G75*
G02*
X169698000Y-118612000I0J200000D01*
G01*
G37*
G36*
G01*
X173198000Y-118612000D02*
X173198000Y-116912000D01*
G75*
G02*
X173398000Y-116712000I200000J0D01*
G01*
X174698000Y-116712000D01*
G75*
G02*
X174898000Y-116912000I0J-200000D01*
G01*
X174898000Y-118612000D01*
G75*
G02*
X174698000Y-118812000I-200000J0D01*
G01*
X173398000Y-118812000D01*
G75*
G02*
X173198000Y-118612000I0J200000D01*
G01*
G37*
G36*
G01*
X146387000Y-85444700D02*
X146387000Y-84744700D01*
G75*
G02*
X146587000Y-84544700I200000J0D01*
G01*
X148512000Y-84544700D01*
G75*
G02*
X148712000Y-84744700I0J-200000D01*
G01*
X148712000Y-85444700D01*
G75*
G02*
X148512000Y-85644700I-200000J0D01*
G01*
X146587000Y-85644700D01*
G75*
G02*
X146387000Y-85444700I0J200000D01*
G01*
G37*
G36*
G01*
X146387000Y-86714700D02*
X146387000Y-86014700D01*
G75*
G02*
X146587000Y-85814700I200000J0D01*
G01*
X148512000Y-85814700D01*
G75*
G02*
X148712000Y-86014700I0J-200000D01*
G01*
X148712000Y-86714700D01*
G75*
G02*
X148512000Y-86914700I-200000J0D01*
G01*
X146587000Y-86914700D01*
G75*
G02*
X146387000Y-86714700I0J200000D01*
G01*
G37*
G36*
G01*
X146387000Y-87984700D02*
X146387000Y-87284700D01*
G75*
G02*
X146587000Y-87084700I200000J0D01*
G01*
X148512000Y-87084700D01*
G75*
G02*
X148712000Y-87284700I0J-200000D01*
G01*
X148712000Y-87984700D01*
G75*
G02*
X148512000Y-88184700I-200000J0D01*
G01*
X146587000Y-88184700D01*
G75*
G02*
X146387000Y-87984700I0J200000D01*
G01*
G37*
G36*
G01*
X146387000Y-89254700D02*
X146387000Y-88554700D01*
G75*
G02*
X146587000Y-88354700I200000J0D01*
G01*
X148512000Y-88354700D01*
G75*
G02*
X148712000Y-88554700I0J-200000D01*
G01*
X148712000Y-89254700D01*
G75*
G02*
X148512000Y-89454700I-200000J0D01*
G01*
X146587000Y-89454700D01*
G75*
G02*
X146387000Y-89254700I0J200000D01*
G01*
G37*
G36*
G01*
X146387000Y-90524700D02*
X146387000Y-89824700D01*
G75*
G02*
X146587000Y-89624700I200000J0D01*
G01*
X148512000Y-89624700D01*
G75*
G02*
X148712000Y-89824700I0J-200000D01*
G01*
X148712000Y-90524700D01*
G75*
G02*
X148512000Y-90724700I-200000J0D01*
G01*
X146587000Y-90724700D01*
G75*
G02*
X146387000Y-90524700I0J200000D01*
G01*
G37*
G36*
G01*
X146387000Y-91794700D02*
X146387000Y-91094700D01*
G75*
G02*
X146587000Y-90894700I200000J0D01*
G01*
X148512000Y-90894700D01*
G75*
G02*
X148712000Y-91094700I0J-200000D01*
G01*
X148712000Y-91794700D01*
G75*
G02*
X148512000Y-91994700I-200000J0D01*
G01*
X146587000Y-91994700D01*
G75*
G02*
X146387000Y-91794700I0J200000D01*
G01*
G37*
G36*
G01*
X146387000Y-93064700D02*
X146387000Y-92364700D01*
G75*
G02*
X146587000Y-92164700I200000J0D01*
G01*
X148512000Y-92164700D01*
G75*
G02*
X148712000Y-92364700I0J-200000D01*
G01*
X148712000Y-93064700D01*
G75*
G02*
X148512000Y-93264700I-200000J0D01*
G01*
X146587000Y-93264700D01*
G75*
G02*
X146387000Y-93064700I0J200000D01*
G01*
G37*
G36*
G01*
X145487000Y-95189700D02*
X145487000Y-93264700D01*
G75*
G02*
X145687000Y-93064700I200000J0D01*
G01*
X146387000Y-93064700D01*
G75*
G02*
X146587000Y-93264700I0J-200000D01*
G01*
X146587000Y-95189700D01*
G75*
G02*
X146387000Y-95389700I-200000J0D01*
G01*
X145687000Y-95389700D01*
G75*
G02*
X145487000Y-95189700I0J200000D01*
G01*
G37*
G36*
G01*
X144217000Y-95189700D02*
X144217000Y-93264700D01*
G75*
G02*
X144417000Y-93064700I200000J0D01*
G01*
X145117000Y-93064700D01*
G75*
G02*
X145317000Y-93264700I0J-200000D01*
G01*
X145317000Y-95189700D01*
G75*
G02*
X145117000Y-95389700I-200000J0D01*
G01*
X144417000Y-95389700D01*
G75*
G02*
X144217000Y-95189700I0J200000D01*
G01*
G37*
G36*
G01*
X142947000Y-95189700D02*
X142947000Y-93264700D01*
G75*
G02*
X143147000Y-93064700I200000J0D01*
G01*
X143847000Y-93064700D01*
G75*
G02*
X144047000Y-93264700I0J-200000D01*
G01*
X144047000Y-95189700D01*
G75*
G02*
X143847000Y-95389700I-200000J0D01*
G01*
X143147000Y-95389700D01*
G75*
G02*
X142947000Y-95189700I0J200000D01*
G01*
G37*
G36*
G01*
X141677000Y-95189700D02*
X141677000Y-93264700D01*
G75*
G02*
X141877000Y-93064700I200000J0D01*
G01*
X142577000Y-93064700D01*
G75*
G02*
X142777000Y-93264700I0J-200000D01*
G01*
X142777000Y-95189700D01*
G75*
G02*
X142577000Y-95389700I-200000J0D01*
G01*
X141877000Y-95389700D01*
G75*
G02*
X141677000Y-95189700I0J200000D01*
G01*
G37*
G36*
G01*
X140407000Y-95189700D02*
X140407000Y-93264700D01*
G75*
G02*
X140607000Y-93064700I200000J0D01*
G01*
X141307000Y-93064700D01*
G75*
G02*
X141507000Y-93264700I0J-200000D01*
G01*
X141507000Y-95189700D01*
G75*
G02*
X141307000Y-95389700I-200000J0D01*
G01*
X140607000Y-95389700D01*
G75*
G02*
X140407000Y-95189700I0J200000D01*
G01*
G37*
G36*
G01*
X139137000Y-95189700D02*
X139137000Y-93264700D01*
G75*
G02*
X139337000Y-93064700I200000J0D01*
G01*
X140037000Y-93064700D01*
G75*
G02*
X140237000Y-93264700I0J-200000D01*
G01*
X140237000Y-95189700D01*
G75*
G02*
X140037000Y-95389700I-200000J0D01*
G01*
X139337000Y-95389700D01*
G75*
G02*
X139137000Y-95189700I0J200000D01*
G01*
G37*
G36*
G01*
X137867000Y-95189700D02*
X137867000Y-93264700D01*
G75*
G02*
X138067000Y-93064700I200000J0D01*
G01*
X138767000Y-93064700D01*
G75*
G02*
X138967000Y-93264700I0J-200000D01*
G01*
X138967000Y-95189700D01*
G75*
G02*
X138767000Y-95389700I-200000J0D01*
G01*
X138067000Y-95389700D01*
G75*
G02*
X137867000Y-95189700I0J200000D01*
G01*
G37*
G36*
G01*
X135742000Y-93064700D02*
X135742000Y-92364700D01*
G75*
G02*
X135942000Y-92164700I200000J0D01*
G01*
X137867000Y-92164700D01*
G75*
G02*
X138067000Y-92364700I0J-200000D01*
G01*
X138067000Y-93064700D01*
G75*
G02*
X137867000Y-93264700I-200000J0D01*
G01*
X135942000Y-93264700D01*
G75*
G02*
X135742000Y-93064700I0J200000D01*
G01*
G37*
G36*
G01*
X135742000Y-91794700D02*
X135742000Y-91094700D01*
G75*
G02*
X135942000Y-90894700I200000J0D01*
G01*
X137867000Y-90894700D01*
G75*
G02*
X138067000Y-91094700I0J-200000D01*
G01*
X138067000Y-91794700D01*
G75*
G02*
X137867000Y-91994700I-200000J0D01*
G01*
X135942000Y-91994700D01*
G75*
G02*
X135742000Y-91794700I0J200000D01*
G01*
G37*
G36*
G01*
X135742000Y-90524700D02*
X135742000Y-89824700D01*
G75*
G02*
X135942000Y-89624700I200000J0D01*
G01*
X137867000Y-89624700D01*
G75*
G02*
X138067000Y-89824700I0J-200000D01*
G01*
X138067000Y-90524700D01*
G75*
G02*
X137867000Y-90724700I-200000J0D01*
G01*
X135942000Y-90724700D01*
G75*
G02*
X135742000Y-90524700I0J200000D01*
G01*
G37*
G36*
G01*
X135742000Y-89254700D02*
X135742000Y-88554700D01*
G75*
G02*
X135942000Y-88354700I200000J0D01*
G01*
X137867000Y-88354700D01*
G75*
G02*
X138067000Y-88554700I0J-200000D01*
G01*
X138067000Y-89254700D01*
G75*
G02*
X137867000Y-89454700I-200000J0D01*
G01*
X135942000Y-89454700D01*
G75*
G02*
X135742000Y-89254700I0J200000D01*
G01*
G37*
G36*
G01*
X135742000Y-87984700D02*
X135742000Y-87284700D01*
G75*
G02*
X135942000Y-87084700I200000J0D01*
G01*
X137867000Y-87084700D01*
G75*
G02*
X138067000Y-87284700I0J-200000D01*
G01*
X138067000Y-87984700D01*
G75*
G02*
X137867000Y-88184700I-200000J0D01*
G01*
X135942000Y-88184700D01*
G75*
G02*
X135742000Y-87984700I0J200000D01*
G01*
G37*
G36*
G01*
X135742000Y-86714700D02*
X135742000Y-86014700D01*
G75*
G02*
X135942000Y-85814700I200000J0D01*
G01*
X137867000Y-85814700D01*
G75*
G02*
X138067000Y-86014700I0J-200000D01*
G01*
X138067000Y-86714700D01*
G75*
G02*
X137867000Y-86914700I-200000J0D01*
G01*
X135942000Y-86914700D01*
G75*
G02*
X135742000Y-86714700I0J200000D01*
G01*
G37*
G36*
G01*
X135742000Y-85444700D02*
X135742000Y-84744700D01*
G75*
G02*
X135942000Y-84544700I200000J0D01*
G01*
X137867000Y-84544700D01*
G75*
G02*
X138067000Y-84744700I0J-200000D01*
G01*
X138067000Y-85444700D01*
G75*
G02*
X137867000Y-85644700I-200000J0D01*
G01*
X135942000Y-85644700D01*
G75*
G02*
X135742000Y-85444700I0J200000D01*
G01*
G37*
G36*
G01*
X145487000Y-84544700D02*
X145487000Y-82619700D01*
G75*
G02*
X145687000Y-82419700I200000J0D01*
G01*
X146387000Y-82419700D01*
G75*
G02*
X146587000Y-82619700I0J-200000D01*
G01*
X146587000Y-84544700D01*
G75*
G02*
X146387000Y-84744700I-200000J0D01*
G01*
X145687000Y-84744700D01*
G75*
G02*
X145487000Y-84544700I0J200000D01*
G01*
G37*
G36*
G01*
X144217000Y-84544700D02*
X144217000Y-82619700D01*
G75*
G02*
X144417000Y-82419700I200000J0D01*
G01*
X145117000Y-82419700D01*
G75*
G02*
X145317000Y-82619700I0J-200000D01*
G01*
X145317000Y-84544700D01*
G75*
G02*
X145117000Y-84744700I-200000J0D01*
G01*
X144417000Y-84744700D01*
G75*
G02*
X144217000Y-84544700I0J200000D01*
G01*
G37*
G36*
G01*
X142947000Y-84544700D02*
X142947000Y-82619700D01*
G75*
G02*
X143147000Y-82419700I200000J0D01*
G01*
X143847000Y-82419700D01*
G75*
G02*
X144047000Y-82619700I0J-200000D01*
G01*
X144047000Y-84544700D01*
G75*
G02*
X143847000Y-84744700I-200000J0D01*
G01*
X143147000Y-84744700D01*
G75*
G02*
X142947000Y-84544700I0J200000D01*
G01*
G37*
G36*
G01*
X137867000Y-84544700D02*
X137867000Y-82619700D01*
G75*
G02*
X138067000Y-82419700I200000J0D01*
G01*
X138767000Y-82419700D01*
G75*
G02*
X138967000Y-82619700I0J-200000D01*
G01*
X138967000Y-84544700D01*
G75*
G02*
X138767000Y-84744700I-200000J0D01*
G01*
X138067000Y-84744700D01*
G75*
G02*
X137867000Y-84544700I0J200000D01*
G01*
G37*
G36*
G01*
X139137000Y-84544700D02*
X139137000Y-82619700D01*
G75*
G02*
X139337000Y-82419700I200000J0D01*
G01*
X140037000Y-82419700D01*
G75*
G02*
X140237000Y-82619700I0J-200000D01*
G01*
X140237000Y-84544700D01*
G75*
G02*
X140037000Y-84744700I-200000J0D01*
G01*
X139337000Y-84744700D01*
G75*
G02*
X139137000Y-84544700I0J200000D01*
G01*
G37*
G36*
G01*
X140407000Y-84544700D02*
X140407000Y-82619700D01*
G75*
G02*
X140607000Y-82419700I200000J0D01*
G01*
X141307000Y-82419700D01*
G75*
G02*
X141507000Y-82619700I0J-200000D01*
G01*
X141507000Y-84544700D01*
G75*
G02*
X141307000Y-84744700I-200000J0D01*
G01*
X140607000Y-84744700D01*
G75*
G02*
X140407000Y-84544700I0J200000D01*
G01*
G37*
G36*
G01*
X141677000Y-84544700D02*
X141677000Y-82619700D01*
G75*
G02*
X141877000Y-82419700I200000J0D01*
G01*
X142577000Y-82419700D01*
G75*
G02*
X142777000Y-82619700I0J-200000D01*
G01*
X142777000Y-84544700D01*
G75*
G02*
X142577000Y-84744700I-200000J0D01*
G01*
X141877000Y-84744700D01*
G75*
G02*
X141677000Y-84544700I0J200000D01*
G01*
G37*
G36*
G01*
X189967000Y-77851001D02*
X189967000Y-70230999D01*
G75*
G02*
X190166999Y-70031000I199999J0D01*
G01*
X191945001Y-70031000D01*
G75*
G02*
X192145000Y-70230999I0J-199999D01*
G01*
X192145000Y-77851001D01*
G75*
G02*
X191945001Y-78051000I-199999J0D01*
G01*
X190166999Y-78051000D01*
G75*
G02*
X189967000Y-77851001I0J199999D01*
G01*
G37*
G36*
G01*
X187427000Y-77851001D02*
X187427000Y-70230999D01*
G75*
G02*
X187626999Y-70031000I199999J0D01*
G01*
X189405001Y-70031000D01*
G75*
G02*
X189605000Y-70230999I0J-199999D01*
G01*
X189605000Y-77851001D01*
G75*
G02*
X189405001Y-78051000I-199999J0D01*
G01*
X187626999Y-78051000D01*
G75*
G02*
X187427000Y-77851001I0J199999D01*
G01*
G37*
G36*
G01*
X184887000Y-77851001D02*
X184887000Y-70230999D01*
G75*
G02*
X185086999Y-70031000I199999J0D01*
G01*
X186865001Y-70031000D01*
G75*
G02*
X187065000Y-70230999I0J-199999D01*
G01*
X187065000Y-77851001D01*
G75*
G02*
X186865001Y-78051000I-199999J0D01*
G01*
X185086999Y-78051000D01*
G75*
G02*
X184887000Y-77851001I0J199999D01*
G01*
G37*
G36*
G01*
X182347000Y-77851001D02*
X182347000Y-70230999D01*
G75*
G02*
X182546999Y-70031000I199999J0D01*
G01*
X184325001Y-70031000D01*
G75*
G02*
X184525000Y-70230999I0J-199999D01*
G01*
X184525000Y-77851001D01*
G75*
G02*
X184325001Y-78051000I-199999J0D01*
G01*
X182546999Y-78051000D01*
G75*
G02*
X182347000Y-77851001I0J199999D01*
G01*
G37*
G36*
G01*
X179807000Y-77851001D02*
X179807000Y-70230999D01*
G75*
G02*
X180006999Y-70031000I199999J0D01*
G01*
X181785001Y-70031000D01*
G75*
G02*
X181985000Y-70230999I0J-199999D01*
G01*
X181985000Y-77851001D01*
G75*
G02*
X181785001Y-78051000I-199999J0D01*
G01*
X180006999Y-78051000D01*
G75*
G02*
X179807000Y-77851001I0J199999D01*
G01*
G37*
G36*
G01*
X177267000Y-77851001D02*
X177267000Y-70230999D01*
G75*
G02*
X177466999Y-70031000I199999J0D01*
G01*
X179245001Y-70031000D01*
G75*
G02*
X179445000Y-70230999I0J-199999D01*
G01*
X179445000Y-77851001D01*
G75*
G02*
X179245001Y-78051000I-199999J0D01*
G01*
X177466999Y-78051000D01*
G75*
G02*
X177267000Y-77851001I0J199999D01*
G01*
G37*
G36*
G01*
X174727000Y-77851001D02*
X174727000Y-70230999D01*
G75*
G02*
X174926999Y-70031000I199999J0D01*
G01*
X176705001Y-70031000D01*
G75*
G02*
X176905000Y-70230999I0J-199999D01*
G01*
X176905000Y-77851001D01*
G75*
G02*
X176705001Y-78051000I-199999J0D01*
G01*
X174926999Y-78051000D01*
G75*
G02*
X174727000Y-77851001I0J199999D01*
G01*
G37*
G36*
G01*
X172187000Y-77851001D02*
X172187000Y-70230999D01*
G75*
G02*
X172386999Y-70031000I199999J0D01*
G01*
X174165001Y-70031000D01*
G75*
G02*
X174365000Y-70230999I0J-199999D01*
G01*
X174365000Y-77851001D01*
G75*
G02*
X174165001Y-78051000I-199999J0D01*
G01*
X172386999Y-78051000D01*
G75*
G02*
X172187000Y-77851001I0J199999D01*
G01*
G37*
G36*
G01*
X169647000Y-77851001D02*
X169647000Y-70230999D01*
G75*
G02*
X169846999Y-70031000I199999J0D01*
G01*
X171625001Y-70031000D01*
G75*
G02*
X171825000Y-70230999I0J-199999D01*
G01*
X171825000Y-77851001D01*
G75*
G02*
X171625001Y-78051000I-199999J0D01*
G01*
X169846999Y-78051000D01*
G75*
G02*
X169647000Y-77851001I0J199999D01*
G01*
G37*
G36*
G01*
X167107000Y-77851001D02*
X167107000Y-70230999D01*
G75*
G02*
X167306999Y-70031000I199999J0D01*
G01*
X169085001Y-70031000D01*
G75*
G02*
X169285000Y-70230999I0J-199999D01*
G01*
X169285000Y-77851001D01*
G75*
G02*
X169085001Y-78051000I-199999J0D01*
G01*
X167306999Y-78051000D01*
G75*
G02*
X167107000Y-77851001I0J199999D01*
G01*
G37*
G36*
G01*
X164567000Y-77851001D02*
X164567000Y-70230999D01*
G75*
G02*
X164766999Y-70031000I199999J0D01*
G01*
X166545001Y-70031000D01*
G75*
G02*
X166745000Y-70230999I0J-199999D01*
G01*
X166745000Y-77851001D01*
G75*
G02*
X166545001Y-78051000I-199999J0D01*
G01*
X164766999Y-78051000D01*
G75*
G02*
X164567000Y-77851001I0J199999D01*
G01*
G37*
G36*
G01*
X162027000Y-77851001D02*
X162027000Y-70230999D01*
G75*
G02*
X162226999Y-70031000I199999J0D01*
G01*
X164005001Y-70031000D01*
G75*
G02*
X164205000Y-70230999I0J-199999D01*
G01*
X164205000Y-77851001D01*
G75*
G02*
X164005001Y-78051000I-199999J0D01*
G01*
X162226999Y-78051000D01*
G75*
G02*
X162027000Y-77851001I0J199999D01*
G01*
G37*
G36*
G01*
X159487000Y-77851001D02*
X159487000Y-70230999D01*
G75*
G02*
X159686999Y-70031000I199999J0D01*
G01*
X161465001Y-70031000D01*
G75*
G02*
X161665000Y-70230999I0J-199999D01*
G01*
X161665000Y-77851001D01*
G75*
G02*
X161465001Y-78051000I-199999J0D01*
G01*
X159686999Y-78051000D01*
G75*
G02*
X159487000Y-77851001I0J199999D01*
G01*
G37*
G36*
G01*
X156947000Y-77851001D02*
X156947000Y-70230999D01*
G75*
G02*
X157146999Y-70031000I199999J0D01*
G01*
X158925001Y-70031000D01*
G75*
G02*
X159125000Y-70230999I0J-199999D01*
G01*
X159125000Y-77851001D01*
G75*
G02*
X158925001Y-78051000I-199999J0D01*
G01*
X157146999Y-78051000D01*
G75*
G02*
X156947000Y-77851001I0J199999D01*
G01*
G37*
G36*
G01*
X154407000Y-77851001D02*
X154407000Y-70230999D01*
G75*
G02*
X154606999Y-70031000I199999J0D01*
G01*
X156385001Y-70031000D01*
G75*
G02*
X156585000Y-70230999I0J-199999D01*
G01*
X156585000Y-77851001D01*
G75*
G02*
X156385001Y-78051000I-199999J0D01*
G01*
X154606999Y-78051000D01*
G75*
G02*
X154407000Y-77851001I0J199999D01*
G01*
G37*
G36*
G01*
X151867000Y-77851001D02*
X151867000Y-70230999D01*
G75*
G02*
X152066999Y-70031000I199999J0D01*
G01*
X153845001Y-70031000D01*
G75*
G02*
X154045000Y-70230999I0J-199999D01*
G01*
X154045000Y-77851001D01*
G75*
G02*
X153845001Y-78051000I-199999J0D01*
G01*
X152066999Y-78051000D01*
G75*
G02*
X151867000Y-77851001I0J199999D01*
G01*
G37*
G36*
G01*
X149327000Y-77851001D02*
X149327000Y-70230999D01*
G75*
G02*
X149526999Y-70031000I199999J0D01*
G01*
X151305001Y-70031000D01*
G75*
G02*
X151505000Y-70230999I0J-199999D01*
G01*
X151505000Y-77851001D01*
G75*
G02*
X151305001Y-78051000I-199999J0D01*
G01*
X149526999Y-78051000D01*
G75*
G02*
X149327000Y-77851001I0J199999D01*
G01*
G37*
G36*
G01*
X146787000Y-77851001D02*
X146787000Y-70230999D01*
G75*
G02*
X146986999Y-70031000I199999J0D01*
G01*
X148765001Y-70031000D01*
G75*
G02*
X148965000Y-70230999I0J-199999D01*
G01*
X148965000Y-77851001D01*
G75*
G02*
X148765001Y-78051000I-199999J0D01*
G01*
X146986999Y-78051000D01*
G75*
G02*
X146787000Y-77851001I0J199999D01*
G01*
G37*
G36*
G01*
X144247000Y-77851001D02*
X144247000Y-70230999D01*
G75*
G02*
X144446999Y-70031000I199999J0D01*
G01*
X146225001Y-70031000D01*
G75*
G02*
X146425000Y-70230999I0J-199999D01*
G01*
X146425000Y-77851001D01*
G75*
G02*
X146225001Y-78051000I-199999J0D01*
G01*
X144446999Y-78051000D01*
G75*
G02*
X144247000Y-77851001I0J199999D01*
G01*
G37*
G36*
G01*
X141707000Y-77851001D02*
X141707000Y-70230999D01*
G75*
G02*
X141906999Y-70031000I199999J0D01*
G01*
X143685001Y-70031000D01*
G75*
G02*
X143885000Y-70230999I0J-199999D01*
G01*
X143885000Y-77851001D01*
G75*
G02*
X143685001Y-78051000I-199999J0D01*
G01*
X141906999Y-78051000D01*
G75*
G02*
X141707000Y-77851001I0J199999D01*
G01*
G37*
G36*
G01*
X139167000Y-77851001D02*
X139167000Y-70230999D01*
G75*
G02*
X139366999Y-70031000I199999J0D01*
G01*
X141145001Y-70031000D01*
G75*
G02*
X141345000Y-70230999I0J-199999D01*
G01*
X141345000Y-77851001D01*
G75*
G02*
X141145001Y-78051000I-199999J0D01*
G01*
X139366999Y-78051000D01*
G75*
G02*
X139167000Y-77851001I0J199999D01*
G01*
G37*
G36*
G01*
X136627000Y-77851001D02*
X136627000Y-70230999D01*
G75*
G02*
X136826999Y-70031000I199999J0D01*
G01*
X138605001Y-70031000D01*
G75*
G02*
X138805000Y-70230999I0J-199999D01*
G01*
X138805000Y-77851001D01*
G75*
G02*
X138605001Y-78051000I-199999J0D01*
G01*
X136826999Y-78051000D01*
G75*
G02*
X136627000Y-77851001I0J199999D01*
G01*
G37*
G36*
G01*
X134087000Y-77851001D02*
X134087000Y-70230999D01*
G75*
G02*
X134286999Y-70031000I199999J0D01*
G01*
X136065001Y-70031000D01*
G75*
G02*
X136265000Y-70230999I0J-199999D01*
G01*
X136265000Y-77851001D01*
G75*
G02*
X136065001Y-78051000I-199999J0D01*
G01*
X134286999Y-78051000D01*
G75*
G02*
X134087000Y-77851001I0J199999D01*
G01*
G37*
G36*
G01*
X129007000Y-77851001D02*
X129007000Y-70230999D01*
G75*
G02*
X129206999Y-70031000I199999J0D01*
G01*
X130985001Y-70031000D01*
G75*
G02*
X131185000Y-70230999I0J-199999D01*
G01*
X131185000Y-77851001D01*
G75*
G02*
X130985001Y-78051000I-199999J0D01*
G01*
X129206999Y-78051000D01*
G75*
G02*
X129007000Y-77851001I0J199999D01*
G01*
G37*
G36*
G01*
X126467000Y-77851001D02*
X126467000Y-70230999D01*
G75*
G02*
X126666999Y-70031000I199999J0D01*
G01*
X128445001Y-70031000D01*
G75*
G02*
X128645000Y-70230999I0J-199999D01*
G01*
X128645000Y-77851001D01*
G75*
G02*
X128445001Y-78051000I-199999J0D01*
G01*
X126666999Y-78051000D01*
G75*
G02*
X126467000Y-77851001I0J199999D01*
G01*
G37*
G36*
G01*
X123927000Y-77851001D02*
X123927000Y-70230999D01*
G75*
G02*
X124126999Y-70031000I199999J0D01*
G01*
X125905001Y-70031000D01*
G75*
G02*
X126105000Y-70230999I0J-199999D01*
G01*
X126105000Y-77851001D01*
G75*
G02*
X125905001Y-78051000I-199999J0D01*
G01*
X124126999Y-78051000D01*
G75*
G02*
X123927000Y-77851001I0J199999D01*
G01*
G37*
G36*
G01*
X121387000Y-77851001D02*
X121387000Y-70230999D01*
G75*
G02*
X121586999Y-70031000I199999J0D01*
G01*
X123365001Y-70031000D01*
G75*
G02*
X123565000Y-70230999I0J-199999D01*
G01*
X123565000Y-77851001D01*
G75*
G02*
X123365001Y-78051000I-199999J0D01*
G01*
X121586999Y-78051000D01*
G75*
G02*
X121387000Y-77851001I0J199999D01*
G01*
G37*
D14*
X186585560Y-86959000D03*
X191086440Y-80456600D03*
X191086440Y-86959000D03*
X186585560Y-80456600D03*
D15*
X118714000Y-83128740D03*
D16*
X117195080Y-99778440D03*
X117195080Y-97007300D03*
X117195080Y-94238700D03*
X117195080Y-91467560D03*
X120232920Y-90083260D03*
X120232920Y-92851860D03*
X120232920Y-101162740D03*
X120232920Y-98394140D03*
X120232920Y-95623000D03*
D15*
X118714000Y-108117260D03*
D17*
X190932000Y-127892000D03*
X188392000Y-127892000D03*
X185852000Y-127892000D03*
X183312000Y-127892000D03*
X180772000Y-127892000D03*
X178232000Y-127892000D03*
X175692000Y-127892000D03*
X173152000Y-127892000D03*
X170612000Y-127892000D03*
X168072000Y-127892000D03*
X165532000Y-127892000D03*
X162992000Y-127892000D03*
X160452000Y-127892000D03*
X157912000Y-127892000D03*
X155372000Y-127892000D03*
X152832000Y-127892000D03*
X150292000Y-127892000D03*
X147752000Y-127892000D03*
X145212000Y-127892000D03*
X142672000Y-127892000D03*
X140132000Y-127892000D03*
X137592000Y-127892000D03*
X135052000Y-127892000D03*
X129972000Y-127892000D03*
X127432000Y-127892000D03*
X124892000Y-127892000D03*
X122352000Y-127892000D03*
D14*
X128605560Y-87126200D03*
X133106440Y-80623800D03*
X133106440Y-87126200D03*
X128605560Y-80623800D03*
D18*
G36*
X140673914Y-119057491D02*
G01*
X140682697Y-119086445D01*
X140705382Y-119128888D01*
X140735912Y-119166088D01*
X140773112Y-119196618D01*
X140815555Y-119219303D01*
X140861610Y-119233274D01*
X140909696Y-119238010D01*
X140911322Y-119239175D01*
X140911126Y-119241165D01*
X140909500Y-119242000D01*
X140853141Y-119242000D01*
X140852945Y-119241990D01*
X140810830Y-119237842D01*
X140810445Y-119237766D01*
X140775852Y-119227272D01*
X140775490Y-119227122D01*
X140735930Y-119205977D01*
X140735762Y-119205876D01*
X140729989Y-119202018D01*
X140707713Y-119192788D01*
X140684065Y-119188082D01*
X140659959Y-119188080D01*
X140636308Y-119192782D01*
X140614033Y-119202006D01*
X140608250Y-119205869D01*
X140608082Y-119205970D01*
X140568510Y-119227122D01*
X140568148Y-119227272D01*
X140533555Y-119237766D01*
X140533170Y-119237842D01*
X140491055Y-119241990D01*
X140490859Y-119242000D01*
X140434500Y-119242000D01*
X140432768Y-119241000D01*
X140432768Y-119239000D01*
X140434304Y-119238010D01*
X140482390Y-119233274D01*
X140528445Y-119219303D01*
X140570888Y-119196618D01*
X140608088Y-119166088D01*
X140638618Y-119128888D01*
X140661303Y-119086445D01*
X140670086Y-119057491D01*
X140671546Y-119056124D01*
X140673914Y-119057491D01*
G37*
G36*
X140491055Y-118198010D02*
G01*
X140533170Y-118202158D01*
X140533555Y-118202234D01*
X140568148Y-118212728D01*
X140568510Y-118212878D01*
X140608070Y-118234023D01*
X140608238Y-118234124D01*
X140614011Y-118237982D01*
X140636287Y-118247212D01*
X140659935Y-118251918D01*
X140684041Y-118251920D01*
X140707692Y-118247218D01*
X140729967Y-118237994D01*
X140735750Y-118234131D01*
X140735918Y-118234030D01*
X140775490Y-118212878D01*
X140775852Y-118212728D01*
X140810445Y-118202234D01*
X140810830Y-118202158D01*
X140852945Y-118198010D01*
X140853141Y-118198000D01*
X140909500Y-118198000D01*
X140911232Y-118199000D01*
X140911232Y-118201000D01*
X140909696Y-118201990D01*
X140861610Y-118206726D01*
X140815555Y-118220697D01*
X140773112Y-118243382D01*
X140735912Y-118273912D01*
X140705382Y-118311112D01*
X140682697Y-118353555D01*
X140673914Y-118382509D01*
X140672454Y-118383876D01*
X140670086Y-118382509D01*
X140661303Y-118353555D01*
X140638618Y-118311112D01*
X140608088Y-118273912D01*
X140570888Y-118243382D01*
X140528445Y-118220697D01*
X140482390Y-118206726D01*
X140434304Y-118201990D01*
X140432678Y-118200825D01*
X140432874Y-118198835D01*
X140434500Y-118198000D01*
X140490859Y-118198000D01*
X140491055Y-118198010D01*
G37*
G36*
X176310914Y-118119491D02*
G01*
X176319697Y-118148445D01*
X176342382Y-118190888D01*
X176372912Y-118228088D01*
X176410112Y-118258618D01*
X176452555Y-118281303D01*
X176498610Y-118295274D01*
X176546696Y-118300010D01*
X176548322Y-118301175D01*
X176548126Y-118303165D01*
X176546500Y-118304000D01*
X176490141Y-118304000D01*
X176489945Y-118303990D01*
X176447830Y-118299842D01*
X176447445Y-118299766D01*
X176412852Y-118289272D01*
X176412490Y-118289122D01*
X176372930Y-118267977D01*
X176372762Y-118267876D01*
X176366989Y-118264018D01*
X176344713Y-118254788D01*
X176321065Y-118250082D01*
X176296959Y-118250080D01*
X176273308Y-118254782D01*
X176251033Y-118264006D01*
X176245250Y-118267869D01*
X176245082Y-118267970D01*
X176205510Y-118289122D01*
X176205148Y-118289272D01*
X176170555Y-118299766D01*
X176170170Y-118299842D01*
X176128055Y-118303990D01*
X176127859Y-118304000D01*
X176071500Y-118304000D01*
X176069768Y-118303000D01*
X176069768Y-118301000D01*
X176071304Y-118300010D01*
X176119390Y-118295274D01*
X176165445Y-118281303D01*
X176207888Y-118258618D01*
X176245088Y-118228088D01*
X176275618Y-118190888D01*
X176298303Y-118148445D01*
X176307086Y-118119491D01*
X176308546Y-118118124D01*
X176310914Y-118119491D01*
G37*
G36*
X176128055Y-117260010D02*
G01*
X176170170Y-117264158D01*
X176170555Y-117264234D01*
X176205148Y-117274728D01*
X176205510Y-117274878D01*
X176245070Y-117296023D01*
X176245238Y-117296124D01*
X176251011Y-117299982D01*
X176273287Y-117309212D01*
X176296935Y-117313918D01*
X176321041Y-117313920D01*
X176344692Y-117309218D01*
X176366967Y-117299994D01*
X176372750Y-117296131D01*
X176372918Y-117296030D01*
X176412490Y-117274878D01*
X176412852Y-117274728D01*
X176447445Y-117264234D01*
X176447830Y-117264158D01*
X176489945Y-117260010D01*
X176490141Y-117260000D01*
X176546500Y-117260000D01*
X176548232Y-117261000D01*
X176548232Y-117263000D01*
X176546696Y-117263990D01*
X176498610Y-117268726D01*
X176452555Y-117282697D01*
X176410112Y-117305382D01*
X176372912Y-117335912D01*
X176342382Y-117373112D01*
X176319697Y-117415555D01*
X176310914Y-117444509D01*
X176309454Y-117445876D01*
X176307086Y-117444509D01*
X176298303Y-117415555D01*
X176275618Y-117373112D01*
X176245088Y-117335912D01*
X176207888Y-117305382D01*
X176165445Y-117282697D01*
X176119390Y-117268726D01*
X176071304Y-117263990D01*
X176069678Y-117262825D01*
X176069874Y-117260835D01*
X176071500Y-117260000D01*
X176127859Y-117260000D01*
X176128055Y-117260010D01*
G37*
G36*
X149522914Y-117055491D02*
G01*
X149531697Y-117084445D01*
X149554382Y-117126888D01*
X149584912Y-117164088D01*
X149622112Y-117194618D01*
X149664555Y-117217303D01*
X149710610Y-117231274D01*
X149758696Y-117236010D01*
X149760322Y-117237175D01*
X149760126Y-117239165D01*
X149758500Y-117240000D01*
X149702141Y-117240000D01*
X149701945Y-117239990D01*
X149659830Y-117235842D01*
X149659445Y-117235766D01*
X149624852Y-117225272D01*
X149624490Y-117225122D01*
X149584930Y-117203977D01*
X149584762Y-117203876D01*
X149578989Y-117200018D01*
X149556713Y-117190788D01*
X149533065Y-117186082D01*
X149508959Y-117186080D01*
X149485308Y-117190782D01*
X149463033Y-117200006D01*
X149457250Y-117203869D01*
X149457082Y-117203970D01*
X149417510Y-117225122D01*
X149417148Y-117225272D01*
X149382555Y-117235766D01*
X149382170Y-117235842D01*
X149340055Y-117239990D01*
X149339859Y-117240000D01*
X149283500Y-117240000D01*
X149281768Y-117239000D01*
X149281768Y-117237000D01*
X149283304Y-117236010D01*
X149331390Y-117231274D01*
X149377445Y-117217303D01*
X149419888Y-117194618D01*
X149457088Y-117164088D01*
X149487618Y-117126888D01*
X149510303Y-117084445D01*
X149519086Y-117055491D01*
X149520546Y-117054124D01*
X149522914Y-117055491D01*
G37*
G36*
X135096165Y-116894374D02*
G01*
X135096990Y-116895804D01*
X135101582Y-116942427D01*
X135115126Y-116987075D01*
X135137118Y-117028221D01*
X135166715Y-117064285D01*
X135202779Y-117093882D01*
X135243925Y-117115874D01*
X135288573Y-117129418D01*
X135335196Y-117134010D01*
X135336822Y-117135175D01*
X135336626Y-117137165D01*
X135335000Y-117138000D01*
X135278638Y-117138000D01*
X135278442Y-117137990D01*
X135237792Y-117133987D01*
X135237407Y-117133911D01*
X135204225Y-117123845D01*
X135203863Y-117123695D01*
X135173197Y-117107303D01*
X135173029Y-117107202D01*
X135152977Y-117093805D01*
X135130703Y-117084578D01*
X135107053Y-117079874D01*
X135082947Y-117079874D01*
X135059296Y-117084578D01*
X135037023Y-117093805D01*
X135016971Y-117107202D01*
X135016803Y-117107303D01*
X134986137Y-117123695D01*
X134985775Y-117123845D01*
X134952593Y-117133911D01*
X134952208Y-117133987D01*
X134911558Y-117137990D01*
X134911362Y-117138000D01*
X134855000Y-117138000D01*
X134853268Y-117137000D01*
X134853268Y-117135000D01*
X134854804Y-117134010D01*
X134901427Y-117129418D01*
X134946075Y-117115874D01*
X134987221Y-117093882D01*
X135023285Y-117064285D01*
X135052882Y-117028221D01*
X135074874Y-116987075D01*
X135088418Y-116942427D01*
X135093010Y-116895804D01*
X135094175Y-116894178D01*
X135096165Y-116894374D01*
G37*
G36*
X130879165Y-116879374D02*
G01*
X130879990Y-116880804D01*
X130884582Y-116927427D01*
X130898126Y-116972075D01*
X130920118Y-117013221D01*
X130949715Y-117049285D01*
X130985779Y-117078882D01*
X131026925Y-117100874D01*
X131071573Y-117114418D01*
X131118196Y-117119010D01*
X131119822Y-117120175D01*
X131119626Y-117122165D01*
X131118000Y-117123000D01*
X131061638Y-117123000D01*
X131061442Y-117122990D01*
X131020792Y-117118987D01*
X131020407Y-117118911D01*
X130987225Y-117108845D01*
X130986863Y-117108695D01*
X130956197Y-117092303D01*
X130956029Y-117092202D01*
X130935977Y-117078805D01*
X130913703Y-117069578D01*
X130890053Y-117064874D01*
X130865947Y-117064874D01*
X130842296Y-117069578D01*
X130820023Y-117078805D01*
X130799971Y-117092202D01*
X130799803Y-117092303D01*
X130769137Y-117108695D01*
X130768775Y-117108845D01*
X130735593Y-117118911D01*
X130735208Y-117118987D01*
X130694558Y-117122990D01*
X130694362Y-117123000D01*
X130638000Y-117123000D01*
X130636268Y-117122000D01*
X130636268Y-117120000D01*
X130637804Y-117119010D01*
X130684427Y-117114418D01*
X130729075Y-117100874D01*
X130770221Y-117078882D01*
X130806285Y-117049285D01*
X130835882Y-117013221D01*
X130857874Y-116972075D01*
X130871418Y-116927427D01*
X130876010Y-116880804D01*
X130877175Y-116879178D01*
X130879165Y-116879374D01*
G37*
G36*
X149340055Y-116196010D02*
G01*
X149382170Y-116200158D01*
X149382555Y-116200234D01*
X149417148Y-116210728D01*
X149417510Y-116210878D01*
X149457070Y-116232023D01*
X149457238Y-116232124D01*
X149463011Y-116235982D01*
X149485287Y-116245212D01*
X149508935Y-116249918D01*
X149533041Y-116249920D01*
X149556692Y-116245218D01*
X149578967Y-116235994D01*
X149584750Y-116232131D01*
X149584918Y-116232030D01*
X149624490Y-116210878D01*
X149624852Y-116210728D01*
X149659445Y-116200234D01*
X149659830Y-116200158D01*
X149701945Y-116196010D01*
X149702141Y-116196000D01*
X149758500Y-116196000D01*
X149760232Y-116197000D01*
X149760232Y-116199000D01*
X149758696Y-116199990D01*
X149710610Y-116204726D01*
X149664555Y-116218697D01*
X149622112Y-116241382D01*
X149584912Y-116271912D01*
X149554382Y-116309112D01*
X149531697Y-116351555D01*
X149522914Y-116380509D01*
X149521454Y-116381876D01*
X149519086Y-116380509D01*
X149510303Y-116351555D01*
X149487618Y-116309112D01*
X149457088Y-116271912D01*
X149419888Y-116241382D01*
X149377445Y-116218697D01*
X149331390Y-116204726D01*
X149283304Y-116199990D01*
X149281678Y-116198825D01*
X149281874Y-116196835D01*
X149283500Y-116196000D01*
X149339859Y-116196000D01*
X149340055Y-116196010D01*
G37*
G36*
X134911558Y-116114010D02*
G01*
X134952208Y-116118013D01*
X134952593Y-116118089D01*
X134985775Y-116128155D01*
X134986137Y-116128305D01*
X135016803Y-116144697D01*
X135016971Y-116144798D01*
X135037023Y-116158195D01*
X135059297Y-116167422D01*
X135082947Y-116172126D01*
X135107053Y-116172126D01*
X135130704Y-116167422D01*
X135152977Y-116158195D01*
X135173029Y-116144798D01*
X135173197Y-116144697D01*
X135203863Y-116128305D01*
X135204225Y-116128155D01*
X135237407Y-116118089D01*
X135237792Y-116118013D01*
X135278442Y-116114010D01*
X135278638Y-116114000D01*
X135335000Y-116114000D01*
X135336732Y-116115000D01*
X135336732Y-116117000D01*
X135335196Y-116117990D01*
X135288573Y-116122582D01*
X135243925Y-116136126D01*
X135202779Y-116158118D01*
X135166715Y-116187715D01*
X135137118Y-116223779D01*
X135115126Y-116264925D01*
X135101582Y-116309573D01*
X135096990Y-116356196D01*
X135095825Y-116357822D01*
X135093835Y-116357626D01*
X135093010Y-116356196D01*
X135088418Y-116309573D01*
X135074874Y-116264925D01*
X135052882Y-116223779D01*
X135023285Y-116187715D01*
X134987221Y-116158118D01*
X134946075Y-116136126D01*
X134901427Y-116122582D01*
X134854804Y-116117990D01*
X134853178Y-116116825D01*
X134853374Y-116114835D01*
X134855000Y-116114000D01*
X134911362Y-116114000D01*
X134911558Y-116114010D01*
G37*
G36*
X130694558Y-116099010D02*
G01*
X130735208Y-116103013D01*
X130735593Y-116103089D01*
X130768775Y-116113155D01*
X130769137Y-116113305D01*
X130799803Y-116129697D01*
X130799971Y-116129798D01*
X130820023Y-116143195D01*
X130842297Y-116152422D01*
X130865947Y-116157126D01*
X130890053Y-116157126D01*
X130913704Y-116152422D01*
X130935977Y-116143195D01*
X130956029Y-116129798D01*
X130956197Y-116129697D01*
X130986863Y-116113305D01*
X130987225Y-116113155D01*
X131020407Y-116103089D01*
X131020792Y-116103013D01*
X131061442Y-116099010D01*
X131061638Y-116099000D01*
X131118000Y-116099000D01*
X131119732Y-116100000D01*
X131119732Y-116102000D01*
X131118196Y-116102990D01*
X131071573Y-116107582D01*
X131026925Y-116121126D01*
X130985779Y-116143118D01*
X130949715Y-116172715D01*
X130920118Y-116208779D01*
X130898126Y-116249925D01*
X130884582Y-116294573D01*
X130879990Y-116341196D01*
X130878825Y-116342822D01*
X130876835Y-116342626D01*
X130876010Y-116341196D01*
X130871418Y-116294573D01*
X130857874Y-116249925D01*
X130835882Y-116208779D01*
X130806285Y-116172715D01*
X130770221Y-116143118D01*
X130729075Y-116121126D01*
X130684427Y-116107582D01*
X130637804Y-116102990D01*
X130636178Y-116101825D01*
X130636374Y-116099835D01*
X130638000Y-116099000D01*
X130694362Y-116099000D01*
X130694558Y-116099010D01*
G37*
G36*
X171184914Y-114580491D02*
G01*
X171193697Y-114609445D01*
X171216382Y-114651888D01*
X171246912Y-114689088D01*
X171284112Y-114719618D01*
X171326555Y-114742303D01*
X171372610Y-114756274D01*
X171420696Y-114761010D01*
X171422322Y-114762175D01*
X171422126Y-114764165D01*
X171420500Y-114765000D01*
X171364141Y-114765000D01*
X171363945Y-114764990D01*
X171321830Y-114760842D01*
X171321445Y-114760766D01*
X171286852Y-114750272D01*
X171286490Y-114750122D01*
X171246930Y-114728977D01*
X171246762Y-114728876D01*
X171240989Y-114725018D01*
X171218713Y-114715788D01*
X171195065Y-114711082D01*
X171170959Y-114711080D01*
X171147308Y-114715782D01*
X171125033Y-114725006D01*
X171119250Y-114728869D01*
X171119082Y-114728970D01*
X171079510Y-114750122D01*
X171079148Y-114750272D01*
X171044555Y-114760766D01*
X171044170Y-114760842D01*
X171002055Y-114764990D01*
X171001859Y-114765000D01*
X170945500Y-114765000D01*
X170943768Y-114764000D01*
X170943768Y-114762000D01*
X170945304Y-114761010D01*
X170993390Y-114756274D01*
X171039445Y-114742303D01*
X171081888Y-114719618D01*
X171119088Y-114689088D01*
X171149618Y-114651888D01*
X171172303Y-114609445D01*
X171181086Y-114580491D01*
X171182546Y-114579124D01*
X171184914Y-114580491D01*
G37*
G36*
X159191990Y-113916304D02*
G01*
X159196726Y-113964390D01*
X159210697Y-114010445D01*
X159233382Y-114052888D01*
X159263912Y-114090088D01*
X159301112Y-114120618D01*
X159343555Y-114143303D01*
X159372509Y-114152086D01*
X159373876Y-114153546D01*
X159372509Y-114155914D01*
X159343555Y-114164697D01*
X159301112Y-114187382D01*
X159263912Y-114217912D01*
X159233382Y-114255112D01*
X159210697Y-114297555D01*
X159196726Y-114343610D01*
X159191990Y-114391696D01*
X159190825Y-114393322D01*
X159188835Y-114393126D01*
X159188000Y-114391500D01*
X159188000Y-114335141D01*
X159188010Y-114334945D01*
X159192158Y-114292830D01*
X159192234Y-114292445D01*
X159202728Y-114257852D01*
X159202878Y-114257490D01*
X159224023Y-114217930D01*
X159224124Y-114217762D01*
X159227982Y-114211989D01*
X159237212Y-114189713D01*
X159241918Y-114166065D01*
X159241920Y-114141959D01*
X159237218Y-114118308D01*
X159227994Y-114096033D01*
X159224131Y-114090250D01*
X159224030Y-114090082D01*
X159202878Y-114050510D01*
X159202728Y-114050148D01*
X159192234Y-114015555D01*
X159192158Y-114015170D01*
X159188010Y-113973055D01*
X159188000Y-113972859D01*
X159188000Y-113916500D01*
X159189000Y-113914768D01*
X159191000Y-113914768D01*
X159191990Y-113916304D01*
G37*
G36*
X160231165Y-113914874D02*
G01*
X160232000Y-113916500D01*
X160232000Y-113972859D01*
X160231990Y-113973055D01*
X160227842Y-114015170D01*
X160227766Y-114015555D01*
X160217272Y-114050148D01*
X160217122Y-114050510D01*
X160195977Y-114090070D01*
X160195876Y-114090238D01*
X160192018Y-114096011D01*
X160182788Y-114118287D01*
X160178082Y-114141935D01*
X160178080Y-114166041D01*
X160182782Y-114189692D01*
X160192006Y-114211967D01*
X160195869Y-114217750D01*
X160195970Y-114217918D01*
X160217122Y-114257490D01*
X160217272Y-114257852D01*
X160227766Y-114292445D01*
X160227842Y-114292830D01*
X160231990Y-114334945D01*
X160232000Y-114335141D01*
X160232000Y-114391500D01*
X160231000Y-114393232D01*
X160229000Y-114393232D01*
X160228010Y-114391696D01*
X160223274Y-114343610D01*
X160209303Y-114297555D01*
X160186618Y-114255112D01*
X160156088Y-114217912D01*
X160118888Y-114187382D01*
X160076445Y-114164697D01*
X160047491Y-114155914D01*
X160046124Y-114154454D01*
X160047491Y-114152086D01*
X160076445Y-114143303D01*
X160118888Y-114120618D01*
X160156088Y-114090088D01*
X160186618Y-114052888D01*
X160209303Y-114010445D01*
X160223274Y-113964390D01*
X160228010Y-113916304D01*
X160229175Y-113914678D01*
X160231165Y-113914874D01*
G37*
G36*
X171002055Y-113721010D02*
G01*
X171044170Y-113725158D01*
X171044555Y-113725234D01*
X171079148Y-113735728D01*
X171079510Y-113735878D01*
X171119070Y-113757023D01*
X171119238Y-113757124D01*
X171125011Y-113760982D01*
X171147287Y-113770212D01*
X171170935Y-113774918D01*
X171195041Y-113774920D01*
X171218692Y-113770218D01*
X171240967Y-113760994D01*
X171246750Y-113757131D01*
X171246918Y-113757030D01*
X171286490Y-113735878D01*
X171286852Y-113735728D01*
X171321445Y-113725234D01*
X171321830Y-113725158D01*
X171363945Y-113721010D01*
X171364141Y-113721000D01*
X171420500Y-113721000D01*
X171422232Y-113722000D01*
X171422232Y-113724000D01*
X171420696Y-113724990D01*
X171372610Y-113729726D01*
X171326555Y-113743697D01*
X171284112Y-113766382D01*
X171246912Y-113796912D01*
X171216382Y-113834112D01*
X171193697Y-113876555D01*
X171184914Y-113905509D01*
X171183454Y-113906876D01*
X171181086Y-113905509D01*
X171172303Y-113876555D01*
X171149618Y-113834112D01*
X171119088Y-113796912D01*
X171081888Y-113766382D01*
X171039445Y-113743697D01*
X170993390Y-113729726D01*
X170945304Y-113724990D01*
X170943678Y-113723825D01*
X170943874Y-113721835D01*
X170945500Y-113721000D01*
X171001859Y-113721000D01*
X171002055Y-113721010D01*
G37*
G36*
X148321165Y-112384874D02*
G01*
X148322000Y-112386500D01*
X148322000Y-112442862D01*
X148321990Y-112443058D01*
X148319476Y-112468588D01*
X148319400Y-112468973D01*
X148313744Y-112487616D01*
X148313594Y-112487978D01*
X148304407Y-112505165D01*
X148304189Y-112505491D01*
X148291829Y-112520552D01*
X148291552Y-112520829D01*
X148276491Y-112533189D01*
X148276165Y-112533407D01*
X148258978Y-112542594D01*
X148258616Y-112542744D01*
X148239973Y-112548400D01*
X148239588Y-112548476D01*
X148214058Y-112550990D01*
X148213862Y-112551000D01*
X147445093Y-112551000D01*
X147421008Y-112553372D01*
X147397933Y-112560372D01*
X147376669Y-112571737D01*
X147358032Y-112587032D01*
X147342737Y-112605669D01*
X147331372Y-112626933D01*
X147324372Y-112650008D01*
X147321990Y-112674195D01*
X147320825Y-112675821D01*
X147318835Y-112675625D01*
X147318000Y-112673999D01*
X147318000Y-112549000D01*
X147319000Y-112547268D01*
X147320000Y-112547000D01*
X148157406Y-112547000D01*
X148188807Y-112543908D01*
X148218917Y-112534773D01*
X148246664Y-112519943D01*
X148270984Y-112499984D01*
X148290943Y-112475664D01*
X148305773Y-112447917D01*
X148314908Y-112417807D01*
X148318010Y-112386304D01*
X148319175Y-112384678D01*
X148321165Y-112384874D01*
G37*
G36*
X143771083Y-108659773D02*
G01*
X143801193Y-108668908D01*
X143832594Y-108672000D01*
X144157406Y-108672000D01*
X144188807Y-108668908D01*
X144218917Y-108659773D01*
X144244057Y-108646336D01*
X144245943Y-108646336D01*
X144271083Y-108659773D01*
X144301193Y-108668908D01*
X144332594Y-108672000D01*
X144657406Y-108672000D01*
X144688807Y-108668908D01*
X144718917Y-108659773D01*
X144744057Y-108646336D01*
X144745943Y-108646336D01*
X144771083Y-108659773D01*
X144801193Y-108668908D01*
X144832594Y-108672000D01*
X145157406Y-108672000D01*
X145188807Y-108668908D01*
X145218917Y-108659773D01*
X145244057Y-108646336D01*
X145245943Y-108646336D01*
X145271083Y-108659773D01*
X145301193Y-108668908D01*
X145332594Y-108672000D01*
X145657406Y-108672000D01*
X145688807Y-108668908D01*
X145718917Y-108659773D01*
X145744057Y-108646336D01*
X145745943Y-108646336D01*
X145771083Y-108659773D01*
X145801193Y-108668908D01*
X145832594Y-108672000D01*
X146157406Y-108672000D01*
X146188807Y-108668908D01*
X146218917Y-108659773D01*
X146244057Y-108646336D01*
X146245943Y-108646336D01*
X146271083Y-108659773D01*
X146301193Y-108668908D01*
X146332594Y-108672000D01*
X146657406Y-108672000D01*
X146688807Y-108668908D01*
X146718917Y-108659773D01*
X146744057Y-108646336D01*
X146745943Y-108646336D01*
X146771083Y-108659773D01*
X146801193Y-108668908D01*
X146832594Y-108672000D01*
X147045000Y-108672000D01*
X147046732Y-108673000D01*
X147047000Y-108674000D01*
X147047000Y-108886406D01*
X147050092Y-108917807D01*
X147059227Y-108947917D01*
X147072664Y-108973057D01*
X147072664Y-108974943D01*
X147059227Y-109000083D01*
X147050092Y-109030193D01*
X147047000Y-109061594D01*
X147047000Y-109386406D01*
X147050092Y-109417807D01*
X147059227Y-109447917D01*
X147072664Y-109473057D01*
X147072664Y-109474943D01*
X147059227Y-109500083D01*
X147050092Y-109530193D01*
X147047000Y-109561594D01*
X147047000Y-109886406D01*
X147050092Y-109917807D01*
X147059227Y-109947917D01*
X147072664Y-109973057D01*
X147072664Y-109974943D01*
X147059227Y-110000083D01*
X147050092Y-110030193D01*
X147047000Y-110061594D01*
X147047000Y-110386406D01*
X147050092Y-110417807D01*
X147059227Y-110447917D01*
X147072664Y-110473057D01*
X147072664Y-110474943D01*
X147059227Y-110500083D01*
X147050092Y-110530193D01*
X147047000Y-110561594D01*
X147047000Y-110886406D01*
X147050092Y-110917807D01*
X147059227Y-110947917D01*
X147072664Y-110973057D01*
X147072664Y-110974943D01*
X147059227Y-111000083D01*
X147050092Y-111030193D01*
X147047000Y-111061594D01*
X147047000Y-111386406D01*
X147050092Y-111417807D01*
X147059227Y-111447917D01*
X147072664Y-111473057D01*
X147072664Y-111474943D01*
X147059227Y-111500083D01*
X147050092Y-111530193D01*
X147047000Y-111561594D01*
X147047000Y-111886406D01*
X147050092Y-111917807D01*
X147059227Y-111947917D01*
X147072664Y-111973057D01*
X147072664Y-111974943D01*
X147059227Y-112000083D01*
X147050092Y-112030193D01*
X147047000Y-112061594D01*
X147047000Y-112274000D01*
X147046000Y-112275732D01*
X147045000Y-112276000D01*
X146832594Y-112276000D01*
X146801193Y-112279092D01*
X146771083Y-112288227D01*
X146745943Y-112301664D01*
X146744057Y-112301664D01*
X146718917Y-112288227D01*
X146688807Y-112279092D01*
X146657406Y-112276000D01*
X146332594Y-112276000D01*
X146301193Y-112279092D01*
X146271083Y-112288227D01*
X146245943Y-112301664D01*
X146244057Y-112301664D01*
X146218917Y-112288227D01*
X146188807Y-112279092D01*
X146157406Y-112276000D01*
X145832594Y-112276000D01*
X145801193Y-112279092D01*
X145771083Y-112288227D01*
X145745943Y-112301664D01*
X145744057Y-112301664D01*
X145718917Y-112288227D01*
X145688807Y-112279092D01*
X145657406Y-112276000D01*
X145332594Y-112276000D01*
X145301193Y-112279092D01*
X145271083Y-112288227D01*
X145245943Y-112301664D01*
X145244057Y-112301664D01*
X145218917Y-112288227D01*
X145188807Y-112279092D01*
X145157406Y-112276000D01*
X144832594Y-112276000D01*
X144801193Y-112279092D01*
X144771083Y-112288227D01*
X144745943Y-112301664D01*
X144744057Y-112301664D01*
X144718917Y-112288227D01*
X144688807Y-112279092D01*
X144657406Y-112276000D01*
X144332594Y-112276000D01*
X144301193Y-112279092D01*
X144271083Y-112288227D01*
X144245943Y-112301664D01*
X144244057Y-112301664D01*
X144218917Y-112288227D01*
X144188807Y-112279092D01*
X144157406Y-112276000D01*
X143832594Y-112276000D01*
X143801193Y-112279092D01*
X143771083Y-112288227D01*
X143745943Y-112301664D01*
X143744057Y-112301664D01*
X143718917Y-112288227D01*
X143688807Y-112279092D01*
X143657406Y-112276000D01*
X143445000Y-112276000D01*
X143443268Y-112275000D01*
X143443000Y-112274000D01*
X143443000Y-112061594D01*
X143439908Y-112030193D01*
X143430773Y-112000083D01*
X143417336Y-111974943D01*
X143417336Y-111973057D01*
X143430773Y-111947917D01*
X143439908Y-111917807D01*
X143443000Y-111886406D01*
X143443000Y-111561594D01*
X143439908Y-111530193D01*
X143430773Y-111500083D01*
X143417336Y-111474943D01*
X143417336Y-111473057D01*
X143430773Y-111447917D01*
X143439908Y-111417807D01*
X143443000Y-111386406D01*
X143443000Y-111061594D01*
X143439908Y-111030193D01*
X143430773Y-111000083D01*
X143417336Y-110974943D01*
X143417336Y-110973057D01*
X143430773Y-110947917D01*
X143439908Y-110917807D01*
X143443000Y-110886406D01*
X143443000Y-110561594D01*
X143439908Y-110530193D01*
X143430773Y-110500083D01*
X143417336Y-110474943D01*
X143417336Y-110473057D01*
X143430773Y-110447917D01*
X143439908Y-110417807D01*
X143443000Y-110386406D01*
X143443000Y-110061594D01*
X143439908Y-110030193D01*
X143430773Y-110000083D01*
X143417336Y-109974943D01*
X143417336Y-109973057D01*
X143430773Y-109947917D01*
X143439908Y-109917807D01*
X143443000Y-109886406D01*
X143443000Y-109561594D01*
X143439908Y-109530193D01*
X143430773Y-109500083D01*
X143417336Y-109474943D01*
X143417336Y-109473057D01*
X143430773Y-109447917D01*
X143439908Y-109417807D01*
X143443000Y-109386406D01*
X143443000Y-109061594D01*
X143439908Y-109030193D01*
X143430773Y-109000083D01*
X143417336Y-108974943D01*
X143417336Y-108973057D01*
X143430773Y-108947917D01*
X143439908Y-108917807D01*
X143443000Y-108886406D01*
X143443000Y-108726000D01*
X143497000Y-108726000D01*
X143497000Y-112222000D01*
X146993000Y-112222000D01*
X146993000Y-108726000D01*
X143497000Y-108726000D01*
X143443000Y-108726000D01*
X143443000Y-108674000D01*
X143444000Y-108672268D01*
X143445000Y-108672000D01*
X143657406Y-108672000D01*
X143688807Y-108668908D01*
X143718917Y-108659773D01*
X143744057Y-108646336D01*
X143745943Y-108646336D01*
X143771083Y-108659773D01*
G37*
G36*
X163671914Y-108284491D02*
G01*
X163680697Y-108313445D01*
X163703382Y-108355888D01*
X163733912Y-108393088D01*
X163771112Y-108423618D01*
X163813555Y-108446303D01*
X163859610Y-108460274D01*
X163907696Y-108465010D01*
X163909322Y-108466175D01*
X163909126Y-108468165D01*
X163907500Y-108469000D01*
X163851141Y-108469000D01*
X163850945Y-108468990D01*
X163808830Y-108464842D01*
X163808445Y-108464766D01*
X163773852Y-108454272D01*
X163773490Y-108454122D01*
X163733930Y-108432977D01*
X163733762Y-108432876D01*
X163727989Y-108429018D01*
X163705713Y-108419788D01*
X163682065Y-108415082D01*
X163657959Y-108415080D01*
X163634308Y-108419782D01*
X163612033Y-108429006D01*
X163606250Y-108432869D01*
X163606082Y-108432970D01*
X163566510Y-108454122D01*
X163566148Y-108454272D01*
X163531555Y-108464766D01*
X163531170Y-108464842D01*
X163489055Y-108468990D01*
X163488859Y-108469000D01*
X163432500Y-108469000D01*
X163430768Y-108468000D01*
X163430768Y-108466000D01*
X163432304Y-108465010D01*
X163480390Y-108460274D01*
X163526445Y-108446303D01*
X163568888Y-108423618D01*
X163606088Y-108393088D01*
X163636618Y-108355888D01*
X163659303Y-108313445D01*
X163668086Y-108284491D01*
X163669546Y-108283124D01*
X163671914Y-108284491D01*
G37*
G36*
X163489055Y-107425010D02*
G01*
X163531170Y-107429158D01*
X163531555Y-107429234D01*
X163566148Y-107439728D01*
X163566510Y-107439878D01*
X163606070Y-107461023D01*
X163606238Y-107461124D01*
X163612011Y-107464982D01*
X163634287Y-107474212D01*
X163657935Y-107478918D01*
X163682041Y-107478920D01*
X163705692Y-107474218D01*
X163727967Y-107464994D01*
X163733750Y-107461131D01*
X163733918Y-107461030D01*
X163773490Y-107439878D01*
X163773852Y-107439728D01*
X163808445Y-107429234D01*
X163808830Y-107429158D01*
X163850945Y-107425010D01*
X163851141Y-107425000D01*
X163907500Y-107425000D01*
X163909232Y-107426000D01*
X163909232Y-107428000D01*
X163907696Y-107428990D01*
X163859610Y-107433726D01*
X163813555Y-107447697D01*
X163771112Y-107470382D01*
X163733912Y-107500912D01*
X163703382Y-107538112D01*
X163680697Y-107580555D01*
X163671914Y-107609509D01*
X163670454Y-107610876D01*
X163668086Y-107609509D01*
X163659303Y-107580555D01*
X163636618Y-107538112D01*
X163606088Y-107500912D01*
X163568888Y-107470382D01*
X163526445Y-107447697D01*
X163480390Y-107433726D01*
X163432304Y-107428990D01*
X163430678Y-107427825D01*
X163430874Y-107425835D01*
X163432500Y-107425000D01*
X163488859Y-107425000D01*
X163489055Y-107425010D01*
G37*
G36*
X145223055Y-104928010D02*
G01*
X145265170Y-104932158D01*
X145265555Y-104932234D01*
X145300148Y-104942728D01*
X145300510Y-104942878D01*
X145332386Y-104959916D01*
X145332712Y-104960134D01*
X145350394Y-104974646D01*
X145370521Y-104988094D01*
X145392795Y-104997321D01*
X145416445Y-105002026D01*
X145440551Y-105002026D01*
X145464201Y-104997322D01*
X145486475Y-104988096D01*
X145506606Y-104974646D01*
X145524288Y-104960134D01*
X145524614Y-104959916D01*
X145556490Y-104942878D01*
X145556852Y-104942728D01*
X145591445Y-104932234D01*
X145591830Y-104932158D01*
X145633945Y-104928010D01*
X145634141Y-104928000D01*
X145690500Y-104928000D01*
X145692232Y-104929000D01*
X145692232Y-104931000D01*
X145690696Y-104931990D01*
X145642610Y-104936726D01*
X145596555Y-104950697D01*
X145554112Y-104973382D01*
X145516912Y-105003912D01*
X145486382Y-105041112D01*
X145463697Y-105083555D01*
X145449726Y-105129610D01*
X145445000Y-105177594D01*
X145445000Y-105722406D01*
X145449726Y-105770390D01*
X145463697Y-105816445D01*
X145486382Y-105858888D01*
X145516912Y-105896088D01*
X145554112Y-105926618D01*
X145596555Y-105949303D01*
X145642610Y-105963274D01*
X145690696Y-105968010D01*
X145692322Y-105969175D01*
X145692126Y-105971165D01*
X145690500Y-105972000D01*
X145634141Y-105972000D01*
X145633945Y-105971990D01*
X145591830Y-105967842D01*
X145591445Y-105967766D01*
X145556852Y-105957272D01*
X145556490Y-105957122D01*
X145524614Y-105940084D01*
X145524288Y-105939866D01*
X145506606Y-105925354D01*
X145486479Y-105911906D01*
X145464205Y-105902679D01*
X145440555Y-105897974D01*
X145416449Y-105897974D01*
X145392799Y-105902678D01*
X145370525Y-105911904D01*
X145350394Y-105925354D01*
X145332712Y-105939866D01*
X145332386Y-105940084D01*
X145300510Y-105957122D01*
X145300148Y-105957272D01*
X145265555Y-105967766D01*
X145265170Y-105967842D01*
X145223055Y-105971990D01*
X145222859Y-105972000D01*
X145166500Y-105972000D01*
X145164768Y-105971000D01*
X145164768Y-105969000D01*
X145166304Y-105968010D01*
X145214390Y-105963274D01*
X145260445Y-105949303D01*
X145302888Y-105926618D01*
X145340088Y-105896088D01*
X145370618Y-105858888D01*
X145393303Y-105816445D01*
X145407274Y-105770390D01*
X145412000Y-105722406D01*
X145412000Y-105177594D01*
X145407274Y-105129610D01*
X145393303Y-105083555D01*
X145370618Y-105041112D01*
X145340088Y-105003912D01*
X145302888Y-104973382D01*
X145260445Y-104950697D01*
X145214390Y-104936726D01*
X145166304Y-104931990D01*
X145164678Y-104930825D01*
X145164874Y-104928835D01*
X145166500Y-104928000D01*
X145222859Y-104928000D01*
X145223055Y-104928010D01*
G37*
G36*
X146424914Y-105787491D02*
G01*
X146433697Y-105816445D01*
X146456382Y-105858888D01*
X146486912Y-105896088D01*
X146524112Y-105926618D01*
X146566555Y-105949303D01*
X146612610Y-105963274D01*
X146660696Y-105968010D01*
X146662322Y-105969175D01*
X146662126Y-105971165D01*
X146660500Y-105972000D01*
X146604141Y-105972000D01*
X146603945Y-105971990D01*
X146561830Y-105967842D01*
X146561445Y-105967766D01*
X146526852Y-105957272D01*
X146526490Y-105957122D01*
X146486930Y-105935977D01*
X146486762Y-105935876D01*
X146480989Y-105932018D01*
X146458713Y-105922788D01*
X146435065Y-105918082D01*
X146410959Y-105918080D01*
X146387308Y-105922782D01*
X146365033Y-105932006D01*
X146359250Y-105935869D01*
X146359082Y-105935970D01*
X146319510Y-105957122D01*
X146319148Y-105957272D01*
X146284555Y-105967766D01*
X146284170Y-105967842D01*
X146242055Y-105971990D01*
X146241859Y-105972000D01*
X146185500Y-105972000D01*
X146183768Y-105971000D01*
X146183768Y-105969000D01*
X146185304Y-105968010D01*
X146233390Y-105963274D01*
X146279445Y-105949303D01*
X146321888Y-105926618D01*
X146359088Y-105896088D01*
X146389618Y-105858888D01*
X146412303Y-105816445D01*
X146421086Y-105787491D01*
X146422546Y-105786124D01*
X146424914Y-105787491D01*
G37*
G36*
X144435914Y-105787491D02*
G01*
X144444697Y-105816445D01*
X144467382Y-105858888D01*
X144497912Y-105896088D01*
X144535112Y-105926618D01*
X144577555Y-105949303D01*
X144623610Y-105963274D01*
X144671696Y-105968010D01*
X144673322Y-105969175D01*
X144673126Y-105971165D01*
X144671500Y-105972000D01*
X144615141Y-105972000D01*
X144614945Y-105971990D01*
X144572830Y-105967842D01*
X144572445Y-105967766D01*
X144537852Y-105957272D01*
X144537490Y-105957122D01*
X144497930Y-105935977D01*
X144497762Y-105935876D01*
X144491989Y-105932018D01*
X144469713Y-105922788D01*
X144446065Y-105918082D01*
X144421959Y-105918080D01*
X144398308Y-105922782D01*
X144376033Y-105932006D01*
X144370250Y-105935869D01*
X144370082Y-105935970D01*
X144330510Y-105957122D01*
X144330148Y-105957272D01*
X144295555Y-105967766D01*
X144295170Y-105967842D01*
X144253055Y-105971990D01*
X144252859Y-105972000D01*
X144196500Y-105972000D01*
X144194768Y-105971000D01*
X144194768Y-105969000D01*
X144196304Y-105968010D01*
X144244390Y-105963274D01*
X144290445Y-105949303D01*
X144332888Y-105926618D01*
X144370088Y-105896088D01*
X144400618Y-105858888D01*
X144423303Y-105816445D01*
X144432086Y-105787491D01*
X144433546Y-105786124D01*
X144435914Y-105787491D01*
G37*
G36*
X144253055Y-104928010D02*
G01*
X144295170Y-104932158D01*
X144295555Y-104932234D01*
X144330148Y-104942728D01*
X144330510Y-104942878D01*
X144370070Y-104964023D01*
X144370238Y-104964124D01*
X144376011Y-104967982D01*
X144398287Y-104977212D01*
X144421935Y-104981918D01*
X144446041Y-104981920D01*
X144469692Y-104977218D01*
X144491967Y-104967994D01*
X144497750Y-104964131D01*
X144497918Y-104964030D01*
X144537490Y-104942878D01*
X144537852Y-104942728D01*
X144572445Y-104932234D01*
X144572830Y-104932158D01*
X144614945Y-104928010D01*
X144615141Y-104928000D01*
X144671500Y-104928000D01*
X144673232Y-104929000D01*
X144673232Y-104931000D01*
X144671696Y-104931990D01*
X144623610Y-104936726D01*
X144577555Y-104950697D01*
X144535112Y-104973382D01*
X144497912Y-105003912D01*
X144467382Y-105041112D01*
X144444697Y-105083555D01*
X144435914Y-105112509D01*
X144434454Y-105113876D01*
X144432086Y-105112509D01*
X144423303Y-105083555D01*
X144400618Y-105041112D01*
X144370088Y-105003912D01*
X144332888Y-104973382D01*
X144290445Y-104950697D01*
X144244390Y-104936726D01*
X144196304Y-104931990D01*
X144194678Y-104930825D01*
X144194874Y-104928835D01*
X144196500Y-104928000D01*
X144252859Y-104928000D01*
X144253055Y-104928010D01*
G37*
G36*
X146242055Y-104928010D02*
G01*
X146284170Y-104932158D01*
X146284555Y-104932234D01*
X146319148Y-104942728D01*
X146319510Y-104942878D01*
X146359070Y-104964023D01*
X146359238Y-104964124D01*
X146365011Y-104967982D01*
X146387287Y-104977212D01*
X146410935Y-104981918D01*
X146435041Y-104981920D01*
X146458692Y-104977218D01*
X146480967Y-104967994D01*
X146486750Y-104964131D01*
X146486918Y-104964030D01*
X146526490Y-104942878D01*
X146526852Y-104942728D01*
X146561445Y-104932234D01*
X146561830Y-104932158D01*
X146603945Y-104928010D01*
X146604141Y-104928000D01*
X146660500Y-104928000D01*
X146662232Y-104929000D01*
X146662232Y-104931000D01*
X146660696Y-104931990D01*
X146612610Y-104936726D01*
X146566555Y-104950697D01*
X146524112Y-104973382D01*
X146486912Y-105003912D01*
X146456382Y-105041112D01*
X146433697Y-105083555D01*
X146424914Y-105112509D01*
X146423454Y-105113876D01*
X146421086Y-105112509D01*
X146412303Y-105083555D01*
X146389618Y-105041112D01*
X146359088Y-105003912D01*
X146321888Y-104973382D01*
X146279445Y-104950697D01*
X146233390Y-104936726D01*
X146185304Y-104931990D01*
X146183678Y-104930825D01*
X146183874Y-104928835D01*
X146185500Y-104928000D01*
X146241859Y-104928000D01*
X146242055Y-104928010D01*
G37*
G36*
X151577914Y-102133491D02*
G01*
X151586697Y-102162445D01*
X151609382Y-102204888D01*
X151639912Y-102242088D01*
X151677112Y-102272618D01*
X151719555Y-102295303D01*
X151765610Y-102309274D01*
X151813696Y-102314010D01*
X151815322Y-102315175D01*
X151815126Y-102317165D01*
X151813500Y-102318000D01*
X151757141Y-102318000D01*
X151756945Y-102317990D01*
X151714830Y-102313842D01*
X151714445Y-102313766D01*
X151679852Y-102303272D01*
X151679490Y-102303122D01*
X151639930Y-102281977D01*
X151639762Y-102281876D01*
X151633989Y-102278018D01*
X151611713Y-102268788D01*
X151588065Y-102264082D01*
X151563959Y-102264080D01*
X151540308Y-102268782D01*
X151518033Y-102278006D01*
X151512250Y-102281869D01*
X151512082Y-102281970D01*
X151472510Y-102303122D01*
X151472148Y-102303272D01*
X151437555Y-102313766D01*
X151437170Y-102313842D01*
X151395055Y-102317990D01*
X151394859Y-102318000D01*
X151338500Y-102318000D01*
X151336768Y-102317000D01*
X151336768Y-102315000D01*
X151338304Y-102314010D01*
X151386390Y-102309274D01*
X151432445Y-102295303D01*
X151474888Y-102272618D01*
X151512088Y-102242088D01*
X151542618Y-102204888D01*
X151565303Y-102162445D01*
X151574086Y-102133491D01*
X151575546Y-102132124D01*
X151577914Y-102133491D01*
G37*
G36*
X180760914Y-101835491D02*
G01*
X180769697Y-101864445D01*
X180792382Y-101906888D01*
X180822912Y-101944088D01*
X180860112Y-101974618D01*
X180902555Y-101997303D01*
X180948610Y-102011274D01*
X180996696Y-102016010D01*
X180998322Y-102017175D01*
X180998126Y-102019165D01*
X180996500Y-102020000D01*
X180940141Y-102020000D01*
X180939945Y-102019990D01*
X180897830Y-102015842D01*
X180897445Y-102015766D01*
X180862852Y-102005272D01*
X180862490Y-102005122D01*
X180822930Y-101983977D01*
X180822762Y-101983876D01*
X180816989Y-101980018D01*
X180794713Y-101970788D01*
X180771065Y-101966082D01*
X180746959Y-101966080D01*
X180723308Y-101970782D01*
X180701033Y-101980006D01*
X180695250Y-101983869D01*
X180695082Y-101983970D01*
X180655510Y-102005122D01*
X180655148Y-102005272D01*
X180620555Y-102015766D01*
X180620170Y-102015842D01*
X180578055Y-102019990D01*
X180577859Y-102020000D01*
X180521500Y-102020000D01*
X180519768Y-102019000D01*
X180519768Y-102017000D01*
X180521304Y-102016010D01*
X180569390Y-102011274D01*
X180615445Y-101997303D01*
X180657888Y-101974618D01*
X180695088Y-101944088D01*
X180725618Y-101906888D01*
X180748303Y-101864445D01*
X180757086Y-101835491D01*
X180758546Y-101834124D01*
X180760914Y-101835491D01*
G37*
G36*
X151395055Y-101274010D02*
G01*
X151437170Y-101278158D01*
X151437555Y-101278234D01*
X151472148Y-101288728D01*
X151472510Y-101288878D01*
X151512070Y-101310023D01*
X151512238Y-101310124D01*
X151518011Y-101313982D01*
X151540287Y-101323212D01*
X151563935Y-101327918D01*
X151588041Y-101327920D01*
X151611692Y-101323218D01*
X151633967Y-101313994D01*
X151639750Y-101310131D01*
X151639918Y-101310030D01*
X151679490Y-101288878D01*
X151679852Y-101288728D01*
X151714445Y-101278234D01*
X151714830Y-101278158D01*
X151756945Y-101274010D01*
X151757141Y-101274000D01*
X151813500Y-101274000D01*
X151815232Y-101275000D01*
X151815232Y-101277000D01*
X151813696Y-101277990D01*
X151765610Y-101282726D01*
X151719555Y-101296697D01*
X151677112Y-101319382D01*
X151639912Y-101349912D01*
X151609382Y-101387112D01*
X151586697Y-101429555D01*
X151577914Y-101458509D01*
X151576454Y-101459876D01*
X151574086Y-101458509D01*
X151565303Y-101429555D01*
X151542618Y-101387112D01*
X151512088Y-101349912D01*
X151474888Y-101319382D01*
X151432445Y-101296697D01*
X151386390Y-101282726D01*
X151338304Y-101277990D01*
X151336678Y-101276825D01*
X151336874Y-101274835D01*
X151338500Y-101274000D01*
X151394859Y-101274000D01*
X151395055Y-101274010D01*
G37*
G36*
X180578055Y-100976010D02*
G01*
X180620170Y-100980158D01*
X180620555Y-100980234D01*
X180655148Y-100990728D01*
X180655510Y-100990878D01*
X180695070Y-101012023D01*
X180695238Y-101012124D01*
X180701011Y-101015982D01*
X180723287Y-101025212D01*
X180746935Y-101029918D01*
X180771041Y-101029920D01*
X180794692Y-101025218D01*
X180816967Y-101015994D01*
X180822750Y-101012131D01*
X180822918Y-101012030D01*
X180862490Y-100990878D01*
X180862852Y-100990728D01*
X180897445Y-100980234D01*
X180897830Y-100980158D01*
X180939945Y-100976010D01*
X180940141Y-100976000D01*
X180996500Y-100976000D01*
X180998232Y-100977000D01*
X180998232Y-100979000D01*
X180996696Y-100979990D01*
X180948610Y-100984726D01*
X180902555Y-100998697D01*
X180860112Y-101021382D01*
X180822912Y-101051912D01*
X180792382Y-101089112D01*
X180769697Y-101131555D01*
X180760914Y-101160509D01*
X180759454Y-101161876D01*
X180757086Y-101160509D01*
X180748303Y-101131555D01*
X180725618Y-101089112D01*
X180695088Y-101051912D01*
X180657888Y-101021382D01*
X180615445Y-100998697D01*
X180569390Y-100984726D01*
X180521304Y-100979990D01*
X180519678Y-100978825D01*
X180519874Y-100976835D01*
X180521500Y-100976000D01*
X180577859Y-100976000D01*
X180578055Y-100976010D01*
G37*
G36*
X131581914Y-99900091D02*
G01*
X131590697Y-99929045D01*
X131613382Y-99971488D01*
X131643912Y-100008688D01*
X131681112Y-100039218D01*
X131723555Y-100061903D01*
X131769610Y-100075874D01*
X131817696Y-100080610D01*
X131819322Y-100081775D01*
X131819126Y-100083765D01*
X131817500Y-100084600D01*
X131761141Y-100084600D01*
X131760945Y-100084590D01*
X131718830Y-100080442D01*
X131718445Y-100080366D01*
X131683852Y-100069872D01*
X131683490Y-100069722D01*
X131643930Y-100048577D01*
X131643762Y-100048476D01*
X131637989Y-100044618D01*
X131615713Y-100035388D01*
X131592065Y-100030682D01*
X131567959Y-100030680D01*
X131544308Y-100035382D01*
X131522033Y-100044606D01*
X131516250Y-100048469D01*
X131516082Y-100048570D01*
X131476510Y-100069722D01*
X131476148Y-100069872D01*
X131441555Y-100080366D01*
X131441170Y-100080442D01*
X131399055Y-100084590D01*
X131398859Y-100084600D01*
X131342500Y-100084600D01*
X131340768Y-100083600D01*
X131340768Y-100081600D01*
X131342304Y-100080610D01*
X131390390Y-100075874D01*
X131436445Y-100061903D01*
X131478888Y-100039218D01*
X131516088Y-100008688D01*
X131546618Y-99971488D01*
X131569303Y-99929045D01*
X131578086Y-99900091D01*
X131579546Y-99898724D01*
X131581914Y-99900091D01*
G37*
G36*
X134057914Y-99900091D02*
G01*
X134066697Y-99929045D01*
X134089382Y-99971488D01*
X134119912Y-100008688D01*
X134157112Y-100039218D01*
X134199555Y-100061903D01*
X134245610Y-100075874D01*
X134293696Y-100080610D01*
X134295322Y-100081775D01*
X134295126Y-100083765D01*
X134293500Y-100084600D01*
X134237141Y-100084600D01*
X134236945Y-100084590D01*
X134194830Y-100080442D01*
X134194445Y-100080366D01*
X134159852Y-100069872D01*
X134159490Y-100069722D01*
X134119930Y-100048577D01*
X134119762Y-100048476D01*
X134113989Y-100044618D01*
X134091713Y-100035388D01*
X134068065Y-100030682D01*
X134043959Y-100030680D01*
X134020308Y-100035382D01*
X133998033Y-100044606D01*
X133992250Y-100048469D01*
X133992082Y-100048570D01*
X133952510Y-100069722D01*
X133952148Y-100069872D01*
X133917555Y-100080366D01*
X133917170Y-100080442D01*
X133875055Y-100084590D01*
X133874859Y-100084600D01*
X133818500Y-100084600D01*
X133816768Y-100083600D01*
X133816768Y-100081600D01*
X133818304Y-100080610D01*
X133866390Y-100075874D01*
X133912445Y-100061903D01*
X133954888Y-100039218D01*
X133992088Y-100008688D01*
X134022618Y-99971488D01*
X134045303Y-99929045D01*
X134054086Y-99900091D01*
X134055546Y-99898724D01*
X134057914Y-99900091D01*
G37*
G36*
X133875055Y-99040610D02*
G01*
X133917170Y-99044758D01*
X133917555Y-99044834D01*
X133952148Y-99055328D01*
X133952510Y-99055478D01*
X133992070Y-99076623D01*
X133992238Y-99076724D01*
X133998011Y-99080582D01*
X134020287Y-99089812D01*
X134043935Y-99094518D01*
X134068041Y-99094520D01*
X134091692Y-99089818D01*
X134113967Y-99080594D01*
X134119750Y-99076731D01*
X134119918Y-99076630D01*
X134159490Y-99055478D01*
X134159852Y-99055328D01*
X134194445Y-99044834D01*
X134194830Y-99044758D01*
X134236945Y-99040610D01*
X134237141Y-99040600D01*
X134293500Y-99040600D01*
X134295232Y-99041600D01*
X134295232Y-99043600D01*
X134293696Y-99044590D01*
X134245610Y-99049326D01*
X134199555Y-99063297D01*
X134157112Y-99085982D01*
X134119912Y-99116512D01*
X134089382Y-99153712D01*
X134066697Y-99196155D01*
X134057914Y-99225109D01*
X134056454Y-99226476D01*
X134054086Y-99225109D01*
X134045303Y-99196155D01*
X134022618Y-99153712D01*
X133992088Y-99116512D01*
X133954888Y-99085982D01*
X133912445Y-99063297D01*
X133866390Y-99049326D01*
X133818304Y-99044590D01*
X133816678Y-99043425D01*
X133816874Y-99041435D01*
X133818500Y-99040600D01*
X133874859Y-99040600D01*
X133875055Y-99040610D01*
G37*
G36*
X131399055Y-99040610D02*
G01*
X131441170Y-99044758D01*
X131441555Y-99044834D01*
X131476148Y-99055328D01*
X131476510Y-99055478D01*
X131516070Y-99076623D01*
X131516238Y-99076724D01*
X131522011Y-99080582D01*
X131544287Y-99089812D01*
X131567935Y-99094518D01*
X131592041Y-99094520D01*
X131615692Y-99089818D01*
X131637967Y-99080594D01*
X131643750Y-99076731D01*
X131643918Y-99076630D01*
X131683490Y-99055478D01*
X131683852Y-99055328D01*
X131718445Y-99044834D01*
X131718830Y-99044758D01*
X131760945Y-99040610D01*
X131761141Y-99040600D01*
X131817500Y-99040600D01*
X131819232Y-99041600D01*
X131819232Y-99043600D01*
X131817696Y-99044590D01*
X131769610Y-99049326D01*
X131723555Y-99063297D01*
X131681112Y-99085982D01*
X131643912Y-99116512D01*
X131613382Y-99153712D01*
X131590697Y-99196155D01*
X131581914Y-99225109D01*
X131580454Y-99226476D01*
X131578086Y-99225109D01*
X131569303Y-99196155D01*
X131546618Y-99153712D01*
X131516088Y-99116512D01*
X131478888Y-99085982D01*
X131436445Y-99063297D01*
X131390390Y-99049326D01*
X131342304Y-99044590D01*
X131340678Y-99043425D01*
X131340874Y-99041435D01*
X131342500Y-99040600D01*
X131398859Y-99040600D01*
X131399055Y-99040610D01*
G37*
G36*
X180755914Y-98533491D02*
G01*
X180764697Y-98562445D01*
X180787382Y-98604888D01*
X180817912Y-98642088D01*
X180855112Y-98672618D01*
X180897555Y-98695303D01*
X180943610Y-98709274D01*
X180991696Y-98714010D01*
X180993322Y-98715175D01*
X180993126Y-98717165D01*
X180991500Y-98718000D01*
X180935141Y-98718000D01*
X180934945Y-98717990D01*
X180892830Y-98713842D01*
X180892445Y-98713766D01*
X180857852Y-98703272D01*
X180857490Y-98703122D01*
X180817930Y-98681977D01*
X180817762Y-98681876D01*
X180811989Y-98678018D01*
X180789713Y-98668788D01*
X180766065Y-98664082D01*
X180741959Y-98664080D01*
X180718308Y-98668782D01*
X180696033Y-98678006D01*
X180690250Y-98681869D01*
X180690082Y-98681970D01*
X180650510Y-98703122D01*
X180650148Y-98703272D01*
X180615555Y-98713766D01*
X180615170Y-98713842D01*
X180573055Y-98717990D01*
X180572859Y-98718000D01*
X180516500Y-98718000D01*
X180514768Y-98717000D01*
X180514768Y-98715000D01*
X180516304Y-98714010D01*
X180564390Y-98709274D01*
X180610445Y-98695303D01*
X180652888Y-98672618D01*
X180690088Y-98642088D01*
X180720618Y-98604888D01*
X180743303Y-98562445D01*
X180752086Y-98533491D01*
X180753546Y-98532124D01*
X180755914Y-98533491D01*
G37*
G36*
X180573055Y-97674010D02*
G01*
X180615170Y-97678158D01*
X180615555Y-97678234D01*
X180650148Y-97688728D01*
X180650510Y-97688878D01*
X180690070Y-97710023D01*
X180690238Y-97710124D01*
X180696011Y-97713982D01*
X180718287Y-97723212D01*
X180741935Y-97727918D01*
X180766041Y-97727920D01*
X180789692Y-97723218D01*
X180811967Y-97713994D01*
X180817750Y-97710131D01*
X180817918Y-97710030D01*
X180857490Y-97688878D01*
X180857852Y-97688728D01*
X180892445Y-97678234D01*
X180892830Y-97678158D01*
X180934945Y-97674010D01*
X180935141Y-97674000D01*
X180991500Y-97674000D01*
X180993232Y-97675000D01*
X180993232Y-97677000D01*
X180991696Y-97677990D01*
X180943610Y-97682726D01*
X180897555Y-97696697D01*
X180855112Y-97719382D01*
X180817912Y-97749912D01*
X180787382Y-97787112D01*
X180764697Y-97829555D01*
X180755914Y-97858509D01*
X180754454Y-97859876D01*
X180752086Y-97858509D01*
X180743303Y-97829555D01*
X180720618Y-97787112D01*
X180690088Y-97749912D01*
X180652888Y-97719382D01*
X180610445Y-97696697D01*
X180564390Y-97682726D01*
X180516304Y-97677990D01*
X180514678Y-97676825D01*
X180514874Y-97674835D01*
X180516500Y-97674000D01*
X180572859Y-97674000D01*
X180573055Y-97674010D01*
G37*
G36*
X144218732Y-93063700D02*
G01*
X144219000Y-93064700D01*
X144219000Y-95389700D01*
X144218000Y-95391432D01*
X144217000Y-95391700D01*
X144047000Y-95391700D01*
X144045268Y-95390700D01*
X144045000Y-95389700D01*
X144045000Y-93064700D01*
X144046000Y-93062968D01*
X144047000Y-93062700D01*
X144217000Y-93062700D01*
X144218732Y-93063700D01*
G37*
G36*
X145488732Y-93063700D02*
G01*
X145489000Y-93064700D01*
X145489000Y-95389700D01*
X145488000Y-95391432D01*
X145487000Y-95391700D01*
X145317000Y-95391700D01*
X145315268Y-95390700D01*
X145315000Y-95389700D01*
X145315000Y-93064700D01*
X145316000Y-93062968D01*
X145317000Y-93062700D01*
X145487000Y-93062700D01*
X145488732Y-93063700D01*
G37*
G36*
X139138732Y-93063700D02*
G01*
X139139000Y-93064700D01*
X139139000Y-95389700D01*
X139138000Y-95391432D01*
X139137000Y-95391700D01*
X138967000Y-95391700D01*
X138965268Y-95390700D01*
X138965000Y-95389700D01*
X138965000Y-93064700D01*
X138966000Y-93062968D01*
X138967000Y-93062700D01*
X139137000Y-93062700D01*
X139138732Y-93063700D01*
G37*
G36*
X140408732Y-93063700D02*
G01*
X140409000Y-93064700D01*
X140409000Y-95389700D01*
X140408000Y-95391432D01*
X140407000Y-95391700D01*
X140237000Y-95391700D01*
X140235268Y-95390700D01*
X140235000Y-95389700D01*
X140235000Y-93064700D01*
X140236000Y-93062968D01*
X140237000Y-93062700D01*
X140407000Y-93062700D01*
X140408732Y-93063700D01*
G37*
G36*
X141678732Y-93063700D02*
G01*
X141679000Y-93064700D01*
X141679000Y-95389700D01*
X141678000Y-95391432D01*
X141677000Y-95391700D01*
X141507000Y-95391700D01*
X141505268Y-95390700D01*
X141505000Y-95389700D01*
X141505000Y-93064700D01*
X141506000Y-93062968D01*
X141507000Y-93062700D01*
X141677000Y-93062700D01*
X141678732Y-93063700D01*
G37*
G36*
X142948732Y-93063700D02*
G01*
X142949000Y-93064700D01*
X142949000Y-95389700D01*
X142948000Y-95391432D01*
X142947000Y-95391700D01*
X142777000Y-95391700D01*
X142775268Y-95390700D01*
X142775000Y-95389700D01*
X142775000Y-93064700D01*
X142776000Y-93062968D01*
X142777000Y-93062700D01*
X142947000Y-93062700D01*
X142948732Y-93063700D01*
G37*
G36*
X138068732Y-91993700D02*
G01*
X138069000Y-91994700D01*
X138069000Y-92164700D01*
X138068000Y-92166432D01*
X138067000Y-92166700D01*
X135742000Y-92166700D01*
X135740268Y-92165700D01*
X135740000Y-92164700D01*
X135740000Y-91994700D01*
X135741000Y-91992968D01*
X135742000Y-91992700D01*
X138067000Y-91992700D01*
X138068732Y-91993700D01*
G37*
G36*
X148713732Y-91993700D02*
G01*
X148714000Y-91994700D01*
X148714000Y-92164700D01*
X148713000Y-92166432D01*
X148712000Y-92166700D01*
X146387000Y-92166700D01*
X146385268Y-92165700D01*
X146385000Y-92164700D01*
X146385000Y-91994700D01*
X146386000Y-91992968D01*
X146387000Y-91992700D01*
X148712000Y-91992700D01*
X148713732Y-91993700D01*
G37*
G36*
X181324914Y-91507891D02*
G01*
X181333697Y-91536845D01*
X181356382Y-91579288D01*
X181386912Y-91616488D01*
X181424112Y-91647018D01*
X181466555Y-91669703D01*
X181512610Y-91683674D01*
X181560696Y-91688410D01*
X181562322Y-91689575D01*
X181562126Y-91691565D01*
X181560500Y-91692400D01*
X181504141Y-91692400D01*
X181503945Y-91692390D01*
X181461830Y-91688242D01*
X181461445Y-91688166D01*
X181426852Y-91677672D01*
X181426490Y-91677522D01*
X181386930Y-91656377D01*
X181386762Y-91656276D01*
X181380989Y-91652418D01*
X181358713Y-91643188D01*
X181335065Y-91638482D01*
X181310959Y-91638480D01*
X181287308Y-91643182D01*
X181265033Y-91652406D01*
X181259250Y-91656269D01*
X181259082Y-91656370D01*
X181219510Y-91677522D01*
X181219148Y-91677672D01*
X181184555Y-91688166D01*
X181184170Y-91688242D01*
X181142055Y-91692390D01*
X181141859Y-91692400D01*
X181085500Y-91692400D01*
X181083768Y-91691400D01*
X181083768Y-91689400D01*
X181085304Y-91688410D01*
X181133390Y-91683674D01*
X181179445Y-91669703D01*
X181221888Y-91647018D01*
X181259088Y-91616488D01*
X181289618Y-91579288D01*
X181312303Y-91536845D01*
X181321086Y-91507891D01*
X181322546Y-91506524D01*
X181324914Y-91507891D01*
G37*
G36*
X177062914Y-91500191D02*
G01*
X177071697Y-91529145D01*
X177094382Y-91571588D01*
X177124912Y-91608788D01*
X177162112Y-91639318D01*
X177204555Y-91662003D01*
X177250610Y-91675974D01*
X177298696Y-91680710D01*
X177300322Y-91681875D01*
X177300126Y-91683865D01*
X177298500Y-91684700D01*
X177242141Y-91684700D01*
X177241945Y-91684690D01*
X177199830Y-91680542D01*
X177199445Y-91680466D01*
X177164852Y-91669972D01*
X177164490Y-91669822D01*
X177124930Y-91648677D01*
X177124762Y-91648576D01*
X177118989Y-91644718D01*
X177096713Y-91635488D01*
X177073065Y-91630782D01*
X177048959Y-91630780D01*
X177025308Y-91635482D01*
X177003033Y-91644706D01*
X176997250Y-91648569D01*
X176997082Y-91648670D01*
X176957510Y-91669822D01*
X176957148Y-91669972D01*
X176922555Y-91680466D01*
X176922170Y-91680542D01*
X176880055Y-91684690D01*
X176879859Y-91684700D01*
X176823500Y-91684700D01*
X176821768Y-91683700D01*
X176821768Y-91681700D01*
X176823304Y-91680710D01*
X176871390Y-91675974D01*
X176917445Y-91662003D01*
X176959888Y-91639318D01*
X176997088Y-91608788D01*
X177027618Y-91571588D01*
X177050303Y-91529145D01*
X177059086Y-91500191D01*
X177060546Y-91498824D01*
X177062914Y-91500191D01*
G37*
G36*
X130026914Y-91294491D02*
G01*
X130035697Y-91323445D01*
X130058382Y-91365888D01*
X130088912Y-91403088D01*
X130126112Y-91433618D01*
X130168555Y-91456303D01*
X130214610Y-91470274D01*
X130262696Y-91475010D01*
X130264322Y-91476175D01*
X130264126Y-91478165D01*
X130262500Y-91479000D01*
X130206141Y-91479000D01*
X130205945Y-91478990D01*
X130163830Y-91474842D01*
X130163445Y-91474766D01*
X130128852Y-91464272D01*
X130128490Y-91464122D01*
X130088930Y-91442977D01*
X130088762Y-91442876D01*
X130082989Y-91439018D01*
X130060713Y-91429788D01*
X130037065Y-91425082D01*
X130012959Y-91425080D01*
X129989308Y-91429782D01*
X129967033Y-91439006D01*
X129961250Y-91442869D01*
X129961082Y-91442970D01*
X129921510Y-91464122D01*
X129921148Y-91464272D01*
X129886555Y-91474766D01*
X129886170Y-91474842D01*
X129844055Y-91478990D01*
X129843859Y-91479000D01*
X129787500Y-91479000D01*
X129785768Y-91478000D01*
X129785768Y-91476000D01*
X129787304Y-91475010D01*
X129835390Y-91470274D01*
X129881445Y-91456303D01*
X129923888Y-91433618D01*
X129961088Y-91403088D01*
X129991618Y-91365888D01*
X130014303Y-91323445D01*
X130023086Y-91294491D01*
X130024546Y-91293124D01*
X130026914Y-91294491D01*
G37*
G36*
X182291165Y-90199174D02*
G01*
X182292000Y-90200800D01*
X182292000Y-90257159D01*
X182291990Y-90257355D01*
X182287842Y-90299470D01*
X182287766Y-90299855D01*
X182277272Y-90334448D01*
X182277122Y-90334810D01*
X182260086Y-90366683D01*
X182259868Y-90367009D01*
X182236932Y-90394955D01*
X182236655Y-90395232D01*
X182208709Y-90418168D01*
X182208383Y-90418386D01*
X182171281Y-90438217D01*
X182151154Y-90451665D01*
X182134107Y-90468712D01*
X182120712Y-90488760D01*
X182111486Y-90511033D01*
X182106781Y-90534684D01*
X182106781Y-90558790D01*
X182111485Y-90582440D01*
X182120712Y-90604714D01*
X182134106Y-90624761D01*
X182151153Y-90641808D01*
X182171201Y-90655203D01*
X182185344Y-90661062D01*
X182185522Y-90661146D01*
X182221383Y-90680314D01*
X182221709Y-90680532D01*
X182249655Y-90703468D01*
X182249932Y-90703745D01*
X182272868Y-90731691D01*
X182273086Y-90732017D01*
X182290122Y-90763890D01*
X182290272Y-90764252D01*
X182300766Y-90798845D01*
X182300842Y-90799230D01*
X182304990Y-90841345D01*
X182305000Y-90841541D01*
X182305000Y-90897900D01*
X182304000Y-90899632D01*
X182302000Y-90899632D01*
X182301010Y-90898096D01*
X182296274Y-90850010D01*
X182282303Y-90803955D01*
X182259618Y-90761512D01*
X182229088Y-90724312D01*
X182191888Y-90693782D01*
X182149445Y-90671097D01*
X182103390Y-90657126D01*
X182055406Y-90652400D01*
X181560594Y-90652400D01*
X181512610Y-90657126D01*
X181466555Y-90671097D01*
X181424112Y-90693782D01*
X181386912Y-90724312D01*
X181356382Y-90761512D01*
X181333697Y-90803955D01*
X181324914Y-90832909D01*
X181323454Y-90834276D01*
X181321086Y-90832909D01*
X181312303Y-90803955D01*
X181289618Y-90761512D01*
X181259088Y-90724312D01*
X181221888Y-90693782D01*
X181179445Y-90671097D01*
X181133390Y-90657126D01*
X181085406Y-90652400D01*
X180590594Y-90652400D01*
X180542610Y-90657126D01*
X180496555Y-90671097D01*
X180454112Y-90693782D01*
X180416912Y-90724312D01*
X180386382Y-90761512D01*
X180363697Y-90803955D01*
X180349726Y-90850010D01*
X180344990Y-90898096D01*
X180343825Y-90899722D01*
X180341835Y-90899526D01*
X180341000Y-90897900D01*
X180341000Y-90841541D01*
X180341010Y-90841345D01*
X180345158Y-90799230D01*
X180345234Y-90798845D01*
X180355728Y-90764252D01*
X180355878Y-90763890D01*
X180372914Y-90732017D01*
X180373132Y-90731691D01*
X180396068Y-90703745D01*
X180396345Y-90703468D01*
X180424291Y-90680532D01*
X180424617Y-90680314D01*
X180461719Y-90660483D01*
X180481846Y-90647035D01*
X180498893Y-90629988D01*
X180512288Y-90609940D01*
X180521514Y-90587667D01*
X180526219Y-90564016D01*
X180526219Y-90539910D01*
X180525180Y-90534684D01*
X181136781Y-90534684D01*
X181136781Y-90558790D01*
X181141485Y-90582440D01*
X181150712Y-90604714D01*
X181164106Y-90624761D01*
X181181153Y-90641808D01*
X181201201Y-90655203D01*
X181215344Y-90661062D01*
X181215522Y-90661146D01*
X181259070Y-90684423D01*
X181259238Y-90684524D01*
X181265011Y-90688382D01*
X181287287Y-90697612D01*
X181310935Y-90702318D01*
X181335041Y-90702320D01*
X181358692Y-90697618D01*
X181380967Y-90688394D01*
X181386750Y-90684531D01*
X181386918Y-90684430D01*
X181431719Y-90660483D01*
X181451846Y-90647035D01*
X181468893Y-90629988D01*
X181482288Y-90609940D01*
X181491514Y-90587667D01*
X181496219Y-90564016D01*
X181496219Y-90539910D01*
X181491515Y-90516260D01*
X181482288Y-90493986D01*
X181468894Y-90473939D01*
X181451847Y-90456892D01*
X181431799Y-90443497D01*
X181417656Y-90437638D01*
X181417478Y-90437554D01*
X181373930Y-90414277D01*
X181373762Y-90414176D01*
X181367989Y-90410318D01*
X181345713Y-90401088D01*
X181322065Y-90396382D01*
X181297959Y-90396380D01*
X181274308Y-90401082D01*
X181252033Y-90410306D01*
X181246250Y-90414169D01*
X181246082Y-90414270D01*
X181201281Y-90438217D01*
X181181154Y-90451665D01*
X181164107Y-90468712D01*
X181150712Y-90488760D01*
X181141486Y-90511033D01*
X181136781Y-90534684D01*
X180525180Y-90534684D01*
X180521515Y-90516260D01*
X180512288Y-90493986D01*
X180498894Y-90473939D01*
X180481847Y-90456892D01*
X180461799Y-90443497D01*
X180447656Y-90437638D01*
X180447478Y-90437554D01*
X180411617Y-90418386D01*
X180411291Y-90418168D01*
X180383345Y-90395232D01*
X180383068Y-90394955D01*
X180360132Y-90367009D01*
X180359914Y-90366683D01*
X180342878Y-90334810D01*
X180342728Y-90334448D01*
X180332234Y-90299855D01*
X180332158Y-90299470D01*
X180328010Y-90257355D01*
X180328000Y-90257159D01*
X180328000Y-90200800D01*
X180329000Y-90199068D01*
X180331000Y-90199068D01*
X180331990Y-90200604D01*
X180336726Y-90248690D01*
X180350697Y-90294745D01*
X180373382Y-90337188D01*
X180403912Y-90374388D01*
X180441112Y-90404918D01*
X180483555Y-90427603D01*
X180529610Y-90441574D01*
X180577594Y-90446300D01*
X181072406Y-90446300D01*
X181120390Y-90441574D01*
X181166445Y-90427603D01*
X181208888Y-90404918D01*
X181246088Y-90374388D01*
X181276618Y-90337188D01*
X181299303Y-90294745D01*
X181308086Y-90265791D01*
X181309546Y-90264424D01*
X181311914Y-90265791D01*
X181320697Y-90294745D01*
X181343382Y-90337188D01*
X181373912Y-90374388D01*
X181411112Y-90404918D01*
X181453555Y-90427603D01*
X181499610Y-90441574D01*
X181547594Y-90446300D01*
X182042406Y-90446300D01*
X182090390Y-90441574D01*
X182136445Y-90427603D01*
X182178888Y-90404918D01*
X182216088Y-90374388D01*
X182246618Y-90337188D01*
X182269303Y-90294745D01*
X182283274Y-90248690D01*
X182288010Y-90200604D01*
X182289175Y-90198978D01*
X182291165Y-90199174D01*
G37*
G36*
X148713732Y-90723700D02*
G01*
X148714000Y-90724700D01*
X148714000Y-90894700D01*
X148713000Y-90896432D01*
X148712000Y-90896700D01*
X146387000Y-90896700D01*
X146385268Y-90895700D01*
X146385000Y-90894700D01*
X146385000Y-90724700D01*
X146386000Y-90722968D01*
X146387000Y-90722700D01*
X148712000Y-90722700D01*
X148713732Y-90723700D01*
G37*
G36*
X138068732Y-90723700D02*
G01*
X138069000Y-90724700D01*
X138069000Y-90894700D01*
X138068000Y-90896432D01*
X138067000Y-90896700D01*
X135742000Y-90896700D01*
X135740268Y-90895700D01*
X135740000Y-90894700D01*
X135740000Y-90724700D01*
X135741000Y-90722968D01*
X135742000Y-90722700D01*
X138067000Y-90722700D01*
X138068732Y-90723700D01*
G37*
G36*
X178019165Y-90209374D02*
G01*
X178020000Y-90211000D01*
X178020000Y-90267359D01*
X178019990Y-90267555D01*
X178015842Y-90309670D01*
X178015766Y-90310055D01*
X178005272Y-90344648D01*
X178005122Y-90345010D01*
X177988086Y-90376883D01*
X177987868Y-90377209D01*
X177964932Y-90405155D01*
X177964655Y-90405432D01*
X177936713Y-90428365D01*
X177936387Y-90428583D01*
X177922637Y-90435932D01*
X177902510Y-90449381D01*
X177885463Y-90466428D01*
X177872068Y-90486475D01*
X177862842Y-90508749D01*
X177858137Y-90532399D01*
X177858137Y-90556505D01*
X177862841Y-90580156D01*
X177872067Y-90602430D01*
X177885462Y-90622477D01*
X177902509Y-90639524D01*
X177922637Y-90652973D01*
X177959383Y-90672614D01*
X177959709Y-90672832D01*
X177987655Y-90695768D01*
X177987932Y-90696045D01*
X178010868Y-90723991D01*
X178011086Y-90724317D01*
X178028122Y-90756190D01*
X178028272Y-90756552D01*
X178038766Y-90791145D01*
X178038842Y-90791530D01*
X178042990Y-90833645D01*
X178043000Y-90833841D01*
X178043000Y-90890200D01*
X178042000Y-90891932D01*
X178040000Y-90891932D01*
X178039010Y-90890396D01*
X178034274Y-90842310D01*
X178020303Y-90796255D01*
X177997618Y-90753812D01*
X177967088Y-90716612D01*
X177929888Y-90686082D01*
X177887445Y-90663397D01*
X177841390Y-90649426D01*
X177793406Y-90644700D01*
X177298594Y-90644700D01*
X177250610Y-90649426D01*
X177204555Y-90663397D01*
X177162112Y-90686082D01*
X177124912Y-90716612D01*
X177094382Y-90753812D01*
X177071697Y-90796255D01*
X177062914Y-90825209D01*
X177061454Y-90826576D01*
X177059086Y-90825209D01*
X177050303Y-90796255D01*
X177027618Y-90753812D01*
X176997088Y-90716612D01*
X176959888Y-90686082D01*
X176917445Y-90663397D01*
X176871390Y-90649426D01*
X176823406Y-90644700D01*
X176328594Y-90644700D01*
X176280610Y-90649426D01*
X176234555Y-90663397D01*
X176192112Y-90686082D01*
X176154912Y-90716612D01*
X176124382Y-90753812D01*
X176101697Y-90796255D01*
X176087726Y-90842310D01*
X176082990Y-90890396D01*
X176081825Y-90892022D01*
X176079835Y-90891826D01*
X176079000Y-90890200D01*
X176079000Y-90833841D01*
X176079010Y-90833645D01*
X176083158Y-90791530D01*
X176083234Y-90791145D01*
X176093728Y-90756552D01*
X176093878Y-90756190D01*
X176110914Y-90724317D01*
X176111132Y-90723991D01*
X176134068Y-90696045D01*
X176134345Y-90695768D01*
X176162287Y-90672835D01*
X176162613Y-90672617D01*
X176176363Y-90665268D01*
X176196490Y-90651819D01*
X176213537Y-90634772D01*
X176226932Y-90614725D01*
X176236158Y-90592451D01*
X176240863Y-90568801D01*
X176240863Y-90544695D01*
X176238418Y-90532399D01*
X176888137Y-90532399D01*
X176888137Y-90556505D01*
X176892841Y-90580156D01*
X176902067Y-90602430D01*
X176915462Y-90622477D01*
X176932509Y-90639524D01*
X176952637Y-90652973D01*
X176997070Y-90676723D01*
X176997238Y-90676824D01*
X177003011Y-90680682D01*
X177025287Y-90689912D01*
X177048935Y-90694618D01*
X177073041Y-90694620D01*
X177096692Y-90689918D01*
X177118967Y-90680694D01*
X177124742Y-90676836D01*
X177124910Y-90676735D01*
X177146363Y-90665268D01*
X177166490Y-90651819D01*
X177183537Y-90634772D01*
X177196932Y-90614725D01*
X177206158Y-90592451D01*
X177210863Y-90568801D01*
X177210863Y-90544695D01*
X177206159Y-90521044D01*
X177196933Y-90498770D01*
X177183538Y-90478723D01*
X177166491Y-90461676D01*
X177146363Y-90448227D01*
X177101930Y-90424477D01*
X177101762Y-90424376D01*
X177095989Y-90420518D01*
X177073713Y-90411288D01*
X177050065Y-90406582D01*
X177025959Y-90406580D01*
X177002308Y-90411282D01*
X176980033Y-90420506D01*
X176974258Y-90424364D01*
X176974090Y-90424465D01*
X176952637Y-90435932D01*
X176932510Y-90449381D01*
X176915463Y-90466428D01*
X176902068Y-90486475D01*
X176892842Y-90508749D01*
X176888137Y-90532399D01*
X176238418Y-90532399D01*
X176236159Y-90521044D01*
X176226933Y-90498770D01*
X176213538Y-90478723D01*
X176196491Y-90461676D01*
X176176363Y-90448227D01*
X176139617Y-90428586D01*
X176139291Y-90428368D01*
X176111345Y-90405432D01*
X176111068Y-90405155D01*
X176088132Y-90377209D01*
X176087914Y-90376883D01*
X176070878Y-90345010D01*
X176070728Y-90344648D01*
X176060234Y-90310055D01*
X176060158Y-90309670D01*
X176056010Y-90267555D01*
X176056000Y-90267359D01*
X176056000Y-90211000D01*
X176057000Y-90209268D01*
X176059000Y-90209268D01*
X176059990Y-90210804D01*
X176064726Y-90258890D01*
X176078697Y-90304945D01*
X176101382Y-90347388D01*
X176131912Y-90384588D01*
X176169112Y-90415118D01*
X176211555Y-90437803D01*
X176257610Y-90451774D01*
X176305594Y-90456500D01*
X176800406Y-90456500D01*
X176848390Y-90451774D01*
X176894445Y-90437803D01*
X176936888Y-90415118D01*
X176974088Y-90384588D01*
X177004618Y-90347388D01*
X177027303Y-90304945D01*
X177036086Y-90275991D01*
X177037546Y-90274624D01*
X177039914Y-90275991D01*
X177048697Y-90304945D01*
X177071382Y-90347388D01*
X177101912Y-90384588D01*
X177139112Y-90415118D01*
X177181555Y-90437803D01*
X177227610Y-90451774D01*
X177275594Y-90456500D01*
X177770406Y-90456500D01*
X177818390Y-90451774D01*
X177864445Y-90437803D01*
X177906888Y-90415118D01*
X177944088Y-90384588D01*
X177974618Y-90347388D01*
X177997303Y-90304945D01*
X178011274Y-90258890D01*
X178016010Y-90210804D01*
X178017175Y-90209178D01*
X178019165Y-90209374D01*
G37*
G36*
X129844055Y-90435010D02*
G01*
X129886170Y-90439158D01*
X129886555Y-90439234D01*
X129921148Y-90449728D01*
X129921510Y-90449878D01*
X129961070Y-90471023D01*
X129961238Y-90471124D01*
X129967011Y-90474982D01*
X129989287Y-90484212D01*
X130012935Y-90488918D01*
X130037041Y-90488920D01*
X130060692Y-90484218D01*
X130082967Y-90474994D01*
X130088750Y-90471131D01*
X130088918Y-90471030D01*
X130128490Y-90449878D01*
X130128852Y-90449728D01*
X130163445Y-90439234D01*
X130163830Y-90439158D01*
X130205945Y-90435010D01*
X130206141Y-90435000D01*
X130262500Y-90435000D01*
X130264232Y-90436000D01*
X130264232Y-90438000D01*
X130262696Y-90438990D01*
X130214610Y-90443726D01*
X130168555Y-90457697D01*
X130126112Y-90480382D01*
X130088912Y-90510912D01*
X130058382Y-90548112D01*
X130035697Y-90590555D01*
X130026914Y-90619509D01*
X130025454Y-90620876D01*
X130023086Y-90619509D01*
X130014303Y-90590555D01*
X129991618Y-90548112D01*
X129961088Y-90510912D01*
X129923888Y-90480382D01*
X129881445Y-90457697D01*
X129835390Y-90443726D01*
X129787304Y-90438990D01*
X129785678Y-90437825D01*
X129785874Y-90435835D01*
X129787500Y-90435000D01*
X129843859Y-90435000D01*
X129844055Y-90435010D01*
G37*
G36*
X138068732Y-89453700D02*
G01*
X138069000Y-89454700D01*
X138069000Y-89624700D01*
X138068000Y-89626432D01*
X138067000Y-89626700D01*
X135742000Y-89626700D01*
X135740268Y-89625700D01*
X135740000Y-89624700D01*
X135740000Y-89454700D01*
X135741000Y-89452968D01*
X135742000Y-89452700D01*
X138067000Y-89452700D01*
X138068732Y-89453700D01*
G37*
G36*
X148713732Y-89453700D02*
G01*
X148714000Y-89454700D01*
X148714000Y-89624700D01*
X148713000Y-89626432D01*
X148712000Y-89626700D01*
X146387000Y-89626700D01*
X146385268Y-89625700D01*
X146385000Y-89624700D01*
X146385000Y-89454700D01*
X146386000Y-89452968D01*
X146387000Y-89452700D01*
X148712000Y-89452700D01*
X148713732Y-89453700D01*
G37*
G36*
X176857055Y-89416510D02*
G01*
X176899170Y-89420658D01*
X176899555Y-89420734D01*
X176934148Y-89431228D01*
X176934510Y-89431378D01*
X176974070Y-89452523D01*
X176974238Y-89452624D01*
X176980011Y-89456482D01*
X177002287Y-89465712D01*
X177025935Y-89470418D01*
X177050041Y-89470420D01*
X177073692Y-89465718D01*
X177095967Y-89456494D01*
X177101750Y-89452631D01*
X177101918Y-89452530D01*
X177141490Y-89431378D01*
X177141852Y-89431228D01*
X177176445Y-89420734D01*
X177176830Y-89420658D01*
X177218945Y-89416510D01*
X177219141Y-89416500D01*
X177275500Y-89416500D01*
X177277232Y-89417500D01*
X177277232Y-89419500D01*
X177275696Y-89420490D01*
X177227610Y-89425226D01*
X177181555Y-89439197D01*
X177139112Y-89461882D01*
X177101912Y-89492412D01*
X177071382Y-89529612D01*
X177048697Y-89572055D01*
X177039914Y-89601009D01*
X177038454Y-89602376D01*
X177036086Y-89601009D01*
X177027303Y-89572055D01*
X177004618Y-89529612D01*
X176974088Y-89492412D01*
X176936888Y-89461882D01*
X176894445Y-89439197D01*
X176848390Y-89425226D01*
X176800304Y-89420490D01*
X176798678Y-89419325D01*
X176798874Y-89417335D01*
X176800500Y-89416500D01*
X176856859Y-89416500D01*
X176857055Y-89416510D01*
G37*
G36*
X181129055Y-89406310D02*
G01*
X181171170Y-89410458D01*
X181171555Y-89410534D01*
X181206148Y-89421028D01*
X181206510Y-89421178D01*
X181246070Y-89442323D01*
X181246238Y-89442424D01*
X181252011Y-89446282D01*
X181274287Y-89455512D01*
X181297935Y-89460218D01*
X181322041Y-89460220D01*
X181345692Y-89455518D01*
X181367967Y-89446294D01*
X181373750Y-89442431D01*
X181373918Y-89442330D01*
X181413490Y-89421178D01*
X181413852Y-89421028D01*
X181448445Y-89410534D01*
X181448830Y-89410458D01*
X181490945Y-89406310D01*
X181491141Y-89406300D01*
X181547500Y-89406300D01*
X181549232Y-89407300D01*
X181549232Y-89409300D01*
X181547696Y-89410290D01*
X181499610Y-89415026D01*
X181453555Y-89428997D01*
X181411112Y-89451682D01*
X181373912Y-89482212D01*
X181343382Y-89519412D01*
X181320697Y-89561855D01*
X181311914Y-89590809D01*
X181310454Y-89592176D01*
X181308086Y-89590809D01*
X181299303Y-89561855D01*
X181276618Y-89519412D01*
X181246088Y-89482212D01*
X181208888Y-89451682D01*
X181166445Y-89428997D01*
X181120390Y-89415026D01*
X181072304Y-89410290D01*
X181070678Y-89409125D01*
X181070874Y-89407135D01*
X181072500Y-89406300D01*
X181128859Y-89406300D01*
X181129055Y-89406310D01*
G37*
G36*
X148713732Y-88183700D02*
G01*
X148714000Y-88184700D01*
X148714000Y-88354700D01*
X148713000Y-88356432D01*
X148712000Y-88356700D01*
X146387000Y-88356700D01*
X146385268Y-88355700D01*
X146385000Y-88354700D01*
X146385000Y-88184700D01*
X146386000Y-88182968D01*
X146387000Y-88182700D01*
X148712000Y-88182700D01*
X148713732Y-88183700D01*
G37*
G36*
X138068732Y-88183700D02*
G01*
X138069000Y-88184700D01*
X138069000Y-88354700D01*
X138068000Y-88356432D01*
X138067000Y-88356700D01*
X135742000Y-88356700D01*
X135740268Y-88355700D01*
X135740000Y-88354700D01*
X135740000Y-88184700D01*
X135741000Y-88182968D01*
X135742000Y-88182700D01*
X138067000Y-88182700D01*
X138068732Y-88183700D01*
G37*
G36*
X138068732Y-86913700D02*
G01*
X138069000Y-86914700D01*
X138069000Y-87084700D01*
X138068000Y-87086432D01*
X138067000Y-87086700D01*
X135742000Y-87086700D01*
X135740268Y-87085700D01*
X135740000Y-87084700D01*
X135740000Y-86914700D01*
X135741000Y-86912968D01*
X135742000Y-86912700D01*
X138067000Y-86912700D01*
X138068732Y-86913700D01*
G37*
G36*
X148713732Y-86913700D02*
G01*
X148714000Y-86914700D01*
X148714000Y-87084700D01*
X148713000Y-87086432D01*
X148712000Y-87086700D01*
X146387000Y-87086700D01*
X146385268Y-87085700D01*
X146385000Y-87084700D01*
X146385000Y-86914700D01*
X146386000Y-86912968D01*
X146387000Y-86912700D01*
X148712000Y-86912700D01*
X148713732Y-86913700D01*
G37*
G36*
X148713732Y-85643700D02*
G01*
X148714000Y-85644700D01*
X148714000Y-85814700D01*
X148713000Y-85816432D01*
X148712000Y-85816700D01*
X146387000Y-85816700D01*
X146385268Y-85815700D01*
X146385000Y-85814700D01*
X146385000Y-85644700D01*
X146386000Y-85642968D01*
X146387000Y-85642700D01*
X148712000Y-85642700D01*
X148713732Y-85643700D01*
G37*
G36*
X138068732Y-85643700D02*
G01*
X138069000Y-85644700D01*
X138069000Y-85814700D01*
X138068000Y-85816432D01*
X138067000Y-85816700D01*
X135742000Y-85816700D01*
X135740268Y-85815700D01*
X135740000Y-85814700D01*
X135740000Y-85644700D01*
X135741000Y-85642968D01*
X135742000Y-85642700D01*
X138067000Y-85642700D01*
X138068732Y-85643700D01*
G37*
G36*
X145488732Y-82418700D02*
G01*
X145489000Y-82419700D01*
X145489000Y-84744700D01*
X145488000Y-84746432D01*
X145487000Y-84746700D01*
X138192093Y-84746700D01*
X138168008Y-84749072D01*
X138144933Y-84756072D01*
X138123669Y-84767437D01*
X138105032Y-84782732D01*
X138089737Y-84801369D01*
X138078372Y-84822633D01*
X138071372Y-84845708D01*
X138068990Y-84869895D01*
X138067825Y-84871521D01*
X138065835Y-84871325D01*
X138065000Y-84869699D01*
X138065000Y-84744700D01*
X138066000Y-84742968D01*
X138067000Y-84742700D01*
X138965000Y-84742700D01*
X138965000Y-82421700D01*
X139139000Y-82421700D01*
X139139000Y-84742700D01*
X140235000Y-84742700D01*
X140235000Y-82421700D01*
X140409000Y-82421700D01*
X140409000Y-84742700D01*
X141505000Y-84742700D01*
X141505000Y-82421700D01*
X141679000Y-82421700D01*
X141679000Y-84742700D01*
X142775000Y-84742700D01*
X142775000Y-82421700D01*
X142949000Y-82421700D01*
X142949000Y-84742700D01*
X144045000Y-84742700D01*
X144045000Y-82421700D01*
X144219000Y-82421700D01*
X144219000Y-84742700D01*
X145315000Y-84742700D01*
X145315000Y-82421700D01*
X144219000Y-82421700D01*
X144045000Y-82421700D01*
X142949000Y-82421700D01*
X142775000Y-82421700D01*
X141679000Y-82421700D01*
X141505000Y-82421700D01*
X140409000Y-82421700D01*
X140235000Y-82421700D01*
X139139000Y-82421700D01*
X138965000Y-82421700D01*
X138965000Y-82419700D01*
X138966000Y-82417968D01*
X138967000Y-82417700D01*
X145487000Y-82417700D01*
X145488732Y-82418700D01*
G37*
G36*
X181464914Y-83044591D02*
G01*
X181473697Y-83073545D01*
X181496382Y-83115988D01*
X181526912Y-83153188D01*
X181564112Y-83183718D01*
X181606555Y-83206403D01*
X181652610Y-83220374D01*
X181700696Y-83225110D01*
X181702322Y-83226275D01*
X181702126Y-83228265D01*
X181700500Y-83229100D01*
X181644141Y-83229100D01*
X181643945Y-83229090D01*
X181601830Y-83224942D01*
X181601445Y-83224866D01*
X181566852Y-83214372D01*
X181566490Y-83214222D01*
X181526930Y-83193077D01*
X181526762Y-83192976D01*
X181520989Y-83189118D01*
X181498713Y-83179888D01*
X181475065Y-83175182D01*
X181450959Y-83175180D01*
X181427308Y-83179882D01*
X181405033Y-83189106D01*
X181399250Y-83192969D01*
X181399082Y-83193070D01*
X181359510Y-83214222D01*
X181359148Y-83214372D01*
X181324555Y-83224866D01*
X181324170Y-83224942D01*
X181282055Y-83229090D01*
X181281859Y-83229100D01*
X181225500Y-83229100D01*
X181223768Y-83228100D01*
X181223768Y-83226100D01*
X181225304Y-83225110D01*
X181273390Y-83220374D01*
X181319445Y-83206403D01*
X181361888Y-83183718D01*
X181399088Y-83153188D01*
X181429618Y-83115988D01*
X181452303Y-83073545D01*
X181461086Y-83044591D01*
X181462546Y-83043224D01*
X181464914Y-83044591D01*
G37*
G36*
X181282055Y-82185110D02*
G01*
X181324170Y-82189258D01*
X181324555Y-82189334D01*
X181359148Y-82199828D01*
X181359510Y-82199978D01*
X181399070Y-82221123D01*
X181399238Y-82221224D01*
X181405011Y-82225082D01*
X181427287Y-82234312D01*
X181450935Y-82239018D01*
X181475041Y-82239020D01*
X181498692Y-82234318D01*
X181520967Y-82225094D01*
X181526750Y-82221231D01*
X181526918Y-82221130D01*
X181566490Y-82199978D01*
X181566852Y-82199828D01*
X181601445Y-82189334D01*
X181601830Y-82189258D01*
X181643945Y-82185110D01*
X181644141Y-82185100D01*
X181700500Y-82185100D01*
X181702232Y-82186100D01*
X181702232Y-82188100D01*
X181700696Y-82189090D01*
X181652610Y-82193826D01*
X181606555Y-82207797D01*
X181564112Y-82230482D01*
X181526912Y-82261012D01*
X181496382Y-82298212D01*
X181473697Y-82340655D01*
X181464914Y-82369609D01*
X181463454Y-82370976D01*
X181461086Y-82369609D01*
X181452303Y-82340655D01*
X181429618Y-82298212D01*
X181399088Y-82261012D01*
X181361888Y-82230482D01*
X181319445Y-82207797D01*
X181273390Y-82193826D01*
X181225304Y-82189090D01*
X181223678Y-82187925D01*
X181223874Y-82185935D01*
X181225500Y-82185100D01*
X181281859Y-82185100D01*
X181282055Y-82185110D01*
G37*
G36*
X143983914Y-81175091D02*
G01*
X143992697Y-81204045D01*
X144015382Y-81246488D01*
X144045912Y-81283688D01*
X144083112Y-81314218D01*
X144125555Y-81336903D01*
X144171610Y-81350874D01*
X144219696Y-81355610D01*
X144221322Y-81356775D01*
X144221126Y-81358765D01*
X144219500Y-81359600D01*
X144163141Y-81359600D01*
X144162945Y-81359590D01*
X144120830Y-81355442D01*
X144120445Y-81355366D01*
X144085852Y-81344872D01*
X144085490Y-81344722D01*
X144045930Y-81323577D01*
X144045762Y-81323476D01*
X144039989Y-81319618D01*
X144017713Y-81310388D01*
X143994065Y-81305682D01*
X143969959Y-81305680D01*
X143946308Y-81310382D01*
X143924033Y-81319606D01*
X143918250Y-81323469D01*
X143918082Y-81323570D01*
X143878510Y-81344722D01*
X143878148Y-81344872D01*
X143843555Y-81355366D01*
X143843170Y-81355442D01*
X143801055Y-81359590D01*
X143800859Y-81359600D01*
X143744500Y-81359600D01*
X143742768Y-81358600D01*
X143742768Y-81356600D01*
X143744304Y-81355610D01*
X143792390Y-81350874D01*
X143838445Y-81336903D01*
X143880888Y-81314218D01*
X143918088Y-81283688D01*
X143948618Y-81246488D01*
X143971303Y-81204045D01*
X143980086Y-81175091D01*
X143981546Y-81173724D01*
X143983914Y-81175091D01*
G37*
G36*
X166089914Y-80860191D02*
G01*
X166098697Y-80889145D01*
X166121382Y-80931588D01*
X166151912Y-80968788D01*
X166189112Y-80999318D01*
X166231555Y-81022003D01*
X166277610Y-81035974D01*
X166325696Y-81040710D01*
X166327322Y-81041875D01*
X166327126Y-81043865D01*
X166325500Y-81044700D01*
X166269141Y-81044700D01*
X166268945Y-81044690D01*
X166226830Y-81040542D01*
X166226445Y-81040466D01*
X166191852Y-81029972D01*
X166191490Y-81029822D01*
X166151930Y-81008677D01*
X166151762Y-81008576D01*
X166145989Y-81004718D01*
X166123713Y-80995488D01*
X166100065Y-80990782D01*
X166075959Y-80990780D01*
X166052308Y-80995482D01*
X166030033Y-81004706D01*
X166024250Y-81008569D01*
X166024082Y-81008670D01*
X165984510Y-81029822D01*
X165984148Y-81029972D01*
X165949555Y-81040466D01*
X165949170Y-81040542D01*
X165907055Y-81044690D01*
X165906859Y-81044700D01*
X165850500Y-81044700D01*
X165848768Y-81043700D01*
X165848768Y-81041700D01*
X165850304Y-81040710D01*
X165898390Y-81035974D01*
X165944445Y-81022003D01*
X165986888Y-80999318D01*
X166024088Y-80968788D01*
X166054618Y-80931588D01*
X166077303Y-80889145D01*
X166086086Y-80860191D01*
X166087546Y-80858824D01*
X166089914Y-80860191D01*
G37*
G36*
X143801055Y-80315610D02*
G01*
X143843170Y-80319758D01*
X143843555Y-80319834D01*
X143878148Y-80330328D01*
X143878510Y-80330478D01*
X143918070Y-80351623D01*
X143918238Y-80351724D01*
X143924011Y-80355582D01*
X143946287Y-80364812D01*
X143969935Y-80369518D01*
X143994041Y-80369520D01*
X144017692Y-80364818D01*
X144039967Y-80355594D01*
X144045750Y-80351731D01*
X144045918Y-80351630D01*
X144085490Y-80330478D01*
X144085852Y-80330328D01*
X144120445Y-80319834D01*
X144120830Y-80319758D01*
X144162945Y-80315610D01*
X144163141Y-80315600D01*
X144219500Y-80315600D01*
X144221232Y-80316600D01*
X144221232Y-80318600D01*
X144219696Y-80319590D01*
X144171610Y-80324326D01*
X144125555Y-80338297D01*
X144083112Y-80360982D01*
X144045912Y-80391512D01*
X144015382Y-80428712D01*
X143992697Y-80471155D01*
X143983914Y-80500109D01*
X143982454Y-80501476D01*
X143980086Y-80500109D01*
X143971303Y-80471155D01*
X143948618Y-80428712D01*
X143918088Y-80391512D01*
X143880888Y-80360982D01*
X143838445Y-80338297D01*
X143792390Y-80324326D01*
X143744304Y-80319590D01*
X143742678Y-80318425D01*
X143742874Y-80316435D01*
X143744500Y-80315600D01*
X143800859Y-80315600D01*
X143801055Y-80315610D01*
G37*
G36*
X165907055Y-80000710D02*
G01*
X165949170Y-80004858D01*
X165949555Y-80004934D01*
X165984148Y-80015428D01*
X165984510Y-80015578D01*
X166024070Y-80036723D01*
X166024238Y-80036824D01*
X166030011Y-80040682D01*
X166052287Y-80049912D01*
X166075935Y-80054618D01*
X166100041Y-80054620D01*
X166123692Y-80049918D01*
X166145967Y-80040694D01*
X166151750Y-80036831D01*
X166151918Y-80036730D01*
X166191490Y-80015578D01*
X166191852Y-80015428D01*
X166226445Y-80004934D01*
X166226830Y-80004858D01*
X166268945Y-80000710D01*
X166269141Y-80000700D01*
X166325500Y-80000700D01*
X166327232Y-80001700D01*
X166327232Y-80003700D01*
X166325696Y-80004690D01*
X166277610Y-80009426D01*
X166231555Y-80023397D01*
X166189112Y-80046082D01*
X166151912Y-80076612D01*
X166121382Y-80113812D01*
X166098697Y-80156255D01*
X166089914Y-80185209D01*
X166088454Y-80186576D01*
X166086086Y-80185209D01*
X166077303Y-80156255D01*
X166054618Y-80113812D01*
X166024088Y-80076612D01*
X165986888Y-80046082D01*
X165944445Y-80023397D01*
X165898390Y-80009426D01*
X165850304Y-80004690D01*
X165848678Y-80003525D01*
X165848874Y-80001535D01*
X165850500Y-80000700D01*
X165906859Y-80000700D01*
X165907055Y-80000710D01*
G37*
G36*
X118097332Y-75838800D02*
G01*
X118097600Y-75839800D01*
X118097600Y-75985200D01*
X118096600Y-75986932D01*
X118095600Y-75987200D01*
X115345600Y-75987200D01*
X115343868Y-75986200D01*
X115343600Y-75985200D01*
X115343600Y-75839800D01*
X115344600Y-75838068D01*
X115345600Y-75837800D01*
X118095600Y-75837800D01*
X118097332Y-75838800D01*
G37*
G36*
X118097332Y-75188800D02*
G01*
X118097600Y-75189800D01*
X118097600Y-75339800D01*
X118096600Y-75341532D01*
X118095600Y-75341800D01*
X115345600Y-75341800D01*
X115343868Y-75340800D01*
X115343600Y-75339800D01*
X115343600Y-75189800D01*
X115344600Y-75188068D01*
X115345600Y-75187800D01*
X118095600Y-75187800D01*
X118097332Y-75188800D01*
G37*
G36*
X118097332Y-74538800D02*
G01*
X118097600Y-74539800D01*
X118097600Y-74689800D01*
X118096600Y-74691532D01*
X118095600Y-74691800D01*
X115345600Y-74691800D01*
X115343868Y-74690800D01*
X115343600Y-74689800D01*
X115343600Y-74539800D01*
X115344600Y-74538068D01*
X115345600Y-74537800D01*
X118095600Y-74537800D01*
X118097332Y-74538800D01*
G37*
G36*
X118097332Y-73888800D02*
G01*
X118097600Y-73889800D01*
X118097600Y-74039800D01*
X118096600Y-74041532D01*
X118095600Y-74041800D01*
X115345600Y-74041800D01*
X115343868Y-74040800D01*
X115343600Y-74039800D01*
X115343600Y-73889800D01*
X115344600Y-73888068D01*
X115345600Y-73887800D01*
X118095600Y-73887800D01*
X118097332Y-73888800D01*
G37*
M02*
