M48
; DRILL file {KiCad (5.1.8)-1} date 04/15/21 18:07:32
; FORMAT={-:-/ absolute / inch / decimal}
; #@! TF.CreationDate,2021-04-15T18:07:32+02:00
; #@! TF.GenerationSoftware,Kicad,Pcbnew,(5.1.8)-1
; #@! TF.FileFunction,Plated,1,2,PTH
FMAT,2
INCH
T1C0.0157
T2C0.0197
T3C0.0236
T4C0.0354
T5C0.0394
T6C0.0394
T7C0.1260
%
G90
G05
T1
X4.6742Y-3.3971
X4.8081Y-3.8731
X4.9469Y-3.1569
X4.9823Y-4.7667
X4.9856Y-4.3452
X4.9929Y-3.2526
X4.9991Y-4.8716
X5.0005Y-3.3269
X5.0014Y-4.4427
X5.0494Y-4.7865
X5.0531Y-3.2359
X5.0568Y-4.1683
X5.0797Y-4.0678
X5.0843Y-4.0144
X5.1391Y-4.9002
X5.1421Y-4.6404
X5.1444Y-3.5335
X5.1466Y-3.0878
X5.2287Y-4.7105
X5.2391Y-4.5916
X5.2928Y-4.8287
X5.3061Y-3.832
X5.3186Y-3.2085
X5.324Y-3.9557
X5.338Y-3.8223
X5.3634Y-3.8741
X5.3684Y-3.2466
X5.3856Y-3.9615
X5.4104Y-4.8963
X5.4501Y-3.6002
X5.4557Y-3.9446
X5.4589Y-3.1967
X5.4707Y-4.8714
X5.4836Y-3.1759
X5.4955Y-3.3596
X5.5016Y-3.9167
X5.5213Y-3.4121
X5.5529Y-3.7986
X5.5547Y-4.7614
X5.5598Y-4.3848
X5.5686Y-3.9037
X5.5817Y-4.3591
X5.5927Y-3.4102
X5.6123Y-3.1033
X5.6247Y-4.4467
X5.6264Y-3.3855
X5.6539Y-4.8972
X5.6679Y-4.4832
X5.7341Y-3.48
X5.7429Y-4.4825
X5.7489Y-3.3667
X5.7497Y-3.5177
X5.7502Y-3.4511
X5.7513Y-3.6451
X5.7514Y-3.5947
X5.7801Y-4.8978
X5.7831Y-3.2545
X5.8133Y-4.2351
X5.8155Y-4.4433
X5.8181Y-3.8306
X5.8492Y-4.8939
X5.8514Y-4.3721
X5.8519Y-4.4036
X5.8538Y-4.3406
X5.8604Y-3.2795
X5.8646Y-4.2753
X5.8657Y-3.7524
X5.8667Y-3.6092
X5.8691Y-3.3429
X5.8699Y-4.8631
X5.9062Y-3.8534
X5.9076Y-4.8967
X5.9081Y-3.4306
X5.9152Y-3.6329
X5.9243Y-3.4816
X5.9341Y-3.8277
X5.9385Y-3.7428
X5.9399Y-4.8371
X5.9478Y-3.164
X5.9536Y-3.9356
X5.9767Y-3.6938
X5.9892Y-3.7799
X6.0055Y-3.6499
X6.0055Y-4.8975
X6.0395Y-3.1372
X6.055Y-3.7009
X6.0919Y-3.932
X6.1166Y-3.8177
X6.1332Y-3.5928
X6.1349Y-4.8943
X6.1508Y-3.1247
X6.1976Y-4.5705
X6.2222Y-4.5133
X6.2238Y-4.6965
X6.2301Y-3.2709
X6.2386Y-4.1324
X6.2424Y-4.912
X6.2485Y-4.6067
X6.2708Y-3.0802
X6.2922Y-3.8746
X6.2935Y-4.8989
X6.2968Y-3.1029
X6.3387Y-4.8041
X6.3585Y-3.3731
X6.3639Y-4.297
X6.371Y-4.5798
X6.392Y-4.2803
X6.3922Y-3.3726
X6.398Y-3.4628
X6.419Y-3.3917
X6.4429Y-4.5619
X6.455Y-3.3848
X6.4919Y-3.5801
X6.4969Y-3.0917
X6.5077Y-4.7759
X6.5122Y-4.2137
X6.5122Y-4.5802
X6.5124Y-4.8918
X6.523Y-3.9709
X6.5294Y-3.4341
X6.5407Y-3.516
X6.558Y-3.2748
X6.5584Y-4.1706
X6.5861Y-3.1133
X6.6042Y-4.8995
X6.6465Y-4.4163
X6.6708Y-3.3745
X6.671Y-4.3647
X6.7279Y-3.1079
X6.7354Y-4.9039
X6.7646Y-3.2577
X6.7804Y-3.3903
X6.8178Y-3.128
X6.8566Y-4.855
X6.883Y-3.1524
X6.9069Y-3.505
X6.9516Y-3.9123
X6.9617Y-3.1172
X6.9704Y-3.5103
X6.9848Y-4.8673
X6.9868Y-3.3487
X7.014Y-3.6175
X7.019Y-4.8976
X7.021Y-3.1031
X7.0543Y-3.7437
X7.0544Y-4.6665
X7.0693Y-3.4691
X7.087Y-4.9223
X7.0917Y-3.0874
X7.1124Y-4.7413
X7.117Y-3.1159
X7.1499Y-3.6846
X7.1632Y-3.9736
X7.1785Y-3.6195
X7.2142Y-4.915
X7.2193Y-4.8725
X7.2249Y-3.1373
X7.2439Y-3.0915
X7.2937Y-4.7437
X7.3531Y-3.2732
X7.4004Y-4.9033
X7.417Y-3.2236
X7.4695Y-3.24
T4
X4.6238Y-3.6011
X4.6238Y-3.7102
X4.6238Y-3.8192
X4.6238Y-3.9283
X4.7238Y-3.5466
X4.7238Y-3.6556
X4.7238Y-3.7647
X4.7238Y-3.8738
X4.7238Y-3.9828
T5
X6.0023Y-3.294
X6.0023Y-3.394
X5.6411Y-3.9077
X5.6411Y-4.0077
X5.7411Y-3.9077
X5.7411Y-4.0077
X5.8411Y-3.9077
X5.8411Y-4.0077
X4.5234Y-4.5026
X4.5234Y-4.6026
X4.5234Y-4.7026
T6
X7.3459Y-3.1676
X7.3459Y-3.4236
X7.5231Y-3.1676
X7.5231Y-3.4236
X5.0632Y-3.1742
X5.0632Y-3.4302
X5.2404Y-3.1742
X5.2404Y-3.4302
T7
X4.6738Y-3.2728
X4.6738Y-4.2566
T2
G00X4.4751Y-2.8096
M15
G01X4.4475Y-2.8096
M16
G05
G00X4.4751Y-3.0911
M15
G01X4.4475Y-3.0911
M16
G05
T3
G00X4.5735Y-2.8549
M15
G01X4.5656Y-2.8549
M16
G05
G00X4.5735Y-3.0459
M15
G01X4.5656Y-3.0459
M16
G05
T0
M30
