G04 #@! TF.GenerationSoftware,KiCad,Pcbnew,(5.1.8)-1*
G04 #@! TF.CreationDate,2021-04-15T18:07:30+02:00*
G04 #@! TF.ProjectId,ZX Dandanator Mini 2.1b,5a582044-616e-4646-916e-61746f72204d,rev?*
G04 #@! TF.SameCoordinates,Original*
G04 #@! TF.FileFunction,Paste,Top*
G04 #@! TF.FilePolarity,Positive*
%FSLAX46Y46*%
G04 Gerber Fmt 4.6, Leading zero omitted, Abs format (unit mm)*
G04 Created by KiCad (PCBNEW (5.1.8)-1) date 2021-04-15 18:07:30*
%MOMM*%
%LPD*%
G01*
G04 APERTURE LIST*
%ADD10R,3.500000X2.400000*%
%ADD11R,2.650000X0.400000*%
%ADD12R,2.000000X1.500000*%
%ADD13R,2.000000X3.800000*%
%ADD14R,1.600000X1.300000*%
%ADD15R,1.600000X0.700000*%
%ADD16R,1.400000X1.200000*%
%ADD17R,1.400000X1.600000*%
%ADD18R,2.200000X1.200000*%
%ADD19R,1.300000X1.700000*%
%ADD20R,0.450000X1.750000*%
%ADD21R,1.925000X0.700000*%
%ADD22R,0.700000X1.925000*%
G04 APERTURE END LIST*
G36*
G01*
X146482500Y-109859000D02*
X146067500Y-109859000D01*
G75*
G02*
X145860000Y-109651500I0J207500D01*
G01*
X145860000Y-109236500D01*
G75*
G02*
X146067500Y-109029000I207500J0D01*
G01*
X146482500Y-109029000D01*
G75*
G02*
X146690000Y-109236500I0J-207500D01*
G01*
X146690000Y-109651500D01*
G75*
G02*
X146482500Y-109859000I-207500J0D01*
G01*
G37*
G36*
G01*
X145452500Y-109859000D02*
X145037500Y-109859000D01*
G75*
G02*
X144830000Y-109651500I0J207500D01*
G01*
X144830000Y-109236500D01*
G75*
G02*
X145037500Y-109029000I207500J0D01*
G01*
X145452500Y-109029000D01*
G75*
G02*
X145660000Y-109236500I0J-207500D01*
G01*
X145660000Y-109651500D01*
G75*
G02*
X145452500Y-109859000I-207500J0D01*
G01*
G37*
G36*
G01*
X144422500Y-109859000D02*
X144007500Y-109859000D01*
G75*
G02*
X143800000Y-109651500I0J207500D01*
G01*
X143800000Y-109236500D01*
G75*
G02*
X144007500Y-109029000I207500J0D01*
G01*
X144422500Y-109029000D01*
G75*
G02*
X144630000Y-109236500I0J-207500D01*
G01*
X144630000Y-109651500D01*
G75*
G02*
X144422500Y-109859000I-207500J0D01*
G01*
G37*
G36*
G01*
X146482500Y-110889000D02*
X146067500Y-110889000D01*
G75*
G02*
X145860000Y-110681500I0J207500D01*
G01*
X145860000Y-110266500D01*
G75*
G02*
X146067500Y-110059000I207500J0D01*
G01*
X146482500Y-110059000D01*
G75*
G02*
X146690000Y-110266500I0J-207500D01*
G01*
X146690000Y-110681500D01*
G75*
G02*
X146482500Y-110889000I-207500J0D01*
G01*
G37*
G36*
G01*
X145452500Y-110889000D02*
X145037500Y-110889000D01*
G75*
G02*
X144830000Y-110681500I0J207500D01*
G01*
X144830000Y-110266500D01*
G75*
G02*
X145037500Y-110059000I207500J0D01*
G01*
X145452500Y-110059000D01*
G75*
G02*
X145660000Y-110266500I0J-207500D01*
G01*
X145660000Y-110681500D01*
G75*
G02*
X145452500Y-110889000I-207500J0D01*
G01*
G37*
G36*
G01*
X144422500Y-110889000D02*
X144007500Y-110889000D01*
G75*
G02*
X143800000Y-110681500I0J207500D01*
G01*
X143800000Y-110266500D01*
G75*
G02*
X144007500Y-110059000I207500J0D01*
G01*
X144422500Y-110059000D01*
G75*
G02*
X144630000Y-110266500I0J-207500D01*
G01*
X144630000Y-110681500D01*
G75*
G02*
X144422500Y-110889000I-207500J0D01*
G01*
G37*
G36*
G01*
X146482500Y-111919000D02*
X146067500Y-111919000D01*
G75*
G02*
X145860000Y-111711500I0J207500D01*
G01*
X145860000Y-111296500D01*
G75*
G02*
X146067500Y-111089000I207500J0D01*
G01*
X146482500Y-111089000D01*
G75*
G02*
X146690000Y-111296500I0J-207500D01*
G01*
X146690000Y-111711500D01*
G75*
G02*
X146482500Y-111919000I-207500J0D01*
G01*
G37*
G36*
G01*
X145452500Y-111919000D02*
X145037500Y-111919000D01*
G75*
G02*
X144830000Y-111711500I0J207500D01*
G01*
X144830000Y-111296500D01*
G75*
G02*
X145037500Y-111089000I207500J0D01*
G01*
X145452500Y-111089000D01*
G75*
G02*
X145660000Y-111296500I0J-207500D01*
G01*
X145660000Y-111711500D01*
G75*
G02*
X145452500Y-111919000I-207500J0D01*
G01*
G37*
G36*
G01*
X144422500Y-111919000D02*
X144007500Y-111919000D01*
G75*
G02*
X143800000Y-111711500I0J207500D01*
G01*
X143800000Y-111296500D01*
G75*
G02*
X144007500Y-111089000I207500J0D01*
G01*
X144422500Y-111089000D01*
G75*
G02*
X144630000Y-111296500I0J-207500D01*
G01*
X144630000Y-111711500D01*
G75*
G02*
X144422500Y-111919000I-207500J0D01*
G01*
G37*
G36*
G01*
X143182500Y-112349000D02*
X142432500Y-112349000D01*
G75*
G02*
X142370000Y-112286500I0J62500D01*
G01*
X142370000Y-112161500D01*
G75*
G02*
X142432500Y-112099000I62500J0D01*
G01*
X143182500Y-112099000D01*
G75*
G02*
X143245000Y-112161500I0J-62500D01*
G01*
X143245000Y-112286500D01*
G75*
G02*
X143182500Y-112349000I-62500J0D01*
G01*
G37*
G36*
G01*
X143182500Y-111849000D02*
X142432500Y-111849000D01*
G75*
G02*
X142370000Y-111786500I0J62500D01*
G01*
X142370000Y-111661500D01*
G75*
G02*
X142432500Y-111599000I62500J0D01*
G01*
X143182500Y-111599000D01*
G75*
G02*
X143245000Y-111661500I0J-62500D01*
G01*
X143245000Y-111786500D01*
G75*
G02*
X143182500Y-111849000I-62500J0D01*
G01*
G37*
G36*
G01*
X143182500Y-111349000D02*
X142432500Y-111349000D01*
G75*
G02*
X142370000Y-111286500I0J62500D01*
G01*
X142370000Y-111161500D01*
G75*
G02*
X142432500Y-111099000I62500J0D01*
G01*
X143182500Y-111099000D01*
G75*
G02*
X143245000Y-111161500I0J-62500D01*
G01*
X143245000Y-111286500D01*
G75*
G02*
X143182500Y-111349000I-62500J0D01*
G01*
G37*
G36*
G01*
X143182500Y-110849000D02*
X142432500Y-110849000D01*
G75*
G02*
X142370000Y-110786500I0J62500D01*
G01*
X142370000Y-110661500D01*
G75*
G02*
X142432500Y-110599000I62500J0D01*
G01*
X143182500Y-110599000D01*
G75*
G02*
X143245000Y-110661500I0J-62500D01*
G01*
X143245000Y-110786500D01*
G75*
G02*
X143182500Y-110849000I-62500J0D01*
G01*
G37*
G36*
G01*
X143182500Y-110349000D02*
X142432500Y-110349000D01*
G75*
G02*
X142370000Y-110286500I0J62500D01*
G01*
X142370000Y-110161500D01*
G75*
G02*
X142432500Y-110099000I62500J0D01*
G01*
X143182500Y-110099000D01*
G75*
G02*
X143245000Y-110161500I0J-62500D01*
G01*
X143245000Y-110286500D01*
G75*
G02*
X143182500Y-110349000I-62500J0D01*
G01*
G37*
G36*
G01*
X143182500Y-109849000D02*
X142432500Y-109849000D01*
G75*
G02*
X142370000Y-109786500I0J62500D01*
G01*
X142370000Y-109661500D01*
G75*
G02*
X142432500Y-109599000I62500J0D01*
G01*
X143182500Y-109599000D01*
G75*
G02*
X143245000Y-109661500I0J-62500D01*
G01*
X143245000Y-109786500D01*
G75*
G02*
X143182500Y-109849000I-62500J0D01*
G01*
G37*
G36*
G01*
X143182500Y-109349000D02*
X142432500Y-109349000D01*
G75*
G02*
X142370000Y-109286500I0J62500D01*
G01*
X142370000Y-109161500D01*
G75*
G02*
X142432500Y-109099000I62500J0D01*
G01*
X143182500Y-109099000D01*
G75*
G02*
X143245000Y-109161500I0J-62500D01*
G01*
X143245000Y-109286500D01*
G75*
G02*
X143182500Y-109349000I-62500J0D01*
G01*
G37*
G36*
G01*
X143182500Y-108849000D02*
X142432500Y-108849000D01*
G75*
G02*
X142370000Y-108786500I0J62500D01*
G01*
X142370000Y-108661500D01*
G75*
G02*
X142432500Y-108599000I62500J0D01*
G01*
X143182500Y-108599000D01*
G75*
G02*
X143245000Y-108661500I0J-62500D01*
G01*
X143245000Y-108786500D01*
G75*
G02*
X143182500Y-108849000I-62500J0D01*
G01*
G37*
G36*
G01*
X143557500Y-108474000D02*
X143432500Y-108474000D01*
G75*
G02*
X143370000Y-108411500I0J62500D01*
G01*
X143370000Y-107661500D01*
G75*
G02*
X143432500Y-107599000I62500J0D01*
G01*
X143557500Y-107599000D01*
G75*
G02*
X143620000Y-107661500I0J-62500D01*
G01*
X143620000Y-108411500D01*
G75*
G02*
X143557500Y-108474000I-62500J0D01*
G01*
G37*
G36*
G01*
X144057500Y-108474000D02*
X143932500Y-108474000D01*
G75*
G02*
X143870000Y-108411500I0J62500D01*
G01*
X143870000Y-107661500D01*
G75*
G02*
X143932500Y-107599000I62500J0D01*
G01*
X144057500Y-107599000D01*
G75*
G02*
X144120000Y-107661500I0J-62500D01*
G01*
X144120000Y-108411500D01*
G75*
G02*
X144057500Y-108474000I-62500J0D01*
G01*
G37*
G36*
G01*
X144557500Y-108474000D02*
X144432500Y-108474000D01*
G75*
G02*
X144370000Y-108411500I0J62500D01*
G01*
X144370000Y-107661500D01*
G75*
G02*
X144432500Y-107599000I62500J0D01*
G01*
X144557500Y-107599000D01*
G75*
G02*
X144620000Y-107661500I0J-62500D01*
G01*
X144620000Y-108411500D01*
G75*
G02*
X144557500Y-108474000I-62500J0D01*
G01*
G37*
G36*
G01*
X145057500Y-108474000D02*
X144932500Y-108474000D01*
G75*
G02*
X144870000Y-108411500I0J62500D01*
G01*
X144870000Y-107661500D01*
G75*
G02*
X144932500Y-107599000I62500J0D01*
G01*
X145057500Y-107599000D01*
G75*
G02*
X145120000Y-107661500I0J-62500D01*
G01*
X145120000Y-108411500D01*
G75*
G02*
X145057500Y-108474000I-62500J0D01*
G01*
G37*
G36*
G01*
X145557500Y-108474000D02*
X145432500Y-108474000D01*
G75*
G02*
X145370000Y-108411500I0J62500D01*
G01*
X145370000Y-107661500D01*
G75*
G02*
X145432500Y-107599000I62500J0D01*
G01*
X145557500Y-107599000D01*
G75*
G02*
X145620000Y-107661500I0J-62500D01*
G01*
X145620000Y-108411500D01*
G75*
G02*
X145557500Y-108474000I-62500J0D01*
G01*
G37*
G36*
G01*
X146057500Y-108474000D02*
X145932500Y-108474000D01*
G75*
G02*
X145870000Y-108411500I0J62500D01*
G01*
X145870000Y-107661500D01*
G75*
G02*
X145932500Y-107599000I62500J0D01*
G01*
X146057500Y-107599000D01*
G75*
G02*
X146120000Y-107661500I0J-62500D01*
G01*
X146120000Y-108411500D01*
G75*
G02*
X146057500Y-108474000I-62500J0D01*
G01*
G37*
G36*
G01*
X146557500Y-108474000D02*
X146432500Y-108474000D01*
G75*
G02*
X146370000Y-108411500I0J62500D01*
G01*
X146370000Y-107661500D01*
G75*
G02*
X146432500Y-107599000I62500J0D01*
G01*
X146557500Y-107599000D01*
G75*
G02*
X146620000Y-107661500I0J-62500D01*
G01*
X146620000Y-108411500D01*
G75*
G02*
X146557500Y-108474000I-62500J0D01*
G01*
G37*
G36*
G01*
X147057500Y-108474000D02*
X146932500Y-108474000D01*
G75*
G02*
X146870000Y-108411500I0J62500D01*
G01*
X146870000Y-107661500D01*
G75*
G02*
X146932500Y-107599000I62500J0D01*
G01*
X147057500Y-107599000D01*
G75*
G02*
X147120000Y-107661500I0J-62500D01*
G01*
X147120000Y-108411500D01*
G75*
G02*
X147057500Y-108474000I-62500J0D01*
G01*
G37*
G36*
G01*
X148057500Y-108849000D02*
X147307500Y-108849000D01*
G75*
G02*
X147245000Y-108786500I0J62500D01*
G01*
X147245000Y-108661500D01*
G75*
G02*
X147307500Y-108599000I62500J0D01*
G01*
X148057500Y-108599000D01*
G75*
G02*
X148120000Y-108661500I0J-62500D01*
G01*
X148120000Y-108786500D01*
G75*
G02*
X148057500Y-108849000I-62500J0D01*
G01*
G37*
G36*
G01*
X148057500Y-109349000D02*
X147307500Y-109349000D01*
G75*
G02*
X147245000Y-109286500I0J62500D01*
G01*
X147245000Y-109161500D01*
G75*
G02*
X147307500Y-109099000I62500J0D01*
G01*
X148057500Y-109099000D01*
G75*
G02*
X148120000Y-109161500I0J-62500D01*
G01*
X148120000Y-109286500D01*
G75*
G02*
X148057500Y-109349000I-62500J0D01*
G01*
G37*
G36*
G01*
X148057500Y-109849000D02*
X147307500Y-109849000D01*
G75*
G02*
X147245000Y-109786500I0J62500D01*
G01*
X147245000Y-109661500D01*
G75*
G02*
X147307500Y-109599000I62500J0D01*
G01*
X148057500Y-109599000D01*
G75*
G02*
X148120000Y-109661500I0J-62500D01*
G01*
X148120000Y-109786500D01*
G75*
G02*
X148057500Y-109849000I-62500J0D01*
G01*
G37*
G36*
G01*
X148057500Y-110349000D02*
X147307500Y-110349000D01*
G75*
G02*
X147245000Y-110286500I0J62500D01*
G01*
X147245000Y-110161500D01*
G75*
G02*
X147307500Y-110099000I62500J0D01*
G01*
X148057500Y-110099000D01*
G75*
G02*
X148120000Y-110161500I0J-62500D01*
G01*
X148120000Y-110286500D01*
G75*
G02*
X148057500Y-110349000I-62500J0D01*
G01*
G37*
G36*
G01*
X148057500Y-110849000D02*
X147307500Y-110849000D01*
G75*
G02*
X147245000Y-110786500I0J62500D01*
G01*
X147245000Y-110661500D01*
G75*
G02*
X147307500Y-110599000I62500J0D01*
G01*
X148057500Y-110599000D01*
G75*
G02*
X148120000Y-110661500I0J-62500D01*
G01*
X148120000Y-110786500D01*
G75*
G02*
X148057500Y-110849000I-62500J0D01*
G01*
G37*
G36*
G01*
X148057500Y-111349000D02*
X147307500Y-111349000D01*
G75*
G02*
X147245000Y-111286500I0J62500D01*
G01*
X147245000Y-111161500D01*
G75*
G02*
X147307500Y-111099000I62500J0D01*
G01*
X148057500Y-111099000D01*
G75*
G02*
X148120000Y-111161500I0J-62500D01*
G01*
X148120000Y-111286500D01*
G75*
G02*
X148057500Y-111349000I-62500J0D01*
G01*
G37*
G36*
G01*
X148057500Y-111849000D02*
X147307500Y-111849000D01*
G75*
G02*
X147245000Y-111786500I0J62500D01*
G01*
X147245000Y-111661500D01*
G75*
G02*
X147307500Y-111599000I62500J0D01*
G01*
X148057500Y-111599000D01*
G75*
G02*
X148120000Y-111661500I0J-62500D01*
G01*
X148120000Y-111786500D01*
G75*
G02*
X148057500Y-111849000I-62500J0D01*
G01*
G37*
G36*
G01*
X148057500Y-112349000D02*
X147307500Y-112349000D01*
G75*
G02*
X147245000Y-112286500I0J62500D01*
G01*
X147245000Y-112161500D01*
G75*
G02*
X147307500Y-112099000I62500J0D01*
G01*
X148057500Y-112099000D01*
G75*
G02*
X148120000Y-112161500I0J-62500D01*
G01*
X148120000Y-112286500D01*
G75*
G02*
X148057500Y-112349000I-62500J0D01*
G01*
G37*
G36*
G01*
X147057500Y-113349000D02*
X146932500Y-113349000D01*
G75*
G02*
X146870000Y-113286500I0J62500D01*
G01*
X146870000Y-112536500D01*
G75*
G02*
X146932500Y-112474000I62500J0D01*
G01*
X147057500Y-112474000D01*
G75*
G02*
X147120000Y-112536500I0J-62500D01*
G01*
X147120000Y-113286500D01*
G75*
G02*
X147057500Y-113349000I-62500J0D01*
G01*
G37*
G36*
G01*
X146557500Y-113349000D02*
X146432500Y-113349000D01*
G75*
G02*
X146370000Y-113286500I0J62500D01*
G01*
X146370000Y-112536500D01*
G75*
G02*
X146432500Y-112474000I62500J0D01*
G01*
X146557500Y-112474000D01*
G75*
G02*
X146620000Y-112536500I0J-62500D01*
G01*
X146620000Y-113286500D01*
G75*
G02*
X146557500Y-113349000I-62500J0D01*
G01*
G37*
G36*
G01*
X146057500Y-113349000D02*
X145932500Y-113349000D01*
G75*
G02*
X145870000Y-113286500I0J62500D01*
G01*
X145870000Y-112536500D01*
G75*
G02*
X145932500Y-112474000I62500J0D01*
G01*
X146057500Y-112474000D01*
G75*
G02*
X146120000Y-112536500I0J-62500D01*
G01*
X146120000Y-113286500D01*
G75*
G02*
X146057500Y-113349000I-62500J0D01*
G01*
G37*
G36*
G01*
X145557500Y-113349000D02*
X145432500Y-113349000D01*
G75*
G02*
X145370000Y-113286500I0J62500D01*
G01*
X145370000Y-112536500D01*
G75*
G02*
X145432500Y-112474000I62500J0D01*
G01*
X145557500Y-112474000D01*
G75*
G02*
X145620000Y-112536500I0J-62500D01*
G01*
X145620000Y-113286500D01*
G75*
G02*
X145557500Y-113349000I-62500J0D01*
G01*
G37*
G36*
G01*
X145057500Y-113349000D02*
X144932500Y-113349000D01*
G75*
G02*
X144870000Y-113286500I0J62500D01*
G01*
X144870000Y-112536500D01*
G75*
G02*
X144932500Y-112474000I62500J0D01*
G01*
X145057500Y-112474000D01*
G75*
G02*
X145120000Y-112536500I0J-62500D01*
G01*
X145120000Y-113286500D01*
G75*
G02*
X145057500Y-113349000I-62500J0D01*
G01*
G37*
G36*
G01*
X144557500Y-113349000D02*
X144432500Y-113349000D01*
G75*
G02*
X144370000Y-113286500I0J62500D01*
G01*
X144370000Y-112536500D01*
G75*
G02*
X144432500Y-112474000I62500J0D01*
G01*
X144557500Y-112474000D01*
G75*
G02*
X144620000Y-112536500I0J-62500D01*
G01*
X144620000Y-113286500D01*
G75*
G02*
X144557500Y-113349000I-62500J0D01*
G01*
G37*
G36*
G01*
X144057500Y-113349000D02*
X143932500Y-113349000D01*
G75*
G02*
X143870000Y-113286500I0J62500D01*
G01*
X143870000Y-112536500D01*
G75*
G02*
X143932500Y-112474000I62500J0D01*
G01*
X144057500Y-112474000D01*
G75*
G02*
X144120000Y-112536500I0J-62500D01*
G01*
X144120000Y-113286500D01*
G75*
G02*
X144057500Y-113349000I-62500J0D01*
G01*
G37*
G36*
G01*
X143557500Y-113349000D02*
X143432500Y-113349000D01*
G75*
G02*
X143370000Y-113286500I0J62500D01*
G01*
X143370000Y-112536500D01*
G75*
G02*
X143432500Y-112474000I62500J0D01*
G01*
X143557500Y-112474000D01*
G75*
G02*
X143620000Y-112536500I0J-62500D01*
G01*
X143620000Y-113286500D01*
G75*
G02*
X143557500Y-113349000I-62500J0D01*
G01*
G37*
D10*
X135571000Y-113685000D03*
X130371000Y-113685000D03*
G36*
G01*
X134430000Y-101482000D02*
X134430000Y-101182000D01*
G75*
G02*
X134580000Y-101032000I150000J0D01*
G01*
X136230000Y-101032000D01*
G75*
G02*
X136380000Y-101182000I0J-150000D01*
G01*
X136380000Y-101482000D01*
G75*
G02*
X136230000Y-101632000I-150000J0D01*
G01*
X134580000Y-101632000D01*
G75*
G02*
X134430000Y-101482000I0J150000D01*
G01*
G37*
G36*
G01*
X134430000Y-102752000D02*
X134430000Y-102452000D01*
G75*
G02*
X134580000Y-102302000I150000J0D01*
G01*
X136230000Y-102302000D01*
G75*
G02*
X136380000Y-102452000I0J-150000D01*
G01*
X136380000Y-102752000D01*
G75*
G02*
X136230000Y-102902000I-150000J0D01*
G01*
X134580000Y-102902000D01*
G75*
G02*
X134430000Y-102752000I0J150000D01*
G01*
G37*
G36*
G01*
X134430000Y-104022000D02*
X134430000Y-103722000D01*
G75*
G02*
X134580000Y-103572000I150000J0D01*
G01*
X136230000Y-103572000D01*
G75*
G02*
X136380000Y-103722000I0J-150000D01*
G01*
X136380000Y-104022000D01*
G75*
G02*
X136230000Y-104172000I-150000J0D01*
G01*
X134580000Y-104172000D01*
G75*
G02*
X134430000Y-104022000I0J150000D01*
G01*
G37*
G36*
G01*
X134430000Y-105292000D02*
X134430000Y-104992000D01*
G75*
G02*
X134580000Y-104842000I150000J0D01*
G01*
X136230000Y-104842000D01*
G75*
G02*
X136380000Y-104992000I0J-150000D01*
G01*
X136380000Y-105292000D01*
G75*
G02*
X136230000Y-105442000I-150000J0D01*
G01*
X134580000Y-105442000D01*
G75*
G02*
X134430000Y-105292000I0J150000D01*
G01*
G37*
G36*
G01*
X134430000Y-106562000D02*
X134430000Y-106262000D01*
G75*
G02*
X134580000Y-106112000I150000J0D01*
G01*
X136230000Y-106112000D01*
G75*
G02*
X136380000Y-106262000I0J-150000D01*
G01*
X136380000Y-106562000D01*
G75*
G02*
X136230000Y-106712000I-150000J0D01*
G01*
X134580000Y-106712000D01*
G75*
G02*
X134430000Y-106562000I0J150000D01*
G01*
G37*
G36*
G01*
X134430000Y-107832000D02*
X134430000Y-107532000D01*
G75*
G02*
X134580000Y-107382000I150000J0D01*
G01*
X136230000Y-107382000D01*
G75*
G02*
X136380000Y-107532000I0J-150000D01*
G01*
X136380000Y-107832000D01*
G75*
G02*
X136230000Y-107982000I-150000J0D01*
G01*
X134580000Y-107982000D01*
G75*
G02*
X134430000Y-107832000I0J150000D01*
G01*
G37*
G36*
G01*
X134430000Y-109102000D02*
X134430000Y-108802000D01*
G75*
G02*
X134580000Y-108652000I150000J0D01*
G01*
X136230000Y-108652000D01*
G75*
G02*
X136380000Y-108802000I0J-150000D01*
G01*
X136380000Y-109102000D01*
G75*
G02*
X136230000Y-109252000I-150000J0D01*
G01*
X134580000Y-109252000D01*
G75*
G02*
X134430000Y-109102000I0J150000D01*
G01*
G37*
G36*
G01*
X134430000Y-110372000D02*
X134430000Y-110072000D01*
G75*
G02*
X134580000Y-109922000I150000J0D01*
G01*
X136230000Y-109922000D01*
G75*
G02*
X136380000Y-110072000I0J-150000D01*
G01*
X136380000Y-110372000D01*
G75*
G02*
X136230000Y-110522000I-150000J0D01*
G01*
X134580000Y-110522000D01*
G75*
G02*
X134430000Y-110372000I0J150000D01*
G01*
G37*
G36*
G01*
X129480000Y-110372000D02*
X129480000Y-110072000D01*
G75*
G02*
X129630000Y-109922000I150000J0D01*
G01*
X131280000Y-109922000D01*
G75*
G02*
X131430000Y-110072000I0J-150000D01*
G01*
X131430000Y-110372000D01*
G75*
G02*
X131280000Y-110522000I-150000J0D01*
G01*
X129630000Y-110522000D01*
G75*
G02*
X129480000Y-110372000I0J150000D01*
G01*
G37*
G36*
G01*
X129480000Y-109102000D02*
X129480000Y-108802000D01*
G75*
G02*
X129630000Y-108652000I150000J0D01*
G01*
X131280000Y-108652000D01*
G75*
G02*
X131430000Y-108802000I0J-150000D01*
G01*
X131430000Y-109102000D01*
G75*
G02*
X131280000Y-109252000I-150000J0D01*
G01*
X129630000Y-109252000D01*
G75*
G02*
X129480000Y-109102000I0J150000D01*
G01*
G37*
G36*
G01*
X129480000Y-107832000D02*
X129480000Y-107532000D01*
G75*
G02*
X129630000Y-107382000I150000J0D01*
G01*
X131280000Y-107382000D01*
G75*
G02*
X131430000Y-107532000I0J-150000D01*
G01*
X131430000Y-107832000D01*
G75*
G02*
X131280000Y-107982000I-150000J0D01*
G01*
X129630000Y-107982000D01*
G75*
G02*
X129480000Y-107832000I0J150000D01*
G01*
G37*
G36*
G01*
X129480000Y-106562000D02*
X129480000Y-106262000D01*
G75*
G02*
X129630000Y-106112000I150000J0D01*
G01*
X131280000Y-106112000D01*
G75*
G02*
X131430000Y-106262000I0J-150000D01*
G01*
X131430000Y-106562000D01*
G75*
G02*
X131280000Y-106712000I-150000J0D01*
G01*
X129630000Y-106712000D01*
G75*
G02*
X129480000Y-106562000I0J150000D01*
G01*
G37*
G36*
G01*
X129480000Y-105292000D02*
X129480000Y-104992000D01*
G75*
G02*
X129630000Y-104842000I150000J0D01*
G01*
X131280000Y-104842000D01*
G75*
G02*
X131430000Y-104992000I0J-150000D01*
G01*
X131430000Y-105292000D01*
G75*
G02*
X131280000Y-105442000I-150000J0D01*
G01*
X129630000Y-105442000D01*
G75*
G02*
X129480000Y-105292000I0J150000D01*
G01*
G37*
G36*
G01*
X129480000Y-104022000D02*
X129480000Y-103722000D01*
G75*
G02*
X129630000Y-103572000I150000J0D01*
G01*
X131280000Y-103572000D01*
G75*
G02*
X131430000Y-103722000I0J-150000D01*
G01*
X131430000Y-104022000D01*
G75*
G02*
X131280000Y-104172000I-150000J0D01*
G01*
X129630000Y-104172000D01*
G75*
G02*
X129480000Y-104022000I0J150000D01*
G01*
G37*
G36*
G01*
X129480000Y-102752000D02*
X129480000Y-102452000D01*
G75*
G02*
X129630000Y-102302000I150000J0D01*
G01*
X131280000Y-102302000D01*
G75*
G02*
X131430000Y-102452000I0J-150000D01*
G01*
X131430000Y-102752000D01*
G75*
G02*
X131280000Y-102902000I-150000J0D01*
G01*
X129630000Y-102902000D01*
G75*
G02*
X129480000Y-102752000I0J150000D01*
G01*
G37*
G36*
G01*
X129480000Y-101482000D02*
X129480000Y-101182000D01*
G75*
G02*
X129630000Y-101032000I150000J0D01*
G01*
X131280000Y-101032000D01*
G75*
G02*
X131430000Y-101182000I0J-150000D01*
G01*
X131430000Y-101482000D01*
G75*
G02*
X131280000Y-101632000I-150000J0D01*
G01*
X129630000Y-101632000D01*
G75*
G02*
X129480000Y-101482000I0J150000D01*
G01*
G37*
G36*
G01*
X134895000Y-116456000D02*
X134895000Y-116796000D01*
G75*
G02*
X134755000Y-116936000I-140000J0D01*
G01*
X134475000Y-116936000D01*
G75*
G02*
X134335000Y-116796000I0J140000D01*
G01*
X134335000Y-116456000D01*
G75*
G02*
X134475000Y-116316000I140000J0D01*
G01*
X134755000Y-116316000D01*
G75*
G02*
X134895000Y-116456000I0J-140000D01*
G01*
G37*
G36*
G01*
X135855000Y-116456000D02*
X135855000Y-116796000D01*
G75*
G02*
X135715000Y-116936000I-140000J0D01*
G01*
X135435000Y-116936000D01*
G75*
G02*
X135295000Y-116796000I0J140000D01*
G01*
X135295000Y-116456000D01*
G75*
G02*
X135435000Y-116316000I140000J0D01*
G01*
X135715000Y-116316000D01*
G75*
G02*
X135855000Y-116456000I0J-140000D01*
G01*
G37*
G36*
G01*
X131078000Y-116781000D02*
X131078000Y-116441000D01*
G75*
G02*
X131218000Y-116301000I140000J0D01*
G01*
X131498000Y-116301000D01*
G75*
G02*
X131638000Y-116441000I0J-140000D01*
G01*
X131638000Y-116781000D01*
G75*
G02*
X131498000Y-116921000I-140000J0D01*
G01*
X131218000Y-116921000D01*
G75*
G02*
X131078000Y-116781000I0J140000D01*
G01*
G37*
G36*
G01*
X130118000Y-116781000D02*
X130118000Y-116441000D01*
G75*
G02*
X130258000Y-116301000I140000J0D01*
G01*
X130538000Y-116301000D01*
G75*
G02*
X130678000Y-116441000I0J-140000D01*
G01*
X130678000Y-116781000D01*
G75*
G02*
X130538000Y-116921000I-140000J0D01*
G01*
X130258000Y-116921000D01*
G75*
G02*
X130118000Y-116781000I0J140000D01*
G01*
G37*
D11*
X116720600Y-76235200D03*
X116720600Y-75589800D03*
X116720600Y-74939800D03*
X116720600Y-74289800D03*
X116720600Y-73639800D03*
G36*
G01*
X181681000Y-107476000D02*
X181681000Y-106976000D01*
G75*
G02*
X181906000Y-106751000I225000J0D01*
G01*
X182356000Y-106751000D01*
G75*
G02*
X182581000Y-106976000I0J-225000D01*
G01*
X182581000Y-107476000D01*
G75*
G02*
X182356000Y-107701000I-225000J0D01*
G01*
X181906000Y-107701000D01*
G75*
G02*
X181681000Y-107476000I0J225000D01*
G01*
G37*
G36*
G01*
X180131000Y-107476000D02*
X180131000Y-106976000D01*
G75*
G02*
X180356000Y-106751000I225000J0D01*
G01*
X180806000Y-106751000D01*
G75*
G02*
X181031000Y-106976000I0J-225000D01*
G01*
X181031000Y-107476000D01*
G75*
G02*
X180806000Y-107701000I-225000J0D01*
G01*
X180356000Y-107701000D01*
G75*
G02*
X180131000Y-107476000I0J225000D01*
G01*
G37*
G36*
G01*
X181666000Y-117907000D02*
X181666000Y-117407000D01*
G75*
G02*
X181891000Y-117182000I225000J0D01*
G01*
X182341000Y-117182000D01*
G75*
G02*
X182566000Y-117407000I0J-225000D01*
G01*
X182566000Y-117907000D01*
G75*
G02*
X182341000Y-118132000I-225000J0D01*
G01*
X181891000Y-118132000D01*
G75*
G02*
X181666000Y-117907000I0J225000D01*
G01*
G37*
G36*
G01*
X180116000Y-117907000D02*
X180116000Y-117407000D01*
G75*
G02*
X180341000Y-117182000I225000J0D01*
G01*
X180791000Y-117182000D01*
G75*
G02*
X181016000Y-117407000I0J-225000D01*
G01*
X181016000Y-117907000D01*
G75*
G02*
X180791000Y-118132000I-225000J0D01*
G01*
X180341000Y-118132000D01*
G75*
G02*
X180116000Y-117907000I0J225000D01*
G01*
G37*
D12*
X180327000Y-110204000D03*
X180327000Y-114804000D03*
X180327000Y-112504000D03*
D13*
X186627000Y-112504000D03*
G36*
G01*
X176499000Y-117954500D02*
X176499000Y-117609500D01*
G75*
G02*
X176646500Y-117462000I147500J0D01*
G01*
X176941500Y-117462000D01*
G75*
G02*
X177089000Y-117609500I0J-147500D01*
G01*
X177089000Y-117954500D01*
G75*
G02*
X176941500Y-118102000I-147500J0D01*
G01*
X176646500Y-118102000D01*
G75*
G02*
X176499000Y-117954500I0J147500D01*
G01*
G37*
G36*
G01*
X175529000Y-117954500D02*
X175529000Y-117609500D01*
G75*
G02*
X175676500Y-117462000I147500J0D01*
G01*
X175971500Y-117462000D01*
G75*
G02*
X176119000Y-117609500I0J-147500D01*
G01*
X176119000Y-117954500D01*
G75*
G02*
X175971500Y-118102000I-147500J0D01*
G01*
X175676500Y-118102000D01*
G75*
G02*
X175529000Y-117954500I0J147500D01*
G01*
G37*
G36*
G01*
X163480000Y-107774500D02*
X163480000Y-108119500D01*
G75*
G02*
X163332500Y-108267000I-147500J0D01*
G01*
X163037500Y-108267000D01*
G75*
G02*
X162890000Y-108119500I0J147500D01*
G01*
X162890000Y-107774500D01*
G75*
G02*
X163037500Y-107627000I147500J0D01*
G01*
X163332500Y-107627000D01*
G75*
G02*
X163480000Y-107774500I0J-147500D01*
G01*
G37*
G36*
G01*
X164450000Y-107774500D02*
X164450000Y-108119500D01*
G75*
G02*
X164302500Y-108267000I-147500J0D01*
G01*
X164007500Y-108267000D01*
G75*
G02*
X163860000Y-108119500I0J147500D01*
G01*
X163860000Y-107774500D01*
G75*
G02*
X164007500Y-107627000I147500J0D01*
G01*
X164302500Y-107627000D01*
G75*
G02*
X164450000Y-107774500I0J-147500D01*
G01*
G37*
G36*
G01*
X131390000Y-99390100D02*
X131390000Y-99735100D01*
G75*
G02*
X131242500Y-99882600I-147500J0D01*
G01*
X130947500Y-99882600D01*
G75*
G02*
X130800000Y-99735100I0J147500D01*
G01*
X130800000Y-99390100D01*
G75*
G02*
X130947500Y-99242600I147500J0D01*
G01*
X131242500Y-99242600D01*
G75*
G02*
X131390000Y-99390100I0J-147500D01*
G01*
G37*
G36*
G01*
X132360000Y-99390100D02*
X132360000Y-99735100D01*
G75*
G02*
X132212500Y-99882600I-147500J0D01*
G01*
X131917500Y-99882600D01*
G75*
G02*
X131770000Y-99735100I0J147500D01*
G01*
X131770000Y-99390100D01*
G75*
G02*
X131917500Y-99242600I147500J0D01*
G01*
X132212500Y-99242600D01*
G75*
G02*
X132360000Y-99390100I0J-147500D01*
G01*
G37*
G36*
G01*
X134246000Y-99735100D02*
X134246000Y-99390100D01*
G75*
G02*
X134393500Y-99242600I147500J0D01*
G01*
X134688500Y-99242600D01*
G75*
G02*
X134836000Y-99390100I0J-147500D01*
G01*
X134836000Y-99735100D01*
G75*
G02*
X134688500Y-99882600I-147500J0D01*
G01*
X134393500Y-99882600D01*
G75*
G02*
X134246000Y-99735100I0J147500D01*
G01*
G37*
G36*
G01*
X133276000Y-99735100D02*
X133276000Y-99390100D01*
G75*
G02*
X133423500Y-99242600I147500J0D01*
G01*
X133718500Y-99242600D01*
G75*
G02*
X133866000Y-99390100I0J-147500D01*
G01*
X133866000Y-99735100D01*
G75*
G02*
X133718500Y-99882600I-147500J0D01*
G01*
X133423500Y-99882600D01*
G75*
G02*
X133276000Y-99735100I0J147500D01*
G01*
G37*
G36*
G01*
X144172000Y-81010100D02*
X144172000Y-80665100D01*
G75*
G02*
X144319500Y-80517600I147500J0D01*
G01*
X144614500Y-80517600D01*
G75*
G02*
X144762000Y-80665100I0J-147500D01*
G01*
X144762000Y-81010100D01*
G75*
G02*
X144614500Y-81157600I-147500J0D01*
G01*
X144319500Y-81157600D01*
G75*
G02*
X144172000Y-81010100I0J147500D01*
G01*
G37*
G36*
G01*
X143202000Y-81010100D02*
X143202000Y-80665100D01*
G75*
G02*
X143349500Y-80517600I147500J0D01*
G01*
X143644500Y-80517600D01*
G75*
G02*
X143792000Y-80665100I0J-147500D01*
G01*
X143792000Y-81010100D01*
G75*
G02*
X143644500Y-81157600I-147500J0D01*
G01*
X143349500Y-81157600D01*
G75*
G02*
X143202000Y-81010100I0J147500D01*
G01*
G37*
G36*
G01*
X165898000Y-80350200D02*
X165898000Y-80695200D01*
G75*
G02*
X165750500Y-80842700I-147500J0D01*
G01*
X165455500Y-80842700D01*
G75*
G02*
X165308000Y-80695200I0J147500D01*
G01*
X165308000Y-80350200D01*
G75*
G02*
X165455500Y-80202700I147500J0D01*
G01*
X165750500Y-80202700D01*
G75*
G02*
X165898000Y-80350200I0J-147500D01*
G01*
G37*
G36*
G01*
X166868000Y-80350200D02*
X166868000Y-80695200D01*
G75*
G02*
X166720500Y-80842700I-147500J0D01*
G01*
X166425500Y-80842700D01*
G75*
G02*
X166278000Y-80695200I0J147500D01*
G01*
X166278000Y-80350200D01*
G75*
G02*
X166425500Y-80202700I147500J0D01*
G01*
X166720500Y-80202700D01*
G75*
G02*
X166868000Y-80350200I0J-147500D01*
G01*
G37*
G36*
G01*
X130215000Y-91129500D02*
X130215000Y-90784500D01*
G75*
G02*
X130362500Y-90637000I147500J0D01*
G01*
X130657500Y-90637000D01*
G75*
G02*
X130805000Y-90784500I0J-147500D01*
G01*
X130805000Y-91129500D01*
G75*
G02*
X130657500Y-91277000I-147500J0D01*
G01*
X130362500Y-91277000D01*
G75*
G02*
X130215000Y-91129500I0J147500D01*
G01*
G37*
G36*
G01*
X129245000Y-91129500D02*
X129245000Y-90784500D01*
G75*
G02*
X129392500Y-90637000I147500J0D01*
G01*
X129687500Y-90637000D01*
G75*
G02*
X129835000Y-90784500I0J-147500D01*
G01*
X129835000Y-91129500D01*
G75*
G02*
X129687500Y-91277000I-147500J0D01*
G01*
X129392500Y-91277000D01*
G75*
G02*
X129245000Y-91129500I0J147500D01*
G01*
G37*
G36*
G01*
X159537500Y-114344000D02*
X159882500Y-114344000D01*
G75*
G02*
X160030000Y-114491500I0J-147500D01*
G01*
X160030000Y-114786500D01*
G75*
G02*
X159882500Y-114934000I-147500J0D01*
G01*
X159537500Y-114934000D01*
G75*
G02*
X159390000Y-114786500I0J147500D01*
G01*
X159390000Y-114491500D01*
G75*
G02*
X159537500Y-114344000I147500J0D01*
G01*
G37*
G36*
G01*
X159537500Y-113374000D02*
X159882500Y-113374000D01*
G75*
G02*
X160030000Y-113521500I0J-147500D01*
G01*
X160030000Y-113816500D01*
G75*
G02*
X159882500Y-113964000I-147500J0D01*
G01*
X159537500Y-113964000D01*
G75*
G02*
X159390000Y-113816500I0J147500D01*
G01*
X159390000Y-113521500D01*
G75*
G02*
X159537500Y-113374000I147500J0D01*
G01*
G37*
D14*
X143686000Y-116716000D03*
X146986000Y-116716000D03*
X146986000Y-118716000D03*
X143686000Y-118716000D03*
G36*
G01*
X181210000Y-84507100D02*
X181210000Y-84307100D01*
G75*
G02*
X181310000Y-84207100I100000J0D01*
G01*
X182585000Y-84207100D01*
G75*
G02*
X182685000Y-84307100I0J-100000D01*
G01*
X182685000Y-84507100D01*
G75*
G02*
X182585000Y-84607100I-100000J0D01*
G01*
X181310000Y-84607100D01*
G75*
G02*
X181210000Y-84507100I0J100000D01*
G01*
G37*
G36*
G01*
X181210000Y-85157100D02*
X181210000Y-84957100D01*
G75*
G02*
X181310000Y-84857100I100000J0D01*
G01*
X182585000Y-84857100D01*
G75*
G02*
X182685000Y-84957100I0J-100000D01*
G01*
X182685000Y-85157100D01*
G75*
G02*
X182585000Y-85257100I-100000J0D01*
G01*
X181310000Y-85257100D01*
G75*
G02*
X181210000Y-85157100I0J100000D01*
G01*
G37*
G36*
G01*
X181210000Y-85807100D02*
X181210000Y-85607100D01*
G75*
G02*
X181310000Y-85507100I100000J0D01*
G01*
X182585000Y-85507100D01*
G75*
G02*
X182685000Y-85607100I0J-100000D01*
G01*
X182685000Y-85807100D01*
G75*
G02*
X182585000Y-85907100I-100000J0D01*
G01*
X181310000Y-85907100D01*
G75*
G02*
X181210000Y-85807100I0J100000D01*
G01*
G37*
G36*
G01*
X181210000Y-86457100D02*
X181210000Y-86257100D01*
G75*
G02*
X181310000Y-86157100I100000J0D01*
G01*
X182585000Y-86157100D01*
G75*
G02*
X182685000Y-86257100I0J-100000D01*
G01*
X182685000Y-86457100D01*
G75*
G02*
X182585000Y-86557100I-100000J0D01*
G01*
X181310000Y-86557100D01*
G75*
G02*
X181210000Y-86457100I0J100000D01*
G01*
G37*
G36*
G01*
X181210000Y-87107100D02*
X181210000Y-86907100D01*
G75*
G02*
X181310000Y-86807100I100000J0D01*
G01*
X182585000Y-86807100D01*
G75*
G02*
X182685000Y-86907100I0J-100000D01*
G01*
X182685000Y-87107100D01*
G75*
G02*
X182585000Y-87207100I-100000J0D01*
G01*
X181310000Y-87207100D01*
G75*
G02*
X181210000Y-87107100I0J100000D01*
G01*
G37*
G36*
G01*
X181210000Y-87757100D02*
X181210000Y-87557100D01*
G75*
G02*
X181310000Y-87457100I100000J0D01*
G01*
X182585000Y-87457100D01*
G75*
G02*
X182685000Y-87557100I0J-100000D01*
G01*
X182685000Y-87757100D01*
G75*
G02*
X182585000Y-87857100I-100000J0D01*
G01*
X181310000Y-87857100D01*
G75*
G02*
X181210000Y-87757100I0J100000D01*
G01*
G37*
G36*
G01*
X181210000Y-88407100D02*
X181210000Y-88207100D01*
G75*
G02*
X181310000Y-88107100I100000J0D01*
G01*
X182585000Y-88107100D01*
G75*
G02*
X182685000Y-88207100I0J-100000D01*
G01*
X182685000Y-88407100D01*
G75*
G02*
X182585000Y-88507100I-100000J0D01*
G01*
X181310000Y-88507100D01*
G75*
G02*
X181210000Y-88407100I0J100000D01*
G01*
G37*
G36*
G01*
X175485000Y-88407100D02*
X175485000Y-88207100D01*
G75*
G02*
X175585000Y-88107100I100000J0D01*
G01*
X176860000Y-88107100D01*
G75*
G02*
X176960000Y-88207100I0J-100000D01*
G01*
X176960000Y-88407100D01*
G75*
G02*
X176860000Y-88507100I-100000J0D01*
G01*
X175585000Y-88507100D01*
G75*
G02*
X175485000Y-88407100I0J100000D01*
G01*
G37*
G36*
G01*
X175485000Y-87757100D02*
X175485000Y-87557100D01*
G75*
G02*
X175585000Y-87457100I100000J0D01*
G01*
X176860000Y-87457100D01*
G75*
G02*
X176960000Y-87557100I0J-100000D01*
G01*
X176960000Y-87757100D01*
G75*
G02*
X176860000Y-87857100I-100000J0D01*
G01*
X175585000Y-87857100D01*
G75*
G02*
X175485000Y-87757100I0J100000D01*
G01*
G37*
G36*
G01*
X175485000Y-87107100D02*
X175485000Y-86907100D01*
G75*
G02*
X175585000Y-86807100I100000J0D01*
G01*
X176860000Y-86807100D01*
G75*
G02*
X176960000Y-86907100I0J-100000D01*
G01*
X176960000Y-87107100D01*
G75*
G02*
X176860000Y-87207100I-100000J0D01*
G01*
X175585000Y-87207100D01*
G75*
G02*
X175485000Y-87107100I0J100000D01*
G01*
G37*
G36*
G01*
X175485000Y-86457100D02*
X175485000Y-86257100D01*
G75*
G02*
X175585000Y-86157100I100000J0D01*
G01*
X176860000Y-86157100D01*
G75*
G02*
X176960000Y-86257100I0J-100000D01*
G01*
X176960000Y-86457100D01*
G75*
G02*
X176860000Y-86557100I-100000J0D01*
G01*
X175585000Y-86557100D01*
G75*
G02*
X175485000Y-86457100I0J100000D01*
G01*
G37*
G36*
G01*
X175485000Y-85807100D02*
X175485000Y-85607100D01*
G75*
G02*
X175585000Y-85507100I100000J0D01*
G01*
X176860000Y-85507100D01*
G75*
G02*
X176960000Y-85607100I0J-100000D01*
G01*
X176960000Y-85807100D01*
G75*
G02*
X176860000Y-85907100I-100000J0D01*
G01*
X175585000Y-85907100D01*
G75*
G02*
X175485000Y-85807100I0J100000D01*
G01*
G37*
G36*
G01*
X175485000Y-85157100D02*
X175485000Y-84957100D01*
G75*
G02*
X175585000Y-84857100I100000J0D01*
G01*
X176860000Y-84857100D01*
G75*
G02*
X176960000Y-84957100I0J-100000D01*
G01*
X176960000Y-85157100D01*
G75*
G02*
X176860000Y-85257100I-100000J0D01*
G01*
X175585000Y-85257100D01*
G75*
G02*
X175485000Y-85157100I0J100000D01*
G01*
G37*
G36*
G01*
X175485000Y-84507100D02*
X175485000Y-84307100D01*
G75*
G02*
X175585000Y-84207100I100000J0D01*
G01*
X176860000Y-84207100D01*
G75*
G02*
X176960000Y-84307100I0J-100000D01*
G01*
X176960000Y-84507100D01*
G75*
G02*
X176860000Y-84607100I-100000J0D01*
G01*
X175585000Y-84607100D01*
G75*
G02*
X175485000Y-84507100I0J100000D01*
G01*
G37*
G36*
G01*
X181120000Y-89755800D02*
X181120000Y-90100800D01*
G75*
G02*
X180972500Y-90248300I-147500J0D01*
G01*
X180677500Y-90248300D01*
G75*
G02*
X180530000Y-90100800I0J147500D01*
G01*
X180530000Y-89755800D01*
G75*
G02*
X180677500Y-89608300I147500J0D01*
G01*
X180972500Y-89608300D01*
G75*
G02*
X181120000Y-89755800I0J-147500D01*
G01*
G37*
G36*
G01*
X182090000Y-89755800D02*
X182090000Y-90100800D01*
G75*
G02*
X181942500Y-90248300I-147500J0D01*
G01*
X181647500Y-90248300D01*
G75*
G02*
X181500000Y-90100800I0J147500D01*
G01*
X181500000Y-89755800D01*
G75*
G02*
X181647500Y-89608300I147500J0D01*
G01*
X181942500Y-89608300D01*
G75*
G02*
X182090000Y-89755800I0J-147500D01*
G01*
G37*
G36*
G01*
X176871000Y-90990200D02*
X176871000Y-91335200D01*
G75*
G02*
X176723500Y-91482700I-147500J0D01*
G01*
X176428500Y-91482700D01*
G75*
G02*
X176281000Y-91335200I0J147500D01*
G01*
X176281000Y-90990200D01*
G75*
G02*
X176428500Y-90842700I147500J0D01*
G01*
X176723500Y-90842700D01*
G75*
G02*
X176871000Y-90990200I0J-147500D01*
G01*
G37*
G36*
G01*
X177841000Y-90990200D02*
X177841000Y-91335200D01*
G75*
G02*
X177693500Y-91482700I-147500J0D01*
G01*
X177398500Y-91482700D01*
G75*
G02*
X177251000Y-91335200I0J147500D01*
G01*
X177251000Y-90990200D01*
G75*
G02*
X177398500Y-90842700I147500J0D01*
G01*
X177693500Y-90842700D01*
G75*
G02*
X177841000Y-90990200I0J-147500D01*
G01*
G37*
G36*
G01*
X176848000Y-89766000D02*
X176848000Y-90111000D01*
G75*
G02*
X176700500Y-90258500I-147500J0D01*
G01*
X176405500Y-90258500D01*
G75*
G02*
X176258000Y-90111000I0J147500D01*
G01*
X176258000Y-89766000D01*
G75*
G02*
X176405500Y-89618500I147500J0D01*
G01*
X176700500Y-89618500D01*
G75*
G02*
X176848000Y-89766000I0J-147500D01*
G01*
G37*
G36*
G01*
X177818000Y-89766000D02*
X177818000Y-90111000D01*
G75*
G02*
X177670500Y-90258500I-147500J0D01*
G01*
X177375500Y-90258500D01*
G75*
G02*
X177228000Y-90111000I0J147500D01*
G01*
X177228000Y-89766000D01*
G75*
G02*
X177375500Y-89618500I147500J0D01*
G01*
X177670500Y-89618500D01*
G75*
G02*
X177818000Y-89766000I0J-147500D01*
G01*
G37*
G36*
G01*
X181133000Y-90997900D02*
X181133000Y-91342900D01*
G75*
G02*
X180985500Y-91490400I-147500J0D01*
G01*
X180690500Y-91490400D01*
G75*
G02*
X180543000Y-91342900I0J147500D01*
G01*
X180543000Y-90997900D01*
G75*
G02*
X180690500Y-90850400I147500J0D01*
G01*
X180985500Y-90850400D01*
G75*
G02*
X181133000Y-90997900I0J-147500D01*
G01*
G37*
G36*
G01*
X182103000Y-90997900D02*
X182103000Y-91342900D01*
G75*
G02*
X181955500Y-91490400I-147500J0D01*
G01*
X181660500Y-91490400D01*
G75*
G02*
X181513000Y-91342900I0J147500D01*
G01*
X181513000Y-90997900D01*
G75*
G02*
X181660500Y-90850400I147500J0D01*
G01*
X181955500Y-90850400D01*
G75*
G02*
X182103000Y-90997900I0J-147500D01*
G01*
G37*
G36*
G01*
X180949000Y-101670500D02*
X180949000Y-101325500D01*
G75*
G02*
X181096500Y-101178000I147500J0D01*
G01*
X181391500Y-101178000D01*
G75*
G02*
X181539000Y-101325500I0J-147500D01*
G01*
X181539000Y-101670500D01*
G75*
G02*
X181391500Y-101818000I-147500J0D01*
G01*
X181096500Y-101818000D01*
G75*
G02*
X180949000Y-101670500I0J147500D01*
G01*
G37*
G36*
G01*
X179979000Y-101670500D02*
X179979000Y-101325500D01*
G75*
G02*
X180126500Y-101178000I147500J0D01*
G01*
X180421500Y-101178000D01*
G75*
G02*
X180569000Y-101325500I0J-147500D01*
G01*
X180569000Y-101670500D01*
G75*
G02*
X180421500Y-101818000I-147500J0D01*
G01*
X180126500Y-101818000D01*
G75*
G02*
X179979000Y-101670500I0J147500D01*
G01*
G37*
G36*
G01*
X151386000Y-101623500D02*
X151386000Y-101968500D01*
G75*
G02*
X151238500Y-102116000I-147500J0D01*
G01*
X150943500Y-102116000D01*
G75*
G02*
X150796000Y-101968500I0J147500D01*
G01*
X150796000Y-101623500D01*
G75*
G02*
X150943500Y-101476000I147500J0D01*
G01*
X151238500Y-101476000D01*
G75*
G02*
X151386000Y-101623500I0J-147500D01*
G01*
G37*
G36*
G01*
X152356000Y-101623500D02*
X152356000Y-101968500D01*
G75*
G02*
X152208500Y-102116000I-147500J0D01*
G01*
X151913500Y-102116000D01*
G75*
G02*
X151766000Y-101968500I0J147500D01*
G01*
X151766000Y-101623500D01*
G75*
G02*
X151913500Y-101476000I147500J0D01*
G01*
X152208500Y-101476000D01*
G75*
G02*
X152356000Y-101623500I0J-147500D01*
G01*
G37*
G36*
G01*
X171373000Y-114415500D02*
X171373000Y-114070500D01*
G75*
G02*
X171520500Y-113923000I147500J0D01*
G01*
X171815500Y-113923000D01*
G75*
G02*
X171963000Y-114070500I0J-147500D01*
G01*
X171963000Y-114415500D01*
G75*
G02*
X171815500Y-114563000I-147500J0D01*
G01*
X171520500Y-114563000D01*
G75*
G02*
X171373000Y-114415500I0J147500D01*
G01*
G37*
G36*
G01*
X170403000Y-114415500D02*
X170403000Y-114070500D01*
G75*
G02*
X170550500Y-113923000I147500J0D01*
G01*
X170845500Y-113923000D01*
G75*
G02*
X170993000Y-114070500I0J-147500D01*
G01*
X170993000Y-114415500D01*
G75*
G02*
X170845500Y-114563000I-147500J0D01*
G01*
X170550500Y-114563000D01*
G75*
G02*
X170403000Y-114415500I0J147500D01*
G01*
G37*
D15*
X184117000Y-97086000D03*
X184117000Y-95986000D03*
X184117000Y-94886000D03*
X184117000Y-98186000D03*
X184117000Y-99286000D03*
X184117000Y-100386000D03*
X184117000Y-102586000D03*
X184117000Y-101486000D03*
X184117000Y-103686000D03*
D16*
X184617000Y-104836000D03*
D17*
X184617000Y-90236000D03*
D18*
X194217000Y-104836000D03*
X194217000Y-89336000D03*
D19*
X177246000Y-114246000D03*
X173746000Y-114246000D03*
G36*
G01*
X149331000Y-116545500D02*
X149331000Y-116890500D01*
G75*
G02*
X149183500Y-117038000I-147500J0D01*
G01*
X148888500Y-117038000D01*
G75*
G02*
X148741000Y-116890500I0J147500D01*
G01*
X148741000Y-116545500D01*
G75*
G02*
X148888500Y-116398000I147500J0D01*
G01*
X149183500Y-116398000D01*
G75*
G02*
X149331000Y-116545500I0J-147500D01*
G01*
G37*
G36*
G01*
X150301000Y-116545500D02*
X150301000Y-116890500D01*
G75*
G02*
X150153500Y-117038000I-147500J0D01*
G01*
X149858500Y-117038000D01*
G75*
G02*
X149711000Y-116890500I0J147500D01*
G01*
X149711000Y-116545500D01*
G75*
G02*
X149858500Y-116398000I147500J0D01*
G01*
X150153500Y-116398000D01*
G75*
G02*
X150301000Y-116545500I0J-147500D01*
G01*
G37*
G36*
G01*
X140862000Y-118892500D02*
X140862000Y-118547500D01*
G75*
G02*
X141009500Y-118400000I147500J0D01*
G01*
X141304500Y-118400000D01*
G75*
G02*
X141452000Y-118547500I0J-147500D01*
G01*
X141452000Y-118892500D01*
G75*
G02*
X141304500Y-119040000I-147500J0D01*
G01*
X141009500Y-119040000D01*
G75*
G02*
X140862000Y-118892500I0J147500D01*
G01*
G37*
G36*
G01*
X139892000Y-118892500D02*
X139892000Y-118547500D01*
G75*
G02*
X140039500Y-118400000I147500J0D01*
G01*
X140334500Y-118400000D01*
G75*
G02*
X140482000Y-118547500I0J-147500D01*
G01*
X140482000Y-118892500D01*
G75*
G02*
X140334500Y-119040000I-147500J0D01*
G01*
X140039500Y-119040000D01*
G75*
G02*
X139892000Y-118892500I0J147500D01*
G01*
G37*
G36*
G01*
X144624000Y-105622500D02*
X144624000Y-105277500D01*
G75*
G02*
X144771500Y-105130000I147500J0D01*
G01*
X145066500Y-105130000D01*
G75*
G02*
X145214000Y-105277500I0J-147500D01*
G01*
X145214000Y-105622500D01*
G75*
G02*
X145066500Y-105770000I-147500J0D01*
G01*
X144771500Y-105770000D01*
G75*
G02*
X144624000Y-105622500I0J147500D01*
G01*
G37*
G36*
G01*
X143654000Y-105622500D02*
X143654000Y-105277500D01*
G75*
G02*
X143801500Y-105130000I147500J0D01*
G01*
X144096500Y-105130000D01*
G75*
G02*
X144244000Y-105277500I0J-147500D01*
G01*
X144244000Y-105622500D01*
G75*
G02*
X144096500Y-105770000I-147500J0D01*
G01*
X143801500Y-105770000D01*
G75*
G02*
X143654000Y-105622500I0J147500D01*
G01*
G37*
G36*
G01*
X181653000Y-82879600D02*
X181653000Y-82534600D01*
G75*
G02*
X181800500Y-82387100I147500J0D01*
G01*
X182095500Y-82387100D01*
G75*
G02*
X182243000Y-82534600I0J-147500D01*
G01*
X182243000Y-82879600D01*
G75*
G02*
X182095500Y-83027100I-147500J0D01*
G01*
X181800500Y-83027100D01*
G75*
G02*
X181653000Y-82879600I0J147500D01*
G01*
G37*
G36*
G01*
X180683000Y-82879600D02*
X180683000Y-82534600D01*
G75*
G02*
X180830500Y-82387100I147500J0D01*
G01*
X181125500Y-82387100D01*
G75*
G02*
X181273000Y-82534600I0J-147500D01*
G01*
X181273000Y-82879600D01*
G75*
G02*
X181125500Y-83027100I-147500J0D01*
G01*
X180830500Y-83027100D01*
G75*
G02*
X180683000Y-82879600I0J147500D01*
G01*
G37*
G36*
G01*
X180944000Y-98368500D02*
X180944000Y-98023500D01*
G75*
G02*
X181091500Y-97876000I147500J0D01*
G01*
X181386500Y-97876000D01*
G75*
G02*
X181534000Y-98023500I0J-147500D01*
G01*
X181534000Y-98368500D01*
G75*
G02*
X181386500Y-98516000I-147500J0D01*
G01*
X181091500Y-98516000D01*
G75*
G02*
X180944000Y-98368500I0J147500D01*
G01*
G37*
G36*
G01*
X179974000Y-98368500D02*
X179974000Y-98023500D01*
G75*
G02*
X180121500Y-97876000I147500J0D01*
G01*
X180416500Y-97876000D01*
G75*
G02*
X180564000Y-98023500I0J-147500D01*
G01*
X180564000Y-98368500D01*
G75*
G02*
X180416500Y-98516000I-147500J0D01*
G01*
X180121500Y-98516000D01*
G75*
G02*
X179974000Y-98368500I0J147500D01*
G01*
G37*
G36*
G01*
X146233000Y-105277500D02*
X146233000Y-105622500D01*
G75*
G02*
X146085500Y-105770000I-147500J0D01*
G01*
X145790500Y-105770000D01*
G75*
G02*
X145643000Y-105622500I0J147500D01*
G01*
X145643000Y-105277500D01*
G75*
G02*
X145790500Y-105130000I147500J0D01*
G01*
X146085500Y-105130000D01*
G75*
G02*
X146233000Y-105277500I0J-147500D01*
G01*
G37*
G36*
G01*
X147203000Y-105277500D02*
X147203000Y-105622500D01*
G75*
G02*
X147055500Y-105770000I-147500J0D01*
G01*
X146760500Y-105770000D01*
G75*
G02*
X146613000Y-105622500I0J147500D01*
G01*
X146613000Y-105277500D01*
G75*
G02*
X146760500Y-105130000I147500J0D01*
G01*
X147055500Y-105130000D01*
G75*
G02*
X147203000Y-105277500I0J-147500D01*
G01*
G37*
D20*
X161824000Y-117724000D03*
X162474000Y-117724000D03*
X163124000Y-117724000D03*
X163774000Y-117724000D03*
X164424000Y-117724000D03*
X165074000Y-117724000D03*
X165724000Y-117724000D03*
X166374000Y-117724000D03*
X167024000Y-117724000D03*
X167674000Y-117724000D03*
X167674000Y-110524000D03*
X167024000Y-110524000D03*
X166374000Y-110524000D03*
X165724000Y-110524000D03*
X165074000Y-110524000D03*
X164424000Y-110524000D03*
X163774000Y-110524000D03*
X163124000Y-110524000D03*
X162474000Y-110524000D03*
X161824000Y-110524000D03*
G36*
G01*
X166286000Y-85006700D02*
X166286000Y-83831700D01*
G75*
G02*
X166436000Y-83681700I150000J0D01*
G01*
X166736000Y-83681700D01*
G75*
G02*
X166886000Y-83831700I0J-150000D01*
G01*
X166886000Y-85006700D01*
G75*
G02*
X166736000Y-85156700I-150000J0D01*
G01*
X166436000Y-85156700D01*
G75*
G02*
X166286000Y-85006700I0J150000D01*
G01*
G37*
G36*
G01*
X167556000Y-85006700D02*
X167556000Y-83831700D01*
G75*
G02*
X167706000Y-83681700I150000J0D01*
G01*
X168006000Y-83681700D01*
G75*
G02*
X168156000Y-83831700I0J-150000D01*
G01*
X168156000Y-85006700D01*
G75*
G02*
X168006000Y-85156700I-150000J0D01*
G01*
X167706000Y-85156700D01*
G75*
G02*
X167556000Y-85006700I0J150000D01*
G01*
G37*
G36*
G01*
X168826000Y-85006700D02*
X168826000Y-83831700D01*
G75*
G02*
X168976000Y-83681700I150000J0D01*
G01*
X169276000Y-83681700D01*
G75*
G02*
X169426000Y-83831700I0J-150000D01*
G01*
X169426000Y-85006700D01*
G75*
G02*
X169276000Y-85156700I-150000J0D01*
G01*
X168976000Y-85156700D01*
G75*
G02*
X168826000Y-85006700I0J150000D01*
G01*
G37*
G36*
G01*
X170141000Y-86326700D02*
X170141000Y-86026700D01*
G75*
G02*
X170291000Y-85876700I150000J0D01*
G01*
X171466000Y-85876700D01*
G75*
G02*
X171616000Y-86026700I0J-150000D01*
G01*
X171616000Y-86326700D01*
G75*
G02*
X171466000Y-86476700I-150000J0D01*
G01*
X170291000Y-86476700D01*
G75*
G02*
X170141000Y-86326700I0J150000D01*
G01*
G37*
G36*
G01*
X170141000Y-87596700D02*
X170141000Y-87296700D01*
G75*
G02*
X170291000Y-87146700I150000J0D01*
G01*
X171466000Y-87146700D01*
G75*
G02*
X171616000Y-87296700I0J-150000D01*
G01*
X171616000Y-87596700D01*
G75*
G02*
X171466000Y-87746700I-150000J0D01*
G01*
X170291000Y-87746700D01*
G75*
G02*
X170141000Y-87596700I0J150000D01*
G01*
G37*
G36*
G01*
X170141000Y-88866700D02*
X170141000Y-88566700D01*
G75*
G02*
X170291000Y-88416700I150000J0D01*
G01*
X171466000Y-88416700D01*
G75*
G02*
X171616000Y-88566700I0J-150000D01*
G01*
X171616000Y-88866700D01*
G75*
G02*
X171466000Y-89016700I-150000J0D01*
G01*
X170291000Y-89016700D01*
G75*
G02*
X170141000Y-88866700I0J150000D01*
G01*
G37*
G36*
G01*
X170141000Y-90136700D02*
X170141000Y-89836700D01*
G75*
G02*
X170291000Y-89686700I150000J0D01*
G01*
X171466000Y-89686700D01*
G75*
G02*
X171616000Y-89836700I0J-150000D01*
G01*
X171616000Y-90136700D01*
G75*
G02*
X171466000Y-90286700I-150000J0D01*
G01*
X170291000Y-90286700D01*
G75*
G02*
X170141000Y-90136700I0J150000D01*
G01*
G37*
G36*
G01*
X170141000Y-91406700D02*
X170141000Y-91106700D01*
G75*
G02*
X170291000Y-90956700I150000J0D01*
G01*
X171466000Y-90956700D01*
G75*
G02*
X171616000Y-91106700I0J-150000D01*
G01*
X171616000Y-91406700D01*
G75*
G02*
X171466000Y-91556700I-150000J0D01*
G01*
X170291000Y-91556700D01*
G75*
G02*
X170141000Y-91406700I0J150000D01*
G01*
G37*
G36*
G01*
X170141000Y-92676700D02*
X170141000Y-92376700D01*
G75*
G02*
X170291000Y-92226700I150000J0D01*
G01*
X171466000Y-92226700D01*
G75*
G02*
X171616000Y-92376700I0J-150000D01*
G01*
X171616000Y-92676700D01*
G75*
G02*
X171466000Y-92826700I-150000J0D01*
G01*
X170291000Y-92826700D01*
G75*
G02*
X170141000Y-92676700I0J150000D01*
G01*
G37*
G36*
G01*
X170141000Y-93946700D02*
X170141000Y-93646700D01*
G75*
G02*
X170291000Y-93496700I150000J0D01*
G01*
X171466000Y-93496700D01*
G75*
G02*
X171616000Y-93646700I0J-150000D01*
G01*
X171616000Y-93946700D01*
G75*
G02*
X171466000Y-94096700I-150000J0D01*
G01*
X170291000Y-94096700D01*
G75*
G02*
X170141000Y-93946700I0J150000D01*
G01*
G37*
G36*
G01*
X170141000Y-95216700D02*
X170141000Y-94916700D01*
G75*
G02*
X170291000Y-94766700I150000J0D01*
G01*
X171466000Y-94766700D01*
G75*
G02*
X171616000Y-94916700I0J-150000D01*
G01*
X171616000Y-95216700D01*
G75*
G02*
X171466000Y-95366700I-150000J0D01*
G01*
X170291000Y-95366700D01*
G75*
G02*
X170141000Y-95216700I0J150000D01*
G01*
G37*
G36*
G01*
X170141000Y-96486700D02*
X170141000Y-96186700D01*
G75*
G02*
X170291000Y-96036700I150000J0D01*
G01*
X171466000Y-96036700D01*
G75*
G02*
X171616000Y-96186700I0J-150000D01*
G01*
X171616000Y-96486700D01*
G75*
G02*
X171466000Y-96636700I-150000J0D01*
G01*
X170291000Y-96636700D01*
G75*
G02*
X170141000Y-96486700I0J150000D01*
G01*
G37*
G36*
G01*
X168826000Y-98681700D02*
X168826000Y-97506700D01*
G75*
G02*
X168976000Y-97356700I150000J0D01*
G01*
X169276000Y-97356700D01*
G75*
G02*
X169426000Y-97506700I0J-150000D01*
G01*
X169426000Y-98681700D01*
G75*
G02*
X169276000Y-98831700I-150000J0D01*
G01*
X168976000Y-98831700D01*
G75*
G02*
X168826000Y-98681700I0J150000D01*
G01*
G37*
G36*
G01*
X167556000Y-98681700D02*
X167556000Y-97506700D01*
G75*
G02*
X167706000Y-97356700I150000J0D01*
G01*
X168006000Y-97356700D01*
G75*
G02*
X168156000Y-97506700I0J-150000D01*
G01*
X168156000Y-98681700D01*
G75*
G02*
X168006000Y-98831700I-150000J0D01*
G01*
X167706000Y-98831700D01*
G75*
G02*
X167556000Y-98681700I0J150000D01*
G01*
G37*
G36*
G01*
X166286000Y-98681700D02*
X166286000Y-97506700D01*
G75*
G02*
X166436000Y-97356700I150000J0D01*
G01*
X166736000Y-97356700D01*
G75*
G02*
X166886000Y-97506700I0J-150000D01*
G01*
X166886000Y-98681700D01*
G75*
G02*
X166736000Y-98831700I-150000J0D01*
G01*
X166436000Y-98831700D01*
G75*
G02*
X166286000Y-98681700I0J150000D01*
G01*
G37*
G36*
G01*
X165016000Y-98681700D02*
X165016000Y-97506700D01*
G75*
G02*
X165166000Y-97356700I150000J0D01*
G01*
X165466000Y-97356700D01*
G75*
G02*
X165616000Y-97506700I0J-150000D01*
G01*
X165616000Y-98681700D01*
G75*
G02*
X165466000Y-98831700I-150000J0D01*
G01*
X165166000Y-98831700D01*
G75*
G02*
X165016000Y-98681700I0J150000D01*
G01*
G37*
G36*
G01*
X163746000Y-98681700D02*
X163746000Y-97506700D01*
G75*
G02*
X163896000Y-97356700I150000J0D01*
G01*
X164196000Y-97356700D01*
G75*
G02*
X164346000Y-97506700I0J-150000D01*
G01*
X164346000Y-98681700D01*
G75*
G02*
X164196000Y-98831700I-150000J0D01*
G01*
X163896000Y-98831700D01*
G75*
G02*
X163746000Y-98681700I0J150000D01*
G01*
G37*
G36*
G01*
X162476000Y-98681700D02*
X162476000Y-97506700D01*
G75*
G02*
X162626000Y-97356700I150000J0D01*
G01*
X162926000Y-97356700D01*
G75*
G02*
X163076000Y-97506700I0J-150000D01*
G01*
X163076000Y-98681700D01*
G75*
G02*
X162926000Y-98831700I-150000J0D01*
G01*
X162626000Y-98831700D01*
G75*
G02*
X162476000Y-98681700I0J150000D01*
G01*
G37*
G36*
G01*
X161206000Y-98681700D02*
X161206000Y-97506700D01*
G75*
G02*
X161356000Y-97356700I150000J0D01*
G01*
X161656000Y-97356700D01*
G75*
G02*
X161806000Y-97506700I0J-150000D01*
G01*
X161806000Y-98681700D01*
G75*
G02*
X161656000Y-98831700I-150000J0D01*
G01*
X161356000Y-98831700D01*
G75*
G02*
X161206000Y-98681700I0J150000D01*
G01*
G37*
G36*
G01*
X159016000Y-96486700D02*
X159016000Y-96186700D01*
G75*
G02*
X159166000Y-96036700I150000J0D01*
G01*
X160341000Y-96036700D01*
G75*
G02*
X160491000Y-96186700I0J-150000D01*
G01*
X160491000Y-96486700D01*
G75*
G02*
X160341000Y-96636700I-150000J0D01*
G01*
X159166000Y-96636700D01*
G75*
G02*
X159016000Y-96486700I0J150000D01*
G01*
G37*
G36*
G01*
X159016000Y-95216700D02*
X159016000Y-94916700D01*
G75*
G02*
X159166000Y-94766700I150000J0D01*
G01*
X160341000Y-94766700D01*
G75*
G02*
X160491000Y-94916700I0J-150000D01*
G01*
X160491000Y-95216700D01*
G75*
G02*
X160341000Y-95366700I-150000J0D01*
G01*
X159166000Y-95366700D01*
G75*
G02*
X159016000Y-95216700I0J150000D01*
G01*
G37*
G36*
G01*
X159016000Y-93946700D02*
X159016000Y-93646700D01*
G75*
G02*
X159166000Y-93496700I150000J0D01*
G01*
X160341000Y-93496700D01*
G75*
G02*
X160491000Y-93646700I0J-150000D01*
G01*
X160491000Y-93946700D01*
G75*
G02*
X160341000Y-94096700I-150000J0D01*
G01*
X159166000Y-94096700D01*
G75*
G02*
X159016000Y-93946700I0J150000D01*
G01*
G37*
G36*
G01*
X159016000Y-92676700D02*
X159016000Y-92376700D01*
G75*
G02*
X159166000Y-92226700I150000J0D01*
G01*
X160341000Y-92226700D01*
G75*
G02*
X160491000Y-92376700I0J-150000D01*
G01*
X160491000Y-92676700D01*
G75*
G02*
X160341000Y-92826700I-150000J0D01*
G01*
X159166000Y-92826700D01*
G75*
G02*
X159016000Y-92676700I0J150000D01*
G01*
G37*
G36*
G01*
X159016000Y-91406700D02*
X159016000Y-91106700D01*
G75*
G02*
X159166000Y-90956700I150000J0D01*
G01*
X160341000Y-90956700D01*
G75*
G02*
X160491000Y-91106700I0J-150000D01*
G01*
X160491000Y-91406700D01*
G75*
G02*
X160341000Y-91556700I-150000J0D01*
G01*
X159166000Y-91556700D01*
G75*
G02*
X159016000Y-91406700I0J150000D01*
G01*
G37*
G36*
G01*
X159016000Y-90136700D02*
X159016000Y-89836700D01*
G75*
G02*
X159166000Y-89686700I150000J0D01*
G01*
X160341000Y-89686700D01*
G75*
G02*
X160491000Y-89836700I0J-150000D01*
G01*
X160491000Y-90136700D01*
G75*
G02*
X160341000Y-90286700I-150000J0D01*
G01*
X159166000Y-90286700D01*
G75*
G02*
X159016000Y-90136700I0J150000D01*
G01*
G37*
G36*
G01*
X159016000Y-88866700D02*
X159016000Y-88566700D01*
G75*
G02*
X159166000Y-88416700I150000J0D01*
G01*
X160341000Y-88416700D01*
G75*
G02*
X160491000Y-88566700I0J-150000D01*
G01*
X160491000Y-88866700D01*
G75*
G02*
X160341000Y-89016700I-150000J0D01*
G01*
X159166000Y-89016700D01*
G75*
G02*
X159016000Y-88866700I0J150000D01*
G01*
G37*
G36*
G01*
X159016000Y-87596700D02*
X159016000Y-87296700D01*
G75*
G02*
X159166000Y-87146700I150000J0D01*
G01*
X160341000Y-87146700D01*
G75*
G02*
X160491000Y-87296700I0J-150000D01*
G01*
X160491000Y-87596700D01*
G75*
G02*
X160341000Y-87746700I-150000J0D01*
G01*
X159166000Y-87746700D01*
G75*
G02*
X159016000Y-87596700I0J150000D01*
G01*
G37*
G36*
G01*
X159016000Y-86326700D02*
X159016000Y-86026700D01*
G75*
G02*
X159166000Y-85876700I150000J0D01*
G01*
X160341000Y-85876700D01*
G75*
G02*
X160491000Y-86026700I0J-150000D01*
G01*
X160491000Y-86326700D01*
G75*
G02*
X160341000Y-86476700I-150000J0D01*
G01*
X159166000Y-86476700D01*
G75*
G02*
X159016000Y-86326700I0J150000D01*
G01*
G37*
G36*
G01*
X161206000Y-85006700D02*
X161206000Y-83831700D01*
G75*
G02*
X161356000Y-83681700I150000J0D01*
G01*
X161656000Y-83681700D01*
G75*
G02*
X161806000Y-83831700I0J-150000D01*
G01*
X161806000Y-85006700D01*
G75*
G02*
X161656000Y-85156700I-150000J0D01*
G01*
X161356000Y-85156700D01*
G75*
G02*
X161206000Y-85006700I0J150000D01*
G01*
G37*
G36*
G01*
X162476000Y-85006700D02*
X162476000Y-83831700D01*
G75*
G02*
X162626000Y-83681700I150000J0D01*
G01*
X162926000Y-83681700D01*
G75*
G02*
X163076000Y-83831700I0J-150000D01*
G01*
X163076000Y-85006700D01*
G75*
G02*
X162926000Y-85156700I-150000J0D01*
G01*
X162626000Y-85156700D01*
G75*
G02*
X162476000Y-85006700I0J150000D01*
G01*
G37*
G36*
G01*
X163746000Y-85006700D02*
X163746000Y-83831700D01*
G75*
G02*
X163896000Y-83681700I150000J0D01*
G01*
X164196000Y-83681700D01*
G75*
G02*
X164346000Y-83831700I0J-150000D01*
G01*
X164346000Y-85006700D01*
G75*
G02*
X164196000Y-85156700I-150000J0D01*
G01*
X163896000Y-85156700D01*
G75*
G02*
X163746000Y-85006700I0J150000D01*
G01*
G37*
G36*
G01*
X165016000Y-85006700D02*
X165016000Y-83831700D01*
G75*
G02*
X165166000Y-83681700I150000J0D01*
G01*
X165466000Y-83681700D01*
G75*
G02*
X165616000Y-83831700I0J-150000D01*
G01*
X165616000Y-85006700D01*
G75*
G02*
X165466000Y-85156700I-150000J0D01*
G01*
X165166000Y-85156700D01*
G75*
G02*
X165016000Y-85006700I0J150000D01*
G01*
G37*
D19*
X170548000Y-117762000D03*
X174048000Y-117762000D03*
D21*
X147549500Y-85094700D03*
X147549500Y-86364700D03*
X147549500Y-87634700D03*
X147549500Y-88904700D03*
X147549500Y-90174700D03*
X147549500Y-91444700D03*
X147549500Y-92714700D03*
D22*
X146037000Y-94227200D03*
X144767000Y-94227200D03*
X143497000Y-94227200D03*
X142227000Y-94227200D03*
X140957000Y-94227200D03*
X139687000Y-94227200D03*
X138417000Y-94227200D03*
D21*
X136904500Y-92714700D03*
X136904500Y-91444700D03*
X136904500Y-90174700D03*
X136904500Y-88904700D03*
X136904500Y-87634700D03*
X136904500Y-86364700D03*
X136904500Y-85094700D03*
D22*
X146037000Y-83582200D03*
X144767000Y-83582200D03*
X143497000Y-83582200D03*
X138417000Y-83582200D03*
X139687000Y-83582200D03*
X140957000Y-83582200D03*
X142227000Y-83582200D03*
M02*
