G04 #@! TF.GenerationSoftware,KiCad,Pcbnew,(5.1.8)-1*
G04 #@! TF.CreationDate,2021-04-15T18:07:30+02:00*
G04 #@! TF.ProjectId,ZX Dandanator Mini 2.1b,5a582044-616e-4646-916e-61746f72204d,rev?*
G04 #@! TF.SameCoordinates,Original*
G04 #@! TF.FileFunction,Soldermask,Bot*
G04 #@! TF.FilePolarity,Negative*
%FSLAX46Y46*%
G04 Gerber Fmt 4.6, Leading zero omitted, Abs format (unit mm)*
G04 Created by KiCad (PCBNEW (5.1.8)-1) date 2021-04-15 18:07:30*
%MOMM*%
%LPD*%
G01*
G04 APERTURE LIST*
%ADD10O,2.100000X2.100000*%
%ADD11O,1.400000X1.200000*%
%ADD12O,2.100000X1.300000*%
%ADD13C,3.600000*%
%ADD14C,2.398980*%
%ADD15C,5.401260*%
%ADD16O,2.398980X1.901140*%
%ADD17O,2.178000X5.480000*%
G04 APERTURE END LIST*
D10*
X152458000Y-83667200D03*
G36*
G01*
X153508000Y-85357200D02*
X153508000Y-87057200D01*
G75*
G02*
X153308000Y-87257200I-200000J0D01*
G01*
X151608000Y-87257200D01*
G75*
G02*
X151408000Y-87057200I0J200000D01*
G01*
X151408000Y-85357200D01*
G75*
G02*
X151608000Y-85157200I200000J0D01*
G01*
X153308000Y-85157200D01*
G75*
G02*
X153508000Y-85357200I0J-200000D01*
G01*
G37*
X114894000Y-119446000D03*
X114894000Y-116906000D03*
G36*
G01*
X113844000Y-115216000D02*
X113844000Y-113516000D01*
G75*
G02*
X114044000Y-113316000I200000J0D01*
G01*
X115744000Y-113316000D01*
G75*
G02*
X115944000Y-113516000I0J-200000D01*
G01*
X115944000Y-115216000D01*
G75*
G02*
X115744000Y-115416000I-200000J0D01*
G01*
X114044000Y-115416000D01*
G75*
G02*
X113844000Y-115216000I0J200000D01*
G01*
G37*
D11*
X116067000Y-77364800D03*
X116067000Y-72514800D03*
D12*
X113317000Y-78514800D03*
X113317000Y-71364800D03*
D13*
X191851000Y-119860000D03*
X116032000Y-125448000D03*
D10*
X148363000Y-99256000D03*
X148363000Y-101796000D03*
X145823000Y-99256000D03*
X145823000Y-101796000D03*
X143283000Y-99256000D03*
G36*
G01*
X144133000Y-102846000D02*
X142433000Y-102846000D01*
G75*
G02*
X142233000Y-102646000I0J200000D01*
G01*
X142233000Y-100946000D01*
G75*
G02*
X142433000Y-100746000I200000J0D01*
G01*
X144133000Y-100746000D01*
G75*
G02*
X144333000Y-100946000I0J-200000D01*
G01*
X144333000Y-102646000D01*
G75*
G02*
X144133000Y-102846000I-200000J0D01*
G01*
G37*
G36*
G01*
X189967000Y-77851001D02*
X189967000Y-70230999D01*
G75*
G02*
X190166999Y-70031000I199999J0D01*
G01*
X191945001Y-70031000D01*
G75*
G02*
X192145000Y-70230999I0J-199999D01*
G01*
X192145000Y-77851001D01*
G75*
G02*
X191945001Y-78051000I-199999J0D01*
G01*
X190166999Y-78051000D01*
G75*
G02*
X189967000Y-77851001I0J199999D01*
G01*
G37*
G36*
G01*
X187427000Y-77851001D02*
X187427000Y-70230999D01*
G75*
G02*
X187626999Y-70031000I199999J0D01*
G01*
X189405001Y-70031000D01*
G75*
G02*
X189605000Y-70230999I0J-199999D01*
G01*
X189605000Y-77851001D01*
G75*
G02*
X189405001Y-78051000I-199999J0D01*
G01*
X187626999Y-78051000D01*
G75*
G02*
X187427000Y-77851001I0J199999D01*
G01*
G37*
G36*
G01*
X184887000Y-77851001D02*
X184887000Y-70230999D01*
G75*
G02*
X185086999Y-70031000I199999J0D01*
G01*
X186865001Y-70031000D01*
G75*
G02*
X187065000Y-70230999I0J-199999D01*
G01*
X187065000Y-77851001D01*
G75*
G02*
X186865001Y-78051000I-199999J0D01*
G01*
X185086999Y-78051000D01*
G75*
G02*
X184887000Y-77851001I0J199999D01*
G01*
G37*
G36*
G01*
X182347000Y-77851001D02*
X182347000Y-70230999D01*
G75*
G02*
X182546999Y-70031000I199999J0D01*
G01*
X184325001Y-70031000D01*
G75*
G02*
X184525000Y-70230999I0J-199999D01*
G01*
X184525000Y-77851001D01*
G75*
G02*
X184325001Y-78051000I-199999J0D01*
G01*
X182546999Y-78051000D01*
G75*
G02*
X182347000Y-77851001I0J199999D01*
G01*
G37*
G36*
G01*
X179807000Y-77851001D02*
X179807000Y-70230999D01*
G75*
G02*
X180006999Y-70031000I199999J0D01*
G01*
X181785001Y-70031000D01*
G75*
G02*
X181985000Y-70230999I0J-199999D01*
G01*
X181985000Y-77851001D01*
G75*
G02*
X181785001Y-78051000I-199999J0D01*
G01*
X180006999Y-78051000D01*
G75*
G02*
X179807000Y-77851001I0J199999D01*
G01*
G37*
G36*
G01*
X177267000Y-77851001D02*
X177267000Y-70230999D01*
G75*
G02*
X177466999Y-70031000I199999J0D01*
G01*
X179245001Y-70031000D01*
G75*
G02*
X179445000Y-70230999I0J-199999D01*
G01*
X179445000Y-77851001D01*
G75*
G02*
X179245001Y-78051000I-199999J0D01*
G01*
X177466999Y-78051000D01*
G75*
G02*
X177267000Y-77851001I0J199999D01*
G01*
G37*
G36*
G01*
X174727000Y-77851001D02*
X174727000Y-70230999D01*
G75*
G02*
X174926999Y-70031000I199999J0D01*
G01*
X176705001Y-70031000D01*
G75*
G02*
X176905000Y-70230999I0J-199999D01*
G01*
X176905000Y-77851001D01*
G75*
G02*
X176705001Y-78051000I-199999J0D01*
G01*
X174926999Y-78051000D01*
G75*
G02*
X174727000Y-77851001I0J199999D01*
G01*
G37*
G36*
G01*
X172187000Y-77851001D02*
X172187000Y-70230999D01*
G75*
G02*
X172386999Y-70031000I199999J0D01*
G01*
X174165001Y-70031000D01*
G75*
G02*
X174365000Y-70230999I0J-199999D01*
G01*
X174365000Y-77851001D01*
G75*
G02*
X174165001Y-78051000I-199999J0D01*
G01*
X172386999Y-78051000D01*
G75*
G02*
X172187000Y-77851001I0J199999D01*
G01*
G37*
G36*
G01*
X169647000Y-77851001D02*
X169647000Y-70230999D01*
G75*
G02*
X169846999Y-70031000I199999J0D01*
G01*
X171625001Y-70031000D01*
G75*
G02*
X171825000Y-70230999I0J-199999D01*
G01*
X171825000Y-77851001D01*
G75*
G02*
X171625001Y-78051000I-199999J0D01*
G01*
X169846999Y-78051000D01*
G75*
G02*
X169647000Y-77851001I0J199999D01*
G01*
G37*
G36*
G01*
X167107000Y-77851001D02*
X167107000Y-70230999D01*
G75*
G02*
X167306999Y-70031000I199999J0D01*
G01*
X169085001Y-70031000D01*
G75*
G02*
X169285000Y-70230999I0J-199999D01*
G01*
X169285000Y-77851001D01*
G75*
G02*
X169085001Y-78051000I-199999J0D01*
G01*
X167306999Y-78051000D01*
G75*
G02*
X167107000Y-77851001I0J199999D01*
G01*
G37*
G36*
G01*
X164567000Y-77851001D02*
X164567000Y-70230999D01*
G75*
G02*
X164766999Y-70031000I199999J0D01*
G01*
X166545001Y-70031000D01*
G75*
G02*
X166745000Y-70230999I0J-199999D01*
G01*
X166745000Y-77851001D01*
G75*
G02*
X166545001Y-78051000I-199999J0D01*
G01*
X164766999Y-78051000D01*
G75*
G02*
X164567000Y-77851001I0J199999D01*
G01*
G37*
G36*
G01*
X162027000Y-77851001D02*
X162027000Y-70230999D01*
G75*
G02*
X162226999Y-70031000I199999J0D01*
G01*
X164005001Y-70031000D01*
G75*
G02*
X164205000Y-70230999I0J-199999D01*
G01*
X164205000Y-77851001D01*
G75*
G02*
X164005001Y-78051000I-199999J0D01*
G01*
X162226999Y-78051000D01*
G75*
G02*
X162027000Y-77851001I0J199999D01*
G01*
G37*
G36*
G01*
X159487000Y-77851001D02*
X159487000Y-70230999D01*
G75*
G02*
X159686999Y-70031000I199999J0D01*
G01*
X161465001Y-70031000D01*
G75*
G02*
X161665000Y-70230999I0J-199999D01*
G01*
X161665000Y-77851001D01*
G75*
G02*
X161465001Y-78051000I-199999J0D01*
G01*
X159686999Y-78051000D01*
G75*
G02*
X159487000Y-77851001I0J199999D01*
G01*
G37*
G36*
G01*
X156947000Y-77851001D02*
X156947000Y-70230999D01*
G75*
G02*
X157146999Y-70031000I199999J0D01*
G01*
X158925001Y-70031000D01*
G75*
G02*
X159125000Y-70230999I0J-199999D01*
G01*
X159125000Y-77851001D01*
G75*
G02*
X158925001Y-78051000I-199999J0D01*
G01*
X157146999Y-78051000D01*
G75*
G02*
X156947000Y-77851001I0J199999D01*
G01*
G37*
G36*
G01*
X154407000Y-77851001D02*
X154407000Y-70230999D01*
G75*
G02*
X154606999Y-70031000I199999J0D01*
G01*
X156385001Y-70031000D01*
G75*
G02*
X156585000Y-70230999I0J-199999D01*
G01*
X156585000Y-77851001D01*
G75*
G02*
X156385001Y-78051000I-199999J0D01*
G01*
X154606999Y-78051000D01*
G75*
G02*
X154407000Y-77851001I0J199999D01*
G01*
G37*
G36*
G01*
X151867000Y-77851001D02*
X151867000Y-70230999D01*
G75*
G02*
X152066999Y-70031000I199999J0D01*
G01*
X153845001Y-70031000D01*
G75*
G02*
X154045000Y-70230999I0J-199999D01*
G01*
X154045000Y-77851001D01*
G75*
G02*
X153845001Y-78051000I-199999J0D01*
G01*
X152066999Y-78051000D01*
G75*
G02*
X151867000Y-77851001I0J199999D01*
G01*
G37*
G36*
G01*
X149327000Y-77851001D02*
X149327000Y-70230999D01*
G75*
G02*
X149526999Y-70031000I199999J0D01*
G01*
X151305001Y-70031000D01*
G75*
G02*
X151505000Y-70230999I0J-199999D01*
G01*
X151505000Y-77851001D01*
G75*
G02*
X151305001Y-78051000I-199999J0D01*
G01*
X149526999Y-78051000D01*
G75*
G02*
X149327000Y-77851001I0J199999D01*
G01*
G37*
G36*
G01*
X146787000Y-77851001D02*
X146787000Y-70230999D01*
G75*
G02*
X146986999Y-70031000I199999J0D01*
G01*
X148765001Y-70031000D01*
G75*
G02*
X148965000Y-70230999I0J-199999D01*
G01*
X148965000Y-77851001D01*
G75*
G02*
X148765001Y-78051000I-199999J0D01*
G01*
X146986999Y-78051000D01*
G75*
G02*
X146787000Y-77851001I0J199999D01*
G01*
G37*
G36*
G01*
X144247000Y-77851001D02*
X144247000Y-70230999D01*
G75*
G02*
X144446999Y-70031000I199999J0D01*
G01*
X146225001Y-70031000D01*
G75*
G02*
X146425000Y-70230999I0J-199999D01*
G01*
X146425000Y-77851001D01*
G75*
G02*
X146225001Y-78051000I-199999J0D01*
G01*
X144446999Y-78051000D01*
G75*
G02*
X144247000Y-77851001I0J199999D01*
G01*
G37*
G36*
G01*
X141707000Y-77851001D02*
X141707000Y-70230999D01*
G75*
G02*
X141906999Y-70031000I199999J0D01*
G01*
X143685001Y-70031000D01*
G75*
G02*
X143885000Y-70230999I0J-199999D01*
G01*
X143885000Y-77851001D01*
G75*
G02*
X143685001Y-78051000I-199999J0D01*
G01*
X141906999Y-78051000D01*
G75*
G02*
X141707000Y-77851001I0J199999D01*
G01*
G37*
G36*
G01*
X139167000Y-77851001D02*
X139167000Y-70230999D01*
G75*
G02*
X139366999Y-70031000I199999J0D01*
G01*
X141145001Y-70031000D01*
G75*
G02*
X141345000Y-70230999I0J-199999D01*
G01*
X141345000Y-77851001D01*
G75*
G02*
X141145001Y-78051000I-199999J0D01*
G01*
X139366999Y-78051000D01*
G75*
G02*
X139167000Y-77851001I0J199999D01*
G01*
G37*
G36*
G01*
X136627000Y-77851001D02*
X136627000Y-70230999D01*
G75*
G02*
X136826999Y-70031000I199999J0D01*
G01*
X138605001Y-70031000D01*
G75*
G02*
X138805000Y-70230999I0J-199999D01*
G01*
X138805000Y-77851001D01*
G75*
G02*
X138605001Y-78051000I-199999J0D01*
G01*
X136826999Y-78051000D01*
G75*
G02*
X136627000Y-77851001I0J199999D01*
G01*
G37*
G36*
G01*
X134087000Y-77851001D02*
X134087000Y-70230999D01*
G75*
G02*
X134286999Y-70031000I199999J0D01*
G01*
X136065001Y-70031000D01*
G75*
G02*
X136265000Y-70230999I0J-199999D01*
G01*
X136265000Y-77851001D01*
G75*
G02*
X136065001Y-78051000I-199999J0D01*
G01*
X134286999Y-78051000D01*
G75*
G02*
X134087000Y-77851001I0J199999D01*
G01*
G37*
G36*
G01*
X129007000Y-77851001D02*
X129007000Y-70230999D01*
G75*
G02*
X129206999Y-70031000I199999J0D01*
G01*
X130985001Y-70031000D01*
G75*
G02*
X131185000Y-70230999I0J-199999D01*
G01*
X131185000Y-77851001D01*
G75*
G02*
X130985001Y-78051000I-199999J0D01*
G01*
X129206999Y-78051000D01*
G75*
G02*
X129007000Y-77851001I0J199999D01*
G01*
G37*
G36*
G01*
X126467000Y-77851001D02*
X126467000Y-70230999D01*
G75*
G02*
X126666999Y-70031000I199999J0D01*
G01*
X128445001Y-70031000D01*
G75*
G02*
X128645000Y-70230999I0J-199999D01*
G01*
X128645000Y-77851001D01*
G75*
G02*
X128445001Y-78051000I-199999J0D01*
G01*
X126666999Y-78051000D01*
G75*
G02*
X126467000Y-77851001I0J199999D01*
G01*
G37*
G36*
G01*
X123927000Y-77851001D02*
X123927000Y-70230999D01*
G75*
G02*
X124126999Y-70031000I199999J0D01*
G01*
X125905001Y-70031000D01*
G75*
G02*
X126105000Y-70230999I0J-199999D01*
G01*
X126105000Y-77851001D01*
G75*
G02*
X125905001Y-78051000I-199999J0D01*
G01*
X124126999Y-78051000D01*
G75*
G02*
X123927000Y-77851001I0J199999D01*
G01*
G37*
G36*
G01*
X121387000Y-77851001D02*
X121387000Y-70230999D01*
G75*
G02*
X121586999Y-70031000I199999J0D01*
G01*
X123365001Y-70031000D01*
G75*
G02*
X123565000Y-70230999I0J-199999D01*
G01*
X123565000Y-77851001D01*
G75*
G02*
X123365001Y-78051000I-199999J0D01*
G01*
X121586999Y-78051000D01*
G75*
G02*
X121387000Y-77851001I0J199999D01*
G01*
G37*
D14*
X186585560Y-86959000D03*
X191086440Y-80456600D03*
X191086440Y-86959000D03*
X186585560Y-80456600D03*
D15*
X118714000Y-83128740D03*
D16*
X117195080Y-99778440D03*
X117195080Y-97007300D03*
X117195080Y-94238700D03*
X117195080Y-91467560D03*
X120232920Y-90083260D03*
X120232920Y-92851860D03*
X120232920Y-101162740D03*
X120232920Y-98394140D03*
X120232920Y-95623000D03*
D15*
X118714000Y-108117260D03*
D17*
X190932000Y-127892000D03*
X188392000Y-127892000D03*
X185852000Y-127892000D03*
X183312000Y-127892000D03*
X180772000Y-127892000D03*
X178232000Y-127892000D03*
X175692000Y-127892000D03*
X173152000Y-127892000D03*
X170612000Y-127892000D03*
X168072000Y-127892000D03*
X165532000Y-127892000D03*
X162992000Y-127892000D03*
X160452000Y-127892000D03*
X157912000Y-127892000D03*
X155372000Y-127892000D03*
X152832000Y-127892000D03*
X150292000Y-127892000D03*
X147752000Y-127892000D03*
X145212000Y-127892000D03*
X142672000Y-127892000D03*
X140132000Y-127892000D03*
X137592000Y-127892000D03*
X135052000Y-127892000D03*
X129972000Y-127892000D03*
X127432000Y-127892000D03*
X124892000Y-127892000D03*
X122352000Y-127892000D03*
D14*
X128605560Y-87126200D03*
X133106440Y-80623800D03*
X133106440Y-87126200D03*
X128605560Y-80623800D03*
M02*
